<?xml version="1.0" standalone="no"?>
<!DOCTYPE svg PUBLIC "-//W3C//DTD SVG 1.1//EN" "http://www.w3.org/Graphics/SVG/1.1/DTD/svg11.dtd" >
<svg xmlns="http://www.w3.org/2000/svg" xmlns:xlink="http://www.w3.org/1999/xlink" version="1.1">
<metadata>
Created by FontForge 20201107 at Wed Oct 29 18:07:27 2025
 By 
(c) Copyright , FFDec v.24.0.1.
</metadata>
<defs>
<font id="NeueHaasGroteskDisplayPro75Bold" horiz-adv-x="1146" >
  <font-face 
    font-family="Neue Haas Grotesk Display Pro 75 Bold"
    font-weight="400"
    font-stretch="normal"
    units-per-em="2048"
    panose-1="0 0 0 0 0 0 0 0 0 0"
    ascent="1638"
    descent="-410"
    x-height="1046"
    cap-height="1464"
    bbox="-370 -540 2556 1914"
    underline-thickness="102"
    underline-position="-254"
    unicode-range="U+000D-215E"
  />
<missing-glyph horiz-adv-x="1024" 
d="M0 1366h876v-1366h-876v1366zM730 1220h-584v-1074h584v1074z" />
    <glyph glyph-name=".notdef" horiz-adv-x="1024" 
d="M0 1366h876v-1366h-876v1366zM730 1220h-584v-1074h584v1074z" />
    <glyph glyph-name="uni0000" horiz-adv-x="0" 
 />
    <glyph glyph-name="uni0000" horiz-adv-x="0" 
 />
    <glyph glyph-name="uni000D" unicode="&#xd;" horiz-adv-x="512" 
 />
    <glyph glyph-name="space" unicode=" " horiz-adv-x="318" 
 />
    <glyph glyph-name="exclam" unicode="!" horiz-adv-x="540" 
d="M184 478l-86 640v346h344v-346l-86 -640h-172zM96 0v344h348v-344h-348z" />
    <glyph glyph-name="quotedbl" unicode="&#x22;" horiz-adv-x="870" 
d="M498 912v552h288v-552h-288zM84 912v552h290v-552h-290z" />
    <glyph glyph-name="numbersign" unicode="#" horiz-adv-x="1228" 
d="M240 354h-190q7 43 22 129t22 129h190l32 204h-190q7 43 22 129t22 129h188l56 330h214l-56 -330h210l56 330h214l-56 -330h192q-7 -43 -22 -129t-22 -129h-192l-32 -204h188l-42 -258h-188l-58 -354h-214l58 354h-210l-58 -354h-214zM708 612l32 204h-212l-32 -204h212z
" />
    <glyph glyph-name="dollar" unicode="$" horiz-adv-x="1276" 
d="M576 -28q-258 18 -398 140q-141 120 -144 340h340q21 -181 202 -208v330q-80 21 -196 58q-87 25 -160 76q-69 48 -108 120q-40 77 -40 190q0 101 38 174q40 77 106 126q75 55 160 80q97 28 200 34v124h124v-128q212 -15 344 -122q131 -110 140 -314h-322q-9 74 -50 118
q-42 39 -112 54v-298q128 -30 212 -62q91 -31 162 -86q69 -51 104 -124q36 -75 36 -178q0 -107 -38 -186q-40 -80 -108 -136q-66 -54 -164 -86q-90 -32 -204 -38v-182h-124v184zM700 244q67 8 122 44q50 35 50 100q0 64 -42 94q-44 32 -130 56v-294zM576 1168
q-82 -9 -124 -42q-44 -32 -44 -88q0 -58 40 -86q37 -26 128 -54v270z" />
    <glyph glyph-name="percent" unicode="%" horiz-adv-x="1778" 
d="M606 0h-190l756 1404h192zM1096 76q-54 57 -80 130q-28 78 -28 170q0 90 28 168q26 73 80 130q52 55 118 84q72 28 148 28q82 0 154 -28q69 -30 118 -82q50 -53 78 -130q28 -78 28 -170t-28 -170q-28 -77 -78 -130q-52 -56 -120 -82q-69 -30 -152 -30q-79 0 -148 30
q-64 25 -118 82zM148 724q-50 53 -78 130q-28 78 -28 168q0 92 28 170q29 81 76 128q51 54 120 84t150 30q83 0 152 -30q71 -31 118 -84q50 -50 78 -128t28 -170q0 -90 -28 -168q-28 -77 -78 -130q-51 -54 -120 -84q-72 -28 -150 -28q-76 0 -148 28q-69 30 -120 84z
M1270 208q27 -66 94 -66t94 66q30 63 30 168q0 101 -30 170q-30 66 -94 66q-67 0 -94 -66q-28 -68 -28 -170q0 -103 28 -168zM322 854q27 -64 94 -64t94 64q30 63 30 168q0 104 -30 170q-27 68 -94 68t-94 -68q-28 -68 -28 -170q0 -100 28 -168z" />
    <glyph glyph-name="ampersand" unicode="&#x26;" horiz-adv-x="1428" 
d="M566 -26q-125 0 -224 34q-97 32 -164 90q-66 63 -98 138q-34 77 -34 168q0 86 26 150q25 70 68 118q42 51 102 90q63 41 128 72q-56 65 -84 130q-30 66 -30 152q0 77 30 140q26 65 82 114q53 47 128 74q78 28 172 28q91 0 166 -24q75 -27 132 -72q50 -42 86 -110
q30 -63 30 -146q0 -65 -22 -122q-21 -51 -58 -94q-39 -46 -86 -76q-41 -26 -104 -58q29 -37 88 -111t88 -111q12 30 32 90q9 28 22 94h290q-9 -104 -52 -212q-41 -109 -108 -206l252 -314h-408l-72 92q-79 -51 -178 -86q-93 -32 -200 -32zM580 244q106 0 198 62l-248 322
q-74 -44 -108 -100q-30 -51 -30 -114q0 -78 52 -124q55 -46 136 -46zM668 942q64 37 90 80t26 96q0 47 -30 80q-29 32 -78 32q-51 0 -80 -32q-30 -33 -30 -80q0 -49 30 -94q26 -40 72 -82z" />
    <glyph glyph-name="quotesingle" unicode="'" horiz-adv-x="456" 
d="M84 912v552h290v-552h-290z" />
    <glyph glyph-name="parenleft" unicode="(" horiz-adv-x="698" 
d="M384 -284q-58 86 -102 178q-50 103 -84 208q-39 110 -60 238q-20 117 -20 264q0 153 20 282q20 130 58 256q37 123 84 220q46 99 102 182h282q-89 -169 -154 -408q-64 -235 -64 -532q0 -147 20 -264q18 -123 48 -234q37 -124 70 -208q25 -64 80 -182h-280z" />
    <glyph glyph-name="parenright" unicode=")" horiz-adv-x="698" 
d="M36 -284q43 89 84 196q37 96 68 218q30 117 48 246q16 138 16 274q0 134 -16 272q-19 131 -50 236q-33 123 -68 206q-35 85 -82 180h282q55 -85 100 -174q48 -96 84 -210q35 -100 58 -240q22 -135 22 -270t-22 -276q-22 -139 -56 -252q-37 -120 -84 -220
q-50 -109 -104 -186h-280z" />
    <glyph glyph-name="asterisk" unicode="*" horiz-adv-x="904" 
d="M152 834l152 200l-240 80l66 170l226 -80v260h194v-260l226 80l66 -170l-240 -80l152 -200l-148 -112q-50 70 -150 214l-152 -214z" />
    <glyph glyph-name="plus" unicode="+" horiz-adv-x="1160" 
d="M436 540h-354v268h354v378h288v-378h354v-268h-354v-378h-288v378z" />
    <glyph glyph-name="comma" unicode="," horiz-adv-x="482" 
d="M70 -368v142q75 21 116 80q44 56 44 146h-164v344h350v-318q0 -98 -24 -164q-23 -67 -72 -116q-50 -54 -112 -80q-68 -31 -138 -34z" />
    <glyph glyph-name="hyphen" unicode="-" horiz-adv-x="686" 
d="M66 370v286h558v-286h-558z" />
    <glyph glyph-name="period" unicode="." horiz-adv-x="482" 
d="M66 0v344h350v-344h-350z" />
    <glyph glyph-name="slash" unicode="/" horiz-adv-x="894" 
d="M572 1464h286l-546 -1464h-286z" />
    <glyph glyph-name="zero" unicode="0" horiz-adv-x="1338" 
d="M668 -34q-137 0 -250 52q-114 54 -196 148q-85 101 -128 230q-44 132 -44 304t44 304q43 129 128 230q83 96 196 146q111 54 252 54q142 0 256 -54q113 -50 196 -146q78 -93 124 -230q44 -132 44 -304t-44 -304q-43 -129 -128 -230q-82 -94 -196 -148q-116 -52 -254 -52z
M670 238q73 0 122 32q48 31 82 96q30 55 46 144q14 81 14 190q0 107 -14 188q-15 82 -48 146q-34 65 -82 96q-53 34 -120 34q-73 0 -122 -32q-48 -31 -82 -96q-31 -58 -46 -148q-16 -93 -16 -188t16 -188q16 -88 46 -146q34 -65 82 -96q49 -32 122 -32z" />
    <glyph glyph-name="one" unicode="1" horiz-adv-x="832" 
d="M354 896h-300v234q142 3 244 72q100 68 128 212h274v-1414h-346v896z" />
    <glyph glyph-name="two" unicode="2" horiz-adv-x="1190" 
d="M46 0q3 97 22 158q18 67 52 130q38 65 76 106q44 50 98 92q108 91 206 160q107 72 194 150q40 35 68 80q24 39 24 94q0 80 -46 132q-44 50 -136 50q-100 0 -150 -62q-30 -33 -46 -86q-15 -51 -18 -122h-324q0 119 22 204q26 87 74 152q58 85 172 140q111 54 278 54
q127 0 226 -36q96 -33 162 -96q68 -65 100 -144q34 -83 34 -174q0 -78 -20 -132q-19 -62 -50 -106q-33 -48 -76 -88q-44 -40 -88 -76q-64 -52 -98 -76q-90 -64 -100 -70q-64 -48 -94 -72q-40 -32 -84 -76v-2h612v-284h-1090z" />
    <glyph glyph-name="three" unicode="3" horiz-adv-x="1226" 
d="M628 -34q-149 0 -260 36q-106 32 -184 100q-154 139 -154 382h324q6 -113 66 -182q60 -72 192 -72q107 0 164 54q56 53 56 142q0 94 -62 138q-61 46 -178 46h-84v240h76q98 0 158 42t60 122q0 69 -48 114q-47 44 -138 44q-113 0 -164 -60q-52 -65 -58 -154h-322
q3 110 40 192q34 82 106 148q71 65 170 98q102 36 234 36q112 0 212 -28q93 -27 162 -78q71 -52 108 -124q38 -73 38 -166q0 -107 -60 -176q-58 -67 -154 -104v-4q117 -36 186 -120q68 -83 68 -224q0 -117 -44 -196q-44 -82 -122 -138q-75 -52 -178 -80t-210 -28z" />
    <glyph glyph-name="four" unicode="4" horiz-adv-x="1270" 
d="M696 310h-652v318l648 788h340v-844h204v-262h-204v-310h-336v310zM696 572v482h-4l-388 -476v-6h392z" />
    <glyph glyph-name="five" unicode="5" horiz-adv-x="1234" 
d="M622 -34q-121 0 -226 30q-102 27 -180 84t-128 142q-48 84 -60 198h338q15 -89 84 -134q67 -44 162 -44q106 0 166 66q62 65 62 172q0 109 -64 170q-62 62 -166 62q-68 0 -120 -26q-55 -29 -80 -60h-324l144 776h870v-276h-622q-32 -168 -50 -250h4q39 33 108 60
q69 24 166 24q98 0 188 -34q89 -34 154 -96q64 -64 102 -152q38 -85 38 -200t-40 -210q-41 -91 -118 -162q-73 -67 -180 -104q-105 -36 -228 -36z" />
    <glyph glyph-name="six" unicode="6" horiz-adv-x="1266" 
d="M668 -34q-155 0 -270 56q-114 54 -192 150q-78 100 -116 228q-38 129 -38 290q-3 168 38 316q38 138 132 244q73 85 184 134q108 48 260 48q220 0 352 -102q132 -100 166 -274h-330q-14 50 -56 92q-41 38 -128 38q-130 0 -198 -92q-69 -93 -78 -264h4q55 58 132 98
q75 36 190 36q99 0 192 -36q91 -35 162 -100q72 -66 110 -156q42 -93 42 -206q0 -111 -42 -204t-116 -158q-76 -67 -176 -102q-105 -36 -224 -36zM656 224q55 0 98 20q43 17 76 50t50 76q18 45 18 94q0 51 -18 96q-20 50 -50 80q-36 36 -76 52q-45 18 -98 18
q-111 0 -178 -70q-66 -69 -66 -176q0 -104 68 -172t176 -68z" />
    <glyph glyph-name="seven" unicode="7" horiz-adv-x="1116" 
d="M230 0q6 190 54 358q45 162 118 310q70 136 154 252q81 111 156 186v4h-676v292h1038v-266q-91 -91 -178 -214q-82 -120 -152 -266q-68 -147 -106 -310q-42 -165 -48 -346h-360z" />
    <glyph glyph-name="eight" unicode="8" horiz-adv-x="1248" 
d="M628 -34q-135 0 -240 32q-109 31 -184 86q-78 57 -122 136q-42 81 -42 180q0 121 64 212q62 89 180 140v6q-188 90 -188 282q0 90 38 160q35 69 106 122q74 55 166 80q99 30 220 30q246 0 386 -104q140 -101 140 -282q0 -94 -50 -162q-50 -74 -134 -118v-6
q116 -45 180 -136q62 -92 62 -214q0 -105 -42 -186q-45 -81 -120 -138q-76 -58 -184 -88q-105 -32 -236 -32zM626 222q109 0 174 56q66 54 66 146t-64 150t-174 58q-111 0 -178 -58q-68 -56 -68 -150q0 -92 66 -146q65 -56 178 -56zM624 852q98 0 152 48q56 47 56 124
q0 78 -56 122q-54 48 -152 48q-100 0 -154 -48q-54 -45 -54 -122q0 -76 54 -124t154 -48z" />
    <glyph glyph-name="nine" unicode="9" horiz-adv-x="1264" 
d="M620 -34q-113 0 -206 28q-90 26 -160 78q-68 50 -110 122q-42 64 -58 154h328q15 -53 62 -94q46 -40 134 -40q122 0 184 80q72 87 78 278h-4q-53 -59 -128 -98q-73 -38 -184 -38q-104 0 -200 34q-91 35 -162 100q-72 66 -110 156q-40 95 -40 206t42 204q41 90 118 158
q74 65 178 102q105 36 226 36q132 0 240 -42q103 -37 182 -116q184 -178 184 -564q0 -161 -34 -306q-31 -134 -110 -238q-75 -99 -186 -150q-109 -50 -264 -50zM616 690q112 0 180 68q70 67 70 174q0 106 -68 174q-70 70 -182 70q-108 0 -178 -70q-66 -69 -66 -172
q0 -104 64 -174q67 -70 180 -70z" />
    <glyph glyph-name="colon" unicode=":" horiz-adv-x="494" 
d="M72 0v344h350v-344h-350zM72 634v344h350v-344h-350z" />
    <glyph glyph-name="semicolon" unicode=";" horiz-adv-x="494" 
d="M72 634v344h350v-344h-350zM76 -368v142q75 21 116 80q44 56 44 146h-164v344h350v-318q0 -98 -24 -164q-23 -67 -72 -116q-50 -54 -112 -80q-68 -31 -138 -34z" />
    <glyph glyph-name="less" unicode="&#x3c;" horiz-adv-x="1028" 
d="M88 480v304q141 59 422 177t422 177v-292q-126 -50 -374 -146l-194 -70v-4l68 -20q7 -2 29 -9.5t35 -10.5q38 -10 62 -20l374 -134v-306z" />
    <glyph glyph-name="equal" unicode="=" horiz-adv-x="1154" 
d="M104 286v260h960v-260h-960zM104 720v260h960v-260h-960z" />
    <glyph glyph-name="greater" unicode="&#x3e;" horiz-adv-x="1028" 
d="M96 422l376 144q18 8 62 24t62 22q30 8 70 22v4l-70 20q-30 13 -62 22q-11 3 -62 20l-376 136v302q141 -59 422 -177t422 -177v-304l-844 -354v296z" />
    <glyph glyph-name="question" unicode="?" horiz-adv-x="1132" 
d="M358 344h352v-344h-352v344zM392 478q0 85 8 130q10 55 26 90q14 34 44 64q38 38 62 58q28 28 70 56q39 24 68 50q29 23 50 56q20 31 20 78q0 73 -50 114q-52 40 -124 40q-94 0 -150 -56q-58 -58 -58 -154h-328q3 114 40 196q40 92 108 154q70 64 172 100t230 36
q115 0 208 -30q98 -34 162 -86q64 -55 104 -132q36 -78 36 -170q0 -73 -18 -124q-13 -48 -44 -92q-21 -31 -62 -64q-10 -7 -33 -25t-35 -27q-73 -43 -106 -66q-38 -24 -66 -56q-23 -25 -32 -60q-8 -27 -8 -80h-294z" />
    <glyph glyph-name="at" unicode="@" horiz-adv-x="1862" 
d="M916 -224q-180 0 -336 58q-158 58 -268 162q-114 108 -176 252q-64 149 -64 332q0 209 76 376t202 278q129 114 286 170q165 58 334 58q171 0 318 -50q154 -52 264 -148q112 -97 182 -240q66 -144 66 -330q0 -129 -30 -228q-31 -101 -86 -168q-57 -69 -132 -102
q-75 -36 -168 -36q-108 0 -188 40q-79 40 -112 126h-4q-45 -76 -112 -118q-69 -42 -160 -42q-155 0 -246 106q-90 108 -90 294q0 105 28 198q27 91 78 158q51 63 126 102q75 36 166 36q88 0 144 -38t84 -110h4l14 126h282l-66 -556q-9 -71 8 -108q18 -38 72 -38q33 0 66 18
q36 20 62 60q30 43 44 108q18 69 18 168q0 151 -48 262q-44 110 -130 186q-83 74 -200 110q-114 38 -256 38t-268 -48q-125 -46 -218 -136q-90 -87 -148 -222q-54 -129 -54 -298q0 -137 42 -254t122 -200q83 -86 200 -130q117 -48 274 -48q101 0 190 20q82 19 174 56
l66 -162q-107 -49 -206 -68q-106 -20 -226 -20zM896 386q81 0 130 76q50 74 50 192q0 77 -34 136q-33 54 -100 54q-37 0 -72 -22q-34 -22 -54 -56q-22 -40 -36 -86q-12 -51 -12 -106q0 -79 32 -134q30 -54 96 -54z" />
    <glyph glyph-name="A" unicode="A" horiz-adv-x="1428" 
d="M-2 0l526 1464h374l528 -1464h-382l-86 264h-512q-56 -176 -82 -264h-366zM530 524h346q-19 59 -56 177t-56 177q-16 48 -20 64q-3 11 -9 34t-9 34q-12 48 -18 74h-6l-20 -74q-3 -11 -9 -34t-9 -34q-4 -16 -20 -64z" />
    <glyph glyph-name="B" unicode="B" horiz-adv-x="1374" 
d="M100 1464h708q117 0 198 -26q79 -25 144 -74q126 -105 126 -282q0 -110 -52 -180q-52 -67 -152 -106v-6q120 -36 192 -132q70 -97 70 -226q0 -109 -40 -192q-38 -79 -110 -136q-131 -104 -360 -104h-724v1464zM782 290q91 0 142 48q52 46 52 124q0 88 -56 132t-142 44
h-318v-348h322zM754 884q78 0 128 38q48 39 48 110q0 68 -46 108q-47 38 -128 38h-296v-294h294z" />
    <glyph glyph-name="C" unicode="C" horiz-adv-x="1438" 
d="M1048 508h362q-9 -112 -54 -208q-43 -93 -122 -168q-89 -83 -200 -124q-114 -42 -270 -42q-160 0 -294 58q-132 56 -228 158q-98 104 -148 242q-52 141 -52 302q0 166 50 304q48 134 146 244q94 104 228 160q134 58 296 58q126 0 234 -34q104 -36 184 -94
q97 -73 150 -176q55 -108 70 -228h-364q-15 99 -86 164q-71 68 -190 68q-90 0 -156 -36q-63 -33 -108 -96q-43 -65 -64 -148q-22 -91 -22 -186q0 -100 24 -184q26 -83 72 -148q43 -58 110 -96q65 -34 146 -34q124 0 198 68q73 67 88 176z" />
    <glyph glyph-name="D" unicode="D" horiz-adv-x="1444" 
d="M100 0v1464h626q153 0 276 -54q123 -51 214 -148q90 -99 138 -234q50 -135 50 -306q0 -194 -66 -344q-66 -154 -188 -246q-92 -66 -198 -98q-114 -34 -250 -34h-602zM464 304h212q180 0 270 108t90 310q0 204 -92 320q-94 118 -264 118h-216v-856z" />
    <glyph glyph-name="E" unicode="E" horiz-adv-x="1286" 
d="M100 0v1464h1110v-300h-746v-262h640v-282h-640v-314h760v-306h-1124z" />
    <glyph glyph-name="F" unicode="F" horiz-adv-x="1232" 
d="M100 1464h1090v-306h-726v-296h608v-294h-608v-568h-364v1464z" />
    <glyph glyph-name="G" unicode="G" horiz-adv-x="1510" 
d="M824 520v266h610v-786h-254l-20 176h-4q-72 -113 -178 -162q-105 -48 -238 -48q-159 0 -282 54q-126 54 -218 152q-94 103 -146 246q-50 138 -50 308q0 178 56 322q57 147 160 250q94 94 218 144q121 50 284 50q143 0 254 -36q114 -37 194 -102t132 -160q52 -96 70 -210
h-352q-20 88 -92 150q-72 60 -194 60q-89 0 -158 -36q-70 -37 -114 -98q-43 -60 -68 -148q-22 -91 -22 -186q0 -102 26 -186q26 -83 72 -148q47 -62 116 -98q71 -34 154 -34q68 0 128 22q62 23 98 56t62 82q24 45 30 96v4h-274z" />
    <glyph glyph-name="H" unicode="H" horiz-adv-x="1440" 
d="M100 0v1464h364v-556h514v556h362v-1464h-362v610h-514v-610h-364z" />
    <glyph glyph-name="I" unicode="I" horiz-adv-x="566" 
d="M102 0v1464h364v-1464h-364z" />
    <glyph glyph-name="J" unicode="J" horiz-adv-x="1116" 
d="M28 440v128h328v-120q0 -94 42 -136q43 -40 118 -40q79 0 116 46q36 45 36 126v1020h362v-1028q0 -202 -104 -318q-61 -67 -160 -106q-102 -40 -226 -40q-127 0 -226 34q-98 34 -160 96q-64 64 -96 148q-30 87 -30 190z" />
    <glyph glyph-name="K" unicode="K" horiz-adv-x="1428" 
d="M100 0v1464h364v-530l504 530h430l-562 -588l594 -876h-422l-422 632l-122 -128v-504h-364z" />
    <glyph glyph-name="L" unicode="L" horiz-adv-x="1158" 
d="M100 0v1464h364v-1158h656v-306h-1020z" />
    <glyph glyph-name="M" unicode="M" horiz-adv-x="1708" 
d="M100 1464h488l178 -642q9 -33 24 -90q4 -15 13 -52.5t15 -57.5q3 -14 10 -40.5t12.5 -50t9.5 -43.5h4q20 92 32 134q16 72 26 110q15 57 24 90l180 642h492v-1464h-332v808q0 64 2 96l4 126h-4q-27 -112 -28 -118q-6 -30 -22 -90q-8 -41 -18 -64q-70 -254 -210 -758h-300
l-208 756q-14 49 -18 64q-14 54 -22 92q-4 16 -9 35t-10.5 43.5t-8.5 39.5h-4q0 -88 2 -126q1 -16 2 -48.5t2 -49.5v-806h-326v1464z" />
    <glyph glyph-name="N" unicode="N" horiz-adv-x="1454" 
d="M100 0v1464h366l434 -736q2 -4 10.5 -19.5t15.5 -26.5l32 -62q21 -36 42 -78h4q-2 34 -2 94q-2 26 -2 76v752h354v-1464h-364l-430 724l-7 10.5t-10.5 16.5t-10.5 19q-24 44 -34 68q-21 39 -42 84h-4q0 -70 2 -102v-80l2 -58v-682h-356z" />
    <glyph glyph-name="O" unicode="O" horiz-adv-x="1530" 
d="M238 182q-97 106 -146 242q-50 138 -50 304t50 304q48 134 146 244q96 105 226 160q133 56 300 56t300 -56q134 -56 228 -160q96 -104 146 -244q52 -144 52 -304t-52 -304q-51 -141 -146 -242q-94 -104 -228 -160q-137 -58 -300 -58t-300 58q-130 55 -226 160zM500 394
q43 -60 112 -98q66 -36 154 -36q87 0 156 36q66 36 110 98q49 68 68 148q20 83 20 186t-20 186t-68 150q-47 66 -110 100q-69 36 -156 36q-88 0 -154 -36t-112 -100q-43 -61 -68 -150q-22 -91 -22 -186t22 -186q24 -86 68 -148z" />
    <glyph glyph-name="P" unicode="P" horiz-adv-x="1336" 
d="M100 1464h660q135 0 234 -36q94 -31 166 -100q69 -60 110 -158q38 -91 38 -202q0 -105 -36 -192q-34 -89 -100 -152q-65 -65 -156 -100q-93 -36 -204 -36h-342v-488h-370v1464zM738 776q97 0 152 52q52 55 52 142q0 86 -52 138q-53 50 -152 50h-268v-382h268z" />
    <glyph glyph-name="Q" unicode="Q" horiz-adv-x="1526" 
d="M1132 56q-76 -44 -170 -68q-93 -24 -200 -24q-164 0 -298 58q-134 56 -228 160q-94 103 -144 242q-50 138 -50 304t50 304t144 244q94 104 228 160q130 56 298 56q167 0 300 -56q134 -56 228 -160q98 -110 146 -244q50 -138 50 -304q0 -158 -44 -284q-42 -130 -124 -230
l166 -156l-168 -178zM764 260q72 0 132 24q-46 42 -134 130l168 174q134 -128 136 -130q25 54 38 126q12 66 12 144q0 103 -20 186q-21 87 -66 150q-47 66 -110 100q-69 36 -156 36q-88 0 -154 -36q-63 -34 -110 -100q-43 -61 -68 -150q-22 -91 -22 -186t22 -186
q24 -86 68 -148t110 -98t154 -36z" />
    <glyph glyph-name="R" unicode="R" horiz-adv-x="1374" 
d="M100 0v1464h702q106 0 202 -28q89 -26 162 -80q69 -54 108 -132q40 -83 40 -182q0 -129 -64 -220q-63 -90 -190 -134v-6q95 -33 146 -96t66 -172q13 -80 16 -142q3 -64 6 -122q2 -44 14 -90q9 -36 26 -42v-18h-352q-13 8 -22 42q-9 33 -12 82q-8 63 -10 104
q-3 54 -12 112q-15 104 -70 156q-58 52 -174 52h-218v-548h-364zM464 816h272q108 0 162 48q54 45 54 130q0 80 -52 132t-156 52h-280v-362z" />
    <glyph glyph-name="S" unicode="S" horiz-adv-x="1332" 
d="M32 460h364q12 -109 84 -160q72 -48 202 -48q51 0 88 8q43 9 74 26q33 18 54 48q20 29 20 70q0 44 -22 72q-20 29 -62 50q-38 21 -100 36l-136 34q-64 14 -188 50q-93 30 -168 78q-75 51 -120 126q-46 77 -46 190t46 202q45 84 122 140q73 54 184 82q104 26 230 26
q113 0 222 -28t180 -82q81 -59 124 -140q46 -89 52 -200h-354q-12 85 -72 130q-64 46 -164 46q-98 0 -154 -38q-58 -40 -58 -100q0 -36 22 -64q19 -24 62 -44q49 -21 104 -34l144 -34q106 -25 196 -54q102 -36 164 -82q69 -49 116 -130q42 -78 42 -194q0 -112 -46 -204
q-45 -90 -126 -150q-78 -58 -190 -92q-108 -32 -238 -32q-148 0 -264 32q-123 34 -206 94q-84 63 -132 156q-47 91 -50 214z" />
    <glyph glyph-name="T" unicode="T" horiz-adv-x="1288" 
d="M462 0v1156h-426v308h1218v-308h-430v-1156h-362z" />
    <glyph glyph-name="U" unicode="U" horiz-adv-x="1404" 
d="M90 516v948h364v-960q0 -110 58 -174q57 -66 194 -66q127 0 186 68q60 69 60 178v954h364v-948q0 -253 -154 -398q-152 -146 -456 -146q-309 0 -462 144q-154 142 -154 400z" />
    <glyph glyph-name="V" unicode="V" horiz-adv-x="1334" 
d="M-4 1464h378l228 -768q16 -56 24 -86q19 -73 22 -84q7 -37 22 -88h4q15 51 22 88q15 48 22 84q8 30 24 86l228 768h366q-320 -976 -482 -1464h-374z" />
    <glyph glyph-name="W" unicode="W" horiz-adv-x="1926" 
d="M758 0h-356l-402 1464h368q87 -371 146 -614q13 -60 24 -116l22 -118q7 -51 22 -130h4q4 26 22 120l188 858h336l136 -624l24 -118q15 -63 24 -114q6 -42 22 -122h4q8 42 24 130q8 51 24 118q6 27 26 120l146 610h364l-402 -1464h-354q-50 234 -154 702q-10 47 -18 92
q-2 9 -7.5 41t-8.5 47l-16 92h-4q-12 -60 -18 -92q-7 -28 -14 -88q-8 -45 -18 -92q-50 -234 -154 -702z" />
    <glyph glyph-name="X" unicode="X" horiz-adv-x="1416" 
d="M492 768l-444 696h414l248 -426h4l252 426h392l-434 -692q81 -129 243 -386t243 -386h-428l-274 496h-6l-284 -496h-412z" />
    <glyph glyph-name="Y" unicode="Y" horiz-adv-x="1358" 
d="M498 0v540l-496 924h396l224 -456l30 -72q10 -26 30 -74h4q20 48 32 74q4 9 14.5 33.5t17.5 38.5l224 456h382l-496 -924v-540h-362z" />
    <glyph glyph-name="Z" unicode="Z" horiz-adv-x="1328" 
d="M54 0v288l632 758q16 16 26 28q6 8 18.5 22.5t13.5 15.5q12 14 40 42v6l-102 -4h-578v308h1142v-284l-614 -738l-34 -36q-2 -2 -38 -44l-48 -52v-6l64 2q36 0 54 2h642v-308h-1218z" />
    <glyph glyph-name="bracketleft" unicode="[" horiz-adv-x="816" 
d="M120 1544h628v-256h-314v-1316h314v-256h-628v1828z" />
    <glyph glyph-name="backslash" unicode="\" horiz-adv-x="894" 
d="M26 1464h286l546 -1464h-286z" />
    <glyph glyph-name="bracketright" unicode="]" horiz-adv-x="816" 
d="M70 -28h314v1316h-314v256h628v-1828h-628v256z" />
    <glyph glyph-name="asciicircum" unicode="^" horiz-adv-x="954" 
d="M354 1464h246l342 -594h-296l-168 308h-2l-174 -308h-290z" />
    <glyph glyph-name="underscore" unicode="_" horiz-adv-x="880" 
d="M-6 -140h894v-206h-894v206z" />
    <glyph glyph-name="grave" unicode="`" horiz-adv-x="1024" 
d="M420 1170l-248 304h386l116 -304h-254z" />
    <glyph glyph-name="a" unicode="a" horiz-adv-x="1108" 
d="M706 116h-6q-43 -64 -118 -104q-77 -40 -192 -40q-75 0 -144 22q-69 21 -114 60q-46 41 -74 102q-26 55 -26 136q0 87 30 144q34 62 88 96q58 40 128 60q71 21 154 30q148 18 208 42q58 21 58 74t-32 82q-32 32 -110 32q-80 0 -122 -36q-39 -33 -48 -100h-308
q3 78 34 140q29 65 88 114q56 50 146 78t208 28q123 0 200 -20q84 -22 140 -66q65 -46 100 -124q32 -73 32 -174v-528q0 -68 8 -100q6 -35 30 -50v-14h-324q-10 12 -20 46q-7 22 -14 70zM708 374v126q-33 -18 -78 -30q-40 -13 -94 -26q-96 -20 -140 -52q-44 -29 -44 -90
q0 -63 42 -90q38 -26 102 -26q94 0 152 52q60 51 60 136z" />
    <glyph glyph-name="b" unicode="b" horiz-adv-x="1200" 
d="M722 -34q-105 0 -186 42q-80 42 -132 124h-4v-132h-320v1464h334v-534h6q51 66 120 108q71 40 180 40q103 0 184 -42q87 -43 142 -116q58 -76 90 -176q32 -99 32 -220q0 -135 -32 -234q-32 -103 -90 -176q-55 -70 -142 -110q-79 -38 -182 -38zM628 230q100 0 150 80
q52 80 52 216q0 133 -52 216q-52 82 -154 82q-113 0 -166 -86q-54 -87 -54 -214q0 -131 60 -212q58 -82 164 -82z" />
    <glyph glyph-name="c" unicode="c" horiz-adv-x="1114" 
d="M768 396h320q-3 -88 -40 -168q-35 -79 -100 -138q-63 -57 -156 -90q-96 -34 -202 -34q-125 0 -230 42q-100 41 -174 118t-112 176q-40 102 -40 220q0 121 38 220q37 97 110 176q70 73 174 116q102 42 226 42q104 0 194 -28q87 -30 150 -84t102 -126q40 -78 52 -162h-322
q-15 72 -58 112q-42 42 -114 42q-107 0 -162 -82q-52 -83 -52 -226q0 -141 52 -224q55 -82 162 -82q161 0 182 180z" />
    <glyph glyph-name="d" unicode="d" horiz-adv-x="1204" 
d="M806 0v140h-4q-50 -84 -126 -128q-83 -46 -184 -46q-102 0 -184 38q-84 39 -146 110q-60 69 -94 176q-34 105 -34 234q0 118 34 226q34 106 94 174q60 72 144 114q86 40 186 40q109 0 178 -42q68 -41 114 -106h8v534h332v-1464h-318zM426 310q53 -80 152 -80
q104 0 162 82q60 81 60 212q0 69 -14 122q-15 57 -42 96q-29 42 -66 62q-41 22 -96 22q-98 0 -156 -82q-54 -84 -54 -216q0 -137 54 -218z" />
    <glyph glyph-name="e" unicode="e" 
d="M770 312h326q-14 -66 -62 -136q-48 -67 -114 -110q-67 -48 -146 -72q-78 -26 -182 -26q-129 0 -234 42q-102 41 -176 118q-73 79 -110 176q-38 102 -38 222q0 119 38 218q37 97 110 176q71 74 170 116t220 42q109 0 202 -34q87 -33 156 -96q96 -90 140 -218
q47 -138 44 -292h-754q18 -106 74 -168t162 -62q63 0 110 28q43 28 64 76zM364 636h412q-9 90 -62 150q-53 56 -136 56q-98 0 -148 -56q-51 -57 -66 -150z" />
    <glyph glyph-name="f" unicode="f" horiz-adv-x="714" 
d="M158 836h-134v212h134v76q0 158 86 244q69 66 188 84q122 21 256 6v-236q-45 3 -84 0q-34 -3 -60 -16q-26 -12 -38 -38q-14 -25 -14 -68v-52h196v-212h-196v-836h-334v836z" />
    <glyph glyph-name="g" unicode="g" horiz-adv-x="1172" 
d="M56 -26h324q16 -41 56 -70q44 -32 128 -32q105 0 154 52q46 52 46 150v104h-8q-45 -54 -110 -88t-158 -34q-87 0 -170 34q-88 36 -146 94q-60 60 -100 156q-38 91 -38 214q0 119 32 212q30 98 90 166q57 69 138 108q79 38 180 38q106 0 176 -38q71 -39 118 -104h4v112
h320v-946q0 -119 -38 -204q-39 -87 -102 -144q-69 -63 -168 -90q-103 -28 -216 -28q-215 0 -352 88q-136 88 -160 250zM416 376q57 -72 150 -72q108 0 160 76t52 186q0 54 -12 102q-16 47 -42 82q-24 33 -68 56q-37 20 -90 20q-92 0 -150 -70t-58 -192q0 -118 58 -188z" />
    <glyph glyph-name="h" unicode="h" horiz-adv-x="1168" 
d="M80 0v1464h334v-544h6q55 72 130 116q72 42 182 42q82 0 154 -28q64 -29 114 -82q48 -54 72 -126t24 -160v-682h-334v614q0 84 -40 136q-41 50 -124 50q-84 0 -134 -62q-50 -59 -50 -158v-580h-334z" />
    <glyph glyph-name="i" unicode="i" horiz-adv-x="494" 
d="M80 0v1048h334v-1048h-334zM80 1194v270h334v-270h-334z" />
    <glyph glyph-name="j" unicode="j" horiz-adv-x="494" 
d="M-96 -336v232q56 0 78 2q33 3 54 12t34 32q10 23 10 66v1040h334v-1056q0 -104 -22 -164q-22 -62 -58 -98q-47 -47 -106 -64q-60 -18 -136 -18l-96 4q-54 3 -92 12zM80 1194v270h334v-270h-334z" />
    <glyph glyph-name="k" unicode="k" 
d="M80 0v1464h330v-770l312 354h384l-368 -394l412 -654h-388l-252 428l-100 -106v-322h-330z" />
    <glyph glyph-name="l" unicode="l" horiz-adv-x="502" 
d="M82 0v1464h338v-1464h-338z" />
    <glyph glyph-name="m" unicode="m" horiz-adv-x="1780" 
d="M80 1048h320v-150h6q51 81 126 132q75 48 192 48q103 0 178 -48q79 -54 116 -136h4q62 94 144 140q82 44 186 44q84 0 156 -28q63 -25 112 -80q45 -54 66 -126q22 -79 22 -162v-682h-334v622q0 87 -36 132q-34 46 -110 46q-79 0 -124 -60q-42 -57 -42 -152v-588h-334v622
q0 87 -36 132q-37 46 -112 46q-77 0 -122 -60q-44 -56 -44 -152v-588h-334v1048z" />
    <glyph glyph-name="n" unicode="n" horiz-adv-x="1168" 
d="M80 0v1048h322v-144h6q57 83 136 130q76 44 188 44q82 0 154 -28q64 -29 114 -82q48 -54 72 -126t24 -160v-682h-334v614q0 84 -40 136q-41 50 -124 50q-84 0 -134 -62q-50 -59 -50 -158v-580h-334z" />
    <glyph glyph-name="o" unicode="o" horiz-adv-x="1186" 
d="M186 126q-74 77 -112 176q-40 102 -40 220q0 115 40 220q38 99 112 176q75 75 178 116q105 42 230 42q128 0 230 -42q105 -42 176 -116q76 -76 114 -176q40 -105 40 -220q0 -118 -40 -220q-38 -100 -114 -176q-74 -77 -176 -118q-102 -42 -230 -42q-125 0 -230 42
q-100 40 -178 118zM426 292q58 -88 166 -88q110 0 168 88q56 85 56 230q0 147 -56 232q-58 88 -168 88q-108 0 -166 -88q-54 -87 -54 -232q0 -143 54 -230z" />
    <glyph glyph-name="p" unicode="p" horiz-adv-x="1204" 
d="M80 1048h320v-126h6q54 69 132 114q75 42 186 42q105 0 186 -42q87 -43 142 -116q58 -76 90 -176q30 -102 30 -220q0 -131 -32 -230q-32 -101 -94 -176q-57 -72 -144 -112q-86 -40 -186 -40q-106 0 -176 38q-72 39 -122 104h-4v-454h-334v1394zM630 224q95 0 150 76
q54 75 54 212q0 133 -52 216q-52 82 -158 82q-54 0 -98 -22q-40 -22 -68 -62q-28 -41 -40 -96q-14 -53 -14 -118q0 -129 58 -208q56 -80 168 -80z" />
    <glyph glyph-name="q" unicode="q" horiz-adv-x="1204" 
d="M794 110h-8q-45 -65 -116 -104q-74 -40 -174 -40q-96 0 -182 40q-87 40 -144 112q-62 75 -94 176q-34 105 -34 230q0 118 30 220q30 100 90 176q59 73 144 116q87 42 196 42q101 0 176 -42q75 -44 124 -122h6v134h316v-1394h-330v456zM586 230q101 0 158 78q60 78 60 208
q0 68 -14 118q-16 62 -40 96q-27 40 -70 64q-41 22 -94 22q-106 0 -158 -82q-48 -84 -48 -218q0 -135 54 -210q55 -76 152 -76z" />
    <glyph glyph-name="r" unicode="r" horiz-adv-x="784" 
d="M80 0v1048h320v-164h6q58 94 122 138q69 42 164 42q50 0 66 -8v-286h-8q-156 21 -244 -52q-92 -74 -92 -248v-470h-334z" />
    <glyph glyph-name="s" unicode="s" horiz-adv-x="1032" 
d="M16 340h316q9 -79 60 -118q47 -38 132 -38q77 0 120 26q44 26 44 78q0 34 -22 56q-21 21 -60 36q-29 10 -84 20q-32 6 -100 18q-46 8 -134 28q-67 18 -122 54q-54 33 -88 92q-32 55 -32 150q0 83 36 146q37 65 96 106q66 44 146 64q77 20 174 20q225 0 342 -90t132 -246
h-308q-9 71 -54 98q-43 26 -114 26q-62 0 -104 -24t-42 -72q0 -30 22 -46q24 -17 54 -28q32 -8 82 -18l94 -18q56 -10 140 -28q74 -18 130 -54q59 -40 96 -100q36 -63 36 -164q0 -87 -36 -150q-34 -63 -100 -110q-65 -44 -150 -64q-87 -24 -192 -24q-230 0 -366 100
q-135 99 -144 274z" />
    <glyph glyph-name="t" unicode="t" horiz-adv-x="718" 
d="M162 276v564h-138v208h138v332h326v-332h190v-208h-190v-492q0 -62 32 -82q31 -20 84 -20h44l30 2v-244q-19 -6 -68 -12q-60 -4 -114 -4q-74 0 -134 12q-66 16 -106 46q-42 31 -70 90q-24 57 -24 140z" />
    <glyph glyph-name="u" unicode="u" horiz-adv-x="1160" 
d="M72 360v688h332v-618q0 -88 38 -132q40 -46 120 -46q85 0 134 58q50 56 50 152v586h334v-1048h-320v128h-6q-58 -79 -130 -118q-72 -42 -184 -42q-181 0 -274 108q-94 109 -94 284z" />
    <glyph glyph-name="v" unicode="v" horiz-adv-x="1074" 
d="M-6 1048h344l144 -474l40 -144q9 -36 18 -66h4q3 12 8.5 35.5t7.5 30.5l18 66q6 26 22 78q50 158 146 474h334l-362 -1048h-362z" />
    <glyph glyph-name="w" unicode="w" horiz-adv-x="1604" 
d="M318 0l-322 1048h340q21 -80 60.5 -226.5t55.5 -207.5l16 -68q12 -44 16 -66q6 -24 14 -68h4l14 70q8 44 14 68q3 14 10.5 38t9.5 32l110 428h282l116 -428l16 -72q2 -10 7.5 -33t8.5 -35q3 -11 8 -34.5t8 -35.5h4q3 12 8 35.5t8 34.5q12 44 16 66q6 24 18 68
q16 61 55.5 207.5t60.5 226.5h330l-322 -1048h-312q-21 79 -62 237t-62 237q-3 11 -9 32t-9 32l-12 62q-7 26 -14 64h-4q-3 -16 -16 -64q-8 -40 -14 -62q-3 -11 -9 -32t-9 -32q-21 -79 -62 -237t-62 -237h-310z" />
    <glyph glyph-name="x" unicode="x" 
d="M380 550l-330 498h380l156 -270h4q25 45 74 135t74 135h350q-208 -328 -312 -494l358 -554h-388l-172 312h-4l-190 -312h-366q122 182 366 550z" />
    <glyph glyph-name="y" unicode="y" horiz-adv-x="1084" 
d="M116 -346v260h114q72 0 106 28q32 26 32 82q0 30 -16 84q-14 47 -48 134q-208 536 -310 806h352l142 -446q8 -26 24 -82q4 -17 20 -78q16 -56 22 -82h4q6 26 18 82l20 78q9 44 24 82q26 84 72.5 238t63.5 208h334q-122 -354 -362 -1062q-35 -98 -68 -156
q-35 -61 -82 -102q-49 -40 -106 -58q-64 -16 -140 -16h-216z" />
    <glyph glyph-name="z" unicode="z" horiz-adv-x="1034" 
d="M50 0v248l416 448q3 2 12 10t14 14q8 8 28 32l36 36v6l-54 -2h-404v254h860v-244l-396 -432l-66 -66q-7 -7 -20 -21t-20 -21v-6h110q18 2 44 2h380v-258h-940z" />
    <glyph glyph-name="braceleft" unicode="{" horiz-adv-x="816" 
d="M696 -284q-125 0 -208 20q-90 19 -148 62q-57 45 -88 122q-28 81 -28 194v242q0 77 -38 112q-39 39 -134 42v246q95 3 134 42q38 38 38 110v242q0 114 28 192q31 77 88 122q58 43 148 62q87 18 208 18h52v-256h-36q-90 0 -132 -24q-40 -28 -40 -114v-292q0 -102 -34 -148
q-35 -47 -100 -74v-6q67 -28 100 -72q34 -46 34 -146v-300q0 -84 40 -112q44 -28 132 -28h36v-256h-52z" />
    <glyph glyph-name="bar" unicode="|" horiz-adv-x="438" 
d="M120 1544h202v-1828h-202v1828z" />
    <glyph glyph-name="braceright" unicode="}" horiz-adv-x="816" 
d="M70 -28h38q90 0 130 26q42 24 42 112v300q0 102 32 146q34 46 100 72v6q-67 29 -100 74q-32 44 -32 148v292q0 87 -42 114q-40 26 -130 26h-38v256h52q118 0 208 -18q94 -23 146 -64q61 -46 88 -120q30 -75 30 -194v-240q0 -74 38 -112q40 -37 132 -40v-246
q-93 -3 -132 -42q-38 -35 -38 -112v-244q0 -116 -30 -194q-27 -74 -88 -120q-55 -43 -146 -62q-86 -20 -208 -20h-52v256z" />
    <glyph glyph-name="asciitilde" unicode="~" horiz-adv-x="908" 
d="M50 488q0 97 20 160q21 68 56 112q32 44 80 66q47 22 100 22q52 0 88 -14q13 -5 38 -15t38 -15q28 -15 66 -32q30 -10 54 -10q40 0 54 20q17 24 20 66h208q0 -163 -60 -256q-59 -92 -180 -92q-49 0 -92 10q-34 10 -76 28q-13 6 -26.5 12l-27 12t-18.5 8q-27 12 -58 12
q-67 0 -76 -94h-208z" />
    <glyph glyph-name="uni00A0" unicode="&#xa0;" horiz-adv-x="318" 
 />
    <glyph glyph-name="exclamdown" unicode="&#xa1;" horiz-adv-x="540" 
d="M98 -260v348l86 638h172l86 -638v-348h-344zM96 860v344h348v-344h-348z" />
    <glyph glyph-name="cent" unicode="&#xa2;" horiz-adv-x="1114" 
d="M514 -30q-110 15 -200 60q-85 44 -150 118q-63 72 -96 168q-34 99 -34 206t34 206q32 94 96 170q65 74 150 118q95 47 200 56v144h126v-142q187 -18 298 -126q113 -110 134 -272h-312q-13 54 -42 92q-33 39 -78 54v-602q112 33 130 176h310q-3 -83 -36 -158
q-31 -71 -90 -130q-60 -60 -136 -94q-76 -37 -178 -46v-188h-126v190zM514 822q-75 -24 -114 -102q-40 -83 -40 -198q0 -120 38 -196q39 -77 116 -104v600z" />
    <glyph glyph-name="sterling" unicode="&#xa3;" horiz-adv-x="1210" 
d="M860 -32q-74 0 -132 16q-49 14 -100 34q-40 19 -92 36q-48 16 -106 16q-61 0 -114 -28q-57 -30 -102 -62q-90 132 -166 250q85 56 140 126q54 69 54 154q0 28 -2 42q-1 5 -4 18.5t-4 21.5h-174v190h82q-24 45 -42 96q-16 54 -16 116q0 91 36 172q32 79 102 140
q72 59 170 92q105 34 236 34q242 0 382 -116q78 -63 120 -156q43 -95 46 -240h-332q-3 127 -60 184q-56 56 -150 56q-95 0 -140 -48q-48 -51 -48 -128q0 -54 22 -104q23 -57 44 -98h276v-190h-214q2 -6 2 -18v-16q0 -71 -40 -136q-38 -61 -114 -116l4 -6q44 16 68 22
q37 10 80 10q60 0 92 -8q44 -12 64 -18q9 -3 28 -9t28 -9q27 -8 70 -8q62 0 108 26q37 21 80 56l142 -268q-61 -55 -146 -90q-87 -36 -178 -36z" />
    <glyph glyph-name="currency" unicode="&#xa4;" horiz-adv-x="1048" 
d="M30 368l130 132q-50 94 -50 214q0 117 50 214q-88 88 -130 134l172 168l132 -138q89 40 190 40t190 -40l134 138l172 -168l-134 -134q52 -95 52 -214q0 -118 -50 -212q44 -46 132 -134l-172 -168q-46 46 -134 138q-89 -40 -190 -40q-105 0 -188 40l-134 -138zM524 486
q88 0 132 62t44 166q0 106 -44 168t-132 62q-90 0 -134 -62q-48 -63 -48 -168q0 -103 48 -166q44 -62 134 -62z" />
    <glyph glyph-name="yen" unicode="&#xa5;" horiz-adv-x="1324" 
d="M492 262h-346v130h346v118h-346v132h292l-436 762h384l186 -358q1 -2 13.5 -29t18.5 -41q17 -30 30 -64l26 -62h4l9 18t10.5 23t8.5 21l30 64q6 14 18.5 41t13.5 29l184 358h376l-438 -762h294v-132h-344v-118h344v-130h-344v-262h-334v262z" />
    <glyph glyph-name="brokenbar" unicode="&#xa6;" horiz-adv-x="438" 
d="M120 502h202v-786h-202v786zM120 1544h202v-758h-202v758z" />
    <glyph glyph-name="section" unicode="&#xa7;" horiz-adv-x="1280" 
d="M670 -372q-235 0 -370 114q-134 113 -140 312h306q3 -82 50 -126q52 -46 140 -46q72 0 112 34t40 86q0 35 -22 60t-64 46q-30 15 -106 44q-63 21 -150 54q-123 52 -170 76q-79 38 -128 84q-53 47 -80 104q-28 62 -28 138q0 106 64 182q60 72 178 106q-46 40 -74 90
q-26 46 -26 134q0 79 32 140q34 64 92 108q54 41 142 70q81 24 180 24q205 0 332 -100t136 -292h-288q-6 68 -46 108t-120 40q-72 0 -106 -28q-34 -31 -34 -72q0 -31 18 -52q15 -17 54 -40q43 -23 94 -42q21 -8 68 -26.5t66 -25.5q33 -13 152 -68q73 -35 130 -80
q61 -48 92 -102q34 -59 34 -138q0 -120 -62 -188q-64 -67 -166 -96q53 -39 94 -102q38 -61 38 -156q0 -91 -36 -160q-34 -72 -96 -116q-64 -48 -146 -72q-84 -26 -186 -26zM810 388q48 13 76 38q30 27 30 68q0 55 -68 90q-84 40 -186 82l-106 42q-59 24 -96 44
q-96 -27 -96 -104q0 -24 12 -42q14 -17 44 -38q37 -23 82 -42z" />
    <glyph glyph-name="dieresis" unicode="&#xa8;" horiz-adv-x="1024" 
d="M126 1182v262h312v-262h-312zM586 1182v262h314v-262h-314z" />
    <glyph glyph-name="copyright" unicode="&#xa9;" horiz-adv-x="1674" 
d="M844 276q-97 0 -180 34q-86 38 -140 98q-54 56 -88 144q-32 81 -32 182q0 103 32 184q32 85 90 146q56 62 140 96q81 36 180 36q76 0 142 -22q62 -20 116 -58q60 -45 94 -110q33 -63 42 -142h-246q-9 48 -48 84q-37 34 -102 34q-90 0 -136 -70q-46 -71 -46 -178
q0 -110 50 -178q52 -70 136 -70q68 0 108 40t46 92h248q-6 -71 -36 -134q-30 -60 -76 -106q-105 -102 -294 -102zM838 -36q-156 0 -296 58q-134 56 -240 158q-103 103 -162 242q-58 143 -58 304t58 304q58 137 162 244q104 104 240 160t296 56t296 -56t240 -160
q105 -108 160 -244q58 -143 58 -304t-58 -304q-56 -138 -160 -242q-106 -102 -240 -158q-140 -58 -296 -58zM838 72q138 0 250 50q117 53 198 136q83 86 132 208q48 120 48 260q0 142 -48 262q-47 120 -132 208q-84 87 -198 138q-112 50 -250 50t-250 -50
q-115 -50 -200 -138t-132 -208q-48 -120 -48 -262q0 -140 48 -260q49 -122 132 -208q81 -84 200 -136q112 -50 250 -50z" />
    <glyph glyph-name="ordfeminine" unicode="&#xaa;" horiz-adv-x="1044" 
d="M374 462q-68 0 -128 18q-60 21 -102 54q-43 31 -68 88q-24 54 -24 120q0 75 28 128q26 50 76 84q45 31 112 50q72 20 142 28q63 8 112 18q53 11 74 20q28 9 38 26q12 15 12 38q0 42 -28 70q-26 26 -96 26q-72 0 -108 -30q-34 -34 -40 -86h-282q3 65 30 122t82 100
q47 42 132 70q75 26 182 26q111 0 180 -20q77 -18 126 -56q64 -45 90 -110q30 -66 30 -152v-466q0 -108 34 -130v-16h-296q-9 18 -18 42q-9 27 -12 62h-4q-41 -56 -106 -90q-68 -34 -168 -34zM466 650q84 0 134 44q54 45 54 118v112q-28 -19 -68 -28q-49 -15 -86 -22
q-88 -18 -122 -46q-36 -27 -36 -74q0 -54 36 -78q32 -26 88 -26z" />
    <glyph glyph-name="guillemotleft" unicode="&#xab;" horiz-adv-x="902" 
d="M90 356v320l316 268v-292q-54 -46 -166 -138v-4q112 -92 166 -138v-286zM488 356v320l310 268v-292l-162 -138v-4l162 -138v-286z" />
    <glyph glyph-name="logicalnot" unicode="&#xac;" horiz-adv-x="1074" 
d="M676 612h-594v268h880v-606h-286v338z" />
    <glyph glyph-name="uni00AD" unicode="&#xad;" horiz-adv-x="686" 
d="M66 370v286h558v-286h-558z" />
    <glyph glyph-name="registered" unicode="&#xae;" horiz-adv-x="1088" 
d="M546 500q-106 0 -194 38q-90 36 -156 102q-65 65 -104 158q-38 88 -38 196q0 110 38 198q39 93 104 158q66 63 156 102q88 38 194 38q105 0 190 -38q90 -39 156 -102q65 -65 104 -158q38 -88 38 -198q0 -108 -38 -196q-39 -93 -104 -158q-66 -66 -156 -102
q-85 -38 -190 -38zM328 1262h258q78 0 140 -40q58 -40 58 -116q0 -93 -88 -126v-4q35 -9 52 -32q15 -20 24 -58q8 -40 8 -88q0 -39 18 -48v-14h-152q-11 7 -14 46q-4 48 -8 76q-9 64 -76 64h-64v-186h-156v526zM546 580q87 0 156 30q75 35 126 88q57 60 82 130q30 75 30 166
q0 89 -30 164q-26 73 -82 132q-52 55 -126 86q-67 32 -156 32q-87 0 -160 -32q-74 -31 -126 -86q-53 -59 -82 -132q-30 -75 -30 -164q0 -91 30 -166q28 -69 82 -130q51 -53 126 -88q75 -30 160 -30zM562 1030q70 0 70 54q0 56 -70 56h-78v-110h78z" />
    <glyph glyph-name="macron" unicode="&#xaf;" horiz-adv-x="1024" 
d="M226 1202v206h586v-206h-586z" />
    <glyph glyph-name="degree" unicode="&#xb0;" horiz-adv-x="768" 
d="M386 818q-67 0 -124 24q-55 23 -102 64q-41 41 -68 98q-26 52 -26 120q0 65 26 120q29 62 68 98q45 42 102 66q55 26 124 26q67 0 122 -26q57 -24 102 -66q40 -35 70 -98q26 -55 26 -120q0 -68 -26 -120q-28 -59 -70 -98q-47 -41 -102 -64q-57 -24 -122 -24zM386 978
q67 0 102 44q36 42 36 102q0 59 -36 104q-37 46 -102 46t-102 -46q-38 -44 -38 -104q0 -61 38 -102q35 -44 102 -44z" />
    <glyph glyph-name="plusminus" unicode="&#xb1;" horiz-adv-x="1160" 
d="M82 254h996v-254h-996v254zM440 632h-358v266h358v288h280v-288h358v-266h-358v-288h-280v288z" />
    <glyph glyph-name="twosuperior" unicode="&#xb2;" horiz-adv-x="812" 
d="M388 838h356v-188h-688q3 109 44 176q43 71 108 124q64 58 122 88q63 33 114 72q29 20 46 44q16 26 16 56q0 37 -22 62q-21 24 -72 24q-53 0 -86 -36q-32 -38 -32 -106h-226q0 161 98 244q97 82 252 82q81 0 138 -20q62 -22 102 -56q42 -39 62 -84q22 -47 22 -98
q0 -79 -30 -130q-33 -51 -80 -92q-22 -18 -66 -46q-62 -36 -68 -40q-29 -19 -64 -36q-31 -21 -46 -38v-2z" />
    <glyph glyph-name="threesuperior" unicode="&#xb3;" horiz-adv-x="798" 
d="M412 632q-185 0 -276 82q-89 80 -92 214h230q6 -57 32 -88q27 -36 96 -36q56 0 82 26q28 28 28 68q0 52 -34 74q-31 20 -94 20h-48v156h42q118 0 118 84q0 37 -24 58q-22 22 -70 22q-59 0 -80 -30q-25 -35 -28 -72h-226q3 115 94 194q88 76 250 76q144 0 230 -62
q90 -60 90 -172q0 -56 -34 -96q-32 -38 -86 -60v-4q60 -20 104 -70q40 -49 40 -128q0 -70 -26 -116t-74 -78q-51 -32 -110 -46q-67 -16 -134 -16z" />
    <glyph glyph-name="acute" unicode="&#xb4;" horiz-adv-x="1024" 
d="M604 1170h-254q95 242 118 304h384z" />
    <glyph glyph-name="uni00B5" unicode="&#xb5;" horiz-adv-x="1168" 
d="M80 1048h332v-620q0 -178 158 -178q86 0 136 56q48 57 48 154v588h334v-1048h-320v128h-6q-93 -156 -248 -156q-33 0 -60 10q-25 8 -42 22h-4v-350h-328v1394z" />
    <glyph glyph-name="paragraph" unicode="&#xb6;" horiz-adv-x="1234" 
d="M570 686h-128q-86 0 -158 28q-70 26 -122 78q-50 50 -78 122t-28 154q0 184 116 294q53 48 132 76q72 26 180 26h640v-1464h-210v1268h-132v-1268h-212v686z" />
    <glyph glyph-name="periodcentered" unicode="&#xb7;" horiz-adv-x="482" 
d="M66 478v344h350v-344h-350z" />
    <glyph glyph-name="cedilla" unicode="&#xb8;" horiz-adv-x="1024" 
d="M466 -396q-69 0 -130 16q-48 12 -100 44l40 72q31 -15 68 -24q35 -8 74 -8q47 0 78 14q32 15 32 46q0 26 -22 42q-20 14 -54 14q-18 0 -38 -4q-19 -3 -34 -12q-12 18 -36 50q74 72 146 146h130l-116 -96v-4q89 9 152 -24q66 -33 66 -114q0 -75 -74 -116q-72 -42 -182 -42
z" />
    <glyph glyph-name="onesuperior" unicode="&#xb9;" horiz-adv-x="558" 
d="M228 650v480h-186v166q93 3 158 46q62 45 80 130h196v-822h-248z" />
    <glyph glyph-name="ordmasculine" unicode="&#xba;" horiz-adv-x="1068" 
d="M536 456q-115 0 -206 38q-93 36 -156 102q-64 64 -100 154t-36 194t36 194q36 87 100 154q63 66 156 102q91 38 206 38q114 0 202 -38q93 -36 156 -102q64 -67 100 -154q36 -90 36 -194t-36 -194t-100 -154q-63 -66 -156 -102q-88 -38 -202 -38zM532 668q95 0 144 76
q48 75 48 200q0 122 -48 200q-49 76 -144 76q-94 0 -140 -76q-48 -78 -48 -200q0 -125 48 -200q46 -76 140 -76z" />
    <glyph glyph-name="guillemotright" unicode="&#xbb;" horiz-adv-x="902" 
d="M104 376q27 23 81 70t81 70v4q-27 23 -81 68t-81 68v288l310 -270v-320l-310 -268v290zM496 376q46 38 166 140v4q-32 27 -94.5 78t-71.5 58v288l316 -270v-320l-316 -268v290z" />
    <glyph glyph-name="onequarter" unicode="&#xbc;" horiz-adv-x="1672" 
d="M234 650v480h-186v166q93 3 158 46q62 45 80 130h196v-822h-248zM156 0l1114 1464h210l-1116 -1464h-208zM868 170v194l392 458h240v-482h118v-170h-118v-170h-240v170h-392zM1048 340h212v250h-2l-210 -248v-2z" />
    <glyph glyph-name="onehalf" unicode="&#xbd;" horiz-adv-x="1742" 
d="M1314 186h356v-186h-688q3 107 44 174q43 74 108 124q61 55 118 86q50 26 112 70q35 22 50 46q18 24 18 58q0 39 -22 64q-22 22 -72 22q-53 0 -86 -36q-32 -38 -32 -104h-226q0 162 98 242q97 82 252 82q81 0 138 -20q62 -22 102 -56q42 -38 62 -82q22 -50 22 -100
q0 -81 -32 -130q-31 -52 -80 -90q-28 -25 -64 -48l-70 -40q-22 -12 -62 -36q-31 -21 -46 -38v-2zM234 650v480h-186v166q93 3 158 46q62 45 80 130h196v-822h-248zM144 0l1114 1464h210l-1116 -1464h-208z" />
    <glyph glyph-name="threequarters" unicode="&#xbe;" horiz-adv-x="1808" 
d="M314 0l1114 1464h210l-1116 -1464h-208zM1008 170v194q77 91 226.5 265t165.5 193h238v-482h120v-170h-120v-170h-238v170h-392zM50 928h232q3 -55 30 -88q27 -36 96 -36q56 0 82 26q28 28 28 68q0 52 -34 74q-31 20 -94 20h-48v156h42q118 0 118 84q0 37 -24 58
q-22 22 -70 22q-59 0 -80 -30q-25 -35 -28 -72h-226q3 115 94 194q88 76 250 76q144 0 230 -62q90 -60 90 -172q0 -56 -34 -96q-33 -39 -84 -60v-4q59 -21 102 -70q40 -49 40 -128q0 -70 -26 -116q-28 -49 -74 -78q-51 -32 -110 -46q-67 -16 -134 -16q-185 0 -276 82
q-89 80 -92 214zM1186 340h214v250h-2l-212 -248v-2z" />
    <glyph glyph-name="questiondown" unicode="&#xbf;" horiz-adv-x="1120" 
d="M768 202h328q-3 -113 -40 -198q-39 -90 -108 -156q-70 -64 -172 -100t-228 -36q-120 0 -210 32q-95 31 -162 86q-64 53 -104 132q-36 75 -36 170q0 70 16 124q17 48 46 90q22 31 62 68q48 36 70 50q39 26 104 66q44 28 66 56q21 26 30 58q8 29 8 82h298q0 -85 -8 -130
q-10 -56 -26 -88q-19 -41 -44 -66q-38 -38 -64 -60q-33 -30 -72 -54q-36 -24 -66 -48q-32 -29 -48 -58q-20 -31 -20 -80q0 -71 50 -112q52 -40 124 -40q92 0 148 56q55 55 58 156zM418 860v344h348v-344h-348z" />
    <glyph glyph-name="Agrave" unicode="&#xc0;" horiz-adv-x="1428" 
d="M604 1536l-216 266h382l88 -266h-254zM-2 0l526 1464h374l528 -1464h-382l-86 264h-512q-56 -176 -82 -264h-366zM530 524h346q-19 59 -56 177t-56 177q-16 48 -20 64q-3 11 -9 34t-9 34q-12 48 -18 74h-6l-20 -74q-3 -11 -9 -34t-9 -34q-4 -16 -20 -64z" />
    <glyph glyph-name="Aacute" unicode="&#xc1;" horiz-adv-x="1428" 
d="M-2 0l526 1464h374l528 -1464h-382l-86 264h-512q-56 -176 -82 -264h-366zM530 524h346q-19 59 -56 177t-56 177q-16 48 -20 64q-3 11 -9 34t-9 34q-12 48 -18 74h-6l-20 -74q-3 -11 -9 -34t-9 -34q-4 -16 -20 -64zM830 1536h-254q17 50 47.5 142.5t40.5 123.5h384z" />
    <glyph glyph-name="Acircumflex" unicode="&#xc2;" horiz-adv-x="1428" 
d="M-2 0l526 1464h374l528 -1464h-382l-86 264h-512q-56 -176 -82 -264h-366zM620 1536h-288l220 256h318l220 -256h-280q-4 5 -39 46t-53 64h-4q-15 -17 -46.5 -54t-47.5 -56zM530 524h346q-19 59 -56 177t-56 177q-16 48 -20 64q-3 11 -9 34t-9 34q-12 48 -18 74h-6
l-20 -74q-3 -11 -9 -34t-9 -34q-4 -16 -20 -64z" />
    <glyph glyph-name="Atilde" unicode="&#xc3;" horiz-adv-x="1428" 
d="M-2 0l526 1464h374l528 -1464h-382l-86 264h-512q-56 -176 -82 -264h-366zM530 524h346q-19 59 -56 177t-56 177q-16 48 -20 64q-3 11 -9 34t-9 34q-12 48 -18 74h-6l-20 -74q-3 -11 -9 -34t-9 -34q-4 -16 -20 -64zM542 1538h-172q0 139 60 208q62 68 150 68q39 0 72 -12
q26 -7 64 -26l56 -28q23 -10 44 -10q33 0 44 20q13 22 18 52h172q0 -121 -54 -196q-50 -74 -152 -74q-37 0 -74 10q-27 7 -60 22q-34 13 -60 28q-21 12 -48 12q-51 0 -60 -74z" />
    <glyph glyph-name="Adieresis" unicode="&#xc4;" horiz-adv-x="1428" 
d="M-2 0l526 1464h374l528 -1464h-382l-86 264h-512q-56 -176 -82 -264h-366zM530 524h346q-19 59 -56 177t-56 177q-16 48 -20 64q-3 11 -9 34t-9 34q-12 48 -18 74h-6l-20 -74q-3 -11 -9 -34t-9 -34q-4 -16 -20 -64zM334 1542v262h314v-262h-314zM774 1542v262h314v-262
h-314z" />
    <glyph glyph-name="Aring" unicode="&#xc5;" horiz-adv-x="1428" 
d="M564 1570q-31 31 -46 64q-16 38 -16 80q0 40 16 78q18 36 46 64q30 30 66 44t82 14q44 0 80 -14t66 -44q31 -28 46 -64q16 -38 16 -78q0 -42 -16 -80q-13 -35 -46 -64q-27 -27 -66 -42q-42 -16 -80 -16q-40 0 -82 16q-39 15 -66 42zM650 1652q23 -26 62 -26t62 26
q24 27 24 62t-24 62q-23 26 -62 26t-62 -26q-22 -28 -22 -62t22 -62zM-2 0l526 1464h374l528 -1464h-382l-86 264h-512q-56 -176 -82 -264h-366zM530 524h346q-19 59 -56 177t-56 177q-16 48 -20 64q-3 11 -9 34t-9 34q-12 48 -18 74h-6l-20 -74q-3 -11 -9 -34t-9 -34
q-4 -16 -20 -64z" />
    <glyph glyph-name="AE" unicode="&#xc6;" horiz-adv-x="2038" 
d="M-2 0l496 1464h1462v-302h-706v-264h600v-280h-600v-302h728v-316h-1094v258h-444l-84 -258h-358zM522 510h362v652h-150z" />
    <glyph glyph-name="Ccedilla" unicode="&#xc7;" horiz-adv-x="1438" 
d="M696 -396q-67 0 -128 16q-53 14 -100 44l40 72q30 -15 66 -24q35 -8 76 -8q45 0 76 14q34 15 34 46q0 26 -22 42q-20 14 -56 14q-14 0 -38 -4q-17 -3 -34 -12l-34 50l114 116q-147 15 -264 74q-118 62 -206 162q-85 100 -132 232q-46 135 -46 288q0 166 50 304
q48 134 146 244q94 104 228 160q134 58 296 58q126 0 234 -34q104 -36 184 -94q97 -73 150 -176q55 -108 70 -228h-364q-15 99 -86 164q-71 68 -190 68q-90 0 -156 -36q-63 -33 -108 -96q-43 -65 -64 -148q-22 -91 -22 -186q0 -100 24 -184q26 -83 72 -148q43 -58 110 -96
q65 -34 146 -34q124 0 198 68q73 67 88 176h362q-9 -112 -54 -208q-43 -93 -122 -168q-82 -79 -182 -116q-105 -42 -240 -48l-76 -64v-4q89 9 152 -24q64 -34 64 -114q0 -74 -72 -116t-184 -42z" />
    <glyph glyph-name="Egrave" unicode="&#xc8;" horiz-adv-x="1286" 
d="M100 0v1464h1110v-300h-746v-262h640v-282h-640v-314h760v-306h-1124zM568 1536l-218 266h384l88 -266h-254z" />
    <glyph glyph-name="Eacute" unicode="&#xc9;" horiz-adv-x="1286" 
d="M100 0v1464h1110v-300h-746v-262h640v-282h-640v-314h760v-306h-1124zM540 1536l88 266h382q-72 -90 -216 -266h-254z" />
    <glyph glyph-name="Ecircumflex" unicode="&#xca;" horiz-adv-x="1286" 
d="M100 0v1464h1110v-300h-746v-262h640v-282h-640v-314h760v-306h-1124zM582 1536h-286q82 98 218 256h320l220 -256h-282l-92 110h-4z" />
    <glyph glyph-name="Edieresis" unicode="&#xcb;" horiz-adv-x="1286" 
d="M100 0v1464h1110v-300h-746v-262h640v-282h-640v-314h760v-306h-1124zM298 1542v262h312v-262h-312zM738 1542v262h314v-262h-314z" />
    <glyph glyph-name="Igrave" unicode="&#xcc;" horiz-adv-x="566" 
d="M102 0v1464h364v-1464h-364zM-40 1802h382l88 -266h-254q-144 176 -216 266z" />
    <glyph glyph-name="Iacute" unicode="&#xcd;" horiz-adv-x="566" 
d="M402 1536h-254q17 50 47.5 142.5t40.5 123.5h384zM102 0v1464h364v-1464h-364z" />
    <glyph glyph-name="Icircumflex" unicode="&#xce;" horiz-adv-x="566" 
d="M102 0v1464h364v-1464h-364zM190 1536h-286q82 98 218 256h320l220 -256h-282l-92 110h-4z" />
    <glyph glyph-name="Idieresis" unicode="&#xcf;" horiz-adv-x="566" 
d="M102 0v1464h364v-1464h-364zM-94 1542v262h314v-262h-314zM346 1542v262h314v-262h-314z" />
    <glyph glyph-name="Eth" unicode="&#xd0;" horiz-adv-x="1462" 
d="M120 0v606h-114v280h114v578h624q153 0 276 -54q126 -51 214 -148q90 -99 138 -234q50 -135 50 -306q0 -179 -54 -320q-53 -139 -162 -236q-83 -77 -208 -124q-120 -42 -276 -42h-602zM482 304h212q182 0 272 108t90 310q0 204 -92 320q-94 118 -266 118h-216v-274h320
v-280h-320v-302z" />
    <glyph glyph-name="Ntilde" unicode="&#xd1;" horiz-adv-x="1454" 
d="M100 0v1464h366l434 -736q2 -4 10.5 -19.5t15.5 -26.5l32 -62q21 -36 42 -78h4q-2 34 -2 94q-2 26 -2 76v752h354v-1464h-364l-430 724l-7 10.5t-10.5 16.5t-10.5 19q-24 44 -34 68q-21 39 -42 84h-4q0 -70 2 -102v-80l2 -58v-682h-356zM560 1538h-172q0 140 62 208
q59 68 148 68q41 0 74 -12q30 -8 62 -26q34 -19 56 -28q23 -10 44 -10q32 0 46 20q13 23 16 52h172q0 -120 -52 -196q-50 -74 -154 -74q-37 0 -74 10q-27 7 -60 22q-34 13 -60 28q-21 12 -46 12q-53 0 -62 -74z" />
    <glyph glyph-name="Ograve" unicode="&#xd2;" horiz-adv-x="1530" 
d="M658 1536l-218 266h384l88 -266h-254zM238 182q-97 106 -146 242q-50 138 -50 304t50 304q48 134 146 244q96 105 226 160q133 56 300 56t300 -56q134 -56 228 -160q96 -104 146 -244q52 -144 52 -304t-52 -304q-51 -141 -146 -242q-94 -104 -228 -160q-137 -58 -300 -58
t-300 58q-130 55 -226 160zM500 394q43 -60 112 -98q66 -36 154 -36q87 0 156 36q66 36 110 98q49 68 68 148q20 83 20 186t-20 186t-68 150q-47 66 -110 100q-69 36 -156 36q-88 0 -154 -36t-112 -100q-43 -61 -68 -150q-22 -91 -22 -186t22 -186q24 -86 68 -148z" />
    <glyph glyph-name="Oacute" unicode="&#xd3;" horiz-adv-x="1530" 
d="M238 182q-97 106 -146 242q-50 138 -50 304t50 304q48 134 146 244q96 105 226 160q133 56 300 56t300 -56q134 -56 228 -160q96 -104 146 -244q52 -144 52 -304t-52 -304q-51 -141 -146 -242q-94 -104 -228 -160q-137 -58 -300 -58t-300 58q-130 55 -226 160zM500 394
q43 -60 112 -98q66 -36 154 -36q87 0 156 36q66 36 110 98q49 68 68 148q20 83 20 186t-20 186t-68 150q-47 66 -110 100q-69 36 -156 36q-88 0 -154 -36t-112 -100q-43 -61 -68 -150q-22 -91 -22 -186t22 -186q24 -86 68 -148zM630 1536l88 266h382q-72 -90 -216 -266h-254
z" />
    <glyph glyph-name="Ocircumflex" unicode="&#xd4;" horiz-adv-x="1530" 
d="M238 182q-97 106 -146 242q-50 138 -50 304t50 304q48 134 146 244q96 105 226 160q133 56 300 56t300 -56q134 -56 228 -160q96 -104 146 -244q52 -144 52 -304t-52 -304q-51 -141 -146 -242q-94 -104 -228 -160q-137 -58 -300 -58t-300 58q-130 55 -226 160zM386 1536
l218 256h320l220 -256h-282l-92 110h-4q-30 -38 -94 -110h-286zM500 394q43 -60 112 -98q66 -36 154 -36q87 0 156 36q66 36 110 98q49 68 68 148q20 83 20 186t-20 186t-68 150q-47 66 -110 100q-69 36 -156 36q-88 0 -154 -36t-112 -100q-43 -61 -68 -150
q-22 -91 -22 -186t22 -186q24 -86 68 -148z" />
    <glyph glyph-name="Otilde" unicode="&#xd5;" horiz-adv-x="1530" 
d="M606 1538h-172q0 140 62 208q59 68 148 68q41 0 74 -12q30 -8 62 -26q34 -19 56 -28q23 -10 44 -10q32 0 46 20q13 23 16 52h172q0 -120 -52 -196q-50 -74 -154 -74q-37 0 -74 10q-27 7 -60 22q-34 13 -60 28q-21 12 -46 12q-53 0 -62 -74zM238 182q-97 106 -146 242
q-50 138 -50 304t50 304q48 134 146 244q96 105 226 160q133 56 300 56t300 -56q134 -56 228 -160q96 -104 146 -244q52 -144 52 -304t-52 -304q-51 -141 -146 -242q-94 -104 -228 -160q-137 -58 -300 -58t-300 58q-130 55 -226 160zM500 394q43 -60 112 -98q66 -36 154 -36
q87 0 156 36q66 36 110 98q49 68 68 148q20 83 20 186t-20 186t-68 150q-47 66 -110 100q-69 36 -156 36q-88 0 -154 -36t-112 -100q-43 -61 -68 -150q-22 -91 -22 -186t22 -186q24 -86 68 -148z" />
    <glyph glyph-name="Odieresis" unicode="&#xd6;" horiz-adv-x="1530" 
d="M238 182q-97 106 -146 242q-50 138 -50 304t50 304q48 134 146 244q96 105 226 160q133 56 300 56t300 -56q134 -56 228 -160q96 -104 146 -244q52 -144 52 -304t-52 -304q-51 -141 -146 -242q-94 -104 -228 -160q-137 -58 -300 -58t-300 58q-130 55 -226 160zM500 394
q43 -60 112 -98q66 -36 154 -36q87 0 156 36q66 36 110 98q49 68 68 148q20 83 20 186t-20 186t-68 150q-47 66 -110 100q-69 36 -156 36q-88 0 -154 -36t-112 -100q-43 -61 -68 -150q-22 -91 -22 -186t22 -186q24 -86 68 -148zM388 1542v262h312v-262h-312zM828 1542v262
h314v-262h-314z" />
    <glyph glyph-name="multiply" unicode="&#xd7;" horiz-adv-x="1160" 
d="M80 350l312 318l-310 316l190 180q2 -2 302 -308l306 308l188 -180l-310 -316q2 -2 310 -316l-188 -182l-304 310l-306 -312z" />
    <glyph glyph-name="Oslash" unicode="&#xd8;" horiz-adv-x="1530" 
d="M46 30l164 184q-80 98 -126 230q-42 129 -42 284q0 166 50 304q48 134 146 244q96 105 226 160q133 56 300 56q139 0 250 -38q115 -40 200 -108l156 174q19 -17 58 -51t58 -51l-162 -180q78 -96 122 -230q44 -126 44 -280q0 -160 -52 -304q-51 -141 -146 -242
q-94 -104 -228 -160q-137 -58 -300 -58q-138 0 -246 38q-114 40 -200 106l-160 -180zM452 484l548 620q-41 41 -102 70q-55 26 -132 26q-88 0 -154 -36t-112 -100q-43 -61 -68 -150q-22 -91 -22 -186q0 -61 10 -128q9 -65 32 -116zM536 352q86 -92 230 -92q87 0 156 36
q66 36 110 98q49 68 68 148q20 83 20 186q0 73 -8 126q-9 59 -30 112q-182 -206 -546 -614z" />
    <glyph glyph-name="Ugrave" unicode="&#xd9;" horiz-adv-x="1404" 
d="M90 516v948h364v-960q0 -110 58 -174q57 -66 194 -66q127 0 186 68q60 69 60 178v954h364v-948q0 -253 -154 -398q-152 -146 -456 -146q-309 0 -462 144q-154 142 -154 400zM378 1802h382l88 -266h-254q-144 176 -216 266z" />
    <glyph glyph-name="Uacute" unicode="&#xda;" horiz-adv-x="1404" 
d="M90 516v948h364v-960q0 -110 58 -174q57 -66 194 -66q127 0 186 68q60 69 60 178v954h364v-948q0 -253 -154 -398q-152 -146 -456 -146q-309 0 -462 144q-154 142 -154 400zM566 1536l88 266h382q-72 -90 -216 -266h-254z" />
    <glyph glyph-name="Ucircumflex" unicode="&#xdb;" horiz-adv-x="1404" 
d="M90 516v948h364v-960q0 -110 58 -174q57 -66 194 -66q127 0 186 68q60 69 60 178v954h364v-948q0 -253 -154 -398q-152 -146 -456 -146q-309 0 -462 144q-154 142 -154 400zM608 1536h-286q82 98 218 256h320l220 -256h-282l-92 110h-4z" />
    <glyph glyph-name="Udieresis" unicode="&#xdc;" horiz-adv-x="1404" 
d="M90 516v948h364v-960q0 -110 58 -174q57 -66 194 -66q127 0 186 68q60 69 60 178v954h364v-948q0 -253 -154 -398q-152 -146 -456 -146q-309 0 -462 144q-154 142 -154 400zM324 1542v262h314v-262h-314zM764 1542v262h314v-262h-314z" />
    <glyph glyph-name="Yacute" unicode="&#xdd;" horiz-adv-x="1358" 
d="M498 0v540l-496 924h396l224 -456l30 -72q10 -26 30 -74h4q20 48 32 74q4 9 14.5 33.5t17.5 38.5l224 456h382l-496 -924v-540h-362zM548 1536l88 266h382q-72 -90 -216 -266h-254z" />
    <glyph glyph-name="Thorn" unicode="&#xde;" horiz-adv-x="1332" 
d="M100 1464h370v-202h290q262 -3 400 -138q70 -64 110 -156q38 -91 38 -204q0 -107 -36 -194q-32 -86 -100 -150q-65 -65 -156 -100q-93 -36 -204 -36h-342v-284h-370v1464zM738 570q98 0 152 54q52 55 52 142q0 89 -52 138q-53 50 -152 50h-268v-384h268z" />
    <glyph glyph-name="germandbls" unicode="&#xdf;" horiz-adv-x="1180" 
d="M678 -18q-96 0 -156 20v242q144 -18 218 44q78 60 78 198q0 116 -58 180q-57 60 -178 60h-56v190h44q88 6 140 46q50 38 50 120q0 69 -42 114q-41 44 -120 44q-83 0 -134 -48q-50 -50 -50 -148v-1044h-334v1052q0 103 36 184t102 138q71 59 162 88q93 30 212 30
q107 0 200 -28q91 -28 150 -76q61 -50 96 -122q34 -71 34 -158q0 -192 -180 -264v-6q125 -43 190 -140q66 -99 66 -240q0 -118 -36 -208q-32 -84 -98 -150q-63 -60 -150 -90q-90 -28 -186 -28z" />
    <glyph glyph-name="agrave" unicode="&#xe0;" horiz-adv-x="1108" 
d="M706 116h-6q-43 -64 -118 -104q-77 -40 -192 -40q-75 0 -144 22q-69 21 -114 60q-46 41 -74 102q-26 55 -26 136q0 87 30 144q34 62 88 96q58 40 128 60q71 21 154 30q148 18 208 42q58 21 58 74t-32 82q-32 32 -110 32q-80 0 -122 -36q-39 -33 -48 -100h-308
q3 78 34 140q29 65 88 114q56 50 146 78t208 28q123 0 200 -20q84 -22 140 -66q65 -46 100 -124q32 -73 32 -174v-528q0 -68 8 -100q6 -35 30 -50v-14h-324q-10 12 -20 46q-7 22 -14 70zM458 1170l-248 304h386l116 -304h-254zM708 374v126q-33 -18 -78 -30q-40 -13 -94 -26
q-96 -20 -140 -52q-44 -29 -44 -90q0 -63 42 -90q38 -26 102 -26q94 0 152 52q60 51 60 136z" />
    <glyph glyph-name="aacute" unicode="&#xe1;" horiz-adv-x="1108" 
d="M706 116h-6q-43 -64 -118 -104q-77 -40 -192 -40q-75 0 -144 22q-69 21 -114 60q-46 41 -74 102q-26 55 -26 136q0 87 30 144q34 62 88 96q58 40 128 60q71 21 154 30q148 18 208 42q58 21 58 74t-32 82q-32 32 -110 32q-80 0 -122 -36q-39 -33 -48 -100h-308
q3 78 34 140q29 65 88 114q56 50 146 78t208 28q123 0 200 -20q84 -22 140 -66q65 -46 100 -124q32 -73 32 -174v-528q0 -68 8 -100q6 -35 30 -50v-14h-324q-10 12 -20 46q-7 22 -14 70zM708 374v126q-33 -18 -78 -30q-40 -13 -94 -26q-96 -20 -140 -52q-44 -29 -44 -90
q0 -63 42 -90q38 -26 102 -26q94 0 152 52q60 51 60 136zM682 1170h-254q95 242 118 304h384z" />
    <glyph glyph-name="acircumflex" unicode="&#xe2;" horiz-adv-x="1108" 
d="M706 116h-6q-43 -64 -118 -104q-77 -40 -192 -40q-75 0 -144 22q-69 21 -114 60q-46 41 -74 102q-26 55 -26 136q0 87 30 144q34 62 88 96q58 40 128 60q71 21 154 30q148 18 208 42q58 21 58 74t-32 82q-32 32 -110 32q-80 0 -122 -36q-39 -33 -48 -100h-308
q3 78 34 140q29 65 88 114q56 50 146 78t208 28q123 0 200 -20q84 -22 140 -66q65 -46 100 -124q32 -73 32 -174v-528q0 -68 8 -100q6 -35 30 -50v-14h-324q-10 12 -20 46q-7 22 -14 70zM708 374v126q-33 -18 -78 -30q-40 -13 -94 -26q-96 -20 -140 -52q-44 -29 -44 -90
q0 -63 42 -90q38 -26 102 -26q94 0 152 52q60 51 60 136zM184 1176l220 280h320l218 -280h-280q-7 10 -40.5 58.5t-51.5 75.5h-4l-94 -134h-288z" />
    <glyph glyph-name="atilde" unicode="&#xe3;" horiz-adv-x="1108" 
d="M706 116h-6q-43 -64 -118 -104q-77 -40 -192 -40q-75 0 -144 22q-69 21 -114 60q-46 41 -74 102q-26 55 -26 136q0 87 30 144q34 62 88 96q58 40 128 60q71 21 154 30q148 18 208 42q58 21 58 74t-32 82q-32 32 -110 32q-80 0 -122 -36q-39 -33 -48 -100h-308
q3 78 34 140q29 65 88 114q56 50 146 78t208 28q123 0 200 -20q84 -22 140 -66q65 -46 100 -124q32 -73 32 -174v-528q0 -68 8 -100q6 -35 30 -50v-14h-324q-10 12 -20 46q-7 22 -14 70zM708 374v126q-33 -18 -78 -30q-40 -13 -94 -26q-96 -20 -140 -52q-44 -29 -44 -90
q0 -63 42 -90q38 -26 102 -26q94 0 152 52q60 51 60 136zM396 1168h-172q0 140 62 208q61 70 148 70q41 0 74 -12q34 -12 62 -28q10 -4 29 -13.5t27 -12.5q23 -10 44 -10q32 0 46 20q13 20 16 52h172q0 -120 -52 -196t-154 -76q-39 0 -72 12q-32 9 -62 22q-34 13 -60 28
q-23 10 -46 10q-53 0 -62 -74z" />
    <glyph glyph-name="adieresis" unicode="&#xe4;" horiz-adv-x="1108" 
d="M706 116h-6q-43 -64 -118 -104q-77 -40 -192 -40q-75 0 -144 22q-69 21 -114 60q-46 41 -74 102q-26 55 -26 136q0 87 30 144q34 62 88 96q58 40 128 60q71 21 154 30q148 18 208 42q58 21 58 74t-32 82q-32 32 -110 32q-80 0 -122 -36q-39 -33 -48 -100h-308
q3 78 34 140q29 65 88 114q56 50 146 78t208 28q123 0 200 -20q84 -22 140 -66q65 -46 100 -124q32 -73 32 -174v-528q0 -68 8 -100q6 -35 30 -50v-14h-324q-10 12 -20 46q-7 22 -14 70zM708 374v126q-33 -18 -78 -30q-40 -13 -94 -26q-96 -20 -140 -52q-44 -29 -44 -90
q0 -63 42 -90q38 -26 102 -26q94 0 152 52q60 51 60 136zM176 1182v262h314v-262h-314zM638 1182v262h312v-262h-312z" />
    <glyph glyph-name="aring" unicode="&#xe5;" horiz-adv-x="1108" 
d="M416 1200q-30 30 -44 64q-18 36 -18 78q0 44 18 80q14 36 44 66q27 27 66 42q42 16 82 16q38 0 80 -16q37 -14 68 -42q30 -30 44 -66q16 -38 16 -80q0 -40 -16 -78q-14 -34 -44 -64q-31 -28 -68 -42q-42 -16 -80 -16q-40 0 -82 16q-39 15 -66 42zM504 1282q20 -26 60 -26
q39 0 62 26q24 27 24 60q0 35 -24 62q-25 28 -62 28q-38 0 -60 -28q-24 -27 -24 -62q0 -33 24 -60zM706 116h-6q-43 -64 -118 -104q-77 -40 -192 -40q-75 0 -144 22q-69 21 -114 60q-46 41 -74 102q-26 55 -26 136q0 87 30 144q34 62 88 96q58 40 128 60q71 21 154 30
q148 18 208 42q58 21 58 74t-32 82q-32 32 -110 32q-80 0 -122 -36q-39 -33 -48 -100h-308q3 78 34 140q29 65 88 114q56 50 146 78t208 28q123 0 200 -20q84 -22 140 -66q65 -46 100 -124q32 -73 32 -174v-528q0 -68 8 -100q6 -35 30 -50v-14h-324q-10 12 -20 46
q-7 22 -14 70zM708 374v126q-33 -18 -78 -30q-40 -13 -94 -26q-96 -20 -140 -52q-44 -29 -44 -90q0 -63 42 -90q38 -26 102 -26q94 0 152 52q60 51 60 136z" />
    <glyph glyph-name="ae" unicode="&#xe6;" horiz-adv-x="1812" 
d="M386 716h-308q3 78 34 140q30 66 90 114q56 50 146 78t210 28q106 0 200 -22q89 -21 150 -88q61 53 146 84q84 28 182 28q103 0 190 -28q87 -30 152 -86q101 -86 152 -222q51 -135 48 -304h-754q15 -104 76 -168q56 -62 162 -62q64 0 108 28q44 27 66 76h324
q-15 -65 -58 -130q-42 -63 -108 -108q-66 -51 -150 -78q-87 -28 -188 -28q-133 0 -234 46q-102 45 -170 122q-83 -86 -174 -124q-93 -42 -248 -42q-179 0 -290 84q-108 81 -108 238q0 87 30 144q34 62 88 96q61 38 128 58q65 19 156 32q46 6 128 20q61 11 86 22q30 11 46 30
q14 17 14 44q0 52 -36 82q-32 32 -112 32q-162 0 -174 -136zM716 374v126q-31 -17 -80 -30q-30 -10 -98 -26q-102 -20 -146 -52q-44 -29 -44 -90q0 -64 44 -90q40 -26 104 -26q97 0 158 52q62 50 62 136zM1026 636h414q-9 90 -62 150q-50 56 -136 56q-98 0 -148 -56
q-53 -60 -68 -150z" />
    <glyph glyph-name="ccedilla" unicode="&#xe7;" horiz-adv-x="1114" 
d="M526 -396q-67 0 -128 16q-53 14 -100 44l40 72q30 -15 66 -24q35 -8 76 -8q45 0 76 14q34 15 34 46q0 26 -22 42q-20 14 -56 14q-14 0 -38 -4q-17 -3 -34 -12l-34 50l116 116q-110 12 -202 58q-90 45 -154 118q-66 76 -98 168q-34 102 -34 208q0 121 38 220
q37 97 110 176q70 73 174 116q102 42 226 42q104 0 194 -28q87 -30 150 -84t102 -126q40 -78 52 -162h-322q-15 72 -58 112q-42 42 -114 42q-107 0 -162 -82q-52 -83 -52 -226q0 -141 52 -224q55 -82 162 -82q161 0 182 180h320q-3 -86 -36 -158q-35 -79 -88 -132
q-57 -57 -140 -94q-78 -35 -180 -44l-78 -64v-4q89 9 152 -24q64 -34 64 -114q0 -74 -72 -116t-184 -42z" />
    <glyph glyph-name="egrave" unicode="&#xe8;" 
d="M770 312h326q-14 -66 -62 -136q-48 -67 -114 -110q-67 -48 -146 -72q-78 -26 -182 -26q-129 0 -234 42q-102 41 -176 118q-73 79 -110 176q-38 102 -38 222q0 119 38 218q37 97 110 176q71 74 170 116t220 42q109 0 202 -34q87 -33 156 -96q96 -90 140 -218
q47 -138 44 -292h-754q18 -106 74 -168t162 -62q63 0 110 28q43 28 64 76zM468 1170l-248 304h386l116 -304h-254zM364 636h412q-9 90 -62 150q-53 56 -136 56q-98 0 -148 -56q-51 -57 -66 -150z" />
    <glyph glyph-name="eacute" unicode="&#xe9;" 
d="M770 312h326q-14 -66 -62 -136q-48 -67 -114 -110q-67 -48 -146 -72q-78 -26 -182 -26q-129 0 -234 42q-102 41 -176 118q-73 79 -110 176q-38 102 -38 222q0 119 38 218q37 97 110 176q71 74 170 116t220 42q109 0 202 -34q87 -33 156 -96q96 -90 140 -218
q47 -138 44 -292h-754q18 -106 74 -168t162 -62q63 0 110 28q43 28 64 76zM364 636h412q-9 90 -62 150q-53 56 -136 56q-98 0 -148 -56q-51 -57 -66 -150zM438 1170l118 304h384l-248 -304h-254z" />
    <glyph glyph-name="ecircumflex" unicode="&#xea;" 
d="M770 312h326q-14 -66 -62 -136q-48 -67 -114 -110q-67 -48 -146 -72q-78 -26 -182 -26q-129 0 -234 42q-102 41 -176 118q-73 79 -110 176q-38 102 -38 222q0 119 38 218q37 97 110 176q71 74 170 116t220 42q109 0 202 -34q87 -33 156 -96q96 -90 140 -218
q47 -138 44 -292h-754q18 -106 74 -168t162 -62q63 0 110 28q43 28 64 76zM364 636h412q-9 90 -62 150q-53 56 -136 56q-98 0 -148 -56q-51 -57 -66 -150zM482 1176h-286q87 114 218 280h320l218 -280h-280l-92 134h-4q-12 -17 -44.5 -63t-49.5 -71z" />
    <glyph glyph-name="edieresis" unicode="&#xeb;" 
d="M770 312h326q-14 -66 -62 -136q-48 -67 -114 -110q-67 -48 -146 -72q-78 -26 -182 -26q-129 0 -234 42q-102 41 -176 118q-73 79 -110 176q-38 102 -38 222q0 119 38 218q37 97 110 176q71 74 170 116t220 42q109 0 202 -34q87 -33 156 -96q96 -90 140 -218
q47 -138 44 -292h-754q18 -106 74 -168t162 -62q63 0 110 28q43 28 64 76zM364 636h412q-9 90 -62 150q-53 56 -136 56q-98 0 -148 -56q-51 -57 -66 -150zM186 1182v262h314v-262h-314zM648 1182v262h314v-262h-314z" />
    <glyph glyph-name="igrave" unicode="&#xec;" horiz-adv-x="494" 
d="M80 0v1048h334v-1048h-334zM-106 1474h386l116 -304h-254z" />
    <glyph glyph-name="iacute" unicode="&#xed;" horiz-adv-x="494" 
d="M114 1170l116 304h384l-246 -304h-254zM80 0v1048h334v-1048h-334z" />
    <glyph glyph-name="icircumflex" unicode="&#xee;" horiz-adv-x="494" 
d="M80 0v1048h334v-1048h-334zM-86 1176l166 280h336l162 -280h-264l-62 126h-4l-64 -126h-270z" />
    <glyph glyph-name="idieresis" unicode="&#xef;" horiz-adv-x="494" 
d="M302 1182v262h252v-262h-252zM80 0v1048h334v-1048h-334zM-58 1182v262h254v-262h-254z" />
    <glyph glyph-name="eth" unicode="&#xf0;" horiz-adv-x="1186" 
d="M246 1204l224 74q-99 80 -124 98q-80 60 -120 88h418q40 -28 62 -42q20 -14 60 -46l202 66q32 -72 48 -110l-152 -48q68 -72 112 -136q48 -71 90 -164q39 -91 60 -194q22 -110 22 -224q0 -116 -30 -224q-30 -111 -96 -192q-73 -86 -172 -134q-103 -50 -256 -50
q-127 0 -232 42q-102 41 -176 118t-112 176q-40 102 -40 220q0 114 34 216q33 99 98 170q66 72 150 110q88 38 200 38q69 0 122 -22q46 -19 94 -64h4q-41 66 -78 110q-46 60 -90 106l-274 -90zM592 204q112 0 168 86q56 85 56 230t-56 228q-56 86 -168 86q-110 0 -166 -86
q-54 -84 -54 -228q0 -143 54 -230q56 -86 166 -86z" />
    <glyph glyph-name="ntilde" unicode="&#xf1;" horiz-adv-x="1168" 
d="M80 0v1048h322v-144h6q57 83 136 130q76 44 188 44q82 0 154 -28q64 -29 114 -82q48 -54 72 -126t24 -160v-682h-334v614q0 84 -40 136q-41 50 -124 50q-84 0 -134 -62q-50 -59 -50 -158v-580h-334zM426 1168h-172q0 140 62 208q61 70 148 70q41 0 74 -12q34 -12 62 -28
q10 -4 29 -13.5t27 -12.5q23 -10 44 -10q32 0 46 20q13 20 16 52h172q0 -120 -52 -196t-154 -76q-39 0 -72 12q-32 9 -62 22q-34 13 -60 28q-23 10 -46 10q-53 0 -62 -74z" />
    <glyph glyph-name="ograve" unicode="&#xf2;" horiz-adv-x="1186" 
d="M186 126q-74 77 -112 176q-40 102 -40 220q0 115 40 220q38 99 112 176q75 75 178 116q105 42 230 42q128 0 230 -42q105 -42 176 -116q76 -76 114 -176q40 -105 40 -220q0 -118 -40 -220q-38 -100 -114 -176q-74 -77 -176 -118q-102 -42 -230 -42q-125 0 -230 42
q-100 40 -178 118zM488 1170l-248 304h386l116 -304h-254zM426 292q58 -88 166 -88q110 0 168 88q56 85 56 230q0 147 -56 232q-58 88 -168 88q-108 0 -166 -88q-54 -87 -54 -232q0 -143 54 -230z" />
    <glyph glyph-name="oacute" unicode="&#xf3;" horiz-adv-x="1186" 
d="M186 126q-74 77 -112 176q-40 102 -40 220q0 115 40 220q38 99 112 176q75 75 178 116q105 42 230 42q128 0 230 -42q105 -42 176 -116q76 -76 114 -176q40 -105 40 -220q0 -118 -40 -220q-38 -100 -114 -176q-74 -77 -176 -118q-102 -42 -230 -42q-125 0 -230 42
q-100 40 -178 118zM426 292q58 -88 166 -88q110 0 168 88q56 85 56 230q0 147 -56 232q-58 88 -168 88q-108 0 -166 -88q-54 -87 -54 -232q0 -143 54 -230zM460 1170l118 304h384l-248 -304h-254z" />
    <glyph glyph-name="ocircumflex" unicode="&#xf4;" horiz-adv-x="1186" 
d="M186 126q-74 77 -112 176q-40 102 -40 220q0 115 40 220q38 99 112 176q75 75 178 116q105 42 230 42q128 0 230 -42q105 -42 176 -116q76 -76 114 -176q40 -105 40 -220q0 -118 -40 -220q-38 -100 -114 -176q-74 -77 -176 -118q-102 -42 -230 -42q-125 0 -230 42
q-100 40 -178 118zM426 292q58 -88 166 -88q110 0 168 88q56 85 56 230q0 147 -56 232q-58 88 -168 88q-108 0 -166 -88q-54 -87 -54 -232q0 -143 54 -230zM216 1176l220 280h320l218 -280h-280q-7 10 -40.5 58.5t-51.5 75.5h-4l-94 -134h-288z" />
    <glyph glyph-name="otilde" unicode="&#xf5;" horiz-adv-x="1186" 
d="M186 126q-74 77 -112 176q-40 102 -40 220q0 115 40 220q38 99 112 176q75 75 178 116q105 42 230 42q128 0 230 -42q105 -42 176 -116q76 -76 114 -176q40 -105 40 -220q0 -118 -40 -220q-38 -100 -114 -176q-74 -77 -176 -118q-102 -42 -230 -42q-125 0 -230 42
q-100 40 -178 118zM426 292q58 -88 166 -88q110 0 168 88q56 85 56 230q0 147 -56 232q-58 88 -168 88q-108 0 -166 -88q-54 -87 -54 -232q0 -143 54 -230zM426 1168h-172q0 140 62 208q61 70 148 70q41 0 74 -12q34 -12 62 -28q10 -4 29 -13.5t27 -12.5q23 -10 44 -10
q32 0 46 20q13 20 16 52h172q0 -120 -52 -196t-154 -76q-39 0 -72 12q-32 9 -62 22q-34 13 -60 28q-23 10 -46 10q-53 0 -62 -74z" />
    <glyph glyph-name="odieresis" unicode="&#xf6;" horiz-adv-x="1186" 
d="M186 126q-74 77 -112 176q-40 102 -40 220q0 115 40 220q38 99 112 176q75 75 178 116q105 42 230 42q128 0 230 -42q105 -42 176 -116q76 -76 114 -176q40 -105 40 -220q0 -118 -40 -220q-38 -100 -114 -176q-74 -77 -176 -118q-102 -42 -230 -42q-125 0 -230 42
q-100 40 -178 118zM426 292q58 -88 166 -88q110 0 168 88q56 85 56 230q0 147 -56 232q-58 88 -168 88q-108 0 -166 -88q-54 -87 -54 -232q0 -143 54 -230zM208 1182v262h312v-262h-312zM668 1182v262h314v-262h-314z" />
    <glyph glyph-name="divide" unicode="&#xf7;" horiz-adv-x="1160" 
d="M404 426h350v-306h-350v306zM82 540v268h996v-268h-996zM404 1228h350v-304h-350v304z" />
    <glyph glyph-name="oslash" unicode="&#xf8;" horiz-adv-x="1186" 
d="M56 14l116 128q-138 153 -138 380q0 115 40 220q38 99 112 176q75 75 178 116q105 42 230 42q99 0 180 -24q81 -27 150 -72l118 132l92 -86l-116 -128q68 -78 100 -170q36 -96 36 -206q0 -118 -40 -220q-38 -100 -114 -176q-74 -77 -176 -118q-102 -42 -230 -42
q-100 0 -178 26q-84 25 -150 68l-120 -134zM390 386l352 390q-60 66 -150 66q-108 0 -166 -88q-54 -87 -54 -232q0 -79 18 -136zM800 652l-350 -388q51 -60 142 -60q110 0 168 88q56 85 56 230q0 66 -16 130z" />
    <glyph glyph-name="ugrave" unicode="&#xf9;" horiz-adv-x="1160" 
d="M72 360v688h332v-618q0 -88 38 -132q40 -46 120 -46q85 0 134 58q50 56 50 152v586h334v-1048h-320v128h-6q-58 -79 -130 -118q-72 -42 -184 -42q-181 0 -274 108q-94 109 -94 284zM472 1170l-248 304h386l116 -304h-254z" />
    <glyph glyph-name="uacute" unicode="&#xfa;" horiz-adv-x="1160" 
d="M72 360v688h332v-618q0 -88 38 -132q40 -46 120 -46q85 0 134 58q50 56 50 152v586h334v-1048h-320v128h-6q-58 -79 -130 -118q-72 -42 -184 -42q-181 0 -274 108q-94 109 -94 284zM696 1170h-254q95 242 118 304h384z" />
    <glyph glyph-name="ucircumflex" unicode="&#xfb;" horiz-adv-x="1160" 
d="M72 360v688h332v-618q0 -88 38 -132q40 -46 120 -46q85 0 134 58q50 56 50 152v586h334v-1048h-320v128h-6q-58 -79 -130 -118q-72 -42 -184 -42q-181 0 -274 108q-94 109 -94 284zM486 1176h-286q87 114 218 280h320l218 -280h-280l-92 134h-4q-12 -17 -44.5 -63
t-49.5 -71z" />
    <glyph glyph-name="udieresis" unicode="&#xfc;" horiz-adv-x="1160" 
d="M72 360v688h332v-618q0 -88 38 -132q40 -46 120 -46q85 0 134 58q50 56 50 152v586h334v-1048h-320v128h-6q-58 -79 -130 -118q-72 -42 -184 -42q-181 0 -274 108q-94 109 -94 284zM190 1182v262h314v-262h-314zM652 1182v262h314v-262h-314z" />
    <glyph glyph-name="yacute" unicode="&#xfd;" horiz-adv-x="1084" 
d="M116 -346v260h114q72 0 106 28q32 26 32 82q0 30 -16 84q-14 47 -48 134q-208 536 -310 806h352l142 -446q8 -26 24 -82q4 -17 20 -78q16 -56 22 -82h4q6 26 18 82l20 78q9 44 24 82q26 84 72.5 238t63.5 208h334q-122 -354 -362 -1062q-35 -98 -68 -156
q-35 -61 -82 -102q-49 -40 -106 -58q-64 -16 -140 -16h-216zM412 1170l118 304h384l-248 -304h-254z" />
    <glyph glyph-name="thorn" unicode="&#xfe;" horiz-adv-x="1204" 
d="M80 1466h334v-536h6q52 67 122 108q74 40 182 40q105 0 186 -42q87 -43 142 -116q58 -76 90 -176q30 -102 30 -220q0 -131 -32 -230q-32 -101 -94 -176q-57 -72 -144 -112q-86 -40 -186 -40q-106 0 -176 38q-72 36 -122 104h-4v-454h-334v1812zM630 224q96 0 150 78
q54 75 54 214q0 132 -52 218q-51 84 -158 84q-54 0 -98 -22q-42 -26 -68 -66q-28 -41 -40 -96q-14 -50 -14 -118q0 -128 58 -210t168 -82z" />
    <glyph glyph-name="ydieresis" unicode="&#xff;" horiz-adv-x="1084" 
d="M622 1182v262h312v-262h-312zM116 -346v260h114q72 0 106 28q32 26 32 82q0 30 -16 84q-14 47 -48 134q-208 536 -310 806h352l142 -446q8 -26 24 -82q4 -17 20 -78q16 -56 22 -82h4q6 26 18 82l20 78q9 44 24 82q26 84 72.5 238t63.5 208h334q-122 -354 -362 -1062
q-35 -98 -68 -156q-35 -61 -82 -102q-49 -40 -106 -58q-64 -16 -140 -16h-216zM160 1182v262h314v-262h-314z" />
    <glyph glyph-name="Amacron" unicode="&#x100;" horiz-adv-x="1428" 
d="M-2 0l526 1464h374l528 -1464h-382l-86 264h-512q-56 -176 -82 -264h-366zM530 524h346q-19 59 -56 177t-56 177q-16 48 -20 64q-3 11 -9 34t-9 34q-12 48 -18 74h-6l-20 -74q-3 -11 -9 -34t-9 -34q-4 -16 -20 -64zM418 1560v206h586v-206h-586z" />
    <glyph glyph-name="amacron" unicode="&#x101;" horiz-adv-x="1108" 
d="M706 116h-6q-43 -64 -118 -104q-77 -40 -192 -40q-75 0 -144 22q-69 21 -114 60q-46 41 -74 102q-26 55 -26 136q0 87 30 144q34 62 88 96q58 40 128 60q71 21 154 30q148 18 208 42q58 21 58 74t-32 82q-32 32 -110 32q-80 0 -122 -36q-39 -33 -48 -100h-308
q3 78 34 140q29 65 88 114q56 50 146 78t208 28q123 0 200 -20q84 -22 140 -66q65 -46 100 -124q32 -73 32 -174v-528q0 -68 8 -100q6 -35 30 -50v-14h-324q-10 12 -20 46q-7 22 -14 70zM708 374v126q-33 -18 -78 -30q-40 -13 -94 -26q-96 -20 -140 -52q-44 -29 -44 -90
q0 -63 42 -90q38 -26 102 -26q94 0 152 52q60 51 60 136zM270 1202v206h586v-206h-586z" />
    <glyph glyph-name="Abreve" unicode="&#x102;" horiz-adv-x="1428" 
d="M-2 0l526 1464h374l528 -1464h-382l-86 264h-512q-56 -176 -82 -264h-366zM530 524h346q-19 59 -56 177t-56 177q-16 48 -20 64q-3 11 -9 34t-9 34q-12 48 -18 74h-6l-20 -74q-3 -11 -9 -34t-9 -34q-4 -16 -20 -64zM382 1820h188q3 -42 40 -70q38 -26 104 -26q58 0 98 28
q39 30 42 68h188q-6 -129 -94 -214q-91 -82 -232 -82q-73 0 -130 20q-60 20 -106 60q-43 37 -70 94q-25 50 -28 122z" />
    <glyph glyph-name="abreve" unicode="&#x103;" horiz-adv-x="1108" 
d="M706 116h-6q-43 -64 -118 -104q-77 -40 -192 -40q-75 0 -144 22q-69 21 -114 60q-46 41 -74 102q-26 55 -26 136q0 87 30 144q34 62 88 96q58 40 128 60q71 21 154 30q148 18 208 42q58 21 58 74t-32 82q-32 32 -110 32q-80 0 -122 -36q-39 -33 -48 -100h-308
q3 78 34 140q29 65 88 114q56 50 146 78t208 28q123 0 200 -20q84 -22 140 -66q65 -46 100 -124q32 -73 32 -174v-528q0 -68 8 -100q6 -35 30 -50v-14h-324q-10 12 -20 46q-7 22 -14 70zM708 374v126q-33 -18 -78 -30q-40 -13 -94 -26q-96 -20 -140 -52q-44 -29 -44 -90
q0 -63 42 -90q38 -26 102 -26q94 0 152 52q60 51 60 136zM234 1456h188q3 -43 42 -70q35 -26 102 -26q60 0 100 28q36 27 42 68h188q-6 -133 -96 -214q-87 -84 -232 -84q-67 0 -130 22q-58 20 -104 60t-72 92q-25 53 -28 124z" />
    <glyph glyph-name="Aogonek" unicode="&#x104;" horiz-adv-x="1428" 
d="M1288 -364q-128 0 -186 46q-60 45 -60 132q0 66 38 110q42 49 86 76h-122l-86 264h-512q-56 -176 -82 -264h-366l526 1464h374l524 -1452q-57 -37 -94 -74q-34 -34 -34 -68q0 -50 66 -50q35 0 62 10h2v-174q-18 -8 -52 -14q-33 -6 -84 -6zM876 524q-19 59 -56 177
t-56 177q-16 48 -20 64q-3 11 -9 34t-9 34q-12 48 -18 74h-6l-20 -74q-3 -11 -9 -34t-9 -34q-4 -16 -20 -64l-114 -354h346z" />
    <glyph glyph-name="aogonek" unicode="&#x105;" horiz-adv-x="1108" 
d="M946 -364q-128 0 -192 46q-62 44 -62 128q0 70 48 118q45 48 96 72h-96q-10 12 -20 46q-7 22 -14 70h-6q-43 -64 -118 -104q-77 -40 -192 -40q-75 0 -144 22q-69 21 -114 60q-46 41 -74 102q-26 55 -26 136q0 87 30 144q34 62 88 96q58 40 128 60q71 21 154 30
q148 18 208 42q58 21 58 74t-32 82q-32 32 -110 32q-80 0 -122 -36q-39 -33 -48 -100h-308q3 78 34 140q29 65 88 114q56 50 146 78t208 28q123 0 200 -20q84 -22 140 -66q65 -46 100 -124q32 -73 32 -174v-528q0 -68 8 -100q6 -35 30 -50v-14q-55 -29 -88 -62
q-32 -32 -32 -68q0 -50 64 -50q32 0 62 10h2v-174q-18 -8 -52 -14q-30 -6 -74 -6zM496 186q94 0 152 52q60 51 60 136v126q-33 -18 -78 -30q-40 -13 -94 -26q-96 -20 -140 -52q-44 -29 -44 -90q0 -63 42 -90q38 -26 102 -26z" />
    <glyph glyph-name="Cacute" unicode="&#x106;" horiz-adv-x="1438" 
d="M1048 508h362q-9 -112 -54 -208q-43 -93 -122 -168q-89 -83 -200 -124q-114 -42 -270 -42q-160 0 -294 58q-132 56 -228 158q-98 104 -148 242q-52 141 -52 302q0 166 50 304q48 134 146 244q94 104 228 160q134 58 296 58q126 0 234 -34q104 -36 184 -94
q97 -73 150 -176q55 -108 70 -228h-364q-15 99 -86 164q-71 68 -190 68q-90 0 -156 -36q-63 -33 -108 -96q-43 -65 -64 -148q-22 -91 -22 -186q0 -100 24 -184q26 -83 72 -148q43 -58 110 -96q65 -34 146 -34q124 0 198 68q73 67 88 176zM612 1536l88 266h384l-218 -266
h-254z" />
    <glyph glyph-name="cacute" unicode="&#x107;" horiz-adv-x="1114" 
d="M768 396h320q-3 -88 -40 -168q-35 -79 -100 -138q-63 -57 -156 -90q-96 -34 -202 -34q-125 0 -230 42q-100 41 -174 118t-112 176q-40 102 -40 220q0 121 38 220q37 97 110 176q70 73 174 116q102 42 226 42q104 0 194 -28q87 -30 150 -84t102 -126q40 -78 52 -162h-322
q-15 72 -58 112q-42 42 -114 42q-107 0 -162 -82q-52 -83 -52 -226q0 -141 52 -224q55 -82 162 -82q161 0 182 180zM694 1170h-254q95 242 118 304h384z" />
    <glyph glyph-name="Ccircumflex" unicode="&#x108;" horiz-adv-x="1438" 
d="M1048 508h362q-9 -112 -54 -208q-43 -93 -122 -168q-89 -83 -200 -124q-114 -42 -270 -42q-160 0 -294 58q-132 56 -228 158q-98 104 -148 242q-52 141 -52 302q0 166 50 304q48 134 146 244q94 104 228 160q134 58 296 58q126 0 234 -34q104 -36 184 -94
q97 -73 150 -176q55 -108 70 -228h-364q-15 99 -86 164q-71 68 -190 68q-90 0 -156 -36q-63 -33 -108 -96q-43 -65 -64 -148q-22 -91 -22 -186q0 -100 24 -184q26 -83 72 -148q43 -58 110 -96q65 -34 146 -34q124 0 198 68q73 67 88 176zM656 1536h-286q82 98 218 256h320
l218 -256h-280q-4 5 -39 46t-53 64h-4z" />
    <glyph glyph-name="ccircumflex" unicode="&#x109;" horiz-adv-x="1114" 
d="M768 396h320q-3 -88 -40 -168q-35 -79 -100 -138q-63 -57 -156 -90q-96 -34 -202 -34q-125 0 -230 42q-100 41 -174 118t-112 176q-40 102 -40 220q0 121 38 220q37 97 110 176q70 73 174 116q102 42 226 42q104 0 194 -28q87 -30 150 -84t102 -126q40 -78 52 -162h-322
q-15 72 -58 112q-42 42 -114 42q-107 0 -162 -82q-52 -83 -52 -226q0 -141 52 -224q55 -82 162 -82q161 0 182 180zM484 1176h-286q87 114 218 280h320l218 -280h-280l-92 134h-4q-12 -17 -44.5 -63t-49.5 -71z" />
    <glyph glyph-name="Cdotaccent" unicode="&#x10a;" horiz-adv-x="1438" 
d="M1048 508h362q-9 -112 -54 -208q-43 -93 -122 -168q-89 -83 -200 -124q-114 -42 -270 -42q-160 0 -294 58q-132 56 -228 158q-98 104 -148 242q-52 141 -52 302q0 166 50 304q48 134 146 244q94 104 228 160q134 58 296 58q126 0 234 -34q104 -36 184 -94
q97 -73 150 -176q55 -108 70 -228h-364q-15 99 -86 164q-71 68 -190 68q-90 0 -156 -36q-63 -33 -108 -96q-43 -65 -64 -148q-22 -91 -22 -186q0 -100 24 -184q26 -83 72 -148q43 -58 110 -96q65 -34 146 -34q124 0 198 68q73 67 88 176zM582 1542v266h332v-266h-332z" />
    <glyph glyph-name="cdotaccent" unicode="&#x10b;" horiz-adv-x="1114" 
d="M768 396h320q-3 -88 -40 -168q-35 -79 -100 -138q-63 -57 -156 -90q-96 -34 -202 -34q-125 0 -230 42q-100 41 -174 118t-112 176q-40 102 -40 220q0 121 38 220q37 97 110 176q70 73 174 116q102 42 226 42q104 0 194 -28q87 -30 150 -84t102 -126q40 -78 52 -162h-322
q-15 72 -58 112q-42 42 -114 42q-107 0 -162 -82q-52 -83 -52 -226q0 -141 52 -224q55 -82 162 -82q161 0 182 180zM410 1194v270h332v-270h-332z" />
    <glyph glyph-name="Ccaron" unicode="&#x10c;" horiz-adv-x="1438" 
d="M1048 508h362q-9 -112 -54 -208q-43 -93 -122 -168q-89 -83 -200 -124q-114 -42 -270 -42q-160 0 -294 58q-132 56 -228 158q-98 104 -148 242q-52 141 -52 302q0 166 50 304q48 134 146 244q94 104 228 160q134 58 296 58q126 0 234 -34q104 -36 184 -94
q97 -73 150 -176q55 -108 70 -228h-364q-15 99 -86 164q-71 68 -190 68q-90 0 -156 -36q-63 -33 -108 -96q-43 -65 -64 -148q-22 -91 -22 -186q0 -100 24 -184q26 -83 72 -148q43 -58 110 -96q65 -34 146 -34q124 0 198 68q73 67 88 176zM370 1792h280l92 -112h4l92 112h286
l-216 -256h-322z" />
    <glyph glyph-name="ccaron" unicode="&#x10d;" horiz-adv-x="1114" 
d="M768 396h320q-3 -88 -40 -168q-35 -79 -100 -138q-63 -57 -156 -90q-96 -34 -202 -34q-125 0 -230 42q-100 41 -174 118t-112 176q-40 102 -40 220q0 121 38 220q37 97 110 176q70 73 174 116q102 42 226 42q104 0 194 -28q87 -30 150 -84t102 -126q40 -78 52 -162h-322
q-15 72 -58 112q-42 42 -114 42q-107 0 -162 -82q-52 -83 -52 -226q0 -141 52 -224q55 -82 162 -82q161 0 182 180zM416 1168l-216 284h280l92 -136h4l92 136h286l-216 -284h-322z" />
    <glyph glyph-name="Dcaron" unicode="&#x10e;" horiz-adv-x="1444" 
d="M100 0v1464h626q153 0 276 -54q123 -51 214 -148q90 -99 138 -234q50 -135 50 -306q0 -194 -66 -344q-66 -154 -188 -246q-92 -66 -198 -98q-114 -34 -250 -34h-602zM286 1792h280l92 -112h4l92 112h286l-216 -256h-322zM464 304h212q180 0 270 108t90 310q0 204 -92 320
q-94 118 -264 118h-216v-856z" />
    <glyph glyph-name="dcaron" unicode="&#x10f;" horiz-adv-x="1204" 
d="M1194 1072v96q50 8 86 28q34 22 34 60h-118v208h256v-162q0 -60 -18 -102q-21 -42 -56 -68q-32 -26 -82 -42q-45 -15 -102 -18zM806 0v140h-4q-50 -84 -126 -128q-83 -46 -184 -46q-102 0 -184 38q-84 39 -146 110q-60 69 -94 176q-34 105 -34 234q0 118 34 226
q34 106 94 174q60 72 144 114q86 40 186 40q109 0 178 -42q68 -41 114 -106h8v534h332v-1464h-318zM426 310q53 -80 152 -80q104 0 162 82q60 81 60 212q0 69 -14 122q-15 57 -42 96q-29 42 -66 62q-41 22 -96 22q-98 0 -156 -82q-54 -84 -54 -216q0 -137 54 -218z" />
    <glyph glyph-name="Dcroat" unicode="&#x110;" horiz-adv-x="1462" 
d="M120 0v606h-114v280h114v578h624q153 0 276 -54q126 -51 214 -148q90 -99 138 -234q50 -135 50 -306q0 -179 -54 -320q-53 -139 -162 -236q-83 -77 -208 -124q-120 -42 -276 -42h-602zM482 304h212q182 0 272 108t90 310q0 204 -92 320q-94 118 -266 118h-216v-274h320
v-280h-320v-302z" />
    <glyph glyph-name="dcroat" unicode="&#x111;" horiz-adv-x="1204" 
d="M546 1326h246v138h332v-138h106v-168h-106v-1158h-318v140h-4q-50 -84 -126 -128q-83 -46 -184 -46q-102 0 -184 38q-84 39 -146 110q-60 69 -94 176q-34 105 -34 234q0 118 34 226q34 106 94 174q60 72 144 114q86 40 186 40q109 0 178 -42q68 -41 114 -106h8v228h-246
v168zM578 230q104 0 162 82q60 81 60 212q0 69 -14 122q-15 57 -42 96q-29 42 -66 62q-41 22 -96 22q-98 0 -156 -82q-54 -84 -54 -216q0 -137 54 -218q53 -80 152 -80z" />
    <glyph glyph-name="Emacron" unicode="&#x112;" horiz-adv-x="1286" 
d="M100 0v1464h1110v-300h-746v-262h640v-282h-640v-314h760v-306h-1124zM382 1560v206h586v-206h-586z" />
    <glyph glyph-name="emacron" unicode="&#x113;" 
d="M770 312h326q-14 -66 -62 -136q-48 -67 -114 -110q-67 -48 -146 -72q-78 -26 -182 -26q-129 0 -234 42q-102 41 -176 118q-73 79 -110 176q-38 102 -38 222q0 119 38 218q37 97 110 176q71 74 170 116t220 42q109 0 202 -34q87 -33 156 -96q96 -90 140 -218
q47 -138 44 -292h-754q18 -106 74 -168t162 -62q63 0 110 28q43 28 64 76zM364 636h412q-9 90 -62 150q-53 56 -136 56q-98 0 -148 -56q-51 -57 -66 -150zM282 1202v206h584v-206h-584z" />
    <glyph glyph-name="Ebreve" unicode="&#x114;" horiz-adv-x="1286" 
d="M100 0v1464h1110v-300h-746v-262h640v-282h-640v-314h760v-306h-1124zM344 1820h188q6 -43 42 -70q35 -26 102 -26q60 0 100 28q39 30 42 68h188q-6 -130 -96 -214q-88 -82 -232 -82q-73 0 -130 20q-58 20 -104 60q-43 37 -70 94q-27 54 -30 122z" />
    <glyph glyph-name="ebreve" unicode="&#x115;" 
d="M770 312h326q-14 -66 -62 -136q-48 -67 -114 -110q-67 -48 -146 -72q-78 -26 -182 -26q-129 0 -234 42q-102 41 -176 118q-73 79 -110 176q-38 102 -38 222q0 119 38 218q37 97 110 176q71 74 170 116t220 42q109 0 202 -34q87 -33 156 -96q96 -90 140 -218
q47 -138 44 -292h-754q18 -106 74 -168t162 -62q63 0 110 28q43 28 64 76zM364 636h412q-9 90 -62 150q-53 56 -136 56q-98 0 -148 -56q-51 -57 -66 -150zM242 1456h188q3 -43 42 -70q35 -26 102 -26q60 0 100 28q36 27 42 68h188q-6 -133 -96 -214q-87 -84 -232 -84
q-67 0 -130 22q-58 20 -104 60t-72 92q-25 53 -28 124z" />
    <glyph glyph-name="Edotaccent" unicode="&#x116;" horiz-adv-x="1286" 
d="M100 0v1464h1110v-300h-746v-262h640v-282h-640v-314h760v-306h-1124zM508 1542v266h332v-266h-332z" />
    <glyph glyph-name="edotaccent" unicode="&#x117;" 
d="M770 312h326q-14 -66 -62 -136q-48 -67 -114 -110q-67 -48 -146 -72q-78 -26 -182 -26q-129 0 -234 42q-102 41 -176 118q-73 79 -110 176q-38 102 -38 222q0 119 38 218q37 97 110 176q71 74 170 116t220 42q109 0 202 -34q87 -33 156 -96q96 -90 140 -218
q47 -138 44 -292h-754q18 -106 74 -168t162 -62q63 0 110 28q43 28 64 76zM364 636h412q-9 90 -62 150q-53 56 -136 56q-98 0 -148 -56q-51 -57 -66 -150zM408 1194v270h332v-270h-332z" />
    <glyph glyph-name="Eogonek" unicode="&#x118;" horiz-adv-x="1286" 
d="M100 1464h1110v-300h-746v-262h640v-282h-640v-314h760v-306h-68q-54 -30 -86 -62t-32 -68q0 -50 66 -50q35 0 62 10h2v-174q-18 -8 -52 -14q-33 -6 -82 -6q-130 0 -188 46q-60 45 -60 132q0 66 38 110q42 49 86 76h-810v1464z" />
    <glyph glyph-name="eogonek" unicode="&#x119;" 
d="M752 -364q-128 0 -192 46q-62 44 -62 128q0 54 26 92q26 37 64 66q-129 0 -232 44q-100 41 -174 118q-71 74 -110 176q-38 99 -38 220q0 119 38 218q37 97 110 176q71 74 170 116t220 42q109 0 202 -34q87 -33 156 -96q96 -90 140 -218q47 -138 44 -292h-754
q18 -106 74 -168t162 -62q63 0 110 28q43 28 64 76h326q-15 -68 -56 -128q-41 -59 -90 -100q-20 -18 -64 -54q-36 -27 -66 -54q-34 -28 -50 -52q-20 -26 -20 -54q0 -50 64 -50q32 0 62 10h2v-174q-16 -7 -52 -14q-30 -6 -74 -6zM776 636q-9 90 -62 150q-53 56 -136 56
q-98 0 -148 -56q-51 -57 -66 -150h412z" />
    <glyph glyph-name="Ecaron" unicode="&#x11a;" horiz-adv-x="1286" 
d="M100 0v1464h1110v-300h-746v-262h640v-282h-640v-314h760v-306h-1124zM514 1536l-216 256h280l92 -112h4l92 112h288q-136 -158 -218 -256h-322z" />
    <glyph glyph-name="ecaron" unicode="&#x11b;" 
d="M770 312h326q-14 -66 -62 -136q-48 -67 -114 -110q-67 -48 -146 -72q-78 -26 -182 -26q-129 0 -234 42q-102 41 -176 118q-73 79 -110 176q-38 102 -38 222q0 119 38 218q37 97 110 176q71 74 170 116t220 42q109 0 202 -34q87 -33 156 -96q96 -90 140 -218
q47 -138 44 -292h-754q18 -106 74 -168t162 -62q63 0 110 28q43 28 64 76zM412 1168l-216 284h280l92 -136h4l92 136h286l-216 -284h-322zM364 636h412q-9 90 -62 150q-53 56 -136 56q-98 0 -148 -56q-51 -57 -66 -150z" />
    <glyph glyph-name="Gcircumflex" unicode="&#x11c;" horiz-adv-x="1510" 
d="M824 520v266h610v-786h-254l-20 176h-4q-72 -113 -178 -162q-105 -48 -238 -48q-159 0 -282 54q-126 54 -218 152q-94 103 -146 246q-50 138 -50 308q0 178 56 322q57 147 160 250q94 94 218 144q121 50 284 50q143 0 254 -36q114 -37 194 -102t132 -160q52 -96 70 -210
h-352q-20 88 -92 150q-72 60 -194 60q-89 0 -158 -36q-70 -37 -114 -98q-43 -60 -68 -148q-22 -91 -22 -186q0 -102 26 -186q26 -83 72 -148q47 -62 116 -98q71 -34 154 -34q68 0 128 22q62 23 98 56t62 82q24 45 30 96v4h-274zM658 1536h-286q82 98 218 256h320l218 -256
h-280q-4 5 -39 46t-53 64h-4z" />
    <glyph glyph-name="gcircumflex" unicode="&#x11d;" horiz-adv-x="1172" 
d="M488 1176h-286q87 114 218 280h320l218 -280h-280l-92 134h-4q-12 -17 -44.5 -63t-49.5 -71zM56 -26h324q16 -41 56 -70q44 -32 128 -32q105 0 154 52q46 52 46 150v104h-8q-45 -54 -110 -88t-158 -34q-87 0 -170 34q-88 36 -146 94q-60 60 -100 156q-38 91 -38 214
q0 119 32 212q30 98 90 166q57 69 138 108q79 38 180 38q106 0 176 -38q71 -39 118 -104h4v112h320v-946q0 -119 -38 -204q-39 -87 -102 -144q-69 -63 -168 -90q-103 -28 -216 -28q-215 0 -352 88q-136 88 -160 250zM416 376q57 -72 150 -72q108 0 160 76t52 186
q0 54 -12 102q-16 47 -42 82q-24 33 -68 56q-37 20 -90 20q-92 0 -150 -70t-58 -192q0 -118 58 -188z" />
    <glyph glyph-name="Gbreve" unicode="&#x11e;" horiz-adv-x="1510" 
d="M824 520v266h610v-786h-254l-20 176h-4q-72 -113 -178 -162q-105 -48 -238 -48q-159 0 -282 54q-126 54 -218 152q-94 103 -146 246q-50 138 -50 308q0 178 56 322q57 147 160 250q94 94 218 144q121 50 284 50q143 0 254 -36q114 -37 194 -102t132 -160q52 -96 70 -210
h-352q-20 88 -92 150q-72 60 -194 60q-89 0 -158 -36q-70 -37 -114 -98q-43 -60 -68 -148q-22 -91 -22 -186q0 -102 26 -186q26 -83 72 -148q47 -62 116 -98q71 -34 154 -34q68 0 128 22q62 23 98 56t62 82q24 45 30 96v4h-274zM420 1820h188q6 -43 42 -70q35 -26 102 -26
q60 0 100 28q39 30 42 68h188q-6 -130 -96 -214q-88 -82 -232 -82q-73 0 -130 20q-58 20 -104 60q-43 37 -70 94q-27 54 -30 122z" />
    <glyph glyph-name="gbreve" unicode="&#x11f;" horiz-adv-x="1172" 
d="M56 -26h324q16 -41 56 -70q44 -32 128 -32q105 0 154 52q46 52 46 150v104h-8q-45 -54 -110 -88t-158 -34q-87 0 -170 34q-88 36 -146 94q-60 60 -100 156q-38 91 -38 214q0 119 32 212q30 98 90 166q57 69 138 108q79 38 180 38q106 0 176 -38q71 -39 118 -104h4v112
h320v-946q0 -119 -38 -204q-39 -87 -102 -144q-69 -63 -168 -90q-103 -28 -216 -28q-215 0 -352 88q-136 88 -160 250zM416 376q57 -72 150 -72q108 0 160 76t52 186q0 54 -12 102q-16 47 -42 82q-24 33 -68 56q-37 20 -90 20q-92 0 -150 -70t-58 -192q0 -118 58 -188z
M248 1456h188q3 -43 42 -70q35 -26 102 -26q60 0 100 28q36 27 42 68h188q-6 -133 -96 -214q-87 -84 -232 -84q-67 0 -130 22q-58 20 -104 60t-72 92q-25 53 -28 124z" />
    <glyph glyph-name="Gdotaccent" unicode="&#x120;" horiz-adv-x="1510" 
d="M824 520v266h610v-786h-254l-20 176h-4q-72 -113 -178 -162q-105 -48 -238 -48q-159 0 -282 54q-126 54 -218 152q-94 103 -146 246q-50 138 -50 308q0 178 56 322q57 147 160 250q94 94 218 144q121 50 284 50q143 0 254 -36q114 -37 194 -102t132 -160q52 -96 70 -210
h-352q-20 88 -92 150q-72 60 -194 60q-89 0 -158 -36q-70 -37 -114 -98q-43 -60 -68 -148q-22 -91 -22 -186q0 -102 26 -186q26 -83 72 -148q47 -62 116 -98q71 -34 154 -34q68 0 128 22q62 23 98 56t62 82q24 45 30 96v4h-274zM584 1542v266h332v-266h-332z" />
    <glyph glyph-name="gdotaccent" unicode="&#x121;" horiz-adv-x="1172" 
d="M56 -26h324q16 -41 56 -70q44 -32 128 -32q105 0 154 52q46 52 46 150v104h-8q-45 -54 -110 -88t-158 -34q-87 0 -170 34q-88 36 -146 94q-60 60 -100 156q-38 91 -38 214q0 119 32 212q30 98 90 166q57 69 138 108q79 38 180 38q106 0 176 -38q71 -39 118 -104h4v112
h320v-946q0 -119 -38 -204q-39 -87 -102 -144q-69 -63 -168 -90q-103 -28 -216 -28q-215 0 -352 88q-136 88 -160 250zM416 376q57 -72 150 -72q108 0 160 76t52 186q0 54 -12 102q-16 47 -42 82q-24 33 -68 56q-37 20 -90 20q-92 0 -150 -70t-58 -192q0 -118 58 -188z
M414 1194v270h332v-270h-332z" />
    <glyph glyph-name="uni0122" unicode="&#x122;" horiz-adv-x="1510" 
d="M824 520v266h610v-786h-254l-20 176h-4q-72 -113 -178 -162q-105 -48 -238 -48q-159 0 -282 54q-126 54 -218 152q-94 103 -146 246q-50 138 -50 308q0 178 56 322q57 147 160 250q94 94 218 144q121 50 284 50q143 0 254 -36q114 -37 194 -102t132 -160q52 -96 70 -210
h-352q-20 88 -92 150q-72 60 -194 60q-89 0 -158 -36q-70 -37 -114 -98q-43 -60 -68 -148q-22 -91 -22 -186q0 -102 26 -186q26 -83 72 -148q47 -62 116 -98q71 -34 154 -34q68 0 128 22q62 23 98 56t62 82q24 45 30 96v4h-274zM606 -540v100q53 12 94 40q42 27 42 82h-130
v222h282v-178q0 -66 -24 -114q-19 -44 -62 -80q-36 -30 -92 -50q-54 -19 -110 -22z" />
    <glyph glyph-name="uni0123" unicode="&#x123;" horiz-adv-x="1172" 
d="M434 1202v178q0 66 24 114t62 80t92 48q54 19 112 22v-98q-57 -12 -96 -42q-42 -27 -42 -82h132v-220h-284zM56 -26h324q16 -41 56 -70q44 -32 128 -32q105 0 154 52q46 52 46 150v104h-8q-45 -54 -110 -88t-158 -34q-87 0 -170 34q-88 36 -146 94q-60 60 -100 156
q-38 91 -38 214q0 119 32 212q30 98 90 166q57 69 138 108q79 38 180 38q106 0 176 -38q71 -39 118 -104h4v112h320v-946q0 -119 -38 -204q-39 -87 -102 -144q-69 -63 -168 -90q-103 -28 -216 -28q-215 0 -352 88q-136 88 -160 250zM416 376q57 -72 150 -72q108 0 160 76
t52 186q0 54 -12 102q-16 47 -42 82q-24 33 -68 56q-37 20 -90 20q-92 0 -150 -70t-58 -192q0 -118 58 -188z" />
    <glyph glyph-name="Hcircumflex" unicode="&#x124;" horiz-adv-x="1440" 
d="M100 0v1464h364v-556h514v556h362v-1464h-362v610h-514v-610h-364zM340 1536l218 256h320l220 -256h-282l-92 110h-4q-30 -38 -94 -110h-286z" />
    <glyph glyph-name="hcircumflex" unicode="&#x125;" horiz-adv-x="1168" 
d="M80 0v1464h334v-544h6q55 72 130 116q72 42 182 42q82 0 154 -28q64 -29 114 -82q48 -54 72 -126t24 -160v-682h-334v614q0 84 -40 136q-41 50 -124 50q-84 0 -134 -62q-50 -59 -50 -158v-580h-334zM496 1536h-286q82 98 218 256h320l220 -256h-282l-92 110h-4z" />
    <glyph glyph-name="Hbar" unicode="&#x126;" horiz-adv-x="1440" 
d="M-10 1238h110v226h364v-226h514v226h362v-226h110v-176h-110v-1062h-362v610h-514v-610h-364v1062h-110v176zM978 908v154h-514v-154h514z" />
    <glyph glyph-name="hbar" unicode="&#x127;" horiz-adv-x="1168" 
d="M-24 1326h104v138h334v-138h248v-168h-248v-238h6q55 72 130 116q72 42 182 42q82 0 154 -28q64 -29 114 -82q48 -54 72 -126t24 -160v-682h-334v614q0 84 -40 136q-41 50 -124 50q-84 0 -134 -62q-50 -59 -50 -158v-580h-334v1158h-104v168z" />
    <glyph glyph-name="Itilde" unicode="&#x128;" horiz-adv-x="566" 
d="M102 0v1464h364v-1464h-364zM116 1538h-172q0 139 60 208q62 68 150 68q39 0 72 -12q26 -7 64 -26l56 -28q23 -10 44 -10q33 0 44 20q13 22 18 52h172q0 -121 -54 -196q-50 -74 -152 -74q-37 0 -74 10q-27 7 -60 22q-34 13 -60 28q-21 12 -48 12q-51 0 -60 -74z" />
    <glyph glyph-name="itilde" unicode="&#x129;" horiz-adv-x="494" 
d="M108 1168h-168q0 139 54 208q58 70 136 70q33 0 66 -12q32 -12 58 -26l48 -24q16 -8 34 -8q28 0 38 16q11 19 14 50h166q0 -119 -46 -196q-46 -76 -136 -76q-35 0 -68 10q-29 8 -58 24q-10 4 -19.5 9t-19.5 10t-13 7q-19 8 -36 8q-44 0 -50 -70zM80 0v1048h334v-1048
h-334z" />
    <glyph glyph-name="Imacron" unicode="&#x12a;" horiz-adv-x="566" 
d="M102 0v1464h364v-1464h-364zM-10 1560v206h586v-206h-586z" />
    <glyph glyph-name="imacron" unicode="&#x12b;" horiz-adv-x="494" 
d="M-20 1202v206h534v-206h-534zM80 0v1048h334v-1048h-334z" />
    <glyph glyph-name="Ibreve" unicode="&#x12c;" horiz-adv-x="566" 
d="M102 0v1464h364v-1464h-364zM-46 1820h188q3 -42 40 -70q38 -26 104 -26q58 0 98 28q39 30 42 68h188q-6 -129 -94 -214q-91 -82 -232 -82q-73 0 -130 20q-60 20 -106 60q-43 37 -70 94q-25 50 -28 122z" />
    <glyph glyph-name="ibreve" unicode="&#x12d;" horiz-adv-x="494" 
d="M-56 1456h184q3 -42 34 -70q26 -26 86 -26q53 0 84 28q28 28 34 68h184q-3 -135 -84 -216q-82 -82 -216 -82q-132 0 -218 80q-85 82 -88 218zM80 0v1048h334v-1048h-334z" />
    <glyph glyph-name="Iogonek" unicode="&#x12e;" horiz-adv-x="566" 
d="M342 -364q-131 0 -192 46q-60 45 -60 132q0 66 38 110q42 49 86 76h-112v1464h364v-1454q-57 -39 -90 -72q-34 -34 -34 -68q0 -50 66 -50q32 0 62 10h2v-174q-18 -8 -52 -14q-30 -6 -78 -6z" />
    <glyph glyph-name="iogonek" unicode="&#x12f;" horiz-adv-x="494" 
d="M80 0v1048h334v-1040q-59 -40 -86 -70q-30 -33 -30 -68q0 -50 60 -50q35 0 62 10h2v-174q-18 -8 -52 -14q-33 -6 -78 -6q-125 0 -186 46q-60 45 -60 128q0 36 12 66q18 36 34 52q19 22 46 42q24 18 48 30h-106zM80 1194v270h334v-270h-334z" />
    <glyph glyph-name="Idotaccent" unicode="&#x130;" horiz-adv-x="566" 
d="M102 0v1464h364v-1464h-364zM118 1542v266h332v-266h-332z" />
    <glyph glyph-name="dotlessi" unicode="&#x131;" horiz-adv-x="494" 
d="M80 0v1048h334v-1048h-334z" />
    <glyph glyph-name="IJ" unicode="&#x132;" horiz-adv-x="1668" 
d="M102 0v1464h364v-1464h-364zM578 440v128h328v-120q0 -94 42 -136q43 -40 118 -40q79 0 116 46q36 45 36 126v1020h362v-1028q0 -202 -104 -318q-61 -67 -160 -106q-102 -40 -226 -40q-127 0 -226 34q-98 34 -160 96q-64 64 -96 148q-30 87 -30 190z" />
    <glyph glyph-name="ij" unicode="&#x133;" horiz-adv-x="986" 
d="M80 0v1048h334v-1048h-334zM396 -336v232q56 0 78 2q33 3 54 12t34 32q10 23 10 66v1040h334v-1056q0 -104 -22 -164q-22 -62 -58 -98q-47 -47 -106 -64q-60 -18 -136 -18l-96 4q-54 3 -92 12zM80 1194v270h334v-270h-334zM572 1194v270h334v-270h-334z" />
    <glyph glyph-name="Jcircumflex" unicode="&#x134;" horiz-adv-x="1116" 
d="M28 440v128h328v-120q0 -94 42 -136q43 -40 118 -40q79 0 116 46q36 45 36 126v1020h362v-1028q0 -202 -104 -318q-61 -67 -160 -106q-102 -40 -226 -40q-127 0 -226 34q-98 34 -160 96q-64 64 -96 148q-30 87 -30 190zM468 1536l218 256h320l220 -256h-282l-92 110h-4
q-30 -38 -94 -110h-286z" />
    <glyph glyph-name="jcircumflex" unicode="&#x135;" horiz-adv-x="494" 
d="M-86 1176l166 280h336l162 -280h-264l-62 126h-4l-64 -126h-270zM-96 -336v232q56 0 78 2q33 3 54 12t34 32q10 23 10 66v1040h334v-1056q0 -104 -22 -164q-22 -62 -58 -98q-47 -47 -106 -64q-60 -18 -136 -18l-96 4q-54 3 -92 12z" />
    <glyph glyph-name="uni0136" unicode="&#x136;" horiz-adv-x="1428" 
d="M100 0v1464h364v-530l504 530h430l-562 -588l594 -876h-422l-422 632l-122 -128v-504h-364zM558 -540v100q50 12 94 40q40 28 40 82h-128v222h280v-178q0 -64 -22 -114q-19 -44 -62 -80q-36 -30 -92 -50q-58 -19 -110 -22z" />
    <glyph glyph-name="uni0137" unicode="&#x137;" 
d="M80 0v1464h330v-770l312 354h384l-368 -394l412 -654h-388l-252 428l-100 -106v-322h-330zM442 -540v100q52 11 96 40q40 28 40 82h-128v222h280v-178q0 -64 -22 -114q-22 -45 -64 -80q-36 -30 -92 -50q-54 -19 -110 -22z" />
    <glyph glyph-name="kgreenlandic" unicode="&#x138;" 
d="M80 1048h330v-354l312 354h384l-368 -394l412 -654h-388l-252 428l-100 -106v-322h-330v1048z" />
    <glyph glyph-name="Lacute" unicode="&#x139;" horiz-adv-x="1158" 
d="M100 0v1464h364v-1158h656v-306h-1020zM150 1536l88 266h384l-218 -266h-254z" />
    <glyph glyph-name="lacute" unicode="&#x13a;" horiz-adv-x="502" 
d="M82 0v1464h338v-1464h-338zM118 1536l88 266h382q-72 -90 -216 -266h-254z" />
    <glyph glyph-name="uni013B" unicode="&#x13b;" horiz-adv-x="1158" 
d="M100 0v1464h364v-1158h656v-306h-1020zM468 -540v100q50 12 94 40q40 28 40 82h-128v222h280v-178q0 -64 -22 -114q-19 -44 -62 -80q-36 -30 -92 -50q-58 -19 -110 -22z" />
    <glyph glyph-name="uni013C" unicode="&#x13c;" horiz-adv-x="502" 
d="M82 0v1464h338v-1464h-338zM110 -540v100q50 12 94 40q40 28 40 82h-128v222h280v-178q0 -64 -22 -114q-22 -45 -64 -80q-36 -30 -92 -50q-54 -19 -108 -22z" />
    <glyph glyph-name="Lcaron" unicode="&#x13d;" horiz-adv-x="1158" 
d="M678 1052v100q60 9 92 30q34 22 34 62h-122v220h268v-170q0 -63 -20 -106q-23 -50 -58 -74q-35 -29 -86 -44t-108 -18zM100 0v1464h364v-1158h656v-306h-1020z" />
    <glyph glyph-name="lcaron" unicode="&#x13e;" horiz-adv-x="502" 
d="M492 1072v96q50 8 86 28q32 20 32 60h-116v208h256v-162q0 -62 -20 -102q-17 -41 -54 -68q-32 -26 -82 -42q-45 -15 -102 -18zM82 0v1464h338v-1464h-338z" />
    <glyph glyph-name="Ldot" unicode="&#x13f;" horiz-adv-x="1158" 
d="M100 0v1464h364v-1158h656v-306h-1020zM730 546v344h350v-344h-350z" />
    <glyph glyph-name="ldot" unicode="&#x140;" horiz-adv-x="846" 
d="M510 546v338h328v-338h-328zM82 0v1464h338v-1464h-338z" />
    <glyph glyph-name="Lslash" unicode="&#x141;" horiz-adv-x="1172" 
d="M118 444q-21 -11 -63 -32t-63 -32v240q21 11 63 32t63 32v780h362v-590l390 204v-238q-130 -70 -390 -206v-328h658v-306h-1020v444z" />
    <glyph glyph-name="lslash" unicode="&#x142;" horiz-adv-x="566" 
d="M114 470l-110 -80v240l110 80v754h338v-504l122 90v-240l-122 -90v-720h-338v470z" />
    <glyph glyph-name="Nacute" unicode="&#x143;" horiz-adv-x="1454" 
d="M100 0v1464h366l434 -736q2 -4 10.5 -19.5t15.5 -26.5l32 -62q21 -36 42 -78h4q-2 34 -2 94q-2 26 -2 76v752h354v-1464h-364l-430 724l-7 10.5t-10.5 16.5t-10.5 19q-24 44 -34 68q-21 39 -42 84h-4q0 -70 2 -102v-80l2 -58v-682h-356zM606 1536l88 266h384l-218 -266
h-254z" />
    <glyph glyph-name="nacute" unicode="&#x144;" horiz-adv-x="1168" 
d="M80 0v1048h322v-144h6q57 83 136 130q76 44 188 44q82 0 154 -28q64 -29 114 -82q48 -54 72 -126t24 -160v-682h-334v614q0 84 -40 136q-41 50 -124 50q-84 0 -134 -62q-50 -59 -50 -158v-580h-334zM460 1170l118 304h384l-248 -304h-254z" />
    <glyph glyph-name="uni0145" unicode="&#x145;" horiz-adv-x="1454" 
d="M100 0v1464h366l434 -736q2 -4 10.5 -19.5t15.5 -26.5l32 -62q21 -36 42 -78h4q-2 34 -2 94q-2 26 -2 76v752h354v-1464h-364l-430 724l-7 10.5t-10.5 16.5t-10.5 19q-24 44 -34 68q-21 39 -42 84h-4q0 -70 2 -102v-80l2 -58v-682h-356zM578 -538v100q50 12 94 40
q40 28 40 82h-128v222h280v-178q0 -64 -22 -114q-19 -44 -62 -80q-36 -30 -92 -50q-58 -19 -110 -22z" />
    <glyph glyph-name="uni0146" unicode="&#x146;" horiz-adv-x="1168" 
d="M444 -540v100q52 11 96 40q40 28 40 82h-128v222h280v-178q0 -64 -22 -114q-22 -45 -64 -80q-36 -30 -92 -50q-54 -19 -110 -22zM80 0v1048h322v-144h6q57 83 136 130q76 44 188 44q82 0 154 -28q64 -29 114 -82q48 -54 72 -126t24 -160v-682h-334v614q0 84 -40 136
q-41 50 -124 50q-84 0 -134 -62q-50 -59 -50 -158v-580h-334z" />
    <glyph glyph-name="Ncaron" unicode="&#x147;" horiz-adv-x="1454" 
d="M100 0v1464h366l434 -736q2 -4 10.5 -19.5t15.5 -26.5l32 -62q21 -36 42 -78h4q-2 34 -2 94q-2 26 -2 76v752h354v-1464h-364l-430 724l-7 10.5t-10.5 16.5t-10.5 19q-24 44 -34 68q-21 39 -42 84h-4q0 -70 2 -102v-80l2 -58v-682h-356zM580 1536l-216 256h280l92 -112h4
l92 112h286l-216 -256h-322z" />
    <glyph glyph-name="ncaron" unicode="&#x148;" horiz-adv-x="1168" 
d="M80 0v1048h322v-144h6q57 83 136 130q76 44 188 44q82 0 154 -28q64 -29 114 -82q48 -54 72 -126t24 -160v-682h-334v614q0 84 -40 136q-41 50 -124 50q-84 0 -134 -62q-50 -59 -50 -158v-580h-334zM218 1452h280l92 -136h4l92 136h288q-17 -22 -218 -284h-322z" />
    <glyph glyph-name="napostrophe" unicode="&#x149;" horiz-adv-x="1168" 
d="M-86 1060v100q53 6 88 28q36 21 36 62h-122v214h264v-168q0 -64 -20 -104q-22 -46 -56 -72q-36 -27 -84 -42t-106 -18zM80 0v1048h322v-144h6q57 83 136 130q76 44 188 44q82 0 154 -28q64 -29 114 -82q48 -54 72 -126t24 -160v-682h-334v614q0 84 -40 136
q-41 50 -124 50q-84 0 -134 -62q-50 -59 -50 -158v-580h-334z" />
    <glyph glyph-name="Eng" unicode="&#x14a;" horiz-adv-x="1454" 
d="M100 1464h366l434 -736q2 -4 10.5 -19.5t15.5 -26.5l32 -62q21 -36 42 -78h4q-2 34 -2 94q-2 26 -2 76v752h354v-1370q0 -102 -24 -186q-24 -86 -80 -144q-53 -58 -138 -92q-84 -32 -206 -32l-80 2q-37 3 -80 12v292l50 -6q28 -4 42 -4q109 0 148 66l-426 722l-7 10.5
t-10.5 16.5t-10.5 19q-24 44 -34 68q-21 39 -42 84h-4q0 -70 2 -102v-80l2 -58v-682h-356v1464z" />
    <glyph glyph-name="eng" unicode="&#x14b;" horiz-adv-x="1168" 
d="M1096 -8q0 -104 -22 -164q-22 -62 -58 -98q-47 -47 -106 -64q-60 -18 -136 -18l-96 4q-54 3 -92 12v232q56 0 78 2q33 3 54 12t34 32q10 23 10 66v606q0 84 -40 136q-41 50 -124 50q-84 0 -134 -62q-50 -59 -50 -158v-580h-334v1048h322v-144h6q57 83 136 130
q76 44 188 44q82 0 154 -28q64 -29 114 -82q48 -54 72 -126t24 -160v-690z" />
    <glyph glyph-name="Omacron" unicode="&#x14c;" horiz-adv-x="1530" 
d="M238 182q-97 106 -146 242q-50 138 -50 304t50 304q48 134 146 244q96 105 226 160q133 56 300 56t300 -56q134 -56 228 -160q96 -104 146 -244q52 -144 52 -304t-52 -304q-51 -141 -146 -242q-94 -104 -228 -160q-137 -58 -300 -58t-300 58q-130 55 -226 160zM500 394
q43 -60 112 -98q66 -36 154 -36q87 0 156 36q66 36 110 98q49 68 68 148q20 83 20 186t-20 186t-68 150q-47 66 -110 100q-69 36 -156 36q-88 0 -154 -36t-112 -100q-43 -61 -68 -150q-22 -91 -22 -186t22 -186q24 -86 68 -148zM472 1560v206h586v-206h-586z" />
    <glyph glyph-name="omacron" unicode="&#x14d;" horiz-adv-x="1186" 
d="M186 126q-74 77 -112 176q-40 102 -40 220q0 115 40 220q38 99 112 176q75 75 178 116q105 42 230 42q128 0 230 -42q105 -42 176 -116q76 -76 114 -176q40 -105 40 -220q0 -118 -40 -220q-38 -100 -114 -176q-74 -77 -176 -118q-102 -42 -230 -42q-125 0 -230 42
q-100 40 -178 118zM426 292q58 -88 166 -88q110 0 168 88q56 85 56 230q0 147 -56 232q-58 88 -168 88q-108 0 -166 -88q-54 -87 -54 -232q0 -143 54 -230zM302 1202v206h586v-206h-586z" />
    <glyph glyph-name="Obreve" unicode="&#x14e;" horiz-adv-x="1530" 
d="M434 1820h188q6 -43 42 -70q35 -26 102 -26q60 0 100 28q39 30 42 68h188q-6 -130 -96 -214q-88 -82 -232 -82q-73 0 -130 20q-58 20 -104 60q-43 37 -70 94q-27 54 -30 122zM238 182q-97 106 -146 242q-50 138 -50 304t50 304q48 134 146 244q96 105 226 160
q133 56 300 56t300 -56q134 -56 228 -160q96 -104 146 -244q52 -144 52 -304t-52 -304q-51 -141 -146 -242q-94 -104 -228 -160q-137 -58 -300 -58t-300 58q-130 55 -226 160zM500 394q43 -60 112 -98q66 -36 154 -36q87 0 156 36q66 36 110 98q49 68 68 148q20 83 20 186
t-20 186t-68 150q-47 66 -110 100q-69 36 -156 36q-88 0 -154 -36t-112 -100q-43 -61 -68 -150q-22 -91 -22 -186t22 -186q24 -86 68 -148z" />
    <glyph glyph-name="obreve" unicode="&#x14f;" horiz-adv-x="1186" 
d="M186 126q-74 77 -112 176q-40 102 -40 220q0 115 40 220q38 99 112 176q75 75 178 116q105 42 230 42q128 0 230 -42q105 -42 176 -116q76 -76 114 -176q40 -105 40 -220q0 -118 -40 -220q-38 -100 -114 -176q-74 -77 -176 -118q-102 -42 -230 -42q-125 0 -230 42
q-100 40 -178 118zM426 292q58 -88 166 -88q110 0 168 88q56 85 56 230q0 147 -56 232q-58 88 -168 88q-108 0 -166 -88q-54 -87 -54 -232q0 -143 54 -230zM262 1456h188q3 -43 42 -70q35 -26 102 -26q60 0 100 28q36 27 42 68h188q-6 -133 -96 -214q-87 -84 -232 -84
q-67 0 -130 22q-58 20 -104 60t-72 92q-25 53 -28 124z" />
    <glyph glyph-name="Ohungarumlaut" unicode="&#x150;" horiz-adv-x="1530" 
d="M852 1536l94 286h324l-210 -286h-208zM238 182q-97 106 -146 242q-50 138 -50 304t50 304q48 134 146 244q96 105 226 160q133 56 300 56t300 -56q134 -56 228 -160q96 -104 146 -244q52 -144 52 -304t-52 -304q-51 -141 -146 -242q-94 -104 -228 -160q-137 -58 -300 -58
t-300 58q-130 55 -226 160zM500 394q43 -60 112 -98q66 -36 154 -36q87 0 156 36q66 36 110 98q49 68 68 148q20 83 20 186t-20 186t-68 150q-47 66 -110 100q-69 36 -156 36q-88 0 -154 -36t-112 -100q-43 -61 -68 -150q-22 -91 -22 -186t22 -186q24 -86 68 -148zM454 1536
l92 286h322q-15 -21 -91 -126t-117 -160h-206z" />
    <glyph glyph-name="ohungarumlaut" unicode="&#x151;" horiz-adv-x="1186" 
d="M186 126q-74 77 -112 176q-40 102 -40 220q0 115 40 220q38 99 112 176q75 75 178 116q105 42 230 42q128 0 230 -42q105 -42 176 -116q76 -76 114 -176q40 -105 40 -220q0 -118 -40 -220q-38 -100 -114 -176q-74 -77 -176 -118q-102 -42 -230 -42q-125 0 -230 42
q-100 40 -178 118zM426 292q58 -88 166 -88q110 0 168 88q56 85 56 230q0 147 -56 232q-58 88 -168 88q-108 0 -166 -88q-54 -87 -54 -232q0 -143 54 -230zM284 1170l100 304h324l-218 -304h-206zM682 1170l100 304h324l-218 -304h-206z" />
    <glyph glyph-name="OE" unicode="&#x152;" horiz-adv-x="2206" 
d="M732 -36q-152 0 -280 58q-124 55 -220 160q-89 101 -140 242q-50 138 -50 304t50 304q50 140 140 244q92 104 212 160q121 56 272 56q129 0 216 -36q83 -34 152 -94v102h1038v-302h-698v-264h590v-280h-590v-302h718v-316h-1058v102q-65 -59 -152 -98q-89 -40 -200 -40z
M754 260q60 0 114 16q48 14 88 42q39 27 66 60q23 28 40 62v574q-34 53 -46 68q-30 36 -64 60q-37 25 -86 42q-51 16 -112 16q-85 0 -148 -36q-62 -35 -108 -100q-42 -63 -66 -150q-22 -91 -22 -186t22 -186q23 -84 66 -148q44 -61 108 -98q63 -36 148 -36z" />
    <glyph glyph-name="oe" unicode="&#x153;" horiz-adv-x="1922" 
d="M594 -34q-125 0 -230 42q-100 40 -178 118q-74 77 -112 176q-40 102 -40 220q0 115 40 220q38 99 112 176q75 75 178 116q105 42 230 42q122 0 220 -40q93 -38 162 -110q63 69 158 112q95 40 210 40q111 0 204 -34q87 -33 156 -96q94 -87 138 -218q47 -138 44 -292h-752
q15 -102 74 -168q56 -62 162 -62q63 0 110 28q43 28 64 76h324q-14 -66 -62 -136q-49 -69 -112 -110q-67 -48 -146 -72q-78 -26 -184 -26q-124 0 -222 40q-96 38 -164 112q-67 -74 -162 -112q-96 -42 -222 -42zM592 204q110 0 168 88q56 85 56 230q0 147 -56 232
q-58 88 -168 88q-108 0 -166 -88q-54 -87 -54 -232q0 -143 54 -230q58 -88 166 -88zM1548 636q-9 90 -62 150q-50 56 -136 56q-98 0 -148 -56q-51 -57 -66 -150h412z" />
    <glyph glyph-name="Racute" unicode="&#x154;" horiz-adv-x="1374" 
d="M100 0v1464h702q106 0 202 -28q89 -26 162 -80q69 -54 108 -132q40 -83 40 -182q0 -129 -64 -220q-63 -90 -190 -134v-6q95 -33 146 -96t66 -172q13 -80 16 -142q3 -64 6 -122q2 -44 14 -90q9 -36 26 -42v-18h-352q-13 8 -22 42q-9 33 -12 82q-8 63 -10 104
q-3 54 -12 112q-15 104 -70 156q-58 52 -174 52h-218v-548h-364zM464 816h272q108 0 162 48q54 45 54 130q0 80 -52 132t-156 52h-280v-362zM540 1536l88 266h382q-72 -90 -216 -266h-254z" />
    <glyph glyph-name="racute" unicode="&#x155;" horiz-adv-x="784" 
d="M80 0v1048h320v-164h6q58 94 122 138q69 42 164 42q50 0 66 -8v-286h-8q-156 21 -244 -52q-92 -74 -92 -248v-470h-334zM314 1170l118 304h384l-248 -304h-254z" />
    <glyph glyph-name="uni0156" unicode="&#x156;" horiz-adv-x="1374" 
d="M100 0v1464h702q106 0 202 -28q89 -26 162 -80q69 -54 108 -132q40 -83 40 -182q0 -129 -64 -220q-63 -90 -190 -134v-6q95 -33 146 -96t66 -172q13 -80 16 -142q3 -64 6 -122q2 -44 14 -90q9 -36 26 -42v-18h-352q-13 8 -22 42q-9 33 -12 82q-8 63 -10 104
q-3 54 -12 112q-15 104 -70 156q-58 52 -174 52h-218v-548h-364zM464 816h272q108 0 162 48q54 45 54 130q0 80 -52 132t-156 52h-280v-362zM550 -540v100q50 12 94 40q40 28 40 82h-128v222h280v-178q0 -64 -22 -114q-19 -44 -62 -80q-36 -30 -92 -50q-58 -19 -110 -22z
" />
    <glyph glyph-name="uni0157" unicode="&#x157;" horiz-adv-x="784" 
d="M80 0v1048h320v-164h6q58 94 122 138q69 42 164 42q50 0 66 -8v-286h-8q-156 21 -244 -52q-92 -74 -92 -248v-470h-334zM94 -540v100q53 12 94 40q42 27 42 82h-130v222h282v-178q0 -66 -24 -114q-19 -44 -62 -80q-36 -30 -92 -50q-54 -19 -110 -22z" />
    <glyph glyph-name="Rcaron" unicode="&#x158;" horiz-adv-x="1374" 
d="M100 0v1464h702q106 0 202 -28q89 -26 162 -80q69 -54 108 -132q40 -83 40 -182q0 -129 -64 -220q-63 -90 -190 -134v-6q95 -33 146 -96t66 -172q13 -80 16 -142q3 -64 6 -122q2 -44 14 -90q9 -36 26 -42v-18h-352q-13 8 -22 42q-9 33 -12 82q-8 63 -10 104
q-3 54 -12 112q-15 104 -70 156q-58 52 -174 52h-218v-548h-364zM464 816h272q108 0 162 48q54 45 54 130q0 80 -52 132t-156 52h-280v-362zM514 1536l-216 256h280l92 -112h4l92 112h288q-136 -158 -218 -256h-322z" />
    <glyph glyph-name="rcaron" unicode="&#x159;" horiz-adv-x="784" 
d="M80 0v1048h320v-164h6q58 94 122 138q69 42 164 42q50 0 66 -8v-286h-8q-156 21 -244 -52q-92 -74 -92 -248v-470h-334zM288 1168l-218 284h280l92 -136h4q85 122 94 136h286l-218 -284h-320z" />
    <glyph glyph-name="Sacute" unicode="&#x15a;" horiz-adv-x="1332" 
d="M524 1536l88 266h384l-218 -266h-254zM32 460h364q12 -109 84 -160q72 -48 202 -48q51 0 88 8q43 9 74 26q33 18 54 48q20 29 20 70q0 44 -22 72q-20 29 -62 50q-38 21 -100 36l-136 34q-64 14 -188 50q-93 30 -168 78q-75 51 -120 126q-46 77 -46 190t46 202
q45 84 122 140q73 54 184 82q104 26 230 26q113 0 222 -28t180 -82q81 -59 124 -140q46 -89 52 -200h-354q-12 85 -72 130q-64 46 -164 46q-98 0 -154 -38q-58 -40 -58 -100q0 -36 22 -64q19 -24 62 -44q49 -21 104 -34l144 -34q106 -25 196 -54q102 -36 164 -82
q69 -49 116 -130q42 -78 42 -194q0 -112 -46 -204q-45 -90 -126 -150q-78 -58 -190 -92q-108 -32 -238 -32q-148 0 -264 32q-123 34 -206 94q-84 63 -132 156q-47 91 -50 214z" />
    <glyph glyph-name="sacute" unicode="&#x15b;" horiz-adv-x="1032" 
d="M16 340h316q9 -79 60 -118q47 -38 132 -38q77 0 120 26q44 26 44 78q0 34 -22 56q-21 21 -60 36q-29 10 -84 20q-32 6 -100 18q-46 8 -134 28q-67 18 -122 54q-54 33 -88 92q-32 55 -32 150q0 83 36 146q37 65 96 106q66 44 146 64q77 20 174 20q225 0 342 -90t132 -246
h-308q-9 71 -54 98q-43 26 -114 26q-62 0 -104 -24t-42 -72q0 -30 22 -46q24 -17 54 -28q32 -8 82 -18l94 -18q56 -10 140 -28q74 -18 130 -54q59 -40 96 -100q36 -63 36 -164q0 -87 -36 -150q-34 -63 -100 -110q-65 -44 -150 -64q-87 -24 -192 -24q-230 0 -366 100
q-135 99 -144 274zM634 1170h-254q95 242 118 304h384z" />
    <glyph glyph-name="Scircumflex" unicode="&#x15c;" horiz-adv-x="1332" 
d="M568 1536h-286q82 98 218 256h320l218 -256h-280q-4 5 -39 46t-53 64h-4zM32 460h364q12 -109 84 -160q72 -48 202 -48q51 0 88 8q43 9 74 26q33 18 54 48q20 29 20 70q0 44 -22 72q-20 29 -62 50q-38 21 -100 36l-136 34q-64 14 -188 50q-93 30 -168 78q-75 51 -120 126
q-46 77 -46 190t46 202q45 84 122 140q73 54 184 82q104 26 230 26q113 0 222 -28t180 -82q81 -59 124 -140q46 -89 52 -200h-354q-12 85 -72 130q-64 46 -164 46q-98 0 -154 -38q-58 -40 -58 -100q0 -36 22 -64q19 -24 62 -44q49 -21 104 -34l144 -34q106 -25 196 -54
q102 -36 164 -82q69 -49 116 -130q42 -78 42 -194q0 -112 -46 -204q-45 -90 -126 -150q-78 -58 -190 -92q-108 -32 -238 -32q-148 0 -264 32q-123 34 -206 94q-84 63 -132 156q-47 91 -50 214z" />
    <glyph glyph-name="scircumflex" unicode="&#x15d;" horiz-adv-x="1032" 
d="M16 340h316q9 -79 60 -118q47 -38 132 -38q77 0 120 26q44 26 44 78q0 34 -22 56q-21 21 -60 36q-29 10 -84 20q-32 6 -100 18q-46 8 -134 28q-67 18 -122 54q-54 33 -88 92q-32 55 -32 150q0 83 36 146q37 65 96 106q66 44 146 64q77 20 174 20q225 0 342 -90t132 -246
h-308q-9 71 -54 98q-43 26 -114 26q-62 0 -104 -24t-42 -72q0 -30 22 -46q24 -17 54 -28q32 -8 82 -18l94 -18q56 -10 140 -28q74 -18 130 -54q59 -40 96 -100q36 -63 36 -164q0 -87 -36 -150q-34 -63 -100 -110q-65 -44 -150 -64q-87 -24 -192 -24q-230 0 -366 100
q-135 99 -144 274zM136 1176l220 280h320l218 -280h-280q-7 10 -40.5 58.5t-51.5 75.5h-4l-94 -134h-288z" />
    <glyph glyph-name="Scedilla" unicode="&#x15e;" horiz-adv-x="1332" 
d="M610 -396q-67 0 -128 16q-53 14 -100 44l40 72q30 -15 66 -24q35 -8 76 -8q45 0 76 14q34 15 34 46q0 26 -22 42q-20 14 -56 14q-14 0 -38 -4q-17 -3 -34 -12l-34 50l112 114q-130 9 -232 44q-107 37 -180 98q-72 63 -114 150q-41 85 -44 200h364q12 -109 84 -160
q72 -48 202 -48q51 0 88 8q43 9 74 26q33 18 54 48q20 29 20 70q0 44 -22 72q-20 29 -62 50q-38 21 -100 36l-136 34q-64 14 -188 50q-93 30 -168 78q-75 51 -120 126q-46 77 -46 190t46 202q45 84 122 140q73 54 184 82q104 26 230 26q113 0 222 -28t180 -82
q81 -59 124 -140q46 -89 52 -200h-354q-12 85 -72 130q-64 46 -164 46q-98 0 -154 -38q-58 -40 -58 -100q0 -36 22 -64q19 -24 62 -44q49 -21 104 -34l144 -34q106 -25 196 -54q102 -36 164 -82q69 -49 116 -130q42 -78 42 -194q0 -109 -42 -196q-45 -86 -118 -148
q-78 -63 -178 -94q-112 -35 -222 -38l-74 -62v-4q89 9 152 -24q64 -34 64 -114q0 -74 -72 -116t-184 -42z" />
    <glyph glyph-name="scedilla" unicode="&#x15f;" horiz-adv-x="1032" 
d="M466 -396q-69 0 -130 16q-48 12 -100 44l40 72q31 -15 68 -24q35 -8 74 -8q47 0 78 14q32 15 32 46q0 26 -22 42q-20 14 -54 14q-18 0 -38 -4q-19 -3 -34 -12q-12 18 -36 50l116 114q-203 18 -320 114q-115 94 -124 258h316q9 -79 60 -118q47 -38 132 -38q77 0 120 26
q44 26 44 78q0 34 -22 56q-21 21 -60 36q-29 10 -84 20q-32 6 -100 18q-46 8 -134 28q-67 18 -122 54q-54 33 -88 92q-32 55 -32 150q0 83 36 146q37 65 96 106q66 44 146 64q77 20 174 20q225 0 342 -90t132 -246h-308q-9 71 -54 98q-43 26 -114 26q-62 0 -104 -24t-42 -72
q0 -30 22 -46q24 -17 54 -28q32 -8 82 -18l94 -18q56 -10 140 -28q74 -18 130 -54q59 -40 96 -100q36 -63 36 -164q0 -81 -32 -142q-33 -63 -86 -104q-56 -44 -134 -68q-75 -26 -170 -32l-78 -64v-4q89 9 152 -24q66 -33 66 -114q0 -75 -74 -116q-72 -42 -182 -42z" />
    <glyph glyph-name="Scaron" unicode="&#x160;" horiz-adv-x="1332" 
d="M32 460h364q12 -109 84 -160q72 -48 202 -48q51 0 88 8q43 9 74 26q33 18 54 48q20 29 20 70q0 44 -22 72q-20 29 -62 50q-38 21 -100 36l-136 34q-64 14 -188 50q-93 30 -168 78q-75 51 -120 126q-46 77 -46 190t46 202q45 84 122 140q73 54 184 82q104 26 230 26
q113 0 222 -28t180 -82q81 -59 124 -140q46 -89 52 -200h-354q-12 85 -72 130q-64 46 -164 46q-98 0 -154 -38q-58 -40 -58 -100q0 -36 22 -64q19 -24 62 -44q49 -21 104 -34l144 -34q106 -25 196 -54q102 -36 164 -82q69 -49 116 -130q42 -78 42 -194q0 -112 -46 -204
q-45 -90 -126 -150q-78 -58 -190 -92q-108 -32 -238 -32q-148 0 -264 32q-123 34 -206 94q-84 63 -132 156q-47 91 -50 214zM284 1792h280l92 -112h4l92 112h286l-216 -256h-322z" />
    <glyph glyph-name="scaron" unicode="&#x161;" horiz-adv-x="1032" 
d="M16 340h316q9 -79 60 -118q47 -38 132 -38q77 0 120 26q44 26 44 78q0 34 -22 56q-21 21 -60 36q-29 10 -84 20q-32 6 -100 18q-46 8 -134 28q-67 18 -122 54q-54 33 -88 92q-32 55 -32 150q0 83 36 146q37 65 96 106q66 44 146 64q77 20 174 20q225 0 342 -90t132 -246
h-308q-9 71 -54 98q-43 26 -114 26q-62 0 -104 -24t-42 -72q0 -30 22 -46q24 -17 54 -28q32 -8 82 -18l94 -18q56 -10 140 -28q74 -18 130 -54q59 -40 96 -100q36 -63 36 -164q0 -87 -36 -150q-34 -63 -100 -110q-65 -44 -150 -64q-87 -24 -192 -24q-230 0 -366 100
q-135 99 -144 274zM136 1452h280l92 -136h4l92 136h288q-17 -22 -218 -284h-322z" />
    <glyph glyph-name="uni0162" unicode="&#x162;" horiz-adv-x="1288" 
d="M462 0v1156h-426v308h1218v-308h-430v-1156h-362zM500 -540v100q50 12 94 40q40 28 40 82h-128v222h280v-178q0 -64 -22 -114q-19 -44 -62 -80q-36 -30 -92 -50q-58 -19 -110 -22z" />
    <glyph glyph-name="uni0163" unicode="&#x163;" horiz-adv-x="718" 
d="M162 276v564h-138v208h138v332h326v-332h190v-208h-190v-492q0 -62 32 -82q31 -20 84 -20h44l30 2v-244q-19 -6 -68 -12q-60 -4 -114 -4q-74 0 -134 12q-66 16 -106 46q-42 31 -70 90q-24 57 -24 140zM256 -540v100q53 12 94 40q42 27 42 82h-130v222h282v-178
q0 -66 -24 -114q-19 -44 -62 -80q-36 -30 -92 -50q-54 -19 -110 -22z" />
    <glyph glyph-name="Tcaron" unicode="&#x164;" horiz-adv-x="1288" 
d="M462 0v1156h-426v308h1218v-308h-430v-1156h-362zM484 1536l-218 256h282l92 -112h4l92 112h286l-216 -256h-322z" />
    <glyph glyph-name="tcaron" unicode="&#x165;" horiz-adv-x="718" 
d="M162 276v564h-138v208h138v332h326v-332h190v-208h-190v-492q0 -62 32 -82q31 -20 84 -20h44l30 2v-244q-19 -6 -68 -12q-60 -4 -114 -4q-74 0 -134 12q-66 16 -106 46q-42 31 -70 90q-24 57 -24 140zM560 1092v96q54 6 86 24q32 20 32 58h-116v194h256v-158
q0 -109 -72 -160t-186 -54z" />
    <glyph glyph-name="Tbar" unicode="&#x166;" horiz-adv-x="1288" 
d="M186 818h276v338h-426v308h1218v-308h-430v-338h278v-214h-278v-604h-362v604h-276v214z" />
    <glyph glyph-name="tbar" unicode="&#x167;" horiz-adv-x="718" 
d="M24 1048h138v332h326v-332h190v-208h-190v-126h190v-168h-190v-198q0 -62 32 -82q31 -20 84 -20h44l30 2v-244q-19 -6 -68 -12q-60 -4 -114 -4q-74 0 -134 12q-66 16 -106 46q-42 31 -70 90q-24 57 -24 140v270h-142v168h142v126h-138v208z" />
    <glyph glyph-name="Utilde" unicode="&#x168;" horiz-adv-x="1404" 
d="M536 1538h-172q0 139 60 208q62 68 150 68q39 0 72 -12q26 -7 64 -26l56 -28q23 -10 44 -10q33 0 44 20q13 22 18 52h172q0 -121 -54 -196q-50 -74 -152 -74q-37 0 -74 10q-27 7 -60 22q-34 13 -60 28q-21 12 -48 12q-51 0 -60 -74zM90 516v948h364v-960q0 -110 58 -174
q57 -66 194 -66q127 0 186 68q60 69 60 178v954h364v-948q0 -253 -154 -398q-152 -146 -456 -146q-309 0 -462 144q-154 142 -154 400z" />
    <glyph glyph-name="utilde" unicode="&#x169;" horiz-adv-x="1160" 
d="M72 360v688h332v-618q0 -88 38 -132q40 -46 120 -46q85 0 134 58q50 56 50 152v586h334v-1048h-320v128h-6q-58 -79 -130 -118q-72 -42 -184 -42q-181 0 -274 108q-94 109 -94 284zM410 1168h-172q0 140 62 208q61 70 148 70q41 0 74 -12q34 -12 62 -28q10 -4 29 -13.5
t27 -12.5q23 -10 44 -10q32 0 46 20q13 20 16 52h172q0 -120 -52 -196t-154 -76q-39 0 -72 12q-32 9 -62 22q-34 13 -60 28q-23 10 -46 10q-53 0 -62 -74z" />
    <glyph glyph-name="Umacron" unicode="&#x16a;" horiz-adv-x="1404" 
d="M90 516v948h364v-960q0 -110 58 -174q57 -66 194 -66q127 0 186 68q60 69 60 178v954h364v-948q0 -253 -154 -398q-152 -146 -456 -146q-309 0 -462 144q-154 142 -154 400zM408 1560v206h586v-206h-586z" />
    <glyph glyph-name="umacron" unicode="&#x16b;" horiz-adv-x="1160" 
d="M286 1202v206h584v-206h-584zM72 360v688h332v-618q0 -88 38 -132q40 -46 120 -46q85 0 134 58q50 56 50 152v586h334v-1048h-320v128h-6q-58 -79 -130 -118q-72 -42 -184 -42q-181 0 -274 108q-94 109 -94 284z" />
    <glyph glyph-name="Ubreve" unicode="&#x16c;" horiz-adv-x="1404" 
d="M372 1820h188q3 -42 40 -70q38 -26 104 -26q58 0 98 28q39 30 42 68h188q-6 -129 -94 -214q-91 -82 -232 -82q-73 0 -130 20q-60 20 -106 60q-43 37 -70 94q-25 50 -28 122zM90 516v948h364v-960q0 -110 58 -174q57 -66 194 -66q127 0 186 68q60 69 60 178v954h364v-948
q0 -253 -154 -398q-152 -146 -456 -146q-309 0 -462 144q-154 142 -154 400z" />
    <glyph glyph-name="ubreve" unicode="&#x16d;" horiz-adv-x="1160" 
d="M246 1456h188q3 -43 42 -70q35 -26 102 -26q60 0 100 28q36 27 42 68h188q-6 -133 -96 -214q-87 -84 -232 -84q-67 0 -130 22q-58 20 -104 60t-72 92q-25 53 -28 124zM72 360v688h332v-618q0 -88 38 -132q40 -46 120 -46q85 0 134 58q50 56 50 152v586h334v-1048h-320
v128h-6q-58 -79 -130 -118q-72 -42 -184 -42q-181 0 -274 108q-94 109 -94 284z" />
    <glyph glyph-name="Uring" unicode="&#x16e;" horiz-adv-x="1404" 
d="M554 1546q-33 29 -46 64q-16 38 -16 80q0 40 16 78q15 36 46 64q27 27 66 42q42 16 80 16q40 0 82 -16q39 -15 66 -42q31 -28 46 -64q16 -38 16 -78q0 -42 -16 -80q-13 -35 -46 -64q-27 -27 -66 -42q-42 -16 -82 -16q-38 0 -80 16q-39 15 -66 42zM640 1628q23 -26 60 -26
q41 0 64 26q22 28 22 62q0 32 -22 60q-25 28 -64 28q-35 0 -60 -28q-24 -27 -24 -60q0 -35 24 -62zM90 516v948h364v-960q0 -110 58 -174q57 -66 194 -66q127 0 186 68q60 69 60 178v954h364v-948q0 -253 -154 -398q-152 -146 -456 -146q-309 0 -462 144q-154 142 -154 400z
" />
    <glyph glyph-name="uring" unicode="&#x16f;" horiz-adv-x="1160" 
d="M428 1200q-30 30 -44 64q-16 38 -16 78q0 42 16 80q14 36 44 66q31 28 68 42q38 16 80 16t80 -16q37 -14 68 -42q30 -30 44 -66q16 -38 16 -80q0 -40 -16 -78q-14 -34 -44 -64q-31 -28 -68 -42q-38 -16 -80 -16t-80 16q-37 14 -68 42zM516 1282q23 -26 60 -26q39 0 62 26
q24 27 24 60q0 35 -24 62q-25 28 -62 28q-35 0 -60 -28q-24 -27 -24 -62q0 -33 24 -60zM72 360v688h332v-618q0 -88 38 -132q40 -46 120 -46q85 0 134 58q50 56 50 152v586h334v-1048h-320v128h-6q-58 -79 -130 -118q-72 -42 -184 -42q-181 0 -274 108q-94 109 -94 284z" />
    <glyph glyph-name="Uhungarumlaut" unicode="&#x170;" horiz-adv-x="1404" 
d="M996 1536h-208q32 94 96 286h322q-140 -192 -210 -286zM90 516v948h364v-960q0 -110 58 -174q57 -66 194 -66q127 0 186 68q60 69 60 178v954h364v-948q0 -253 -154 -398q-152 -146 -456 -146q-309 0 -462 144q-154 142 -154 400zM390 1536l92 286h324l-210 -286h-206z
" />
    <glyph glyph-name="uhungarumlaut" unicode="&#x171;" horiz-adv-x="1160" 
d="M72 360v688h332v-618q0 -88 38 -132q40 -46 120 -46q85 0 134 58q50 56 50 152v586h334v-1048h-320v128h-6q-58 -79 -130 -118q-72 -42 -184 -42q-181 0 -274 108q-94 109 -94 284zM474 1170h-208q17 51 51 152t51 152h322zM666 1170l100 304h324l-218 -304h-206z" />
    <glyph glyph-name="Uogonek" unicode="&#x172;" horiz-adv-x="1404" 
d="M818 -364q-134 0 -192 46q-60 45 -60 128q0 58 28 98q24 35 62 66q-286 12 -426 152t-140 390v948h364v-960q0 -110 58 -174q57 -66 194 -66q127 0 186 68q60 69 60 178v954h364v-948q0 -176 -74 -294q-75 -120 -216 -186q-97 -44 -154 -82q-54 -36 -54 -84q0 -50 66 -50
q33 0 60 10h2v-174q-18 -8 -50 -14q-33 -6 -78 -6z" />
    <glyph glyph-name="uogonek" unicode="&#x173;" horiz-adv-x="1160" 
d="M954 -364q-125 0 -186 46q-60 45 -60 128q0 36 12 66q16 32 36 52q24 27 46 42q30 20 50 30h-92v128h-6q-58 -79 -130 -118q-72 -42 -184 -42q-181 0 -274 108q-94 109 -94 284v688h332v-618q0 -88 38 -132q40 -46 120 -46q85 0 134 58q50 56 50 152v586h334v-1036
q-44 -30 -88 -74q-34 -34 -34 -68q0 -50 64 -50q35 0 62 10h2v-174q-18 -8 -52 -14q-30 -6 -80 -6z" />
    <glyph glyph-name="Wcircumflex" unicode="&#x174;" horiz-adv-x="1926" 
d="M758 0h-356l-402 1464h368q87 -371 146 -614q13 -60 24 -116l22 -118q7 -51 22 -130h4q4 26 22 120l188 858h336l136 -624l24 -118q15 -63 24 -114q6 -42 22 -122h4q8 42 24 130q8 51 24 118q6 27 26 120l146 610h364l-402 -1464h-354q-50 234 -154 702q-10 47 -18 92
q-2 9 -7.5 41t-8.5 47l-16 92h-4q-12 -60 -18 -92q-7 -28 -14 -88q-8 -45 -18 -92q-50 -234 -154 -702zM870 1536h-286q82 98 218 256h320l220 -256h-282l-92 110h-4z" />
    <glyph glyph-name="wcircumflex" unicode="&#x175;" horiz-adv-x="1604" 
d="M318 0l-322 1048h340q21 -80 60.5 -226.5t55.5 -207.5l16 -68q12 -44 16 -66q6 -24 14 -68h4l14 70q8 44 14 68q3 14 10.5 38t9.5 32l110 428h282l116 -428l16 -72q2 -10 7.5 -33t8.5 -35q3 -11 8 -34.5t8 -35.5h4q3 12 8 35.5t8 34.5q12 44 16 66q6 24 18 68
q16 61 55.5 207.5t60.5 226.5h330l-322 -1048h-312q-21 79 -62 237t-62 237q-3 11 -9 32t-9 32l-12 62q-7 26 -14 64h-4q-3 -16 -16 -64q-8 -40 -14 -62q-3 -11 -9 -32t-9 -32q-21 -79 -62 -237t-62 -237h-310zM710 1176h-288l220 280h320q87 -114 218 -280h-280l-92 134h-4
q-12 -17 -44.5 -63t-49.5 -71z" />
    <glyph glyph-name="Ycircumflex" unicode="&#x176;" horiz-adv-x="1358" 
d="M498 0v540l-496 924h396l224 -456l30 -72q10 -26 30 -74h4q20 48 32 74q4 9 14.5 33.5t17.5 38.5l224 456h382l-496 -924v-540h-362zM304 1536l218 256h320l220 -256h-282l-92 110h-4q-30 -38 -94 -110h-286z" />
    <glyph glyph-name="ycircumflex" unicode="&#x177;" horiz-adv-x="1084" 
d="M168 1176l220 280h320l218 -280h-280q-7 10 -40.5 58.5t-51.5 75.5h-4l-94 -134h-288zM116 -346v260h114q72 0 106 28q32 26 32 82q0 30 -16 84q-14 47 -48 134q-208 536 -310 806h352l142 -446q8 -26 24 -82q4 -17 20 -78q16 -56 22 -82h4q6 26 18 82l20 78q9 44 24 82
q26 84 72.5 238t63.5 208h334q-122 -354 -362 -1062q-35 -98 -68 -156q-35 -61 -82 -102q-49 -40 -106 -58q-64 -16 -140 -16h-216z" />
    <glyph glyph-name="Ydieresis" unicode="&#x178;" horiz-adv-x="1358" 
d="M498 0v540l-496 924h396l224 -456l30 -72q10 -26 30 -74h4q20 48 32 74q4 9 14.5 33.5t17.5 38.5l224 456h382l-496 -924v-540h-362zM306 1542v262h314v-262h-314zM746 1542v262h314v-262h-314z" />
    <glyph glyph-name="Zacute" unicode="&#x179;" horiz-adv-x="1328" 
d="M54 0v288l632 758q16 16 26 28q6 8 18.5 22.5t13.5 15.5q12 14 40 42v6l-102 -4h-578v308h1142v-284l-614 -738l-34 -36q-2 -2 -38 -44l-48 -52v-6l64 2q36 0 54 2h642v-308h-1218zM546 1536l88 266h382q-72 -90 -216 -266h-254z" />
    <glyph glyph-name="zacute" unicode="&#x17a;" horiz-adv-x="1034" 
d="M50 0v248l416 448q3 2 12 10t14 14q8 8 28 32l36 36v6l-54 -2h-404v254h860v-244l-396 -432l-66 -66q-7 -7 -20 -21t-20 -21v-6h110q18 2 44 2h380v-258h-940zM416 1170l118 304h384l-248 -304h-254z" />
    <glyph glyph-name="Zdotaccent" unicode="&#x17b;" horiz-adv-x="1328" 
d="M54 0v288l632 758q16 16 26 28q6 8 18.5 22.5t13.5 15.5q12 14 40 42v6l-102 -4h-578v308h1142v-284l-614 -738l-34 -36q-2 -2 -38 -44l-48 -52v-6l64 2q36 0 54 2h642v-308h-1218zM514 1542v266h332v-266h-332z" />
    <glyph glyph-name="zdotaccent" unicode="&#x17c;" horiz-adv-x="1034" 
d="M50 0v248l416 448q3 2 12 10t14 14q8 8 28 32l36 36v6l-54 -2h-404v254h860v-244l-396 -432l-66 -66q-7 -7 -20 -21t-20 -21v-6h110q18 2 44 2h380v-258h-940zM386 1194v270h332v-270h-332z" />
    <glyph glyph-name="Zcaron" unicode="&#x17d;" horiz-adv-x="1328" 
d="M54 0v288l632 758q16 16 26 28q6 8 18.5 22.5t13.5 15.5q12 14 40 42v6l-102 -4h-578v308h1142v-284l-614 -738l-34 -36q-2 -2 -38 -44l-48 -52v-6l64 2q36 0 54 2h642v-308h-1218zM520 1536l-216 256h280l92 -112h4l92 112h288q-136 -158 -218 -256h-322z" />
    <glyph glyph-name="zcaron" unicode="&#x17e;" horiz-adv-x="1034" 
d="M50 0v248l416 448q3 2 12 10t14 14q8 8 28 32l36 36v6l-54 -2h-404v254h860v-244l-396 -432l-66 -66q-7 -7 -20 -21t-20 -21v-6h110q18 2 44 2h380v-258h-940zM174 1452h280l92 -136h4l92 136h288q-17 -22 -218 -284h-322z" />
    <glyph glyph-name="florin" unicode="&#x192;" horiz-adv-x="870" 
d="M-34 -92q22 -2 62 -2q27 3 48 12q17 9 30 34q14 19 20 64l92 628h-158v210h188l40 264q21 161 112 234q34 31 84 50q53 17 104 22q48 8 114 4q80 -4 122 -10v-232q-30 2 -80 2q-30 0 -60 -10q-24 -12 -40 -34q-14 -19 -20 -64q-23 -139 -34 -226h198v-210h-228l-96 -668
q-12 -84 -40 -144q-26 -55 -80 -96q-35 -28 -78 -40q-47 -13 -92 -16q-48 -3 -102 0l-106 10v218z" />
    <glyph glyph-name="AEacute" unicode="&#x1fc;" horiz-adv-x="2038" 
d="M-2 0l496 1464h1462v-302h-706v-264h600v-280h-600v-302h728v-316h-1094v258h-444l-84 -258h-358zM522 510h362v652h-150zM1072 1536l88 266h382q-72 -90 -216 -266h-254z" />
    <glyph glyph-name="aeacute" unicode="&#x1fd;" horiz-adv-x="1812" 
d="M386 716h-308q3 78 34 140q30 66 90 114q56 50 146 78t210 28q106 0 200 -22q89 -21 150 -88q61 53 146 84q84 28 182 28q103 0 190 -28q87 -30 152 -86q101 -86 152 -222q51 -135 48 -304h-754q15 -104 76 -168q56 -62 162 -62q64 0 108 28q44 27 66 76h324
q-15 -65 -58 -130q-42 -63 -108 -108q-66 -51 -150 -78q-87 -28 -188 -28q-133 0 -234 46q-102 45 -170 122q-83 -86 -174 -124q-93 -42 -248 -42q-179 0 -290 84q-108 81 -108 238q0 87 30 144q34 62 88 96q61 38 128 58q65 19 156 32q46 6 128 20q61 11 86 22q30 11 46 30
q14 17 14 44q0 52 -36 82q-32 32 -112 32q-162 0 -174 -136zM716 374v126q-31 -17 -80 -30q-30 -10 -98 -26q-102 -20 -146 -52q-44 -29 -44 -90q0 -64 44 -90q40 -26 104 -26q97 0 158 52q62 50 62 136zM1026 636h414q-9 90 -62 150q-50 56 -136 56q-98 0 -148 -56
q-53 -60 -68 -150zM1042 1170h-254q95 242 118 304h384z" />
    <glyph glyph-name="Oslashacute" unicode="&#x1fe;" horiz-adv-x="1530" 
d="M46 30l164 184q-80 98 -126 230q-42 129 -42 284q0 166 50 304q48 134 146 244q96 105 226 160q133 56 300 56q139 0 250 -38q115 -40 200 -108l156 174q19 -17 58 -51t58 -51l-162 -180q78 -96 122 -230q44 -126 44 -280q0 -160 -52 -304q-51 -141 -146 -242
q-94 -104 -228 -160q-137 -58 -300 -58q-138 0 -246 38q-114 40 -200 106l-160 -180zM630 1536l88 266h382q-72 -90 -216 -266h-254zM452 484l548 620q-41 41 -102 70q-55 26 -132 26q-88 0 -154 -36t-112 -100q-43 -61 -68 -150q-22 -91 -22 -186q0 -61 10 -128
q9 -65 32 -116zM536 352q86 -92 230 -92q87 0 156 36q66 36 110 98q49 68 68 148q20 83 20 186q0 73 -8 126q-9 59 -30 112q-182 -206 -546 -614z" />
    <glyph glyph-name="oslashacute" unicode="&#x1ff;" horiz-adv-x="1186" 
d="M56 14l116 128q-138 153 -138 380q0 115 40 220q38 99 112 176q75 75 178 116q105 42 230 42q99 0 180 -24q81 -27 150 -72l118 132l92 -86l-116 -128q68 -78 100 -170q36 -96 36 -206q0 -118 -40 -220q-38 -100 -114 -176q-74 -77 -176 -118q-102 -42 -230 -42
q-100 0 -178 26q-84 25 -150 68l-120 -134zM460 1170l118 304h384l-248 -304h-254zM390 386l352 390q-60 66 -150 66q-108 0 -166 -88q-54 -87 -54 -232q0 -79 18 -136zM800 652l-350 -388q51 -60 142 -60q110 0 168 88q56 85 56 230q0 66 -16 130z" />
    <glyph glyph-name="uni0218" unicode="&#x218;" horiz-adv-x="1332" 
d="M32 460h364q12 -109 84 -160q72 -48 202 -48q51 0 88 8q43 9 74 26q33 18 54 48q20 29 20 70q0 44 -22 72q-20 29 -62 50q-38 21 -100 36l-136 34q-64 14 -188 50q-93 30 -168 78q-75 51 -120 126q-46 77 -46 190t46 202q45 84 122 140q73 54 184 82q104 26 230 26
q113 0 222 -28t180 -82q81 -59 124 -140q46 -89 52 -200h-354q-12 85 -72 130q-64 46 -164 46q-98 0 -154 -38q-58 -40 -58 -100q0 -36 22 -64q19 -24 62 -44q49 -21 104 -34l144 -34q106 -25 196 -54q102 -36 164 -82q69 -49 116 -130q42 -78 42 -194q0 -112 -46 -204
q-45 -90 -126 -150q-78 -58 -190 -92q-108 -32 -238 -32q-148 0 -264 32q-123 34 -206 94q-84 63 -132 156q-47 91 -50 214zM516 -540v100q53 12 94 40q42 27 42 82h-130v222h282v-178q0 -66 -24 -114q-19 -44 -62 -80q-36 -30 -92 -50q-54 -19 -110 -22z" />
    <glyph glyph-name="uni0219" unicode="&#x219;" horiz-adv-x="1032" 
d="M372 -540v100q50 12 94 40q40 28 40 82h-128v222h280v-178q0 -64 -22 -114q-22 -45 -64 -80q-36 -30 -92 -50q-54 -19 -108 -22zM16 340h316q9 -79 60 -118q47 -38 132 -38q77 0 120 26q44 26 44 78q0 34 -22 56q-21 21 -60 36q-29 10 -84 20q-32 6 -100 18
q-46 8 -134 28q-67 18 -122 54q-54 33 -88 92q-32 55 -32 150q0 83 36 146q37 65 96 106q66 44 146 64q77 20 174 20q225 0 342 -90t132 -246h-308q-9 71 -54 98q-43 26 -114 26q-62 0 -104 -24t-42 -72q0 -30 22 -46q24 -17 54 -28q32 -8 82 -18l94 -18q56 -10 140 -28
q74 -18 130 -54q59 -40 96 -100q36 -63 36 -164q0 -87 -36 -150q-34 -63 -100 -110q-65 -44 -150 -64q-87 -24 -192 -24q-230 0 -366 100q-135 99 -144 274z" />
    <glyph glyph-name="uni021A" unicode="&#x21a;" horiz-adv-x="1288" 
d="M500 -540v100q50 12 94 40q40 28 40 82h-128v222h280v-178q0 -64 -22 -114q-19 -44 -62 -80q-36 -30 -92 -50q-58 -19 -110 -22zM462 0v1156h-426v308h1218v-308h-430v-1156h-362z" />
    <glyph glyph-name="uni021B" unicode="&#x21b;" horiz-adv-x="718" 
d="M162 276v564h-138v208h138v332h326v-332h190v-208h-190v-492q0 -62 32 -82q31 -20 84 -20h44l30 2v-244q-19 -6 -68 -12q-60 -4 -114 -4q-74 0 -134 12q-66 16 -106 46q-42 31 -70 90q-24 57 -24 140zM256 -540v100q53 12 94 40q42 27 42 82h-130v222h282v-178
q0 -66 -24 -114q-19 -44 -62 -80q-36 -30 -92 -50q-54 -19 -110 -22z" />
    <glyph glyph-name="uni0237" unicode="&#x237;" horiz-adv-x="494" 
d="M-96 -336v232q56 0 78 2q33 3 54 12t34 32q10 23 10 66v1040h334v-1056q0 -104 -22 -164q-22 -62 -58 -98q-47 -47 -106 -64q-60 -18 -136 -18l-96 4q-54 3 -92 12z" />
    <glyph glyph-name="circumflex" unicode="&#x2c6;" horiz-adv-x="1024" 
d="M352 1456h320l220 -280h-282q-7 10 -40.5 58.5t-51.5 75.5h-4l-94 -134h-286q131 166 218 280z" />
    <glyph glyph-name="tilde" unicode="&#x2dc;" horiz-adv-x="1024" 
d="M344 1168h-172q0 140 62 208q61 70 148 70q41 0 74 -12q34 -12 62 -28q10 -4 29 -13.5t27 -12.5q23 -10 44 -10q32 0 46 20q13 20 16 52h172q0 -120 -52 -196t-154 -76q-39 0 -72 12q-32 9 -62 22q-34 13 -60 28q-23 10 -46 10q-53 0 -62 -74z" />
    <glyph glyph-name="uni0400" unicode="&#x400;" horiz-adv-x="1286" 
d="M100 0v1464h1110v-300h-746v-262h640v-282h-640v-314h760v-306h-1124zM568 1536l-218 266h384l88 -266h-254z" />
    <glyph glyph-name="uni0401" unicode="&#x401;" horiz-adv-x="1286" 
d="M100 0v1464h1110v-300h-746v-262h640v-282h-640v-314h760v-306h-1124zM298 1542v262h312v-262h-312zM738 1542v262h314v-262h-314z" />
    <glyph glyph-name="uni0402" unicode="&#x402;" horiz-adv-x="1650" 
d="M1258 1464v-302h-446v-278q129 66 302 66q245 0 376 -128q134 -128 134 -366q0 -223 -132 -352q-130 -130 -366 -130q-110 0 -194 26v278q64 -16 124 -16q212 0 212 194q0 204 -228 204q-134 0 -228 -56v-604h-356v1162h-446v302h1248z" />
    <glyph glyph-name="uni0403" unicode="&#x403;" horiz-adv-x="992" 
d="M340 1562l160 312h390l-288 -312h-262zM92 0v1464h890v-302h-536v-1162h-354z" />
    <glyph glyph-name="uni0404" unicode="&#x404;" horiz-adv-x="1432" 
d="M1022 528h366q-21 -266 -196 -414q-173 -146 -456 -146q-324 0 -510 204t-186 560q0 357 188 560q185 206 510 206q287 0 460 -152q172 -151 184 -402h-360q-15 118 -90 184t-194 66q-126 0 -208 -82q-85 -85 -112 -236h464v-288h-464q27 -151 110 -234q81 -84 208 -84
q122 0 196 68q75 69 90 190z" />
    <glyph glyph-name="uni0405" unicode="&#x405;" horiz-adv-x="1332" 
d="M32 460h364q12 -109 84 -160q72 -48 202 -48q51 0 88 8q43 9 74 26q33 18 54 48q20 29 20 70q0 44 -22 72q-20 29 -62 50q-38 21 -100 36l-136 34q-64 14 -188 50q-93 30 -168 78q-75 51 -120 126q-46 77 -46 190t46 202q45 84 122 140q73 54 184 82q104 26 230 26
q113 0 222 -28t180 -82q81 -59 124 -140q46 -89 52 -200h-354q-12 85 -72 130q-64 46 -164 46q-98 0 -154 -38q-58 -40 -58 -100q0 -36 22 -64q19 -24 62 -44q49 -21 104 -34l144 -34q106 -25 196 -54q102 -36 164 -82q69 -49 116 -130q42 -78 42 -194q0 -112 -46 -204
q-45 -90 -126 -150q-78 -58 -190 -92q-108 -32 -238 -32q-148 0 -264 32q-123 34 -206 94q-84 63 -132 156q-47 91 -50 214z" />
    <glyph glyph-name="uni0406" unicode="&#x406;" horiz-adv-x="566" 
d="M102 0v1464h364v-1464h-364z" />
    <glyph glyph-name="uni0407" unicode="&#x407;" horiz-adv-x="566" 
d="M102 0v1464h364v-1464h-364zM-94 1542v262h314v-262h-314zM346 1542v262h314v-262h-314z" />
    <glyph glyph-name="uni0408" unicode="&#x408;" horiz-adv-x="1116" 
d="M28 440v128h328v-120q0 -94 42 -136q43 -40 118 -40q79 0 116 46q36 45 36 126v1020h362v-1028q0 -202 -104 -318q-61 -67 -160 -106q-102 -40 -226 -40q-127 0 -226 34q-98 34 -160 96q-64 64 -96 148q-30 87 -30 190z" />
    <glyph glyph-name="uni0409" unicode="&#x409;" horiz-adv-x="2170" 
d="M1360 1464v-492h230q270 0 412 -130t142 -354q0 -228 -142 -358t-412 -130h-584v1162h-358q-21 -500 -80 -750q-60 -254 -160 -342q-99 -84 -282 -84q-72 0 -114 14v288q20 -4 38 -4q97 0 144 86q49 86 76 334q27 250 42 760h1048zM1540 686h-180v-400h180q242 0 242 202
q0 198 -242 198z" />
    <glyph glyph-name="uni040A" unicode="&#x40a;" horiz-adv-x="2150" 
d="M1340 1464v-492h228q272 0 414 -130t142 -354q0 -228 -142 -358t-414 -130h-582v606h-540v-606h-354v1464h354v-554h540v554h354zM1340 686v-400h180q242 0 242 202q0 198 -242 198h-180z" />
    <glyph glyph-name="uni040B" unicode="&#x40b;" horiz-adv-x="1642" 
d="M1136 906q228 0 348 -120q122 -119 122 -342v-444h-354v374q0 114 -56 170q-58 58 -160 58q-128 0 -224 -32v-570h-356v1162h-446v302h1248v-302h-446v-300q141 44 324 44z" />
    <glyph glyph-name="uni040C" unicode="&#x40c;" horiz-adv-x="1346" 
d="M446 1562l160 312h392l-290 -312h-262zM92 0v1464h354v-630h4l428 630h424l-530 -692l570 -772h-448l-444 674h-4v-674h-354z" />
    <glyph glyph-name="uni040D" unicode="&#x40d;" horiz-adv-x="1516" 
d="M662 1562l-290 312h392l160 -312h-262zM92 0v1464h340v-546q0 -267 -16 -616h4q95 260 238 584l254 578h512v-1464h-340v546q0 327 16 618h-4q-89 -239 -238 -586l-256 -578h-510z" />
    <glyph glyph-name="uni040E" unicode="&#x40e;" horiz-adv-x="1428" 
d="M234 0v292q39 -12 100 -12q72 0 118 34q44 32 44 98q0 39 -14 70q-28 60 -90 188l-392 794h386l170 -392q132 -319 158 -392h4q81 216 156 392l168 392h386l-564 -1172q-82 -174 -192 -242q-110 -70 -256 -70q-108 0 -182 20zM350 1874h218q6 -120 146 -120
q139 0 148 120h218q-9 -154 -104 -234q-96 -84 -262 -84q-167 0 -260 84q-95 80 -104 234z" />
    <glyph glyph-name="uni040F" unicode="&#x40f;" horiz-adv-x="1412" 
d="M1318 1464v-1464h-450v-330h-340v330h-436v1464h356v-1160h514v1160h356z" />
    <glyph glyph-name="uni0410" unicode="&#x410;" horiz-adv-x="1428" 
d="M-2 0l526 1464h374l528 -1464h-382l-86 264h-512q-56 -176 -82 -264h-366zM530 524h346q-19 59 -56 177t-56 177q-16 48 -20 64q-3 11 -9 34t-9 34q-12 48 -18 74h-6l-20 -74q-3 -11 -9 -34t-9 -34q-4 -16 -20 -64z" />
    <glyph glyph-name="uni0411" unicode="&#x411;" horiz-adv-x="1290" 
d="M1154 1464v-288h-714v-264h276q248 0 390 -124t142 -334q0 -208 -142 -332q-140 -122 -390 -122h-624v1464h1062zM646 636h-206v-360h206q234 0 234 178q0 182 -234 182z" />
    <glyph glyph-name="uni0412" unicode="&#x412;" horiz-adv-x="1374" 
d="M100 1464h708q117 0 198 -26q79 -25 144 -74q126 -105 126 -282q0 -110 -52 -180q-52 -67 -152 -106v-6q120 -36 192 -132q70 -97 70 -226q0 -109 -40 -192q-38 -79 -110 -136q-131 -104 -360 -104h-724v1464zM782 290q91 0 142 48q52 46 52 124q0 88 -56 132t-142 44
h-318v-348h322zM754 884q78 0 128 38q48 39 48 110q0 68 -46 108q-47 38 -128 38h-296v-294h294z" />
    <glyph glyph-name="uni0413" unicode="&#x413;" horiz-adv-x="1232" 
d="M100 1464h1090v-306h-726v-1158h-364v1464z" />
    <glyph glyph-name="uni0414" unicode="&#x414;" horiz-adv-x="1630" 
d="M1438 304h180v-634h-340v330h-920v-330h-340v634h178q63 129 96 384q35 273 44 776h1102v-1160zM1084 304v858h-412q-15 -563 -106 -858h518z" />
    <glyph glyph-name="uni0415" unicode="&#x415;" horiz-adv-x="1286" 
d="M100 0v1464h1110v-300h-746v-262h640v-282h-640v-314h760v-306h-1124z" />
    <glyph glyph-name="uni0416" unicode="&#x416;" horiz-adv-x="1944" 
d="M1904 1464l-432 -698l468 -766h-418l-372 714h-4v-714h-348v714h-4l-372 -714h-418l468 766l-434 698h408l348 -666h4v666h348v-666h4l348 666h406z" />
    <glyph glyph-name="uni0417" unicode="&#x417;" horiz-adv-x="1290" 
d="M650 1496q270 0 422 -110q154 -109 154 -306q0 -123 -60 -198q-62 -77 -196 -122v-4q145 -50 214 -134q68 -86 68 -222q0 -203 -160 -318q-159 -114 -436 -114q-302 0 -468 130q-164 131 -164 384h382q0 -226 250 -226q99 0 158 44q58 46 58 118q0 176 -268 176h-90v280
h90q115 0 186 46q68 44 68 124q0 72 -58 118q-56 44 -156 44q-224 0 -224 -214h-374q0 236 158 370t446 134z" />
    <glyph glyph-name="uni0418" unicode="&#x418;" horiz-adv-x="1516" 
d="M92 0v1464h340v-546q0 -267 -16 -616h4q95 260 238 584l254 578h512v-1464h-340v546q0 327 16 618h-4q-89 -239 -238 -586l-256 -578h-510z" />
    <glyph glyph-name="uni0419" unicode="&#x419;" horiz-adv-x="1516" 
d="M364 1874h218q6 -120 146 -120q139 0 148 120h218q-9 -154 -104 -234q-96 -84 -262 -84q-167 0 -260 84q-95 80 -104 234zM92 0v1464h340v-546q0 -267 -16 -616h4q95 260 238 584l254 578h512v-1464h-340v546q0 327 16 618h-4q-89 -239 -238 -586l-256 -578h-510z" />
    <glyph glyph-name="uni041A" unicode="&#x41a;" horiz-adv-x="1346" 
d="M92 0v1464h354v-630h4l428 630h424l-530 -692l570 -772h-448l-444 674h-4v-674h-354z" />
    <glyph glyph-name="uni041B" unicode="&#x41b;" horiz-adv-x="1452" 
d="M1360 1464v-1464h-354v1162h-358q-21 -500 -80 -750q-60 -254 -160 -342q-99 -84 -282 -84q-72 0 -114 14v288q20 -4 38 -4q97 0 144 86q49 86 76 334q27 250 42 760h1048z" />
    <glyph glyph-name="uni041C" unicode="&#x41c;" horiz-adv-x="1708" 
d="M100 1464h488l178 -642q9 -33 24 -90q4 -15 13 -52.5t15 -57.5q3 -14 10 -40.5t12.5 -50t9.5 -43.5h4q20 92 32 134q16 72 26 110q15 57 24 90l180 642h492v-1464h-332v808q0 64 2 96l4 126h-4q-27 -112 -28 -118q-6 -30 -22 -90q-8 -41 -18 -64q-70 -254 -210 -758h-300
l-208 756q-14 49 -18 64q-14 54 -22 92q-4 16 -9 35t-10.5 43.5t-8.5 39.5h-4q0 -88 2 -126q1 -16 2 -48.5t2 -49.5v-806h-326v1464z" />
    <glyph glyph-name="uni041D" unicode="&#x41d;" horiz-adv-x="1440" 
d="M100 0v1464h364v-556h514v556h362v-1464h-362v610h-514v-610h-364z" />
    <glyph glyph-name="uni041E" unicode="&#x41e;" horiz-adv-x="1530" 
d="M238 182q-97 106 -146 242q-50 138 -50 304t50 304q48 134 146 244q96 105 226 160q133 56 300 56t300 -56q134 -56 228 -160q96 -104 146 -244q52 -144 52 -304t-52 -304q-51 -141 -146 -242q-94 -104 -228 -160q-137 -58 -300 -58t-300 58q-130 55 -226 160zM500 394
q43 -60 112 -98q66 -36 154 -36q87 0 156 36q66 36 110 98q49 68 68 148q20 83 20 186t-20 186t-68 150q-47 66 -110 100q-69 36 -156 36q-88 0 -154 -36t-112 -100q-43 -61 -68 -150q-22 -91 -22 -186t22 -186q24 -86 68 -148z" />
    <glyph glyph-name="uni041F" unicode="&#x41f;" horiz-adv-x="1440" 
d="M100 0v1464h1240v-1464h-362v1166h-514v-1166h-364z" />
    <glyph glyph-name="uni0420" unicode="&#x420;" horiz-adv-x="1336" 
d="M100 1464h660q135 0 234 -36q94 -31 166 -100q69 -60 110 -158q38 -91 38 -202q0 -105 -36 -192q-34 -89 -100 -152q-65 -65 -156 -100q-93 -36 -204 -36h-342v-488h-370v1464zM738 776q97 0 152 52q52 55 52 142q0 86 -52 138q-53 50 -152 50h-268v-382h268z" />
    <glyph glyph-name="uni0421" unicode="&#x421;" horiz-adv-x="1438" 
d="M1048 508h362q-9 -112 -54 -208q-43 -93 -122 -168q-89 -83 -200 -124q-114 -42 -270 -42q-160 0 -294 58q-132 56 -228 158q-98 104 -148 242q-52 141 -52 302q0 166 50 304q48 134 146 244q94 104 228 160q134 58 296 58q126 0 234 -34q104 -36 184 -94
q97 -73 150 -176q55 -108 70 -228h-364q-15 99 -86 164q-71 68 -190 68q-90 0 -156 -36q-63 -33 -108 -96q-43 -65 -64 -148q-22 -91 -22 -186q0 -100 24 -184q26 -83 72 -148q43 -58 110 -96q65 -34 146 -34q124 0 198 68q73 67 88 176z" />
    <glyph glyph-name="uni0422" unicode="&#x422;" horiz-adv-x="1268" 
d="M1258 1464v-302h-446v-1162h-356v1162h-446v302h1248z" />
    <glyph glyph-name="uni0423" unicode="&#x423;" horiz-adv-x="1428" 
d="M234 0v292q39 -12 100 -12q72 0 118 34q44 32 44 98q0 39 -14 70q-28 60 -90 188l-392 794h386l170 -392q132 -319 158 -392h4q81 216 156 392l168 392h386l-564 -1172q-82 -174 -192 -242q-110 -70 -256 -70q-108 0 -182 20z" />
    <glyph glyph-name="uni0424" unicode="&#x424;" horiz-adv-x="1744" 
d="M1534 1180q170 -161 170 -448q0 -285 -172 -448t-490 -184v-154h-342v154q-319 21 -490 186q-170 161 -170 446t170 446q171 165 490 186v154h342v-154q320 -21 492 -184zM484 970q-78 -87 -78 -238q0 -150 76 -238q78 -87 224 -108v694q-145 -21 -222 -110zM1036 1080
v-694q304 39 304 346q0 306 -304 348z" />
    <glyph glyph-name="uni0425" unicode="&#x425;" horiz-adv-x="1366" 
d="M1340 1464l-428 -712l454 -752h-418l-262 506h-4l-264 -506h-416l452 752l-428 712h408l248 -490h4l246 490h408z" />
    <glyph glyph-name="uni0426" unicode="&#x426;" horiz-adv-x="1518" 
d="M1318 1464v-1160h182v-634h-340v330h-1068v1464h356v-1160h514v1160h356z" />
    <glyph glyph-name="uni0427" unicode="&#x427;" horiz-adv-x="1338" 
d="M1246 1464v-1464h-356v530q-160 -40 -346 -40q-243 0 -376 118q-132 120 -132 340v516h356v-446q0 -107 64 -168q64 -58 186 -58q135 0 248 32v640h356z" />
    <glyph glyph-name="uni0428" unicode="&#x428;" horiz-adv-x="2012" 
d="M1918 1464v-1464h-1826v1464h356v-1160h380v1160h356v-1160h380v1160h354z" />
    <glyph glyph-name="uni0429" unicode="&#x429;" horiz-adv-x="2112" 
d="M1918 1464v-1160h182v-634h-340v330h-1668v1464h356v-1160h380v1160h356v-1160h380v1160h354z" />
    <glyph glyph-name="uni042A" unicode="&#x42a;" horiz-adv-x="1560" 
d="M750 1464v-492h228q272 0 414 -130t142 -354q0 -228 -142 -358t-414 -130h-582v1162h-386v302h740zM930 686h-180v-400h180q242 0 242 202q0 198 -242 198z" />
    <glyph glyph-name="uni042B" unicode="&#x42b;" horiz-adv-x="1878" 
d="M92 0v1464h354v-492h230q272 0 414 -130q140 -128 140 -354q0 -230 -140 -358q-142 -130 -414 -130h-584zM446 286h180q242 0 242 202q0 198 -242 198h-180v-400zM1432 0v1464h354v-1464h-354z" />
    <glyph glyph-name="uni042C" unicode="&#x42c;" horiz-adv-x="1258" 
d="M92 0v1464h354v-492h230q272 0 414 -130q140 -128 140 -354q0 -230 -140 -358q-142 -130 -414 -130h-584zM446 286h180q242 0 242 202q0 198 -242 198h-180v-400z" />
    <glyph glyph-name="uni042D" unicode="&#x42d;" horiz-adv-x="1432" 
d="M694 1498q325 0 510 -206q186 -204 186 -560q0 -355 -184 -560q-186 -204 -508 -204q-285 0 -458 146q-175 148 -196 414h366q14 -119 92 -190q74 -68 196 -68q127 0 208 84q81 81 108 234h-466v288h466q-27 151 -112 236q-82 82 -208 82q-119 0 -194 -66
q-73 -64 -88 -184h-362q12 252 186 402q173 152 458 152z" />
    <glyph glyph-name="uni042E" unicode="&#x42e;" horiz-adv-x="2066" 
d="M1348 1498q312 0 496 -208q182 -206 182 -560q0 -355 -182 -558q-183 -204 -496 -204q-278 0 -454 164q-176 161 -212 450h-236v-582h-354v1464h354v-580h236q39 285 216 450q176 164 450 164zM1122 396q81 -120 228 -120q145 0 226 120q82 121 82 334q0 215 -82 336
q-80 122 -226 122q-147 0 -228 -120q-84 -120 -84 -336t84 -336z" />
    <glyph glyph-name="uni042F" unicode="&#x42f;" horiz-adv-x="1330" 
d="M626 1464h612v-1464h-358v518h-258l-244 -518h-380l302 586q-224 111 -224 412q0 223 138 346q138 120 412 120zM880 788v400h-210q-244 0 -244 -196q0 -204 230 -204h224z" />
    <glyph glyph-name="uni0430" unicode="&#x430;" horiz-adv-x="1108" 
d="M706 116h-6q-43 -64 -118 -104q-77 -40 -192 -40q-75 0 -144 22q-69 21 -114 60q-46 41 -74 102q-26 55 -26 136q0 87 30 144q34 62 88 96q58 40 128 60q71 21 154 30q148 18 208 42q58 21 58 74t-32 82q-32 32 -110 32q-80 0 -122 -36q-39 -33 -48 -100h-308
q3 78 34 140q29 65 88 114q56 50 146 78t208 28q123 0 200 -20q84 -22 140 -66q65 -46 100 -124q32 -73 32 -174v-528q0 -68 8 -100q6 -35 30 -50v-14h-324q-10 12 -20 46q-7 22 -14 70zM708 374v126q-33 -18 -78 -30q-40 -13 -94 -26q-96 -20 -140 -52q-44 -29 -44 -90
q0 -63 42 -90q38 -26 102 -26q94 0 152 52q60 51 60 136z" />
    <glyph glyph-name="uni0431" unicode="&#x431;" horiz-adv-x="1184" 
d="M1084 1498v-278q-104 -29 -334 -38q-247 -9 -338 -88q-94 -82 -118 -264h6q87 180 354 180q223 0 354 -134q132 -132 132 -356q0 -253 -148 -404q-151 -148 -402 -148q-268 0 -408 158q-144 159 -144 462q0 246 38 404q39 164 122 258q82 97 200 142q120 47 284 56
q293 21 402 50zM584 774q-192 0 -192 -270q0 -138 50 -212t146 -74q95 0 146 72q50 71 50 206q0 128 -52 204q-53 74 -148 74z" />
    <glyph glyph-name="uni0432" unicode="&#x432;" horiz-adv-x="1086" 
d="M74 0v1044h520q426 0 426 -280q0 -175 -196 -226v-4q222 -39 222 -242q0 -140 -112 -216t-322 -76h-538zM532 434h-132v-228h132q174 0 174 114t-174 114zM534 838h-134v-216h134q156 0 156 108t-156 108z" />
    <glyph glyph-name="uni0433" unicode="&#x433;" horiz-adv-x="866" 
d="M74 0v1044h782v-248h-442v-796h-340z" />
    <glyph glyph-name="uni0434" unicode="&#x434;" horiz-adv-x="1352" 
d="M1204 250h140v-580h-336v330h-664v-330h-336v580h126q53 88 86 260q32 164 50 534h934v-794zM868 250v546h-278q-18 -351 -78 -546h356z" />
    <glyph glyph-name="uni0435" unicode="&#x435;" 
d="M748 322h346q-34 -155 -174 -254q-142 -100 -342 -100q-257 0 -398 156q-144 156 -144 406q0 241 144 394q145 154 394 154q181 0 310 -90q129 -87 186 -246q40 -114 40 -290h-740q9 -258 204 -258q73 0 118 36q47 35 56 92zM376 646h392q-9 104 -64 156q-52 52 -130 52
q-168 0 -198 -208z" />
    <glyph glyph-name="uni0436" unicode="&#x436;" horiz-adv-x="1644" 
d="M1296 560l362 -560h-400l-266 518h-4v-518h-330v518h-4l-268 -518h-400l362 560l-326 484h378l254 -454h4v454h330v-454h4l254 454h376z" />
    <glyph glyph-name="uni0437" unicode="&#x437;" horiz-adv-x="1042" 
d="M530 1078q203 0 328 -82q120 -81 120 -224q0 -86 -42 -140q-43 -55 -138 -88v-4q112 -33 158 -94q48 -60 48 -160q0 -155 -126 -236q-125 -82 -348 -82q-241 0 -370 96q-130 100 -130 288h326q0 -148 174 -148q69 0 108 30q40 28 40 76q0 108 -170 108h-100v214h100
q72 0 112 28t40 78q0 49 -36 76q-35 26 -100 26q-78 0 -116 -38q-42 -36 -42 -104h-314q0 180 128 278q129 102 350 102z" />
    <glyph glyph-name="uni0438" unicode="&#x438;" horiz-adv-x="1304" 
d="M74 0v1044h330v-372q0 -206 -22 -410h6q61 188 154 384l198 398h490v-1044h-328v370q0 207 18 414h-4q-58 -186 -154 -384l-196 -400h-492z" />
    <glyph glyph-name="uni0439" unicode="&#x439;" horiz-adv-x="1304" 
d="M74 0v1044h330v-372q0 -206 -22 -410h6q61 188 154 384l198 398h490v-1044h-328v370q0 207 18 414h-4q-58 -186 -154 -384l-196 -400h-492zM288 1464h218q6 -118 148 -118q137 0 146 118h218q-9 -151 -104 -234q-93 -84 -260 -84q-166 0 -262 84q-95 83 -104 234z" />
    <glyph glyph-name="uni043A" unicode="&#x43a;" horiz-adv-x="1128" 
d="M74 0v1044h340v-412h4l278 412h394l-372 -486l410 -558h-418l-292 474h-4v-474h-340z" />
    <glyph glyph-name="uni043B" unicode="&#x43b;" horiz-adv-x="1160" 
d="M1086 1044v-1044h-340v796h-214q-10 -272 -34 -416q-28 -163 -82 -246q-53 -85 -122 -118q-66 -30 -174 -30q-66 0 -114 14v242q28 -4 42 -4q65 0 100 56q38 59 58 232q23 192 26 518h854z" />
    <glyph glyph-name="uni043C" unicode="&#x43c;" horiz-adv-x="1634" 
d="M1560 1044v-1044h-306v464q0 142 10 372h-2q-60 -235 -100 -368l-144 -468h-402l-144 468q-76 268 -100 368h-4q10 -230 10 -372v-464h-304v1044h518l134 -434q52 -168 90 -382h4q28 177 88 382l132 434h520z" />
    <glyph glyph-name="uni043D" unicode="&#x43d;" horiz-adv-x="1172" 
d="M1098 1044v-1044h-340v408h-344v-408h-340v1044h340v-390h344v390h340z" />
    <glyph glyph-name="uni043E" unicode="&#x43e;" horiz-adv-x="1186" 
d="M186 126q-74 77 -112 176q-40 102 -40 220q0 115 40 220q38 99 112 176q75 75 178 116q105 42 230 42q128 0 230 -42q105 -42 176 -116q76 -76 114 -176q40 -105 40 -220q0 -118 -40 -220q-38 -100 -114 -176q-74 -77 -176 -118q-102 -42 -230 -42q-125 0 -230 42
q-100 40 -178 118zM426 292q58 -88 166 -88q110 0 168 88q56 85 56 230q0 147 -56 232q-58 88 -168 88q-108 0 -166 -88q-54 -87 -54 -232q0 -143 54 -230z" />
    <glyph glyph-name="uni043F" unicode="&#x43f;" horiz-adv-x="1158" 
d="M1084 1044v-1044h-340v796h-330v-796h-340v1044h1010z" />
    <glyph glyph-name="uni0440" unicode="&#x440;" horiz-adv-x="1204" 
d="M80 1048h320v-126h6q54 69 132 114q75 42 186 42q105 0 186 -42q87 -43 142 -116q58 -76 90 -176q30 -102 30 -220q0 -131 -32 -230q-32 -101 -94 -176q-57 -72 -144 -112q-86 -40 -186 -40q-106 0 -176 38q-72 39 -122 104h-4v-454h-334v1394zM630 224q95 0 150 76
q54 75 54 212q0 133 -52 216q-52 82 -158 82q-54 0 -98 -22q-40 -22 -68 -62q-28 -41 -40 -96q-14 -53 -14 -118q0 -129 58 -208q56 -80 168 -80z" />
    <glyph glyph-name="uni0441" unicode="&#x441;" horiz-adv-x="1114" 
d="M768 396h320q-3 -88 -40 -168q-35 -79 -100 -138q-63 -57 -156 -90q-96 -34 -202 -34q-125 0 -230 42q-100 41 -174 118t-112 176q-40 102 -40 220q0 121 38 220q37 97 110 176q70 73 174 116q102 42 226 42q104 0 194 -28q87 -30 150 -84t102 -126q40 -78 52 -162h-322
q-15 72 -58 112q-42 42 -114 42q-107 0 -162 -82q-52 -83 -52 -226q0 -141 52 -224q55 -82 162 -82q161 0 182 180z" />
    <glyph glyph-name="uni0442" unicode="&#x442;" horiz-adv-x="990" 
d="M986 1044v-248h-322v-796h-340v796h-320v248h982z" />
    <glyph glyph-name="uni0443" unicode="&#x443;" horiz-adv-x="1084" 
d="M116 -346v260h114q72 0 106 28q32 26 32 82q0 30 -16 84q-14 47 -48 134q-208 536 -310 806h352l142 -446q8 -26 24 -82q4 -17 20 -78q16 -56 22 -82h4q6 26 18 82l20 78q9 44 24 82q26 84 72.5 238t63.5 208h334q-122 -354 -362 -1062q-35 -98 -68 -156
q-35 -61 -82 -102q-49 -40 -106 -58q-64 -16 -140 -16h-216z" />
    <glyph glyph-name="uni0444" unicode="&#x444;" horiz-adv-x="1674" 
d="M670 1464h334v-468q90 78 208 78q191 0 308 -150q116 -149 116 -400q0 -253 -116 -402q-117 -150 -310 -150q-112 0 -206 76v-428h-334v428q-94 -76 -208 -76q-195 0 -310 148q-116 149 -116 404q0 254 116 400q114 150 308 150q120 0 210 -78v468zM574 820
q-84 0 -136 -82q-50 -79 -50 -216t50 -216q50 -80 136 -80q52 0 96 44v506q-44 44 -96 44zM1100 820q-55 0 -96 -44v-506q41 -44 96 -44q86 0 136 80q50 79 50 216t-50 216q-52 82 -136 82z" />
    <glyph glyph-name="uni0445" unicode="&#x445;" 
d="M380 550l-330 498h380l156 -270h4q25 45 74 135t74 135h350q-208 -328 -312 -494l358 -554h-388l-172 312h-4l-190 -312h-366q122 182 366 550z" />
    <glyph glyph-name="uni0446" unicode="&#x446;" horiz-adv-x="1226" 
d="M1080 1044v-794h138v-580h-340v330h-804v1044h340v-794h326v794h340z" />
    <glyph glyph-name="uni0447" unicode="&#x447;" horiz-adv-x="1100" 
d="M1026 1044v-1044h-340v364q-139 -34 -282 -34q-179 0 -278 84q-96 84 -96 240v390h340v-324q0 -144 158 -144q83 0 158 24v444h340z" />
    <glyph glyph-name="uni0448" unicode="&#x448;" horiz-adv-x="1696" 
d="M1622 1044v-1044h-1548v1044h340v-794h264v794h340v-794h264v794h340z" />
    <glyph glyph-name="uni0449" unicode="&#x449;" horiz-adv-x="1770" 
d="M1622 1044v-794h140v-580h-340v330h-1348v1044h340v-794h264v794h340v-794h264v794h340z" />
    <glyph glyph-name="uni044A" unicode="&#x44a;" horiz-adv-x="1302" 
d="M610 1044v-320h210q217 0 334 -90q116 -92 116 -270q0 -183 -116 -272q-116 -92 -334 -92h-550v796h-266v248h606zM776 494h-166v-260h166q152 0 152 130t-152 130z" />
    <glyph glyph-name="uni044B" unicode="&#x44b;" horiz-adv-x="1614" 
d="M74 0v1044h340v-320h208q217 0 334 -90q118 -94 118 -270q0 -181 -118 -272q-116 -92 -334 -92h-548zM414 234h166q152 0 152 130t-152 130h-166v-260zM1200 0v1044h340v-1044h-340z" />
    <glyph glyph-name="uni044C" unicode="&#x44c;" horiz-adv-x="1106" 
d="M74 0v1044h340v-320h208q217 0 334 -90q118 -94 118 -270q0 -181 -118 -272q-116 -92 -334 -92h-548zM414 234h166q152 0 152 130t-152 130h-166v-260z" />
    <glyph glyph-name="uni044D" unicode="&#x44d;" horiz-adv-x="1130" 
d="M550 1078q249 0 396 -150q148 -151 148 -404q0 -252 -148 -406q-147 -150 -396 -150q-222 0 -362 116t-158 318h332q3 -89 56 -142q51 -54 130 -54q82 0 136 60q55 58 70 162h-322v208h318q-18 98 -72 152q-51 54 -130 54q-77 0 -128 -48q-49 -43 -58 -130h-332
q21 188 160 300q141 114 360 114z" />
    <glyph glyph-name="uni044E" unicode="&#x44e;" horiz-adv-x="1700" 
d="M1110 1078q254 0 404 -150q148 -151 148 -404q0 -255 -148 -406q-150 -150 -404 -150q-221 0 -362 114q-145 118 -178 320h-156v-402h-340v1044h340v-396h156q33 199 178 314q140 116 362 116zM966 306q50 -80 144 -80t144 80q52 83 52 216q0 135 -52 218q-50 80 -144 80
t-144 -80q-52 -83 -52 -218q0 -133 52 -216z" />
    <glyph glyph-name="uni044F" unicode="&#x44f;" horiz-adv-x="1136" 
d="M528 1044h534v-1044h-330v324h-200l-168 -324h-360l226 388q-164 89 -164 306q0 350 462 350zM732 550v258h-148q-188 0 -188 -128q0 -130 180 -130h156z" />
    <glyph glyph-name="uni0450" unicode="&#x450;" 
d="M770 312h326q-14 -66 -62 -136q-48 -67 -114 -110q-67 -48 -146 -72q-78 -26 -182 -26q-129 0 -234 42q-102 41 -176 118q-73 79 -110 176q-38 102 -38 222q0 119 38 218q37 97 110 176q71 74 170 116t220 42q109 0 202 -34q87 -33 156 -96q96 -90 140 -218
q47 -138 44 -292h-754q18 -106 74 -168t162 -62q63 0 110 28q43 28 64 76zM468 1170l-248 304h386l116 -304h-254zM364 636h412q-9 90 -62 150q-53 56 -136 56q-98 0 -148 -56q-51 -57 -66 -150z" />
    <glyph glyph-name="uni0451" unicode="&#x451;" 
d="M770 312h326q-14 -66 -62 -136q-48 -67 -114 -110q-67 -48 -146 -72q-78 -26 -182 -26q-129 0 -234 42q-102 41 -176 118q-73 79 -110 176q-38 102 -38 222q0 119 38 218q37 97 110 176q71 74 170 116t220 42q109 0 202 -34q87 -33 156 -96q96 -90 140 -218
q47 -138 44 -292h-754q18 -106 74 -168t162 -62q63 0 110 28q43 28 64 76zM364 636h412q-9 90 -62 150q-53 56 -136 56q-98 0 -148 -56q-51 -57 -66 -150zM186 1182v262h314v-262h-314zM648 1182v262h314v-262h-314z" />
    <glyph glyph-name="uni0452" unicode="&#x452;" horiz-adv-x="1210" 
d="M758 958q181 0 282 -110q102 -111 102 -320v-526q0 -200 -102 -296q-104 -98 -280 -98q-98 0 -164 20v238q24 -6 54 -6q81 0 116 44q36 42 36 156v432q0 200 -152 200q-82 0 -130 -66q-46 -67 -46 -198v-428h-340v1104h-146v202h146v158h340v-158h440v-202h-440v-276h4
q106 130 280 130z" />
    <glyph glyph-name="uni0453" unicode="&#x453;" horiz-adv-x="866" 
d="M74 0v1044h782v-248h-442v-796h-340zM270 1160l160 304h392l-290 -304h-262z" />
    <glyph glyph-name="uni0454" unicode="&#x454;" horiz-adv-x="1130" 
d="M584 206q79 0 130 54q51 51 54 142h332q-15 -201 -156 -318q-140 -116 -362 -116q-249 0 -396 150q-150 153 -150 406t148 404q147 150 396 150q218 0 362 -114q143 -116 158 -300h-330q-9 85 -60 130q-51 48 -128 48q-79 0 -130 -54t-72 -152h318v-208h-322
q18 -105 72 -162q54 -60 136 -60z" />
    <glyph glyph-name="uni0455" unicode="&#x455;" horiz-adv-x="1032" 
d="M16 340h316q9 -79 60 -118q47 -38 132 -38q77 0 120 26q44 26 44 78q0 34 -22 56q-21 21 -60 36q-29 10 -84 20q-32 6 -100 18q-46 8 -134 28q-67 18 -122 54q-54 33 -88 92q-32 55 -32 150q0 83 36 146q37 65 96 106q66 44 146 64q77 20 174 20q225 0 342 -90t132 -246
h-308q-9 71 -54 98q-43 26 -114 26q-62 0 -104 -24t-42 -72q0 -30 22 -46q24 -17 54 -28q32 -8 82 -18l94 -18q56 -10 140 -28q74 -18 130 -54q59 -40 96 -100q36 -63 36 -164q0 -87 -36 -150q-34 -63 -100 -110q-65 -44 -150 -64q-87 -24 -192 -24q-230 0 -366 100
q-135 99 -144 274z" />
    <glyph glyph-name="uni0456" unicode="&#x456;" horiz-adv-x="494" 
d="M80 0v1048h334v-1048h-334zM80 1194v270h334v-270h-334z" />
    <glyph glyph-name="uni0457" unicode="&#x457;" horiz-adv-x="494" 
d="M302 1182v262h252v-262h-252zM80 0v1048h334v-1048h-334zM-58 1182v262h254v-262h-254z" />
    <glyph glyph-name="uni0458" unicode="&#x458;" horiz-adv-x="494" 
d="M-96 -336v232q56 0 78 2q33 3 54 12t34 32q10 23 10 66v1040h334v-1056q0 -104 -22 -164q-22 -62 -58 -98q-47 -47 -106 -64q-60 -18 -136 -18l-96 4q-54 3 -92 12zM80 1194v270h334v-270h-334z" />
    <glyph glyph-name="uni0459" unicode="&#x459;" horiz-adv-x="1778" 
d="M1086 1044v-320h210q217 0 334 -90q114 -93 114 -270q0 -182 -114 -272q-116 -92 -334 -92h-550v796h-214q-10 -272 -34 -416q-28 -163 -82 -246q-53 -85 -122 -118q-66 -30 -174 -30q-66 0 -114 14v242q28 -4 42 -4q65 0 100 56q38 59 58 232q23 192 26 518h854z
M1252 494h-166v-260h166q150 0 150 130t-150 130z" />
    <glyph glyph-name="uni045A" unicode="&#x45a;" horiz-adv-x="1786" 
d="M1094 1044v-320h208q217 0 334 -90q118 -94 118 -270q0 -181 -118 -272q-116 -92 -334 -92h-548v408h-340v-408h-340v1044h340v-390h340v390h340zM1260 494h-166v-260h166q152 0 152 130t-152 130z" />
    <glyph glyph-name="uni045B" unicode="&#x45b;" horiz-adv-x="1210" 
d="M758 958q181 0 282 -110q102 -111 102 -320v-528h-340v492q0 200 -152 200q-82 0 -130 -66q-46 -67 -46 -198v-428h-340v1104h-146v202h146v158h340v-158h440v-202h-440v-276h4q106 130 280 130z" />
    <glyph glyph-name="uni045C" unicode="&#x45c;" horiz-adv-x="1128" 
d="M358 1160l160 304h392l-290 -304h-262zM74 0v1044h340v-412h4l278 412h394l-372 -486l410 -558h-418l-292 474h-4v-474h-340z" />
    <glyph glyph-name="uni045D" unicode="&#x45d;" horiz-adv-x="1304" 
d="M588 1160l-288 304h390l160 -304h-262zM74 0v1044h330v-372q0 -206 -22 -410h6q61 188 154 384l198 398h490v-1044h-328v370q0 207 18 414h-4q-58 -186 -154 -384l-196 -400h-492z" />
    <glyph glyph-name="uni045E" unicode="&#x45e;" horiz-adv-x="1100" 
d="M190 1464h218q6 -118 148 -118q137 0 146 118h218q-9 -151 -104 -234q-93 -84 -260 -84q-166 0 -262 84q-95 83 -104 234zM88 -376v260q51 -18 104 -18q71 0 116 36q42 36 42 100q0 44 -58 200l-304 842h366l100 -350q71 -261 106 -434h4q43 223 104 436l96 348h346
l-346 -1026q-79 -233 -188 -322q-110 -92 -312 -92q-93 0 -176 20z" />
    <glyph glyph-name="uni045F" unicode="&#x45f;" horiz-adv-x="1158" 
d="M1084 1044v-1044h-338v-330h-340v330h-332v1044h340v-794h330v794h340z" />
    <glyph glyph-name="uni0490" unicode="&#x490;" horiz-adv-x="992" 
d="M982 1738v-576h-536v-1162h-354v1464h550v274h340z" />
    <glyph glyph-name="uni0491" unicode="&#x491;" horiz-adv-x="866" 
d="M856 1374v-578h-442v-796h-340v1044h468v330h314z" />
    <glyph glyph-name="uni0492" unicode="&#x492;" horiz-adv-x="1046" 
d="M1036 1162h-534v-394h274v-236h-274v-532h-356v532h-128v236h128v696h890v-302z" />
    <glyph glyph-name="uni0493" unicode="&#x493;" horiz-adv-x="920" 
d="M912 796h-442v-234h248v-206h-248v-356h-340v356h-116v206h116v482h782v-248z" />
    <glyph glyph-name="uni0496" unicode="&#x496;" horiz-adv-x="1944" 
d="M1756 304h184v-634h-340v330h-78l-372 714h-4v-714h-348v714h-4l-372 -714h-418l468 766l-434 698h408l348 -666h4v666h348v-666h4l348 666h406l-432 -698z" />
    <glyph glyph-name="uni0497" unicode="&#x497;" horiz-adv-x="1644" 
d="M1498 250h160v-580h-340v330h-60l-266 518h-4v-518h-330v518h-4l-268 -518h-400l362 560l-326 484h378l254 -454h4v454h330v-454h4l254 454h376l-326 -484z" />
    <glyph glyph-name="uni049A" unicode="&#x49a;" horiz-adv-x="1346" 
d="M1118 304h224v-634h-340v330h-108l-444 674h-4v-674h-354v1464h354v-630h4l428 630h424l-530 -692z" />
    <glyph glyph-name="uni049B" unicode="&#x49b;" horiz-adv-x="1128" 
d="M946 250h182v-580h-340v330h-78l-292 474h-4v-474h-340v1044h340v-412h4l278 412h394l-372 -486z" />
    <glyph glyph-name="uni049C" unicode="&#x49c;" horiz-adv-x="1488" 
d="M1068 0l-314 606h-4v-310h-220v310h-90v-606h-348v1464h348v-554h90v306h220v-306h4l286 554h410l-428 -694l462 -770h-416z" />
    <glyph glyph-name="uni049D" unicode="&#x49d;" horiz-adv-x="1274" 
d="M886 0l-222 430h-10v-228h-178v228h-72v-430h-330v1044h330v-366h72v236h178v-236h14l204 366h378l-326 -484l362 -560h-400z" />
    <glyph glyph-name="uni04A2" unicode="&#x4a2;" horiz-adv-x="1538" 
d="M1520 304v-634h-340v330h-194v606h-540v-606h-354v1464h354v-554h540v554h354v-1160h180z" />
    <glyph glyph-name="uni04A3" unicode="&#x4a3;" horiz-adv-x="1246" 
d="M1238 250v-580h-340v330h-140v408h-344v-408h-340v1044h340v-390h344v390h340v-794h140z" />
    <glyph glyph-name="uni04AE" unicode="&#x4ae;" horiz-adv-x="1358" 
d="M498 0v540l-496 924h396l224 -456l30 -72q10 -26 30 -74h4q20 48 32 74q4 9 14.5 33.5t17.5 38.5l224 456h382l-496 -924v-540h-362z" />
    <glyph glyph-name="uni04AF" unicode="&#x4af;" horiz-adv-x="1104" 
d="M752 1044h362l-394 -1074v-350h-340v350l-390 1074h360l102 -336q53 -175 96 -394h4q38 188 100 394z" />
    <glyph glyph-name="uni04B2" unicode="&#x4b2;" horiz-adv-x="1366" 
d="M1184 304h182v-634h-340v330h-78l-262 506h-4l-264 -506h-416l452 752l-428 712h408l248 -490h4l246 490h408l-428 -712z" />
    <glyph glyph-name="uni04B3" unicode="&#x4b3;" horiz-adv-x="1104" 
d="M950 250h162v-580h-340v330h-50l-170 336h-4l-170 -336h-386l348 536l-326 508h386l148 -296h4l150 296h388l-326 -508z" />
    <glyph glyph-name="uni04B8" unicode="&#x4b8;" horiz-adv-x="1338" 
d="M890 1464h356v-1464h-356v530q-34 -9 -132 -26v-264h-234v250q-234 3 -362 122q-126 120 -126 336v516h356v-446q0 -160 132 -208v360h234v-372q66 8 132 26v640z" />
    <glyph glyph-name="uni04B9" unicode="&#x4b9;" horiz-adv-x="1120" 
d="M712 1044h334v-1044h-334v368q-45 -14 -86 -20v-186h-178v168h-30q-186 0 -286 88q-102 87 -102 250v376h334v-308q0 -121 84 -148v278h178v-282q45 6 86 20v440z" />
    <glyph glyph-name="uni04BA" unicode="&#x4ba;" horiz-adv-x="1338" 
d="M92 0v1464h354v-530q163 40 346 40q245 0 378 -118q130 -121 130 -340v-516h-356v446q0 107 -64 168q-64 58 -184 58q-133 0 -250 -30v-642h-354z" />
    <glyph glyph-name="uni04BB" unicode="&#x4bb;" horiz-adv-x="1168" 
d="M80 0v1464h334v-544h6q55 72 130 116q72 42 182 42q82 0 154 -28q64 -29 114 -82q48 -54 72 -126t24 -160v-682h-334v614q0 84 -40 136q-41 50 -124 50q-84 0 -134 -62q-50 -59 -50 -158v-580h-334z" />
    <glyph glyph-name="uni04C0" unicode="&#x4c0;" horiz-adv-x="566" 
d="M102 0v1464h364v-1464h-364z" />
    <glyph glyph-name="uni04CF" unicode="&#x4cf;" horiz-adv-x="502" 
d="M82 0v1464h338v-1464h-338z" />
    <glyph glyph-name="uni04D8" unicode="&#x4d8;" horiz-adv-x="1530" 
d="M748 1498q345 0 544 -208q196 -208 196 -556q0 -333 -196 -550q-195 -216 -532 -216q-330 0 -524 206q-196 208 -196 556q0 74 8 114h1072q-12 187 -116 276q-103 88 -258 88q-119 0 -194 -54q-72 -52 -94 -142h-378q46 210 220 346q176 140 448 140zM760 258
q140 0 232 80q93 81 120 240h-696q21 -159 114 -240q92 -80 230 -80z" />
    <glyph glyph-name="uni04D9" unicode="&#x4d9;" 
d="M564 1078q257 0 402 -154q144 -153 144 -400q0 -241 -144 -400q-144 -156 -394 -156q-245 0 -390 148q-146 149 -146 404q0 30 4 78h734q-9 252 -206 252q-65 0 -106 -32q-43 -34 -52 -86h-346q33 147 168 246q136 100 332 100zM572 190q171 0 198 216h-394
q12 -107 64 -162q54 -54 132 -54z" />
    <glyph glyph-name="uni04E8" unicode="&#x4e8;" horiz-adv-x="1494" 
d="M748 1498q326 0 514 -206q190 -208 190 -560q0 -353 -190 -558q-188 -206 -514 -206q-330 0 -518 206q-190 205 -190 558q0 352 190 560q188 206 518 206zM516 346q91 -88 232 -88q140 0 230 90q90 85 118 250h-696q27 -163 116 -252zM978 1118q-91 88 -230 88
q-141 0 -232 -88q-89 -89 -116 -252h696q-27 164 -118 252z" />
    <glyph glyph-name="uni04E9" unicode="&#x4e9;" horiz-adv-x="1188" 
d="M188 928q150 150 406 150t406 -150t150 -404q0 -256 -150 -406t-406 -150t-406 150q-152 149 -152 406q0 255 152 404zM594 202q90 0 146 62q56 58 74 166h-442q18 -108 74 -166q56 -62 148 -62zM594 842q-89 0 -146 -60q-56 -62 -74 -168h442q-18 106 -74 168
q-57 60 -148 60z" />
    <glyph glyph-name="uni2009" unicode="&#x2009;" horiz-adv-x="112" 
 />
    <glyph glyph-name="endash" unicode="&#x2013;" horiz-adv-x="1024" 
d="M0 666h1024v-288h-1024v288z" />
    <glyph glyph-name="emdash" unicode="&#x2014;" horiz-adv-x="2048" 
d="M206 666h1638v-288h-1638v288z" />
    <glyph glyph-name="quoteleft" unicode="&#x2018;" horiz-adv-x="446" 
d="M70 862v268q0 81 24 138t64 100q44 44 102 70q57 26 122 32v-118q-61 -21 -102 -68q-44 -50 -44 -118h140v-304h-306z" />
    <glyph glyph-name="quoteright" unicode="&#x2019;" horiz-adv-x="446" 
d="M66 856v118q61 18 102 68q44 50 44 116h-140v306h306v-268q0 -81 -24 -138q-24 -60 -64 -100q-47 -47 -104 -70q-54 -26 -120 -32z" />
    <glyph glyph-name="quotesinglbase" unicode="&#x201a;" horiz-adv-x="446" 
d="M66 -306v122q59 15 102 64q44 50 44 120h-140v304h306v-268q0 -81 -24 -138q-23 -55 -64 -102q-44 -41 -104 -68q-51 -24 -120 -34z" />
    <glyph glyph-name="quotedblleft" unicode="&#x201c;" horiz-adv-x="876" 
d="M70 862v268q0 81 24 138t64 100q44 44 102 70q57 26 122 32v-118q-61 -21 -102 -68q-44 -50 -44 -118h140v-304h-306zM500 862v268q0 81 24 138t64 100q44 44 102 70q57 26 122 32v-118q-61 -21 -102 -68q-44 -50 -44 -118h140v-304h-306z" />
    <glyph glyph-name="quotedblright" unicode="&#x201d;" horiz-adv-x="876" 
d="M66 856v118q61 18 102 68q44 50 44 116h-140v306h306v-268q0 -81 -24 -138q-24 -60 -64 -100q-47 -47 -104 -70q-54 -26 -120 -32zM496 856v118q61 18 102 68q44 50 44 116h-140v306h306v-268q0 -81 -24 -138q-24 -60 -64 -100q-47 -47 -104 -70q-54 -26 -120 -32z" />
    <glyph glyph-name="quotedblbase" unicode="&#x201e;" horiz-adv-x="876" 
d="M66 -306v122q59 15 102 64q44 50 44 120h-140v304h306v-268q0 -81 -24 -138q-23 -55 -64 -102q-44 -41 -104 -68q-51 -24 -120 -34zM496 -306v122q59 15 102 64q44 50 44 120h-140v304h306v-268q0 -81 -24 -138q-23 -55 -64 -102q-44 -41 -104 -68q-51 -24 -120 -34z" />
    <glyph glyph-name="dagger" unicode="&#x2020;" horiz-adv-x="1206" 
d="M430 780h-360v274h360v410h348v-410h360v-274h-360v-1074h-348v1074z" />
    <glyph glyph-name="daggerdbl" unicode="&#x2021;" horiz-adv-x="1208" 
d="M430 118h-360v274h360v388h-360v274h360v410h348v-410h360v-274h-360v-388h360v-274h-360v-412h-348v412z" />
    <glyph glyph-name="bullet" unicode="&#x2022;" horiz-adv-x="766" 
d="M384 348q-63 0 -120 24q-54 24 -96 66q-41 41 -68 98q-24 57 -24 118q0 63 24 120q28 56 68 96t96 68q57 24 120 24q61 0 118 -24q57 -27 98 -68q42 -42 66 -96q24 -57 24 -120q0 -61 -24 -118q-23 -55 -66 -98t-98 -66q-57 -24 -118 -24z" />
    <glyph glyph-name="ellipsis" unicode="&#x2026;" horiz-adv-x="1548" 
d="M1136 0v344h348v-344h-348zM66 0v344h350v-344h-350zM600 0v344h350v-344h-350z" />
    <glyph glyph-name="perthousand" unicode="&#x2030;" horiz-adv-x="2594" 
d="M410 0l758 1404h190l-756 -1404h-192zM1086 76q-50 53 -78 130q-28 78 -28 170q0 90 28 168q29 80 76 130q51 54 120 84q72 28 150 28q80 0 152 -28q69 -30 118 -82q50 -53 78 -130q28 -78 28 -170t-28 -170q-28 -77 -78 -130q-52 -56 -120 -82q-69 -30 -150 -30
q-79 0 -148 30q-68 26 -120 82zM1912 76q-50 53 -78 130q-30 75 -30 170q0 93 30 168q28 77 78 130q51 54 120 84q72 28 148 28q82 0 154 -28q64 -28 118 -82q47 -50 76 -130q28 -78 28 -170t-28 -170q-28 -77 -78 -130q-54 -57 -118 -82q-69 -30 -152 -30q-79 0 -148 30
q-68 26 -120 82zM148 724q-50 53 -78 130q-28 78 -28 168q0 92 28 170q29 81 76 128q51 54 120 84t150 30q83 0 152 -30q71 -31 118 -84q50 -50 78 -128t28 -170q0 -90 -28 -168q-28 -77 -78 -130q-51 -54 -120 -84q-72 -28 -150 -28q-76 0 -148 28q-69 30 -120 84z
M1260 208q27 -66 94 -66t94 66q30 63 30 168q0 101 -30 170q-27 66 -94 66t-94 -66q-28 -68 -28 -170q0 -103 28 -168zM2088 208q27 -66 94 -66t94 66q28 65 28 168q0 101 -30 170q-27 66 -92 66q-67 0 -94 -66q-30 -66 -30 -170q0 -105 30 -168zM322 854q27 -64 94 -64
t94 64q30 63 30 168q0 104 -30 170q-27 68 -94 68t-94 -68q-28 -68 -28 -170q0 -100 28 -168z" />
    <glyph glyph-name="minute" unicode="&#x2032;" horiz-adv-x="456" 
d="M44 912l80 552h290l-80 -552h-290z" />
    <glyph glyph-name="second" unicode="&#x2033;" horiz-adv-x="870" 
d="M44 912l80 552h290l-80 -552h-290zM458 912l80 552h290l-80 -552h-290z" />
    <glyph glyph-name="guilsinglleft" unicode="&#x2039;" horiz-adv-x="542" 
d="M90 358v316q116 94 348 286v-306l-174 -138v-4q29 -23 87 -70t87 -70v-302z" />
    <glyph glyph-name="guilsinglright" unicode="&#x203a;" horiz-adv-x="542" 
d="M104 374l176 140v4l-176 138v304l350 -288v-316l-350 -286v304z" />
    <glyph glyph-name="fraction" unicode="&#x2044;" horiz-adv-x="582" 
d="M-370 0l1114 1464h210l-1116 -1464h-208z" />
    <glyph glyph-name="Euro" unicode="&#x20ac;" horiz-adv-x="1334" 
d="M754 -34q-123 0 -222 38q-101 40 -178 108q-79 67 -132 170q-55 100 -78 220h-112v130h96q-2 10 -2 34v84h-94v132h110q21 120 74 224q51 102 132 174q78 75 180 114q105 40 222 40q132 0 228 -38q102 -40 168 -106q70 -70 108 -160t50 -200h-340q-14 100 -68 166
q-50 62 -150 62q-104 0 -166 -74q-65 -75 -86 -202h316v-132h-328q-2 -6 -2 -26v-68l2 -24h328v-130h-314q27 -128 90 -194q64 -64 168 -64q108 0 162 72q54 75 66 182h332q-6 -115 -46 -214q-38 -97 -112 -168q-66 -69 -170 -110q-102 -40 -232 -40z" />
    <glyph glyph-name="uni2113" unicode="&#x2113;" horiz-adv-x="822" 
d="M464 -10q-81 0 -144 12q-65 15 -108 50q-44 35 -68 96q-24 63 -24 158v54q-18 -6 -50 -14l-50 -12v196l100 32v576q0 93 24 156q27 66 72 108t112 60q63 18 142 18q149 0 230 -78q82 -82 82 -262q0 -233 -88 -388q-91 -155 -256 -254v-124q0 -76 26 -102t102 -26l66 2
l46 4v-244q-29 -7 -34 -8l-52 -4zM438 758l30 34q44 65 64 150q22 94 22 212q0 68 -14 90q-14 26 -44 26q-58 0 -58 -116v-396z" />
    <glyph glyph-name="trademark" unicode="&#x2122;" horiz-adv-x="1432" 
d="M224 1316h-160v148h502v-148h-160v-416h-182v416zM644 1464h248l88 -318h4l90 318h250v-564h-168v338h-4l-104 -338h-134l-102 338h-4v-338h-164v564z" />
    <glyph glyph-name="uni2126" unicode="&#x2126;" horiz-adv-x="1518" 
d="M60 272h206v6q-116 74 -170 206q-52 135 -52 296q0 160 50 286q51 129 146 224q92 95 226 150q135 52 294 52t294 -52q132 -55 224 -150q95 -95 146 -224q52 -132 52 -286q0 -164 -54 -296q-53 -131 -168 -206v-6h204v-272h-626v262q141 27 208 152q66 123 66 328
q0 217 -86 336q-86 122 -260 122t-260 -122q-88 -121 -88 -336q0 -205 66 -328q70 -126 208 -152v-262h-626v272z" />
    <glyph glyph-name="estimated" unicode="&#x212e;" horiz-adv-x="1272" 
d="M670 -24q-150 0 -262 50q-114 48 -194 134q-79 85 -122 208q-40 120 -40 264q0 147 44 264q44 118 126 206q78 84 194 134q111 48 244 48q225 0 362 -122q115 -95 158 -232q43 -138 40 -314h-848v-454q53 -44 126 -64q79 -22 172 -22q186 0 284 80q100 79 152 224h104
q-22 -93 -64 -162q-46 -76 -112 -128q-67 -55 -158 -84q-93 -30 -206 -30zM908 706v420q-49 28 -110 48q-63 18 -138 18q-92 0 -164 -24q-69 -22 -124 -64v-398h536z" />
    <glyph glyph-name="onethird" unicode="&#x2153;" horiz-adv-x="1760" 
d="M998 276h232q3 -55 30 -88q27 -36 96 -36q56 0 82 26q28 28 28 68q0 52 -34 74q-31 20 -94 20h-48v156h42q118 0 118 84q0 37 -24 58q-22 22 -70 22q-59 0 -80 -30q-25 -35 -28 -72h-226q3 115 94 194q88 76 250 76q144 0 230 -62q90 -60 90 -172q0 -56 -34 -96
q-33 -39 -84 -60v-4q59 -21 102 -70q40 -49 40 -128q0 -70 -26 -116q-28 -49 -74 -78q-51 -32 -110 -46q-67 -16 -134 -16q-185 0 -276 82q-89 80 -92 214zM234 650v480h-186v166q93 3 158 46q62 45 80 130h196v-822h-248zM154 0l1114 1464h210l-1116 -1464h-208z" />
    <glyph glyph-name="twothirds" unicode="&#x2154;" horiz-adv-x="1924" 
d="M394 838h356v-188h-688q3 109 44 176q43 71 108 124q64 58 122 88q63 33 114 72q29 20 46 44q16 26 16 56q0 37 -22 62q-21 24 -72 24q-53 0 -86 -36q-32 -38 -32 -106h-226q0 161 98 244q97 82 252 82q81 0 138 -20q62 -22 102 -56q42 -39 62 -84q22 -47 22 -98
q0 -79 -30 -130q-33 -51 -80 -92q-22 -18 -66 -46q-62 -36 -68 -40q-29 -19 -64 -36q-31 -21 -46 -38v-2zM348 0l1114 1464h210l-1116 -1464h-208zM1162 276h232q3 -55 30 -88q27 -36 96 -36q56 0 82 26q28 28 28 68q0 52 -34 74q-31 20 -94 20h-48v156h42q118 0 118 84
q0 37 -24 58q-22 22 -70 22q-59 0 -80 -30q-25 -35 -28 -72h-226q3 115 94 194q88 76 250 76q144 0 230 -62q90 -60 90 -172q0 -56 -34 -96q-33 -39 -84 -60v-4q59 -21 102 -70q40 -49 40 -128q0 -70 -26 -116q-28 -49 -74 -78q-51 -32 -110 -46q-67 -16 -134 -16
q-185 0 -276 82q-89 80 -92 214z" />
    <glyph glyph-name="oneeighth" unicode="&#x215b;" horiz-adv-x="1774" 
d="M234 650v480h-186v166q93 3 158 46q62 45 80 130h196v-822h-248zM158 0l1114 1464h210l-1116 -1464h-208zM1148 430v4q-57 24 -86 68q-30 45 -30 98q0 100 88 164t240 64q155 0 242 -60q86 -59 86 -164q0 -54 -30 -96q-29 -44 -80 -68v-4q72 -27 110 -80q36 -54 36 -120
q0 -118 -94 -188q-95 -68 -270 -68q-176 0 -268 68q-94 70 -94 180q0 67 38 120q40 52 112 82zM1282 522q27 -24 78 -24t78 24q26 26 26 68q0 40 -26 66t-78 26t-78 -26t-26 -66q0 -42 26 -68zM1272 170q33 -30 88 -30q59 0 92 30q34 28 34 76q0 46 -34 80q-33 30 -90 30
t-90 -30q-34 -34 -34 -80q0 -48 34 -76z" />
    <glyph glyph-name="threeeighths" unicode="&#x215c;" horiz-adv-x="1878" 
d="M292 0l1114 1464h210l-1116 -1464h-208zM1252 430v4q-57 24 -86 68q-28 47 -28 98q0 100 88 164t238 64q155 0 242 -60q86 -59 86 -164q0 -54 -30 -96q-25 -42 -80 -68v-4q72 -27 110 -80t38 -120q0 -119 -96 -188q-95 -68 -270 -68q-176 0 -268 68q-94 70 -94 180
q0 65 40 120q41 53 110 82zM50 928h232q3 -55 30 -88q27 -36 96 -36q56 0 82 26q28 28 28 68q0 52 -34 74q-31 20 -94 20h-48v156h42q118 0 118 84q0 37 -24 58q-22 22 -70 22q-59 0 -80 -30q-25 -35 -28 -72h-226q3 115 94 194q88 76 250 76q144 0 230 -62q90 -60 90 -172
q0 -56 -34 -96q-33 -39 -84 -60v-4q59 -21 102 -70q40 -49 40 -128q0 -70 -26 -116q-28 -49 -74 -78q-51 -32 -110 -46q-67 -16 -134 -16q-185 0 -276 82q-89 80 -92 214zM1388 522q27 -24 76 -24q51 0 78 24q28 28 28 68q0 38 -28 66q-26 26 -78 26q-50 0 -76 -26
q-28 -28 -28 -66q0 -40 28 -68zM1376 170q33 -30 88 -30q59 0 92 30q34 28 34 76q0 46 -34 80q-33 30 -90 30t-90 -30q-34 -34 -34 -80q0 -48 34 -76z" />
    <glyph glyph-name="fiveeighths" unicode="&#x215d;" horiz-adv-x="1854" 
d="M258 0l1114 1464h210l-1116 -1464h-208zM1228 430v4q-57 24 -86 68q-30 45 -30 98q0 100 88 164t240 64q155 0 242 -60q86 -59 86 -164q0 -54 -30 -96q-29 -44 -80 -68v-4q72 -27 110 -80q36 -54 36 -120q0 -118 -94 -188q-95 -68 -270 -68q-176 0 -268 68
q-94 70 -94 180q0 67 38 120q40 52 112 82zM48 892h218q10 -44 46 -64q38 -22 88 -22q53 0 84 34q32 32 32 90t-32 90q-33 30 -84 30q-43 0 -68 -14q-30 -13 -44 -36h-208l84 464h532v-176h-368l-28 -136h4q20 20 64 36q45 16 104 16t110 -18q51 -21 90 -54q36 -30 58 -84
q22 -53 22 -112q0 -141 -96 -222q-94 -82 -252 -82q-71 0 -134 18q-64 18 -110 50q-46 34 -76 82t-36 110zM1362 522q27 -24 78 -24t78 24q26 26 26 68q0 40 -26 66t-78 26t-78 -26t-26 -66q0 -42 26 -68zM1352 170q33 -30 88 -30q59 0 92 30q34 28 34 76q0 46 -34 80
q-33 30 -90 30t-90 -30q-34 -34 -34 -80q0 -48 34 -76z" />
    <glyph glyph-name="seveneighths" unicode="&#x215e;" horiz-adv-x="1722" 
d="M434 650h-262q3 113 28 196q26 96 62 166q39 79 86 140q53 70 102 116v2h-398v194h638v-174q-107 -104 -180 -268t-76 -372zM98 0l1114 1464h210l-1116 -1464h-208zM1096 430v4q-58 24 -84 68q-30 45 -30 98q0 100 88 164t240 64q153 0 240 -60q86 -59 86 -164
q0 -52 -28 -96q-29 -43 -82 -68v-4q72 -27 110 -80t38 -120q0 -119 -96 -188q-92 -68 -268 -68q-175 0 -270 68q-94 70 -94 180q0 65 40 120q41 53 110 82zM1232 522q27 -24 78 -24t78 24q26 26 26 68q0 40 -26 66t-78 26t-78 -26q-28 -28 -28 -66q0 -40 28 -68zM1220 170
q33 -30 90 -30q59 0 92 30q32 26 32 76q0 48 -32 80q-33 30 -90 30q-59 0 -92 -30q-34 -34 -34 -80q0 -48 34 -76z" />
    <glyph glyph-name="_001" horiz-adv-x="0" 
 />
    <glyph glyph-name="_002" horiz-adv-x="1024" 
 />
  </font>
</defs>
</svg>
