<svg width="1032" height="791" viewBox="0 0 1032 791" fill="none" xmlns="http://www.w3.org/2000/svg">
<mask id="path-1-inside-1_928_1628" fill="white">
<path d="M514.305 19.0693H574.59V54.748H472.475V79.9697H332.836V54.748H307V19.0693H374.666V0H514.305V19.0693Z"/>
</mask>
<path d="M514.305 19.0693H574.59V54.748H472.475V79.9697H332.836V54.748H307V19.0693H374.666V0H514.305V19.0693Z" fill="#C3BEF8"/>
<path d="M514.305 19.0693H508.305C508.305 22.383 510.991 25.0693 514.305 25.0693V19.0693ZM574.59 19.0693H580.59C580.59 15.7556 577.904 13.0693 574.59 13.0693V19.0693ZM574.59 54.748V60.748C577.904 60.748 580.59 58.0618 580.59 54.748H574.59ZM472.475 54.748V48.748C469.161 48.748 466.475 51.4343 466.475 54.748H472.475ZM472.475 79.9697V85.9697C475.788 85.9697 478.475 83.2834 478.475 79.9697H472.475ZM332.836 79.9697H326.836C326.836 83.2834 329.522 85.9697 332.836 85.9697V79.9697ZM332.836 54.748H338.836C338.836 51.4343 336.15 48.748 332.836 48.748V54.748ZM307 54.748H301C301 58.0618 303.686 60.748 307 60.748V54.748ZM307 19.0693V13.0693C303.686 13.0693 301 15.7556 301 19.0693H307ZM374.666 19.0693V25.0693C377.98 25.0693 380.666 22.383 380.666 19.0693H374.666ZM374.666 0V-6C371.352 -6 368.666 -3.31371 368.666 0L374.666 0ZM514.305 0H520.305C520.305 -3.31371 517.618 -6 514.305 -6V0ZM514.305 19.0693V25.0693H574.59V19.0693V13.0693H514.305V19.0693ZM574.59 19.0693H568.59V54.748H574.59H580.59V19.0693H574.59ZM574.59 54.748V48.748H472.475V54.748V60.748H574.59V54.748ZM472.475 54.748H466.475V79.9697H472.475H478.475V54.748H472.475ZM472.475 79.9697V73.9697H332.836V79.9697V85.9697H472.475V79.9697ZM332.836 79.9697H338.836V54.748H332.836H326.836V79.9697H332.836ZM332.836 54.748V48.748H307V54.748V60.748H332.836V54.748ZM307 54.748H313V19.0693H307H301V54.748H307ZM307 19.0693V25.0693H374.666V19.0693V13.0693H307V19.0693ZM374.666 19.0693H380.666V0H374.666H368.666V19.0693H374.666ZM374.666 0V6H514.305V0V-6H374.666V0ZM514.305 0H508.305V19.0693H514.305H520.305V0H514.305Z" fill="#C3BEF8" mask="url(#path-1-inside-1_928_1628)"/>
<mask id="path-3-inside-2_928_1628" fill="white">
<path d="M928.838 219.028H1031.2V257.816H977.786V289.89H870.947V257.788H822V219H928.838V219.028Z"/>
</mask>
<path d="M928.838 219.028H1031.2V257.816H977.786V289.89H870.947V257.788H822V219H928.838V219.028Z" fill="#C0EFDB"/>
<path d="M928.838 219.028H922.838C922.838 222.342 925.524 225.028 928.838 225.028V219.028ZM1031.2 219.028H1037.2C1037.2 215.715 1034.51 213.028 1031.2 213.028V219.028ZM1031.2 257.816V263.816C1034.51 263.816 1037.2 261.13 1037.2 257.816H1031.2ZM977.786 257.816V251.816C974.472 251.816 971.786 254.503 971.786 257.816H977.786ZM977.786 289.89V295.89C981.1 295.89 983.786 293.203 983.786 289.89H977.786ZM870.947 289.89H864.947C864.947 293.203 867.634 295.89 870.947 295.89V289.89ZM870.947 257.788H876.947C876.947 254.474 874.261 251.788 870.947 251.788V257.788ZM822 257.788H816C816 261.102 818.686 263.788 822 263.788V257.788ZM822 219V213C818.686 213 816 215.686 816 219H822ZM928.838 219H934.838C934.838 215.686 932.152 213 928.838 213V219ZM928.838 219.028V225.028H1031.2V219.028V213.028H928.838V219.028ZM1031.2 219.028H1025.2V257.816H1031.2H1037.2V219.028H1031.2ZM1031.2 257.816V251.816H977.786V257.816V263.816H1031.2V257.816ZM977.786 257.816H971.786V289.89H977.786H983.786V257.816H977.786ZM977.786 289.89V283.89H870.947V289.89V295.89H977.786V289.89ZM870.947 289.89H876.947V257.788H870.947H864.947V289.89H870.947ZM870.947 257.788V251.788H822V257.788V263.788H870.947V257.788ZM822 257.788H828V219H822H816V257.788H822ZM822 219V225H928.838V219V213H822V219ZM928.838 219H922.838V219.028H928.838H934.838V219H928.838Z" fill="#C0EFDB" mask="url(#path-3-inside-2_928_1628)"/>
<mask id="path-5-outside-3_928_1628" maskUnits="userSpaceOnUse" x="274" y="482" width="432" height="411" fill="black">
<rect fill="white" x="274" y="482" width="432" height="411"/>
<path d="M435.291 485H540.934L519.805 645.812L666.532 577.731L699.398 676.331L539.76 706.85L651.272 824.232L565.584 886.443L488.112 744.412L410.641 886.443L326.126 824.232L436.465 706.85L278 676.331L309.693 577.731L455.246 646.986L435.291 485Z"/>
</mask>
<path d="M435.291 485H540.934L519.805 645.812L666.532 577.731L699.398 676.331L539.76 706.85L651.272 824.232L565.584 886.443L488.112 744.412L410.641 886.443L326.126 824.232L436.465 706.85L278 676.331L309.693 577.731L455.246 646.986L435.291 485Z" fill="#C3BEF8"/>
<path d="M435.291 483.312C435.291 484.438 435.291 485.562 435.291 486.688C470.505 487.057 505.719 487.391 540.934 487.687L538.269 484.65C538.2 485.144 538.131 485.639 538.062 486.133C530.638 539.183 523.297 592.245 516.041 645.318L515.113 652.141L521.403 649.256C570.431 626.819 619.423 604.305 668.379 581.713L662.367 579.119C673.254 612.009 684.175 644.887 695.129 677.754L698.553 671.911C697.84 672.048 697.127 672.184 696.413 672.32C643.914 682.357 591.416 692.403 538.92 702.458L530.88 703.993L536.518 709.93C573.702 749.044 610.893 788.152 648.092 827.253L648.695 820.682C620.146 841.439 591.601 862.2 563.057 882.964L569.359 884.384C543.491 837.065 517.615 789.75 491.73 742.439L488.122 735.806L484.494 742.439C458.731 789.816 432.977 837.197 407.23 884.583L412.944 883.315C384.738 862.624 356.53 841.936 328.32 821.251L328.823 826.766C365.529 787.571 402.229 748.368 438.921 709.16L443.12 704.71L437.102 703.539C384.258 693.483 331.412 683.437 278.565 673.399L280.843 677.245C291.323 644.351 301.799 611.456 312.271 578.56L308.529 580.177C357.111 603.126 405.697 626.067 454.288 648.999L457.945 650.752L457.459 646.713C455.115 628.171 452.77 609.628 450.425 591.086C445.942 555.655 441.456 520.224 436.966 484.794C435.849 484.931 434.732 485.069 433.616 485.206C437.858 520.667 442.105 556.127 446.356 591.587C448.58 610.144 450.806 628.702 453.033 647.259L456.204 644.973C407.759 621.735 359.31 598.506 310.857 575.285L308.051 573.96L307.115 576.902C296.458 609.74 285.806 642.578 275.157 675.417L274.132 678.636L277.435 679.263C330.231 689.572 383.028 699.871 435.827 710.162L434.008 704.541C397.141 743.586 360.282 782.638 323.43 821.697L320.572 824.748L323.932 827.212C352.065 848.002 380.2 868.788 408.338 889.572L411.93 892.207L414.051 888.304C439.952 841.002 465.845 793.696 491.73 746.386H484.494C510.257 793.763 536.029 841.135 561.808 888.503L564.157 892.799L568.11 889.923C596.692 869.213 625.272 848.499 653.849 827.781L657.901 824.835L654.453 821.21C617.309 782.057 580.159 742.91 543.002 703.77L540.6 711.243C593.103 701.224 645.604 691.197 698.103 681.16C698.817 681.024 699.53 680.888 700.243 680.751L705.293 679.785L703.667 674.908C692.71 642.042 681.72 609.187 670.696 576.343L669.129 571.675L664.684 573.749C615.822 596.545 566.997 619.418 518.207 642.368L523.57 646.307C530.269 593.161 536.884 540.004 543.416 486.836C543.477 486.341 543.537 485.845 543.598 485.35L543.974 482.287L540.934 482.313C505.719 482.609 470.505 482.943 435.291 483.312ZM435.291 486.688V483.312L433.378 483.333L433.616 485.206L436.966 484.794L435.291 486.688Z" fill="#010414" mask="url(#path-5-outside-3_928_1628)"/>
<path d="M461.764 683.218C471.863 681.761 478.12 667.202 475.739 650.698C473.359 634.195 463.242 621.998 453.143 623.454C443.044 624.911 436.787 639.47 439.168 655.974C441.548 672.477 451.665 684.674 461.764 683.218Z" fill="#F5F6FB"/>
<path d="M476.296 650.618C475.925 650.672 475.554 650.725 475.183 650.779C475.424 653.33 475.481 655.883 475.338 658.416C474.807 668.097 470.941 680.024 461.55 681.733C461.55 681.733 461.55 681.733 461.55 681.733C449.41 682.497 442.27 667.494 440.549 655.774C438.803 644.071 441.02 627.561 453.298 624.526C463.255 623.401 470.356 634.12 473.38 643.344C474.178 645.763 474.776 648.251 475.183 650.779C475.554 650.725 475.925 650.672 476.296 650.618C475.963 648.021 475.431 645.451 474.684 642.935C471.759 633.453 465.168 621.565 452.989 622.382C438.017 626.14 436.25 643.847 437.786 656.173C439.707 668.43 446.059 685.124 461.978 684.702C461.978 684.702 461.978 684.702 461.978 684.702C474.369 682.018 477.249 668.391 477.138 658.447C477.082 655.809 476.793 653.191 476.296 650.618ZM475.183 650.779L476.296 650.618L475.183 650.779Z" fill="#010414"/>
<path d="M521.303 680.603C531.494 681.108 540.424 668.016 541.248 651.363C542.073 634.709 534.479 620.8 524.288 620.295C514.097 619.791 505.168 632.882 504.343 649.536C503.519 666.19 511.112 680.099 521.303 680.603Z" fill="#F5F6FB"/>
<path d="M541.81 651.39C541.436 651.372 541.061 651.353 540.687 651.335C540.435 653.886 540.001 656.402 539.377 658.861C537.001 668.26 530.922 679.227 521.377 679.105C521.377 679.105 521.377 679.105 521.377 679.105C509.316 677.53 505.182 661.438 505.737 649.605C506.265 637.784 511.604 622.004 524.235 621.377C534.223 622.18 539.14 634.06 540.341 643.692C540.661 646.22 540.771 648.776 540.687 651.335C541.061 651.353 541.436 651.372 541.81 651.39C541.981 648.778 541.951 646.154 541.7 643.541C540.645 633.675 536.452 620.744 524.342 619.213C508.927 620.034 503.802 637.075 502.949 649.467C502.487 661.865 505.524 679.467 521.229 682.101C521.229 682.101 521.229 682.101 521.229 682.101C533.905 681.841 539.341 669.017 541.137 659.235C541.587 656.636 541.805 654.011 541.81 651.39ZM540.687 651.335L541.81 651.39L540.687 651.335Z" fill="#010414"/>
<path d="M458.4 639.512C459.446 639.373 461.237 640.022 463.231 642.858C465.131 645.561 466.716 649.642 467.355 654.464C467.994 659.285 467.526 663.638 466.397 666.742C465.21 670 463.65 671.093 462.604 671.231C461.557 671.37 459.767 670.721 457.774 667.885C455.874 665.182 454.289 661.101 453.65 656.28C453.011 651.459 453.478 647.105 454.608 644.001C455.794 640.743 457.354 639.65 458.4 639.512Z" fill="black" stroke="black" stroke-width="6"/>
<path d="M528.336 637.445C529.39 637.509 531.023 638.489 532.437 641.655C533.784 644.671 534.558 648.981 534.262 653.835C533.965 658.689 532.673 662.872 530.969 665.703C529.181 668.673 527.441 669.447 526.387 669.383C525.333 669.318 523.701 668.338 522.287 665.173C520.94 662.156 520.166 657.847 520.462 652.993C520.758 648.139 522.051 643.955 523.755 641.125C525.543 638.155 527.282 637.381 528.336 637.445Z" fill="black" stroke="black" stroke-width="6"/>
<path d="M465.894 672.349C467.731 672.084 468.869 669.436 468.436 666.435C468.003 663.433 466.163 661.214 464.326 661.479C462.489 661.744 461.351 664.392 461.784 667.394C462.217 670.396 464.057 672.614 465.894 672.349Z" fill="#F5F6FB" stroke="#F5F6FB" stroke-width="6" stroke-miterlimit="10"/>
<path d="M522.356 672.135C524.21 672.227 525.834 669.846 525.984 666.817C526.134 663.788 524.753 661.258 522.899 661.166C521.046 661.074 519.421 663.456 519.271 666.485C519.122 669.514 520.503 672.043 522.356 672.135Z" fill="#F5F6FB" stroke="#F5F6FB" stroke-width="6" stroke-miterlimit="10"/>
<mask id="path-15-inside-4_928_1628" fill="white">
<path d="M215.201 596.464H144.958V608.941H211.37V643.405H66.4131V614.884H0V580.42H70.2432V562H215.201V596.464Z"/>
</mask>
<path d="M215.201 596.464H144.958V608.941H211.37V643.405H66.4131V614.884H0V580.42H70.2432V562H215.201V596.464Z" fill="#FF8BE4"/>
<path d="M215.201 596.464V602.464C218.515 602.464 221.201 599.778 221.201 596.464H215.201ZM144.958 596.464V590.464C141.644 590.464 138.958 593.15 138.958 596.464H144.958ZM144.958 608.941H138.958C138.958 612.255 141.644 614.941 144.958 614.941V608.941ZM211.37 608.941H217.37C217.37 605.628 214.684 602.941 211.37 602.941V608.941ZM211.37 643.405V649.405C214.684 649.405 217.37 646.719 217.37 643.405H211.37ZM66.4131 643.405H60.4131C60.4131 646.719 63.0994 649.405 66.4131 649.405V643.405ZM66.4131 614.884H72.4131C72.4131 611.57 69.7268 608.884 66.4131 608.884V614.884ZM0 614.884H-6C-6 618.197 -3.31371 620.884 0 620.884L0 614.884ZM0 580.42V574.42C-3.31371 574.42 -6 577.106 -6 580.42H0ZM70.2432 580.42V586.42C73.5569 586.42 76.2432 583.734 76.2432 580.42H70.2432ZM70.2432 562V556C66.9295 556 64.2432 558.686 64.2432 562H70.2432ZM215.201 562H221.201C221.201 558.686 218.515 556 215.201 556V562ZM215.201 596.464V590.464H144.958V596.464V602.464H215.201V596.464ZM144.958 596.464H138.958V608.941H144.958H150.958V596.464H144.958ZM144.958 608.941V614.941H211.37V608.941V602.941H144.958V608.941ZM211.37 608.941H205.37V643.405H211.37H217.37V608.941H211.37ZM211.37 643.405V637.405H66.4131V643.405V649.405H211.37V643.405ZM66.4131 643.405H72.4131V614.884H66.4131H60.4131V643.405H66.4131ZM66.4131 614.884V608.884H0V614.884V620.884H66.4131V614.884ZM0 614.884H6V580.42H0H-6V614.884H0ZM0 580.42V586.42H70.2432V580.42V574.42H0V580.42ZM70.2432 580.42H76.2432V562H70.2432H64.2432V580.42H70.2432ZM70.2432 562V568H215.201V562V556H70.2432V562ZM215.201 562H209.201V596.464H215.201H221.201V562H215.201Z" fill="#FF8BE4" mask="url(#path-15-inside-4_928_1628)"/>
</svg>
