<svg width="307" height="120" viewBox="0 0 307 120" fill="none" xmlns="http://www.w3.org/2000/svg">
<g clip-path="url(#clip0_633_803)">
<path d="M15.1939 0.513672V24.0814H9.0539V0.513672H0V59.2787H9.0539V33.4468H15.1939V59.2787H24.1437V0.513672H15.1939Z" fill="white"/>
<path d="M39.5445 59.8971H37.7753C30.5946 59.8971 26.7441 55.9863 26.7441 48.7822V37.0497H35.694V47.3413C35.694 50.0172 36.5265 51.458 38.6079 51.458C40.7933 51.458 41.5218 50.0172 41.5218 46.4151V45.0772C41.5218 40.8576 41.1055 39.4168 37.8794 35.1973L32.2597 27.8902C28.4092 22.9503 27.2645 19.2453 27.2645 13.3791V11.5266C27.2645 3.60206 31.3231 0 38.3997 0H40.0648C47.4536 0 50.3675 3.19039 50.3675 10.1887V19.8628H41.6258V11.3208C41.6258 9.36535 41.2096 7.82161 39.0241 7.82161C36.8387 7.82161 36.4224 9.15952 36.4224 11.9383V13.0703C36.4224 16.3636 37.0469 18.2161 40.0648 22.024L45.7886 29.3311C49.8472 34.5798 51.096 37.5643 51.096 44.151V46.0034C51.2001 54.7513 47.4536 59.8971 39.5445 59.8971Z" fill="white"/>
<path d="M74.3051 0.515625V9.05765H62.8576V24.495H71.8074V33.3458H62.8576V50.327H74.8254V59.2806H53.8037V0.515625H74.3051Z" fill="white"/>
<path d="M99.1777 48.2686H92.6214L91.3726 59.2806H83.3594L90.6441 0.515625H101.363L109.064 59.2806H100.322L99.1777 48.2686ZM98.137 39.5208L95.7434 17.8055L93.454 39.5208H98.137Z" fill="white"/>
<path d="M119.469 59.2806H110.415V0.515625H124.985C131.02 0.515625 134.038 3.08852 134.038 9.57223V19.9667C134.038 24.9067 131.749 26.7592 130.084 27.4796C132.061 28.3029 134.038 29.9496 134.038 33.8604V54.4436C134.038 56.8107 134.559 57.9427 134.871 58.7661V59.1777H125.921C125.505 58.5602 125.089 57.5311 125.089 54.3407V36.742C125.089 34.1691 124.568 33.0371 121.758 33.0371H119.469V59.2806ZM119.469 24.7009H121.862C124.36 24.7009 125.089 23.1571 125.089 20.4813V12.248C125.089 9.67514 124.568 8.44015 121.862 8.44015H119.469V24.7009Z" fill="white"/>
<path d="M152.356 9.05765V59.2806H143.407V9.05765H135.81V0.515625H159.849V9.05765H152.356Z" fill="white"/>
<path d="M184.201 48.2686H177.645L176.396 59.2806H168.383L175.668 0.515625H186.282L193.983 59.2806H185.242L184.201 48.2686ZM183.16 39.5208L180.767 17.8055L178.477 39.5208H183.16Z" fill="white"/>
<path d="M203.661 0.513672L211.362 32.006V0.513672H219.583V59.2787H212.298L203.661 25.5222V59.2787H195.439V0.513672H203.661Z" fill="white"/>
<path d="M222.914 0.515625H236.755C244.456 0.515625 246.85 4.83809 246.85 11.8364V47.5482C246.85 54.7523 244.144 59.2806 236.755 59.2806H222.914V0.515625ZM231.968 50.7386H234.153C236.859 50.7386 237.692 49.2978 237.692 46.2103V13.0714C237.692 9.67515 236.859 8.54307 234.57 8.54307H231.968V50.7386Z" fill="white"/>
<path d="M0 60.5137H13.841C21.542 60.5137 23.9356 64.8361 23.9356 71.8344V107.546C23.9356 114.75 21.2298 119.279 13.841 119.279H0V60.5137ZM9.0539 110.634H11.2393C13.9451 110.634 14.7776 109.193 14.7776 106.105V73.0694C14.7776 69.6732 13.9451 68.5411 11.6556 68.5411H9.0539V110.634Z" fill="white"/>
<path d="M47.6644 60.5137V68.9528H36.1129V84.3902H45.1668V93.3439H36.1129V110.325H48.1848V119.176H27.1631V60.5137H47.6644Z" fill="white"/>
<path d="M62.5445 119.794H60.7753C53.5947 119.794 49.7441 115.883 49.7441 108.679V96.9468H58.694V107.238C58.694 109.914 59.5265 111.355 61.6079 111.355C63.7933 111.355 64.5218 109.914 64.5218 106.312V104.974C64.5218 100.755 64.1055 99.3139 60.8794 95.0943L55.1557 87.7873C51.3052 82.8473 50.1604 79.1424 50.1604 73.2762V71.4237C50.1604 63.6021 54.115 60 61.2957 60H62.9607C70.3496 60 73.2635 63.1904 73.2635 70.1887V79.8628H64.5218V71.4237C64.5218 69.4683 64.1055 67.9245 61.9201 67.9245C59.7346 67.9245 59.3184 69.2624 59.3184 72.0412V73.0703C59.3184 76.3636 59.9428 78.2161 62.9607 82.024L68.6845 89.3311C72.7431 94.5798 73.9919 97.5643 73.9919 104.151V106.003C74.2001 114.751 70.4536 119.794 62.5445 119.794Z" fill="white"/>
<path d="M85.7502 60.5137H76.6963V119.279H85.7502V60.5137Z" fill="white"/>
<path d="M97.5107 119.999C92.2032 119.999 88.873 115.368 88.873 109.296V72.5551C88.873 65.9685 91.4747 59.8965 100.008 59.8965H101.777C111.456 59.8965 112.6 66.1744 112.6 73.0697V79.0389H103.859V72.4522C103.859 69.8793 103.234 68.4385 100.945 68.4385C99.0717 68.4385 98.1351 69.8793 98.1351 72.4522V106.826C98.1351 109.605 99.2798 111.046 101.049 111.046C103.338 111.046 104.379 109.502 104.379 107.238V92.5209H100.32V83.5672H112.913V119.279H107.813C107.709 118.97 106.981 116.089 106.252 113.516C105.628 115.471 102.61 120.102 98.031 120.102H97.5107V119.999Z" fill="white"/>
<path d="M124.153 60.5137L131.854 92.006V60.5137H140.076V119.176H132.791L124.153 85.4193V119.176H116.036V60.5137H124.153Z" fill="white"/>
<path d="M163.593 119.794H161.824C154.643 119.794 150.793 115.883 150.793 108.679V96.9468H159.743V107.238C159.743 109.914 160.575 111.355 162.657 111.355C164.842 111.355 165.571 109.914 165.571 106.312V104.974C165.571 100.755 165.154 99.3139 161.928 95.0943L156.205 87.7873C152.354 82.8473 151.209 79.1424 151.209 73.2762V71.4237C151.209 63.6021 155.164 60 162.345 60H164.01C171.398 60 174.312 63.1904 174.312 70.1887V79.8628H165.571V71.4237C165.571 69.4683 165.154 67.9245 162.969 67.9245C160.784 67.9245 160.367 69.2624 160.367 72.0412V73.0703C160.367 76.3636 160.992 78.2161 164.01 82.024L169.733 89.3311C173.792 94.5798 175.041 97.5643 175.041 104.151V106.003C175.249 114.751 171.502 119.794 163.593 119.794Z" fill="white"/>
<path d="M192.631 107.238V93.6535H201.477V107.238C201.477 113.516 199.395 119.897 190.654 119.897H188.676C179.622 119.897 177.541 113.413 177.541 107.547V71.7324C177.541 65.7633 180.143 60 188.364 60H190.445C200.332 60 201.477 66.4837 201.477 72.247V82.7444H192.631V72.4528C192.631 69.8799 191.798 68.542 189.613 68.542C187.427 68.542 186.803 69.777 186.803 72.4528V107.341C186.803 109.914 187.636 111.355 189.717 111.355C191.798 111.252 192.631 109.605 192.631 107.238Z" fill="white"/>
<path d="M219.479 93.3439H213.339V119.176H204.39V60.5137H213.339V83.9785H219.479V60.5137H228.533V119.176H219.479V93.3439Z" fill="white"/>
<path d="M256.317 106.106C256.317 114.339 253.508 119.896 244.87 119.896H243.309C234.671 119.896 231.653 114.339 231.653 106.106V73.3785C231.653 65.2481 234.775 59.8965 243.205 59.8965H244.766C253.508 59.8965 256.317 65.2481 256.317 73.2756V106.106ZM247.159 72.9668C247.159 69.8793 246.119 68.4385 244.037 68.4385C241.748 68.4385 240.811 69.9822 240.811 72.9668V106.723C240.811 109.296 241.54 111.252 244.037 111.252C246.431 111.252 247.055 109.296 247.055 106.723V72.9668H247.159Z" fill="white"/>
<path d="M283.896 106.106C283.896 114.339 281.087 119.896 272.449 119.896H270.888C262.25 119.896 259.232 114.339 259.232 106.106V73.3785C259.232 65.2481 262.354 59.8965 270.784 59.8965H272.345C281.087 59.8965 283.896 65.2481 283.896 73.2756V106.106ZM274.634 72.9668C274.634 69.8793 273.594 68.4385 271.512 68.4385C269.223 68.4385 268.286 69.9822 268.286 72.9668V106.723C268.286 109.296 269.015 111.252 271.512 111.252C273.906 111.252 274.53 109.296 274.53 106.723V72.9668H274.634Z" fill="white"/>
<path d="M295.969 60.5137V110.119H307V119.176H286.915V60.5137H295.969Z" fill="white"/>
</g>
<defs>
<clipPath id="clip0_633_803">
<rect width="307" height="120" fill="white"/>
</clipPath>
</defs>
</svg>
