<svg width="70" height="70" viewBox="0 0 70 70" fill="none" xmlns="http://www.w3.org/2000/svg">
<path fill-rule="evenodd" clip-rule="evenodd" d="M64.1663 35.0006C64.1663 51.1088 51.1078 64.1673 34.9997 64.1673C18.8914 64.1673 5.83301 51.1088 5.83301 35.0006C5.83301 18.8923 18.8914 5.83398 34.9997 5.83398C51.1078 5.83398 64.1663 18.8923 64.1663 35.0006ZM36.0447 27.3661C33.208 28.5461 27.5382 30.9882 19.0355 34.6926C17.6548 35.2419 16.9315 35.7791 16.8657 36.3041C16.7544 37.1919 17.866 37.5414 19.3796 38.0174C19.5855 38.0821 19.7989 38.1492 20.0175 38.2201C21.5067 38.7042 23.51 39.2706 24.5514 39.2931C25.496 39.3135 26.5504 38.9241 27.7144 38.1247C35.6588 32.7621 39.7597 30.0517 40.0169 29.993C40.1986 29.9519 40.4503 29.9 40.621 30.0516C40.7916 30.2033 40.7747 30.4903 40.7566 30.5673C40.6466 31.0369 36.2833 35.0934 34.0252 37.1925C33.3214 37.847 32.8221 38.3111 32.72 38.4172C32.4913 38.6546 32.2583 38.8792 32.0343 39.0951C30.6509 40.4289 29.6132 41.429 32.0918 43.0623C33.2829 43.8472 34.2358 44.4961 35.1866 45.1436C36.225 45.8509 37.2607 46.5562 38.6009 47.4347C38.9421 47.6584 39.2682 47.8909 39.5858 48.1172C40.7942 48.9788 41.8798 49.7529 43.2212 49.6292C44.0005 49.5577 44.8055 48.8248 45.2144 46.639C46.1807 41.4736 48.08 30.2815 48.519 25.6697C48.5575 25.2656 48.5091 24.7485 48.4703 24.5215C48.4312 24.2945 48.3501 23.971 48.055 23.7316C47.7055 23.4481 47.1663 23.3883 46.9248 23.3923C45.8278 23.4119 44.1446 23.9971 36.0447 27.3661Z" fill="#F7F8FF"/>
</svg>
