<svg width="70" height="70" viewBox="0 0 70 70" fill="none" xmlns="http://www.w3.org/2000/svg">
<path d="M35 6C19.0097 6 6 19.0097 6 35C6 50.9904 19.0097 64 35 64C50.9916 64 64 50.9904 64 35C64 19.0097 50.9916 6 35 6ZM47.5747 40.718C50.3952 43.2221 50.9815 44.1161 51.0773 44.2687C52.2462 46.1221 49.7812 46.3478 49.7812 46.3478H44.5864C44.5864 46.3478 43.3217 46.3617 42.2412 45.6455C40.4797 44.4918 38.6351 42.255 37.3389 42.6434C36.2508 42.9687 36.2609 44.4389 36.2609 45.696C36.2609 46.1461 35.8738 46.3478 35 46.3478C34.1262 46.3478 33.7631 46.3478 33.376 46.3478C30.5302 46.3478 27.4423 45.3896 24.362 42.1706C20.0045 37.6201 16.1828 28.4536 16.1828 28.4536C16.1828 28.4536 15.9571 27.9921 16.203 27.7109C16.4816 27.3957 17.2394 27.436 17.2394 27.436L22.2766 27.4348C22.2766 27.4348 22.7507 27.5243 23.0911 27.7639C23.3723 27.9606 23.5286 28.3363 23.5286 28.3363C23.5286 28.3363 24.3747 31.1304 25.4527 32.912C27.5583 36.3895 28.538 36.4777 29.253 36.1033C30.297 35.5611 29.9565 31.8642 29.9565 31.8642C29.9565 31.8642 30.0032 30.2768 29.4585 29.5694C29.0386 29.0222 28.2354 28.731 27.8849 28.6856C27.6012 28.649 28.0753 28.1522 28.6793 27.8685C29.4862 27.5092 30.5844 27.4171 32.4783 27.4348C33.9522 27.4487 34.3771 27.5369 34.9521 27.6693C36.6908 28.0703 36.2609 29.1281 36.2609 32.8427C36.2609 34.0329 36.097 35.7061 36.9947 36.2609C37.3818 36.5004 38.7082 36.793 41.0686 32.9599C42.1895 31.1417 43.0809 28.1257 43.0809 28.1257C43.0809 28.1257 43.265 27.7941 43.5512 27.6302C43.8437 27.4625 43.8349 27.4663 44.2359 27.4663C44.6368 27.4663 48.6577 27.4348 49.5404 27.4348C50.4217 27.4348 51.2488 27.4247 51.3913 27.9417C51.5956 28.6843 50.7407 31.2287 48.5745 33.99C45.0151 38.5216 44.6204 38.098 47.5747 40.718Z" fill="#F7F8FF"/>
</svg>
