<svg width="481" height="166" viewBox="0 0 481 166" fill="none" xmlns="http://www.w3.org/2000/svg">
<path d="M481 166H438.747L429.096 94.0753C428.575 90.9482 428.139 87.9078 427.792 84.9545C427.446 81.8273 427.095 78.7001 426.749 75.573C426.574 72.4458 426.313 69.4054 425.967 66.4521C425.791 63.325 425.53 60.1978 425.184 57.0706C425.009 58.8081 424.748 60.5451 424.402 62.2826C424.055 64.02 423.619 65.7571 423.097 67.4945C422.401 70.969 421.533 74.4439 420.489 77.9184C419.621 81.2194 418.664 84.6939 417.62 88.3422L395.19 166H365.195L342.504 88.3422C341.46 84.6939 340.504 81.2194 339.634 77.9184C338.765 74.4439 337.896 70.969 337.026 67.4945C336.679 65.7571 336.244 64.02 335.722 62.2826C335.375 60.5451 335.027 58.8081 334.679 57.0706C334.505 60.1978 334.244 63.325 333.896 66.4521C333.722 69.4054 333.462 72.4458 333.114 75.573C332.766 78.7001 332.418 81.8273 332.071 84.9545C331.723 87.9078 331.375 90.9482 331.027 94.0753L321.377 166H279.385L304.684 0H349.546L374.845 85.2151C375.367 87.2998 375.889 89.2979 376.41 91.2088C377.106 92.9462 377.628 94.7704 377.975 96.6813C378.497 98.5922 378.932 100.504 379.279 102.414C379.627 104.152 379.888 106.063 380.062 108.148C380.41 105.889 380.758 103.717 381.105 101.633C381.627 99.374 382.148 97.1158 382.67 94.8571C383.018 93.2936 383.366 91.73 383.713 90.1664C384.061 88.6028 384.496 86.9525 385.017 85.2151L410.578 0H455.179L481 166Z" fill="#F5F6FB"/>
<path d="M0 166V0H44.8821V75.3124L97.3315 0H150.303L88.9813 80.7849L155.783 166H99.1581L44.8821 91.2088V166H0Z" fill="#F5F6FB"/>
<path d="M196.091 28.478H223.655L218.142 70.8918L256.425 52.9354L265.001 78.9411L223.349 86.9905L252.444 117.95L230.087 134.358L209.873 96.8975L189.659 134.358L167.608 117.95L196.397 86.9905L155.051 78.9411L163.32 52.9354L201.297 71.2013L196.091 28.478Z" fill="#F5F6FB"/>
</svg>
