<svg width="3290" height="1143" viewBox="0 0 3290 1143" fill="none" xmlns="http://www.w3.org/2000/svg">
<path d="M3289.22 1136.53H3000.15L2934.12 644.094C2930.55 622.684 2927.57 601.868 2925.2 581.648C2922.83 560.237 2920.43 538.827 2918.06 517.417C2916.86 496.006 2915.08 475.19 2912.71 454.97C2911.51 433.559 2909.73 412.149 2907.36 390.739C2906.16 402.634 2904.37 414.527 2902 426.423C2899.63 438.318 2896.65 450.211 2893.08 462.107C2888.31 485.895 2882.37 509.686 2875.24 533.474C2869.3 556.075 2862.75 579.863 2855.61 604.842L2702.15 1136.53H2496.94L2341.7 604.842C2334.56 579.863 2328.02 556.075 2322.07 533.474C2316.12 509.686 2310.17 485.895 2304.23 462.107C2301.85 450.211 2298.87 438.318 2295.3 426.423C2292.93 414.527 2290.55 402.634 2288.17 390.739C2286.98 412.149 2285.19 433.559 2282.81 454.97C2281.62 475.19 2279.84 496.006 2277.46 517.417C2275.08 538.827 2272.7 560.237 2270.32 581.648C2267.94 601.868 2265.56 622.684 2263.19 644.094L2197.16 1136.53H1909.87L2082.96 0H2389.88L2562.97 583.432C2566.53 597.705 2570.1 611.385 2573.67 624.468C2578.43 636.364 2582 648.853 2584.38 661.936C2587.95 675.02 2590.92 688.106 2593.3 701.189C2595.68 713.084 2597.46 726.167 2598.65 740.441C2601.03 724.977 2603.41 710.11 2605.79 695.836C2609.36 680.372 2612.93 664.911 2616.5 649.447C2618.88 638.742 2621.26 628.037 2623.64 617.331C2626.01 606.626 2628.99 595.327 2632.56 583.432L2807.43 0H3112.56L3289.22 1136.53Z" fill="#050131"/>
<path d="M0 1136.53V0H306.918V515.632L665.584 0H1027.82L608.483 553.101L1065.29 1136.53H678.075L306.918 624.468V1136.53H0Z" fill="#050131"/>
<path d="M1340.48 195.146H1529.2L1491.46 485.502L1753.57 362.576L1812.29 540.605L1527.11 595.709L1726.31 807.649L1573.24 919.976L1434.84 663.531L1296.44 919.976L1145.47 807.649L1342.58 595.709L1059.49 540.605L1116.11 362.576L1376.13 487.62L1340.48 195.146Z" fill="#050131"/>
</svg>
