<svg width="1439" height="840" viewBox="0 0 1439 840" fill="none" xmlns="http://www.w3.org/2000/svg">
<mask id="path-1-inside-1_906_1628" fill="white">
<path d="M946.999 705.944H901.763V728.592H941.021V793.867H698.258V756.588H659V724.594H483V660.65H704.236V642H946.999V705.944Z"/>
</mask>
<path d="M946.999 705.944H901.763V728.592H941.021V793.867H698.258V756.588H659V724.594H483V660.65H704.236V642H946.999V705.944Z" fill="#C0EFDB"/>
<path d="M946.999 705.944V711.944C950.313 711.944 952.999 709.258 952.999 705.944H946.999ZM901.763 705.944V699.944C898.449 699.944 895.763 702.631 895.763 705.944H901.763ZM901.763 728.592H895.763C895.763 731.906 898.449 734.592 901.763 734.592V728.592ZM941.021 728.592H947.021C947.021 725.278 944.334 722.592 941.021 722.592V728.592ZM941.021 793.867V799.867C944.334 799.867 947.021 797.181 947.021 793.867H941.021ZM698.258 793.867H692.258C692.258 797.181 694.944 799.867 698.258 799.867V793.867ZM698.258 756.588H704.258C704.258 753.274 701.572 750.588 698.258 750.588V756.588ZM659 756.588H653C653 759.902 655.686 762.588 659 762.588V756.588ZM659 724.594H665C665 721.28 662.314 718.594 659 718.594V724.594ZM483 724.594H477C477 727.907 479.686 730.594 483 730.594V724.594ZM483 660.65V654.65C479.686 654.65 477 657.337 477 660.65H483ZM704.236 660.65V666.65C707.55 666.65 710.236 663.964 710.236 660.65H704.236ZM704.236 642V636C700.923 636 698.236 638.686 698.236 642H704.236ZM946.999 642H952.999C952.999 638.686 950.313 636 946.999 636V642ZM946.999 705.944V699.944H901.763V705.944V711.944H946.999V705.944ZM901.763 705.944H895.763V728.592H901.763H907.763V705.944H901.763ZM901.763 728.592V734.592H941.021V728.592V722.592H901.763V728.592ZM941.021 728.592H935.021V793.867H941.021H947.021V728.592H941.021ZM941.021 793.867V787.867H698.258V793.867V799.867H941.021V793.867ZM698.258 793.867H704.258V756.588H698.258H692.258V793.867H698.258ZM698.258 756.588V750.588H659V756.588V762.588H698.258V756.588ZM659 756.588H665V724.594H659H653V756.588H659ZM659 724.594V718.594H483V724.594V730.594H659V724.594ZM483 724.594H489V660.65H483H477V724.594H483ZM483 660.65V666.65H704.236V660.65V654.65H483V660.65ZM704.236 660.65H710.236V642H704.236H698.236V660.65H704.236ZM704.236 642V648H946.999V642V636H704.236V642ZM946.999 642H940.999V705.944H946.999H952.999V642H946.999Z" fill="#C0EFDB" mask="url(#path-1-inside-1_906_1628)"/>
<mask id="path-3-inside-2_906_1628" fill="white">
<path d="M1258.2 739.464H1187.96V751.941H1254.37V786.405H1109.41V757.884H1043V723.42H1113.24V705H1258.2V739.464Z"/>
</mask>
<path d="M1258.2 739.464H1187.96V751.941H1254.37V786.405H1109.41V757.884H1043V723.42H1113.24V705H1258.2V739.464Z" fill="#C0EFDB"/>
<path d="M1258.2 739.464V745.464C1261.51 745.464 1264.2 742.778 1264.2 739.464H1258.2ZM1187.96 739.464V733.464C1184.64 733.464 1181.96 736.15 1181.96 739.464H1187.96ZM1187.96 751.941H1181.96C1181.96 755.255 1184.64 757.941 1187.96 757.941V751.941ZM1254.37 751.941H1260.37C1260.37 748.628 1257.68 745.941 1254.37 745.941V751.941ZM1254.37 786.405V792.405C1257.68 792.405 1260.37 789.719 1260.37 786.405H1254.37ZM1109.41 786.405H1103.41C1103.41 789.719 1106.1 792.405 1109.41 792.405V786.405ZM1109.41 757.884H1115.41C1115.41 754.57 1112.73 751.884 1109.41 751.884V757.884ZM1043 757.884H1037C1037 761.197 1039.69 763.884 1043 763.884V757.884ZM1043 723.42V717.42C1039.69 717.42 1037 720.106 1037 723.42H1043ZM1113.24 723.42V729.42C1116.56 729.42 1119.24 726.734 1119.24 723.42H1113.24ZM1113.24 705V699C1109.93 699 1107.24 701.686 1107.24 705H1113.24ZM1258.2 705H1264.2C1264.2 701.686 1261.51 699 1258.2 699V705ZM1258.2 739.464V733.464H1187.96V739.464V745.464H1258.2V739.464ZM1187.96 739.464H1181.96V751.941H1187.96H1193.96V739.464H1187.96ZM1187.96 751.941V757.941H1254.37V751.941V745.941H1187.96V751.941ZM1254.37 751.941H1248.37V786.405H1254.37H1260.37V751.941H1254.37ZM1254.37 786.405V780.405H1109.41V786.405V792.405H1254.37V786.405ZM1109.41 786.405H1115.41V757.884H1109.41H1103.41V786.405H1109.41ZM1109.41 757.884V751.884H1043V757.884V763.884H1109.41V757.884ZM1043 757.884H1049V723.42H1043H1037V757.884H1043ZM1043 723.42V729.42H1113.24V723.42V717.42H1043V723.42ZM1113.24 723.42H1119.24V705H1113.24H1107.24V723.42H1113.24ZM1113.24 705V711H1258.2V705V699H1113.24V705ZM1258.2 705H1252.2V739.464H1258.2H1264.2V705H1258.2Z" fill="#C0EFDB" mask="url(#path-3-inside-2_906_1628)"/>
<mask id="path-5-inside-3_906_1628" fill="white">
<path d="M386.201 739.464H315.958V751.941H382.37V786.405H237.413V757.884H171V723.42H241.243V705H386.201V739.464Z"/>
</mask>
<path d="M386.201 739.464H315.958V751.941H382.37V786.405H237.413V757.884H171V723.42H241.243V705H386.201V739.464Z" fill="#C0EFDB"/>
<path d="M386.201 739.464V745.464C389.515 745.464 392.201 742.778 392.201 739.464H386.201ZM315.958 739.464V733.464C312.644 733.464 309.958 736.15 309.958 739.464H315.958ZM315.958 751.941H309.958C309.958 755.255 312.644 757.941 315.958 757.941V751.941ZM382.37 751.941H388.37C388.37 748.628 385.684 745.941 382.37 745.941V751.941ZM382.37 786.405V792.405C385.684 792.405 388.37 789.719 388.37 786.405H382.37ZM237.413 786.405H231.413C231.413 789.719 234.099 792.405 237.413 792.405V786.405ZM237.413 757.884H243.413C243.413 754.57 240.727 751.884 237.413 751.884V757.884ZM171 757.884H165C165 761.197 167.686 763.884 171 763.884V757.884ZM171 723.42V717.42C167.686 717.42 165 720.106 165 723.42H171ZM241.243 723.42V729.42C244.557 729.42 247.243 726.734 247.243 723.42H241.243ZM241.243 705V699C237.929 699 235.243 701.686 235.243 705H241.243ZM386.201 705H392.201C392.201 701.686 389.515 699 386.201 699V705ZM386.201 739.464V733.464H315.958V739.464V745.464H386.201V739.464ZM315.958 739.464H309.958V751.941H315.958H321.958V739.464H315.958ZM315.958 751.941V757.941H382.37V751.941V745.941H315.958V751.941ZM382.37 751.941H376.37V786.405H382.37H388.37V751.941H382.37ZM382.37 786.405V780.405H237.413V786.405V792.405H382.37V786.405ZM237.413 786.405H243.413V757.884H237.413H231.413V786.405H237.413ZM237.413 757.884V751.884H171V757.884V763.884H237.413V757.884ZM171 757.884H177V723.42H171H165V757.884H171ZM171 723.42V729.42H241.243V723.42V717.42H171V723.42ZM241.243 723.42H247.243V705H241.243H235.243V723.42H241.243ZM241.243 705V711H386.201V705V699H241.243V705ZM386.201 705H380.201V739.464H386.201H392.201V705H386.201Z" fill="#C0EFDB" mask="url(#path-5-inside-3_906_1628)"/>
<mask id="path-7-inside-4_906_1628" fill="white">
<path d="M808.201 759.464H737.958V771.941H804.37V806.405H659.413V777.884H593V743.42H663.243V725H808.201V759.464Z"/>
</mask>
<path d="M808.201 759.464H737.958V771.941H804.37V806.405H659.413V777.884H593V743.42H663.243V725H808.201V759.464Z" fill="#C0EFDB"/>
<path d="M808.201 759.464V765.464C811.515 765.464 814.201 762.778 814.201 759.464H808.201ZM737.958 759.464V753.464C734.644 753.464 731.958 756.15 731.958 759.464H737.958ZM737.958 771.941H731.958C731.958 775.255 734.644 777.941 737.958 777.941V771.941ZM804.37 771.941H810.37C810.37 768.628 807.684 765.941 804.37 765.941V771.941ZM804.37 806.405V812.405C807.684 812.405 810.37 809.719 810.37 806.405H804.37ZM659.413 806.405H653.413C653.413 809.719 656.099 812.405 659.413 812.405V806.405ZM659.413 777.884H665.413C665.413 774.57 662.727 771.884 659.413 771.884V777.884ZM593 777.884H587C587 781.197 589.686 783.884 593 783.884V777.884ZM593 743.42V737.42C589.686 737.42 587 740.106 587 743.42H593ZM663.243 743.42V749.42C666.557 749.42 669.243 746.734 669.243 743.42H663.243ZM663.243 725V719C659.929 719 657.243 721.686 657.243 725H663.243ZM808.201 725H814.201C814.201 721.686 811.515 719 808.201 719V725ZM808.201 759.464V753.464H737.958V759.464V765.464H808.201V759.464ZM737.958 759.464H731.958V771.941H737.958H743.958V759.464H737.958ZM737.958 771.941V777.941H804.37V771.941V765.941H737.958V771.941ZM804.37 771.941H798.37V806.405H804.37H810.37V771.941H804.37ZM804.37 806.405V800.405H659.413V806.405V812.405H804.37V806.405ZM659.413 806.405H665.413V777.884H659.413H653.413V806.405H659.413ZM659.413 777.884V771.884H593V777.884V783.884H659.413V777.884ZM593 777.884H599V743.42H593H587V777.884H593ZM593 743.42V749.42H663.243V743.42V737.42H593V743.42ZM663.243 743.42H669.243V725H663.243H657.243V743.42H663.243ZM663.243 725V731H808.201V725V719H663.243V725ZM808.201 725H802.201V759.464H808.201H814.201V725H808.201Z" fill="#C0EFDB" mask="url(#path-7-inside-4_906_1628)"/>
<mask id="path-9-inside-5_906_1628" fill="white">
<path d="M836.279 799H785.421V811.598H784.947V830.184H675.947V797.972H627V759.184H729.279V759H836.279V799Z"/>
</mask>
<path d="M836.279 799H785.421V811.598H784.947V830.184H675.947V797.972H627V759.184H729.279V759H836.279V799Z" fill="#FF8BE4"/>
<path d="M836.279 799V805C839.593 805 842.279 802.314 842.279 799H836.279ZM785.421 799V793C782.107 793 779.421 795.686 779.421 799H785.421ZM785.421 811.598V817.598C788.735 817.598 791.421 814.911 791.421 811.598H785.421ZM784.947 811.598V805.598C781.634 805.598 778.947 808.284 778.947 811.598H784.947ZM784.947 830.184V836.184C788.261 836.184 790.947 833.497 790.947 830.184H784.947ZM675.947 830.184H669.947C669.947 833.497 672.634 836.184 675.947 836.184V830.184ZM675.947 797.972H681.947C681.947 794.658 679.261 791.972 675.947 791.972V797.972ZM627 797.972H621C621 801.285 623.686 803.972 627 803.972V797.972ZM627 759.184V753.184C623.686 753.184 621 755.87 621 759.184H627ZM729.279 759.184V765.184C732.593 765.184 735.279 762.497 735.279 759.184H729.279ZM729.279 759V753C725.966 753 723.279 755.686 723.279 759H729.279ZM836.279 759H842.279C842.279 755.686 839.593 753 836.279 753V759ZM836.279 799V793H785.421V799V805H836.279V799ZM785.421 799H779.421V811.598H785.421H791.421V799H785.421ZM785.421 811.598V805.598H784.947V811.598V817.598H785.421V811.598ZM784.947 811.598H778.947V830.184H784.947H790.947V811.598H784.947ZM784.947 830.184V824.184H675.947V830.184V836.184H784.947V830.184ZM675.947 830.184H681.947V797.972H675.947H669.947V830.184H675.947ZM675.947 797.972V791.972H627V797.972V803.972H675.947V797.972ZM627 797.972H633V759.184H627H621V797.972H627ZM627 759.184V765.184H729.279V759.184V753.184H627V759.184ZM729.279 759.184H735.279V759H729.279H723.279V759.184H729.279ZM729.279 759V765H836.279V759V753H729.279V759ZM836.279 759H830.279V799H836.279H842.279V759H836.279Z" fill="#FF8BE4" mask="url(#path-9-inside-5_906_1628)"/>
<mask id="path-11-inside-6_906_1628" fill="white">
<path d="M1258.28 819H1207.42V831.598H1206.95V850.184H1097.95V817.972H1049V779.184H1151.28V779H1258.28V819Z"/>
</mask>
<path d="M1258.28 819H1207.42V831.598H1206.95V850.184H1097.95V817.972H1049V779.184H1151.28V779H1258.28V819Z" fill="#FF8BE4"/>
<path d="M1258.28 819V825C1261.59 825 1264.28 822.314 1264.28 819H1258.28ZM1207.42 819V813C1204.11 813 1201.42 815.686 1201.42 819H1207.42ZM1207.42 831.598V837.598C1210.73 837.598 1213.42 834.911 1213.42 831.598H1207.42ZM1206.95 831.598V825.598C1203.63 825.598 1200.95 828.284 1200.95 831.598H1206.95ZM1206.95 850.184V856.184C1210.26 856.184 1212.95 853.497 1212.95 850.184H1206.95ZM1097.95 850.184H1091.95C1091.95 853.497 1094.63 856.184 1097.95 856.184V850.184ZM1097.95 817.972H1103.95C1103.95 814.658 1101.26 811.972 1097.95 811.972V817.972ZM1049 817.972H1043C1043 821.285 1045.69 823.972 1049 823.972V817.972ZM1049 779.184V773.184C1045.69 773.184 1043 775.87 1043 779.184H1049ZM1151.28 779.184V785.184C1154.59 785.184 1157.28 782.497 1157.28 779.184H1151.28ZM1151.28 779V773C1147.97 773 1145.28 775.686 1145.28 779H1151.28ZM1258.28 779H1264.28C1264.28 775.686 1261.59 773 1258.28 773V779ZM1258.28 819V813H1207.42V819V825H1258.28V819ZM1207.42 819H1201.42V831.598H1207.42H1213.42V819H1207.42ZM1207.42 831.598V825.598H1206.95V831.598V837.598H1207.42V831.598ZM1206.95 831.598H1200.95V850.184H1206.95H1212.95V831.598H1206.95ZM1206.95 850.184V844.184H1097.95V850.184V856.184H1206.95V850.184ZM1097.95 850.184H1103.95V817.972H1097.95H1091.95V850.184H1097.95ZM1097.95 817.972V811.972H1049V817.972V823.972H1097.95V817.972ZM1049 817.972H1055V779.184H1049H1043V817.972H1049ZM1049 779.184V785.184H1151.28V779.184V773.184H1049V779.184ZM1151.28 779.184H1157.28V779H1151.28H1145.28V779.184H1151.28ZM1151.28 779V785H1258.28V779V773H1151.28V779ZM1258.28 779H1252.28V819H1258.28H1264.28V779H1258.28Z" fill="#FF8BE4" mask="url(#path-11-inside-6_906_1628)"/>
<mask id="path-13-inside-7_906_1628" fill="white">
<path d="M386.279 819H335.421V831.598H334.947V850.184H225.947V817.972H177V779.184H279.279V779H386.279V819Z"/>
</mask>
<path d="M386.279 819H335.421V831.598H334.947V850.184H225.947V817.972H177V779.184H279.279V779H386.279V819Z" fill="#FF8BE4"/>
<path d="M386.279 819V825C389.593 825 392.279 822.314 392.279 819H386.279ZM335.421 819V813C332.107 813 329.421 815.686 329.421 819H335.421ZM335.421 831.598V837.598C338.735 837.598 341.421 834.911 341.421 831.598H335.421ZM334.947 831.598V825.598C331.634 825.598 328.947 828.284 328.947 831.598H334.947ZM334.947 850.184V856.184C338.261 856.184 340.947 853.497 340.947 850.184H334.947ZM225.947 850.184H219.947C219.947 853.497 222.634 856.184 225.947 856.184V850.184ZM225.947 817.972H231.947C231.947 814.658 229.261 811.972 225.947 811.972V817.972ZM177 817.972H171C171 821.285 173.686 823.972 177 823.972V817.972ZM177 779.184V773.184C173.686 773.184 171 775.87 171 779.184H177ZM279.279 779.184V785.184C282.593 785.184 285.279 782.497 285.279 779.184H279.279ZM279.279 779V773C275.966 773 273.279 775.686 273.279 779H279.279ZM386.279 779H392.279C392.279 775.686 389.593 773 386.279 773V779ZM386.279 819V813H335.421V819V825H386.279V819ZM335.421 819H329.421V831.598H335.421H341.421V819H335.421ZM335.421 831.598V825.598H334.947V831.598V837.598H335.421V831.598ZM334.947 831.598H328.947V850.184H334.947H340.947V831.598H334.947ZM334.947 850.184V844.184H225.947V850.184V856.184H334.947V850.184ZM225.947 850.184H231.947V817.972H225.947H219.947V850.184H225.947ZM225.947 817.972V811.972H177V817.972V823.972H225.947V817.972ZM177 817.972H183V779.184H177H171V817.972H177ZM177 779.184V785.184H279.279V779.184V773.184H177V779.184ZM279.279 779.184H285.279V779H279.279H273.279V779.184H279.279ZM279.279 779V785H386.279V779V773H279.279V779ZM386.279 779H380.279V819H386.279H392.279V779H386.279Z" fill="#FF8BE4" mask="url(#path-13-inside-7_906_1628)"/>
<mask id="path-15-inside-8_906_1628" fill="white">
<path d="M808.279 839H757.421V851.598H756.947V870.184H647.947V837.972H599V799.184H701.279V799H808.279V839Z"/>
</mask>
<path d="M808.279 839H757.421V851.598H756.947V870.184H647.947V837.972H599V799.184H701.279V799H808.279V839Z" fill="#FF8BE4"/>
<path d="M808.279 839V845C811.593 845 814.279 842.314 814.279 839H808.279ZM757.421 839V833C754.107 833 751.421 835.686 751.421 839H757.421ZM757.421 851.598V857.598C760.735 857.598 763.421 854.911 763.421 851.598H757.421ZM756.947 851.598V845.598C753.634 845.598 750.947 848.284 750.947 851.598H756.947ZM756.947 870.184V876.184C760.261 876.184 762.947 873.497 762.947 870.184H756.947ZM647.947 870.184H641.947C641.947 873.497 644.634 876.184 647.947 876.184V870.184ZM647.947 837.972H653.947C653.947 834.658 651.261 831.972 647.947 831.972V837.972ZM599 837.972H593C593 841.285 595.686 843.972 599 843.972V837.972ZM599 799.184V793.184C595.686 793.184 593 795.87 593 799.184H599ZM701.279 799.184V805.184C704.593 805.184 707.279 802.497 707.279 799.184H701.279ZM701.279 799V793C697.966 793 695.279 795.686 695.279 799H701.279ZM808.279 799H814.279C814.279 795.686 811.593 793 808.279 793V799ZM808.279 839V833H757.421V839V845H808.279V839ZM757.421 839H751.421V851.598H757.421H763.421V839H757.421ZM757.421 851.598V845.598H756.947V851.598V857.598H757.421V851.598ZM756.947 851.598H750.947V870.184H756.947H762.947V851.598H756.947ZM756.947 870.184V864.184H647.947V870.184V876.184H756.947V870.184ZM647.947 870.184H653.947V837.972H647.947H641.947V870.184H647.947ZM647.947 837.972V831.972H599V837.972V843.972H647.947V837.972ZM599 837.972H605V799.184H599H593V837.972H599ZM599 799.184V805.184H701.279V799.184V793.184H599V799.184ZM701.279 799.184H707.279V799H701.279H695.279V799.184H701.279ZM701.279 799V805H808.279V799V793H701.279V799ZM808.279 799H802.279V839H808.279H814.279V799H808.279Z" fill="#FF8BE4" mask="url(#path-15-inside-8_906_1628)"/>
<mask id="path-17-inside-9_906_1628" fill="white">
<path d="M993.305 756.069H1053.59V791.748H951.475V816.97H811.836V791.748H786V756.069H853.666V737H993.305V756.069Z"/>
</mask>
<path d="M993.305 756.069H1053.59V791.748H951.475V816.97H811.836V791.748H786V756.069H853.666V737H993.305V756.069Z" fill="#FFAD64"/>
<path d="M993.305 756.069H987.305C987.305 759.383 989.991 762.069 993.305 762.069V756.069ZM1053.59 756.069H1059.59C1059.59 752.756 1056.9 750.069 1053.59 750.069V756.069ZM1053.59 791.748V797.748C1056.9 797.748 1059.59 795.062 1059.59 791.748H1053.59ZM951.475 791.748V785.748C948.161 785.748 945.475 788.434 945.475 791.748H951.475ZM951.475 816.97V822.97C954.788 822.97 957.475 820.283 957.475 816.97H951.475ZM811.836 816.97H805.836C805.836 820.283 808.522 822.97 811.836 822.97V816.97ZM811.836 791.748H817.836C817.836 788.434 815.15 785.748 811.836 785.748V791.748ZM786 791.748H780C780 795.062 782.686 797.748 786 797.748V791.748ZM786 756.069V750.069C782.686 750.069 780 752.756 780 756.069H786ZM853.666 756.069V762.069C856.98 762.069 859.666 759.383 859.666 756.069H853.666ZM853.666 737V731C850.352 731 847.666 733.686 847.666 737H853.666ZM993.305 737H999.305C999.305 733.686 996.618 731 993.305 731V737ZM993.305 756.069V762.069H1053.59V756.069V750.069H993.305V756.069ZM1053.59 756.069H1047.59V791.748H1053.59H1059.59V756.069H1053.59ZM1053.59 791.748V785.748H951.475V791.748V797.748H1053.59V791.748ZM951.475 791.748H945.475V816.97H951.475H957.475V791.748H951.475ZM951.475 816.97V810.97H811.836V816.97V822.97H951.475V816.97ZM811.836 816.97H817.836V791.748H811.836H805.836V816.97H811.836ZM811.836 791.748V785.748H786V791.748V797.748H811.836V791.748ZM786 791.748H792V756.069H786H780V791.748H786ZM786 756.069V762.069H853.666V756.069V750.069H786V756.069ZM853.666 756.069H859.666V737H853.666H847.666V756.069H853.666ZM853.666 737V743H993.305V737V731H853.666V737ZM993.305 737H987.305V756.069H993.305H999.305V737H993.305Z" fill="#FFAD64" mask="url(#path-17-inside-9_906_1628)"/>
<mask id="path-19-inside-10_906_1628" fill="white">
<path d="M1415.3 776.069H1475.59V811.748H1373.47V836.97H1233.84V811.748H1208V776.069H1275.67V757H1415.3V776.069Z"/>
</mask>
<path d="M1415.3 776.069H1475.59V811.748H1373.47V836.97H1233.84V811.748H1208V776.069H1275.67V757H1415.3V776.069Z" fill="#FFAD64"/>
<path d="M1415.3 776.069H1409.3C1409.3 779.383 1411.99 782.069 1415.3 782.069V776.069ZM1475.59 776.069H1481.59C1481.59 772.756 1478.9 770.069 1475.59 770.069V776.069ZM1475.59 811.748V817.748C1478.9 817.748 1481.59 815.062 1481.59 811.748H1475.59ZM1373.47 811.748V805.748C1370.16 805.748 1367.47 808.434 1367.47 811.748H1373.47ZM1373.47 836.97V842.97C1376.79 842.97 1379.47 840.283 1379.47 836.97H1373.47ZM1233.84 836.97H1227.84C1227.84 840.283 1230.52 842.97 1233.84 842.97V836.97ZM1233.84 811.748H1239.84C1239.84 808.434 1237.15 805.748 1233.84 805.748V811.748ZM1208 811.748H1202C1202 815.062 1204.69 817.748 1208 817.748V811.748ZM1208 776.069V770.069C1204.69 770.069 1202 772.756 1202 776.069H1208ZM1275.67 776.069V782.069C1278.98 782.069 1281.67 779.383 1281.67 776.069H1275.67ZM1275.67 757V751C1272.35 751 1269.67 753.686 1269.67 757H1275.67ZM1415.3 757H1421.3C1421.3 753.686 1418.62 751 1415.3 751V757ZM1415.3 776.069V782.069H1475.59V776.069V770.069H1415.3V776.069ZM1475.59 776.069H1469.59V811.748H1475.59H1481.59V776.069H1475.59ZM1475.59 811.748V805.748H1373.47V811.748V817.748H1475.59V811.748ZM1373.47 811.748H1367.47V836.97H1373.47H1379.47V811.748H1373.47ZM1373.47 836.97V830.97H1233.84V836.97V842.97H1373.47V836.97ZM1233.84 836.97H1239.84V811.748H1233.84H1227.84V836.97H1233.84ZM1233.84 811.748V805.748H1208V811.748V817.748H1233.84V811.748ZM1208 811.748H1214V776.069H1208H1202V811.748H1208ZM1208 776.069V782.069H1275.67V776.069V770.069H1208V776.069ZM1275.67 776.069H1281.67V757H1275.67H1269.67V776.069H1275.67ZM1275.67 757V763H1415.3V757V751H1275.67V757ZM1415.3 757H1409.3V776.069H1415.3H1421.3V757H1415.3Z" fill="#FFAD64" mask="url(#path-19-inside-10_906_1628)"/>
<mask id="path-21-inside-11_906_1628" fill="white">
<path d="M543.305 776.069H603.59V811.748H501.475V836.97H361.836V811.748H336V776.069H403.666V757H543.305V776.069Z"/>
</mask>
<path d="M543.305 776.069H603.59V811.748H501.475V836.97H361.836V811.748H336V776.069H403.666V757H543.305V776.069Z" fill="#FFAD64"/>
<path d="M543.305 776.069H537.305C537.305 779.383 539.991 782.069 543.305 782.069V776.069ZM603.59 776.069H609.59C609.59 772.756 606.904 770.069 603.59 770.069V776.069ZM603.59 811.748V817.748C606.904 817.748 609.59 815.062 609.59 811.748H603.59ZM501.475 811.748V805.748C498.161 805.748 495.475 808.434 495.475 811.748H501.475ZM501.475 836.97V842.97C504.788 842.97 507.475 840.283 507.475 836.97H501.475ZM361.836 836.97H355.836C355.836 840.283 358.522 842.97 361.836 842.97V836.97ZM361.836 811.748H367.836C367.836 808.434 365.15 805.748 361.836 805.748V811.748ZM336 811.748H330C330 815.062 332.686 817.748 336 817.748V811.748ZM336 776.069V770.069C332.686 770.069 330 772.756 330 776.069H336ZM403.666 776.069V782.069C406.98 782.069 409.666 779.383 409.666 776.069H403.666ZM403.666 757V751C400.352 751 397.666 753.686 397.666 757H403.666ZM543.305 757H549.305C549.305 753.686 546.618 751 543.305 751V757ZM543.305 776.069V782.069H603.59V776.069V770.069H543.305V776.069ZM603.59 776.069H597.59V811.748H603.59H609.59V776.069H603.59ZM603.59 811.748V805.748H501.475V811.748V817.748H603.59V811.748ZM501.475 811.748H495.475V836.97H501.475H507.475V811.748H501.475ZM501.475 836.97V830.97H361.836V836.97V842.97H501.475V836.97ZM361.836 836.97H367.836V811.748H361.836H355.836V836.97H361.836ZM361.836 811.748V805.748H336V811.748V817.748H361.836V811.748ZM336 811.748H342V776.069H336H330V811.748H336ZM336 776.069V782.069H403.666V776.069V770.069H336V776.069ZM403.666 776.069H409.666V757H403.666H397.666V776.069H403.666ZM403.666 757V763H543.305V757V751H403.666V757ZM543.305 757H537.305V776.069H543.305H549.305V757H543.305Z" fill="#FFAD64" mask="url(#path-21-inside-11_906_1628)"/>
<mask id="path-23-inside-12_906_1628" fill="white">
<path d="M965.305 796.069H1025.59V831.748H923.475V856.97H783.836V831.748H758V796.069H825.666V777H965.305V796.069Z"/>
</mask>
<path d="M965.305 796.069H1025.59V831.748H923.475V856.97H783.836V831.748H758V796.069H825.666V777H965.305V796.069Z" fill="#FFAD64"/>
<path d="M965.305 796.069H959.305C959.305 799.383 961.991 802.069 965.305 802.069V796.069ZM1025.59 796.069H1031.59C1031.59 792.756 1028.9 790.069 1025.59 790.069V796.069ZM1025.59 831.748V837.748C1028.9 837.748 1031.59 835.062 1031.59 831.748H1025.59ZM923.475 831.748V825.748C920.161 825.748 917.475 828.434 917.475 831.748H923.475ZM923.475 856.97V862.97C926.788 862.97 929.475 860.283 929.475 856.97H923.475ZM783.836 856.97H777.836C777.836 860.283 780.522 862.97 783.836 862.97V856.97ZM783.836 831.748H789.836C789.836 828.434 787.15 825.748 783.836 825.748V831.748ZM758 831.748H752C752 835.062 754.686 837.748 758 837.748V831.748ZM758 796.069V790.069C754.686 790.069 752 792.756 752 796.069H758ZM825.666 796.069V802.069C828.98 802.069 831.666 799.383 831.666 796.069H825.666ZM825.666 777V771C822.352 771 819.666 773.686 819.666 777H825.666ZM965.305 777H971.305C971.305 773.686 968.618 771 965.305 771V777ZM965.305 796.069V802.069H1025.59V796.069V790.069H965.305V796.069ZM1025.59 796.069H1019.59V831.748H1025.59H1031.59V796.069H1025.59ZM1025.59 831.748V825.748H923.475V831.748V837.748H1025.59V831.748ZM923.475 831.748H917.475V856.97H923.475H929.475V831.748H923.475ZM923.475 856.97V850.97H783.836V856.97V862.97H923.475V856.97ZM783.836 856.97H789.836V831.748H783.836H777.836V856.97H783.836ZM783.836 831.748V825.748H758V831.748V837.748H783.836V831.748ZM758 831.748H764V796.069H758H752V831.748H758ZM758 796.069V802.069H825.666V796.069V790.069H758V796.069ZM825.666 796.069H831.666V777H825.666H819.666V796.069H825.666ZM825.666 777V783H965.305V777V771H825.666V777ZM965.305 777H959.305V796.069H965.305H971.305V777H965.305Z" fill="#FFAD64" mask="url(#path-23-inside-12_906_1628)"/>
<mask id="path-25-inside-13_906_1628" fill="white">
<path d="M632.305 760.679H564.639V769.291H590.475V792.112H666.898V822.74H527.462V804.97H450.836V779.748H425V744.069H492.666V725H632.305V760.679Z"/>
</mask>
<path d="M632.305 760.679H564.639V769.291H590.475V792.112H666.898V822.74H527.462V804.97H450.836V779.748H425V744.069H492.666V725H632.305V760.679Z" fill="#C3BEF8"/>
<path d="M632.305 760.679V766.679C635.618 766.679 638.305 763.992 638.305 760.679H632.305ZM564.639 760.679V754.679C561.325 754.679 558.639 757.365 558.639 760.679H564.639ZM564.639 769.291H558.639C558.639 772.605 561.325 775.291 564.639 775.291V769.291ZM590.475 769.291H596.475C596.475 765.977 593.788 763.291 590.475 763.291V769.291ZM590.475 792.112H584.475C584.475 795.426 587.161 798.112 590.475 798.112V792.112ZM666.898 792.112H672.898C672.898 788.799 670.212 786.112 666.898 786.112V792.112ZM666.898 822.74V828.74C670.212 828.74 672.898 826.054 672.898 822.74H666.898ZM527.462 822.74H521.462C521.462 826.054 524.148 828.74 527.462 828.74V822.74ZM527.462 804.97H533.462C533.462 801.656 530.776 798.97 527.462 798.97V804.97ZM450.836 804.97H444.836C444.836 808.283 447.522 810.97 450.836 810.97V804.97ZM450.836 779.748H456.836C456.836 776.434 454.15 773.748 450.836 773.748V779.748ZM425 779.748H419C419 783.062 421.686 785.748 425 785.748V779.748ZM425 744.069V738.069C421.686 738.069 419 740.756 419 744.069H425ZM492.666 744.069V750.069C495.98 750.069 498.666 747.383 498.666 744.069H492.666ZM492.666 725V719C489.352 719 486.666 721.686 486.666 725H492.666ZM632.305 725H638.305C638.305 721.686 635.618 719 632.305 719V725ZM632.305 760.679V754.679H564.639V760.679V766.679H632.305V760.679ZM564.639 760.679H558.639V769.291H564.639H570.639V760.679H564.639ZM564.639 769.291V775.291H590.475V769.291V763.291H564.639V769.291ZM590.475 769.291H584.475V792.112H590.475H596.475V769.291H590.475ZM590.475 792.112V798.112H666.898V792.112V786.112H590.475V792.112ZM666.898 792.112H660.898V822.74H666.898H672.898V792.112H666.898ZM666.898 822.74V816.74H527.462V822.74V828.74H666.898V822.74ZM527.462 822.74H533.462V804.97H527.462H521.462V822.74H527.462ZM527.462 804.97V798.97H450.836V804.97V810.97H527.462V804.97ZM450.836 804.97H456.836V779.748H450.836H444.836V804.97H450.836ZM450.836 779.748V773.748H425V779.748V785.748H450.836V779.748ZM425 779.748H431V744.069H425H419V779.748H425ZM425 744.069V750.069H492.666V744.069V738.069H425V744.069ZM492.666 744.069H498.666V725H492.666H486.666V744.069H492.666ZM492.666 725V731H632.305V725V719H492.666V725ZM632.305 725H626.305V760.679H632.305H638.305V725H632.305Z" fill="#C3BEF8" mask="url(#path-25-inside-13_906_1628)"/>
<mask id="path-27-inside-14_906_1628" fill="white">
<path d="M1054.3 780.679H986.639V789.291H1012.47V812.112H1088.9V842.74H949.462V824.97H872.836V799.748H847V764.069H914.666V745H1054.3V780.679Z"/>
</mask>
<path d="M1054.3 780.679H986.639V789.291H1012.47V812.112H1088.9V842.74H949.462V824.97H872.836V799.748H847V764.069H914.666V745H1054.3V780.679Z" fill="#C3BEF8"/>
<path d="M1054.3 780.679V786.679C1057.62 786.679 1060.3 783.992 1060.3 780.679H1054.3ZM986.639 780.679V774.679C983.325 774.679 980.639 777.365 980.639 780.679H986.639ZM986.639 789.291H980.639C980.639 792.605 983.325 795.291 986.639 795.291V789.291ZM1012.47 789.291H1018.47C1018.47 785.977 1015.79 783.291 1012.47 783.291V789.291ZM1012.47 812.112H1006.47C1006.47 815.426 1009.16 818.112 1012.47 818.112V812.112ZM1088.9 812.112H1094.9C1094.9 808.799 1092.21 806.112 1088.9 806.112V812.112ZM1088.9 842.74V848.74C1092.21 848.74 1094.9 846.054 1094.9 842.74H1088.9ZM949.462 842.74H943.462C943.462 846.054 946.148 848.74 949.462 848.74V842.74ZM949.462 824.97H955.462C955.462 821.656 952.776 818.97 949.462 818.97V824.97ZM872.836 824.97H866.836C866.836 828.283 869.522 830.97 872.836 830.97V824.97ZM872.836 799.748H878.836C878.836 796.434 876.15 793.748 872.836 793.748V799.748ZM847 799.748H841C841 803.062 843.686 805.748 847 805.748V799.748ZM847 764.069V758.069C843.686 758.069 841 760.756 841 764.069H847ZM914.666 764.069V770.069C917.98 770.069 920.666 767.383 920.666 764.069H914.666ZM914.666 745V739C911.352 739 908.666 741.686 908.666 745H914.666ZM1054.3 745H1060.3C1060.3 741.686 1057.62 739 1054.3 739V745ZM1054.3 780.679V774.679H986.639V780.679V786.679H1054.3V780.679ZM986.639 780.679H980.639V789.291H986.639H992.639V780.679H986.639ZM986.639 789.291V795.291H1012.47V789.291V783.291H986.639V789.291ZM1012.47 789.291H1006.47V812.112H1012.47H1018.47V789.291H1012.47ZM1012.47 812.112V818.112H1088.9V812.112V806.112H1012.47V812.112ZM1088.9 812.112H1082.9V842.74H1088.9H1094.9V812.112H1088.9ZM1088.9 842.74V836.74H949.462V842.74V848.74H1088.9V842.74ZM949.462 842.74H955.462V824.97H949.462H943.462V842.74H949.462ZM949.462 824.97V818.97H872.836V824.97V830.97H949.462V824.97ZM872.836 824.97H878.836V799.748H872.836H866.836V824.97H872.836ZM872.836 799.748V793.748H847V799.748V805.748H872.836V799.748ZM847 799.748H853V764.069H847H841V799.748H847ZM847 764.069V770.069H914.666V764.069V758.069H847V764.069ZM914.666 764.069H920.666V745H914.666H908.666V764.069H914.666ZM914.666 745V751H1054.3V745V739H914.666V745ZM1054.3 745H1048.3V780.679H1054.3H1060.3V745H1054.3Z" fill="#C3BEF8" mask="url(#path-27-inside-14_906_1628)"/>
<mask id="path-29-inside-15_906_1628" fill="white">
<path d="M180.73 780.679H108.029V789.291H135.788V812.112H217.899V842.74H68.0869V824.97H-14.2412V799.748H-42V764.069H30.7012V745H180.73V780.679Z"/>
</mask>
<path d="M180.73 780.679H108.029V789.291H135.788V812.112H217.899V842.74H68.0869V824.97H-14.2412V799.748H-42V764.069H30.7012V745H180.73V780.679Z" fill="#C3BEF8"/>
<path d="M180.73 780.679V786.679C184.044 786.679 186.73 783.992 186.73 780.679H180.73ZM108.029 780.679V774.679C104.716 774.679 102.029 777.365 102.029 780.679H108.029ZM108.029 789.291H102.029C102.029 792.605 104.716 795.291 108.029 795.291V789.291ZM135.788 789.291H141.788C141.788 785.977 139.102 783.291 135.788 783.291V789.291ZM135.788 812.112H129.788C129.788 815.426 132.474 818.112 135.788 818.112V812.112ZM217.899 812.112H223.899C223.899 808.799 221.213 806.112 217.899 806.112V812.112ZM217.899 842.74V848.74C221.213 848.74 223.899 846.054 223.899 842.74H217.899ZM68.0869 842.74H62.0869C62.0869 846.054 64.7732 848.74 68.0869 848.74V842.74ZM68.0869 824.97H74.0869C74.0869 821.656 71.4006 818.97 68.0869 818.97V824.97ZM-14.2412 824.97H-20.2412C-20.2412 828.283 -17.5549 830.97 -14.2412 830.97V824.97ZM-14.2412 799.748H-8.24121C-8.24121 796.434 -10.9275 793.748 -14.2412 793.748V799.748ZM-42 799.748H-48C-48 803.062 -45.3137 805.748 -42 805.748V799.748ZM-42 764.069V758.069C-45.3137 758.069 -48 760.756 -48 764.069H-42ZM30.7012 764.069V770.069C34.0149 770.069 36.7012 767.383 36.7012 764.069H30.7012ZM30.7012 745V739C27.3875 739 24.7012 741.686 24.7012 745H30.7012ZM180.73 745H186.73C186.73 741.686 184.044 739 180.73 739V745ZM180.73 780.679V774.679H108.029V780.679V786.679H180.73V780.679ZM108.029 780.679H102.029V789.291H108.029H114.029V780.679H108.029ZM108.029 789.291V795.291H135.788V789.291V783.291H108.029V789.291ZM135.788 789.291H129.788V812.112H135.788H141.788V789.291H135.788ZM135.788 812.112V818.112H217.899V812.112V806.112H135.788V812.112ZM217.899 812.112H211.899V842.74H217.899H223.899V812.112H217.899ZM217.899 842.74V836.74H68.0869V842.74V848.74H217.899V842.74ZM68.0869 842.74H74.0869V824.97H68.0869H62.0869V842.74H68.0869ZM68.0869 824.97V818.97H-14.2412V824.97V830.97H68.0869V824.97ZM-14.2412 824.97H-8.24121V799.748H-14.2412H-20.2412V824.97H-14.2412ZM-14.2412 799.748V793.748H-42V799.748V805.748H-14.2412V799.748ZM-42 799.748H-36V764.069H-42H-48V799.748H-42ZM-42 764.069V770.069H30.7012V764.069V758.069H-42V764.069ZM30.7012 764.069H36.7012V745H30.7012H24.7012V764.069H30.7012ZM30.7012 745V751H180.73V745V739H30.7012V745ZM180.73 745H174.73V780.679H180.73H186.73V745H180.73Z" fill="#C3BEF8" mask="url(#path-29-inside-15_906_1628)"/>
<mask id="path-31-inside-16_906_1628" fill="white">
<path d="M604.305 800.679H536.639V809.291H562.475V832.112H638.898V862.74H499.462V844.97H422.836V819.748H397V784.069H464.666V765H604.305V800.679Z"/>
</mask>
<path d="M604.305 800.679H536.639V809.291H562.475V832.112H638.898V862.74H499.462V844.97H422.836V819.748H397V784.069H464.666V765H604.305V800.679Z" fill="#C3BEF8"/>
<path d="M604.305 800.679V806.679C607.618 806.679 610.305 803.992 610.305 800.679H604.305ZM536.639 800.679V794.679C533.325 794.679 530.639 797.365 530.639 800.679H536.639ZM536.639 809.291H530.639C530.639 812.605 533.325 815.291 536.639 815.291V809.291ZM562.475 809.291H568.475C568.475 805.977 565.788 803.291 562.475 803.291V809.291ZM562.475 832.112H556.475C556.475 835.426 559.161 838.112 562.475 838.112V832.112ZM638.898 832.112H644.898C644.898 828.799 642.212 826.112 638.898 826.112V832.112ZM638.898 862.74V868.74C642.212 868.74 644.898 866.054 644.898 862.74H638.898ZM499.462 862.74H493.462C493.462 866.054 496.148 868.74 499.462 868.74V862.74ZM499.462 844.97H505.462C505.462 841.656 502.776 838.97 499.462 838.97V844.97ZM422.836 844.97H416.836C416.836 848.283 419.522 850.97 422.836 850.97V844.97ZM422.836 819.748H428.836C428.836 816.434 426.15 813.748 422.836 813.748V819.748ZM397 819.748H391C391 823.062 393.686 825.748 397 825.748V819.748ZM397 784.069V778.069C393.686 778.069 391 780.756 391 784.069H397ZM464.666 784.069V790.069C467.98 790.069 470.666 787.383 470.666 784.069H464.666ZM464.666 765V759C461.352 759 458.666 761.686 458.666 765H464.666ZM604.305 765H610.305C610.305 761.686 607.618 759 604.305 759V765ZM604.305 800.679V794.679H536.639V800.679V806.679H604.305V800.679ZM536.639 800.679H530.639V809.291H536.639H542.639V800.679H536.639ZM536.639 809.291V815.291H562.475V809.291V803.291H536.639V809.291ZM562.475 809.291H556.475V832.112H562.475H568.475V809.291H562.475ZM562.475 832.112V838.112H638.898V832.112V826.112H562.475V832.112ZM638.898 832.112H632.898V862.74H638.898H644.898V832.112H638.898ZM638.898 862.74V856.74H499.462V862.74V868.74H638.898V862.74ZM499.462 862.74H505.462V844.97H499.462H493.462V862.74H499.462ZM499.462 844.97V838.97H422.836V844.97V850.97H499.462V844.97ZM422.836 844.97H428.836V819.748H422.836H416.836V844.97H422.836ZM422.836 819.748V813.748H397V819.748V825.748H422.836V819.748ZM397 819.748H403V784.069H397H391V819.748H397ZM397 784.069V790.069H464.666V784.069V778.069H397V784.069ZM464.666 784.069H470.666V765H464.666H458.666V784.069H464.666ZM464.666 765V771H604.305V765V759H464.666V765ZM604.305 765H598.305V800.679H604.305H610.305V765H604.305Z" fill="#C3BEF8" mask="url(#path-31-inside-16_906_1628)"/>
<mask id="path-33-inside-17_906_1628" fill="white">
<path d="M547.201 145.464H476.958V157.941H543.37V192.405H398.413V163.884H332V129.42H402.243V111H547.201V145.464Z"/>
</mask>
<path d="M547.201 145.464H476.958V157.941H543.37V192.405H398.413V163.884H332V129.42H402.243V111H547.201V145.464Z" fill="#C0EFDB"/>
<path d="M547.201 145.464V151.464C550.515 151.464 553.201 148.778 553.201 145.464H547.201ZM476.958 145.464V139.464C473.644 139.464 470.958 142.15 470.958 145.464H476.958ZM476.958 157.941H470.958C470.958 161.255 473.644 163.941 476.958 163.941V157.941ZM543.37 157.941H549.37C549.37 154.628 546.684 151.941 543.37 151.941V157.941ZM543.37 192.405V198.405C546.684 198.405 549.37 195.719 549.37 192.405H543.37ZM398.413 192.405H392.413C392.413 195.719 395.099 198.405 398.413 198.405V192.405ZM398.413 163.884H404.413C404.413 160.57 401.727 157.884 398.413 157.884V163.884ZM332 163.884H326C326 167.197 328.686 169.884 332 169.884V163.884ZM332 129.42V123.42C328.686 123.42 326 126.106 326 129.42H332ZM402.243 129.42V135.42C405.557 135.42 408.243 132.734 408.243 129.42H402.243ZM402.243 111V105C398.929 105 396.243 107.686 396.243 111H402.243ZM547.201 111H553.201C553.201 107.686 550.515 105 547.201 105V111ZM547.201 145.464V139.464H476.958V145.464V151.464H547.201V145.464ZM476.958 145.464H470.958V157.941H476.958H482.958V145.464H476.958ZM476.958 157.941V163.941H543.37V157.941V151.941H476.958V157.941ZM543.37 157.941H537.37V192.405H543.37H549.37V157.941H543.37ZM543.37 192.405V186.405H398.413V192.405V198.405H543.37V192.405ZM398.413 192.405H404.413V163.884H398.413H392.413V192.405H398.413ZM398.413 163.884V157.884H332V163.884V169.884H398.413V163.884ZM332 163.884H338V129.42H332H326V163.884H332ZM332 129.42V135.42H402.243V129.42V123.42H332V129.42ZM402.243 129.42H408.243V111H402.243H396.243V129.42H402.243ZM402.243 111V117H547.201V111V105H402.243V111ZM547.201 111H541.201V145.464H547.201H553.201V111H547.201Z" fill="#C0EFDB" mask="url(#path-33-inside-17_906_1628)"/>
<mask id="path-35-inside-18_906_1628" fill="white">
<path d="M1321.28 335.816H1270.42V348.414H1269.95V367H1160.95V334.788H1112V296H1214.28V295.816H1321.28V335.816Z"/>
</mask>
<path d="M1321.28 335.816H1270.42V348.414H1269.95V367H1160.95V334.788H1112V296H1214.28V295.816H1321.28V335.816Z" fill="#FF8BE4"/>
<path d="M1321.28 335.816V341.816C1324.59 341.816 1327.28 339.13 1327.28 335.816H1321.28ZM1270.42 335.816V329.816C1267.11 329.816 1264.42 332.503 1264.42 335.816H1270.42ZM1270.42 348.414V354.414C1273.73 354.414 1276.42 351.728 1276.42 348.414H1270.42ZM1269.95 348.414V342.414C1266.63 342.414 1263.95 345.1 1263.95 348.414H1269.95ZM1269.95 367V373C1273.26 373 1275.95 370.314 1275.95 367H1269.95ZM1160.95 367H1154.95C1154.95 370.314 1157.63 373 1160.95 373V367ZM1160.95 334.788H1166.95C1166.95 331.474 1164.26 328.788 1160.95 328.788V334.788ZM1112 334.788H1106C1106 338.102 1108.69 340.788 1112 340.788V334.788ZM1112 296V290C1108.69 290 1106 292.686 1106 296H1112ZM1214.28 296V302C1217.59 302 1220.28 299.314 1220.28 296H1214.28ZM1214.28 295.816V289.816C1210.97 289.816 1208.28 292.503 1208.28 295.816H1214.28ZM1321.28 295.816H1327.28C1327.28 292.503 1324.59 289.816 1321.28 289.816V295.816ZM1321.28 335.816V329.816H1270.42V335.816V341.816H1321.28V335.816ZM1270.42 335.816H1264.42V348.414H1270.42H1276.42V335.816H1270.42ZM1270.42 348.414V342.414H1269.95V348.414V354.414H1270.42V348.414ZM1269.95 348.414H1263.95V367H1269.95H1275.95V348.414H1269.95ZM1269.95 367V361H1160.95V367V373H1269.95V367ZM1160.95 367H1166.95V334.788H1160.95H1154.95V367H1160.95ZM1160.95 334.788V328.788H1112V334.788V340.788H1160.95V334.788ZM1112 334.788H1118V296H1112H1106V334.788H1112ZM1112 296V302H1214.28V296V290H1112V296ZM1214.28 296H1220.28V295.816H1214.28H1208.28V296H1214.28ZM1214.28 295.816V301.816H1321.28V295.816V289.816H1214.28V295.816ZM1321.28 295.816H1315.28V335.816H1321.28H1327.28V295.816H1321.28Z" fill="#FF8BE4" mask="url(#path-35-inside-18_906_1628)"/>
<mask id="path-37-inside-19_906_1628" fill="white">
<path d="M1009.3 163.069H1069.59V198.748H967.475V223.97H827.836V198.748H802V163.069H869.666V144H1009.3V163.069Z"/>
</mask>
<path d="M1009.3 163.069H1069.59V198.748H967.475V223.97H827.836V198.748H802V163.069H869.666V144H1009.3V163.069Z" fill="#FFAD64"/>
<path d="M1009.3 163.069H1003.3C1003.3 166.383 1005.99 169.069 1009.3 169.069V163.069ZM1069.59 163.069H1075.59C1075.59 159.756 1072.9 157.069 1069.59 157.069V163.069ZM1069.59 198.748V204.748C1072.9 204.748 1075.59 202.062 1075.59 198.748H1069.59ZM967.475 198.748V192.748C964.161 192.748 961.475 195.434 961.475 198.748H967.475ZM967.475 223.97V229.97C970.788 229.97 973.475 227.283 973.475 223.97H967.475ZM827.836 223.97H821.836C821.836 227.283 824.522 229.97 827.836 229.97V223.97ZM827.836 198.748H833.836C833.836 195.434 831.15 192.748 827.836 192.748V198.748ZM802 198.748H796C796 202.062 798.686 204.748 802 204.748V198.748ZM802 163.069V157.069C798.686 157.069 796 159.756 796 163.069H802ZM869.666 163.069V169.069C872.98 169.069 875.666 166.383 875.666 163.069H869.666ZM869.666 144V138C866.352 138 863.666 140.686 863.666 144H869.666ZM1009.3 144H1015.3C1015.3 140.686 1012.62 138 1009.3 138V144ZM1009.3 163.069V169.069H1069.59V163.069V157.069H1009.3V163.069ZM1069.59 163.069H1063.59V198.748H1069.59H1075.59V163.069H1069.59ZM1069.59 198.748V192.748H967.475V198.748V204.748H1069.59V198.748ZM967.475 198.748H961.475V223.97H967.475H973.475V198.748H967.475ZM967.475 223.97V217.97H827.836V223.97V229.97H967.475V223.97ZM827.836 223.97H833.836V198.748H827.836H821.836V223.97H827.836ZM827.836 198.748V192.748H802V198.748V204.748H827.836V198.748ZM802 198.748H808V163.069H802H796V198.748H802ZM802 163.069V169.069H869.666V163.069V157.069H802V163.069ZM869.666 163.069H875.666V144H869.666H863.666V163.069H869.666ZM869.666 144V150H1009.3V144V138H869.666V144ZM1009.3 144H1003.3V163.069H1009.3H1015.3V144H1009.3Z" fill="#FFAD64" mask="url(#path-37-inside-19_906_1628)"/>
<mask id="path-39-inside-20_906_1628" fill="white">
<path d="M297.305 358.679H229.639V367.291H255.475V390.112H331.898V420.74H192.462V402.97H115.836V377.748H90V342.069H157.666V323H297.305V358.679Z"/>
</mask>
<path d="M297.305 358.679H229.639V367.291H255.475V390.112H331.898V420.74H192.462V402.97H115.836V377.748H90V342.069H157.666V323H297.305V358.679Z" fill="#C3BEF8"/>
<path d="M297.305 358.679V364.679C300.618 364.679 303.305 361.992 303.305 358.679H297.305ZM229.639 358.679V352.679C226.325 352.679 223.639 355.365 223.639 358.679H229.639ZM229.639 367.291H223.639C223.639 370.605 226.325 373.291 229.639 373.291V367.291ZM255.475 367.291H261.475C261.475 363.977 258.788 361.291 255.475 361.291V367.291ZM255.475 390.112H249.475C249.475 393.426 252.161 396.112 255.475 396.112V390.112ZM331.898 390.112H337.898C337.898 386.799 335.212 384.112 331.898 384.112V390.112ZM331.898 420.74V426.74C335.212 426.74 337.898 424.054 337.898 420.74H331.898ZM192.462 420.74H186.462C186.462 424.054 189.148 426.74 192.462 426.74V420.74ZM192.462 402.97H198.462C198.462 399.656 195.776 396.97 192.462 396.97V402.97ZM115.836 402.97H109.836C109.836 406.283 112.522 408.97 115.836 408.97V402.97ZM115.836 377.748H121.836C121.836 374.434 119.15 371.748 115.836 371.748V377.748ZM90 377.748H84C84 381.062 86.6863 383.748 90 383.748V377.748ZM90 342.069V336.069C86.6863 336.069 84 338.756 84 342.069H90ZM157.666 342.069V348.069C160.98 348.069 163.666 345.383 163.666 342.069H157.666ZM157.666 323V317C154.352 317 151.666 319.686 151.666 323H157.666ZM297.305 323H303.305C303.305 319.686 300.618 317 297.305 317V323ZM297.305 358.679V352.679H229.639V358.679V364.679H297.305V358.679ZM229.639 358.679H223.639V367.291H229.639H235.639V358.679H229.639ZM229.639 367.291V373.291H255.475V367.291V361.291H229.639V367.291ZM255.475 367.291H249.475V390.112H255.475H261.475V367.291H255.475ZM255.475 390.112V396.112H331.898V390.112V384.112H255.475V390.112ZM331.898 390.112H325.898V420.74H331.898H337.898V390.112H331.898ZM331.898 420.74V414.74H192.462V420.74V426.74H331.898V420.74ZM192.462 420.74H198.462V402.97H192.462H186.462V420.74H192.462ZM192.462 402.97V396.97H115.836V402.97V408.97H192.462V402.97ZM115.836 402.97H121.836V377.748H115.836H109.836V402.97H115.836ZM115.836 377.748V371.748H90V377.748V383.748H115.836V377.748ZM90 377.748H96V342.069H90H84V377.748H90ZM90 342.069V348.069H157.666V342.069V336.069H90V342.069ZM157.666 342.069H163.666V323H157.666H151.666V342.069H157.666ZM157.666 323V329H297.305V323V317H157.666V323ZM297.305 323H291.305V358.679H297.305H303.305V323H297.305Z" fill="#C3BEF8" mask="url(#path-39-inside-20_906_1628)"/>
<mask id="path-41-outside-21_906_1628" maskUnits="userSpaceOnUse" x="535" y="195" width="436" height="415" fill="black">
<rect fill="white" x="535" y="195" width="436" height="415"/>
<path d="M698.291 199H803.934L782.805 359.812L929.532 291.731L962.398 390.331L802.76 420.85L914.272 538.232L828.584 600.443L751.112 458.412L673.641 600.443L589.126 538.232L699.465 420.85L541 390.331L572.693 291.731L718.246 360.986L698.291 199Z"/>
</mask>
<path d="M698.291 199H803.934L782.805 359.812L929.532 291.731L962.398 390.331L802.76 420.85L914.272 538.232L828.584 600.443L751.112 458.412L673.641 600.443L589.126 538.232L699.465 420.85L541 390.331L572.693 291.731L718.246 360.986L698.291 199Z" fill="#C3BEF8"/>
<path d="M698.291 196.562C698.291 198.188 698.291 199.812 698.291 201.438C733.505 201.972 768.719 202.453 803.934 202.882L800.085 198.494C800.014 198.988 799.943 199.482 799.872 199.976C792.25 253.001 784.748 306.041 777.368 359.098L776.01 368.94L785.113 364.787C834.194 342.464 883.223 320.029 932.2 297.483L923.516 293.736C934.373 326.636 945.278 359.519 956.232 392.387L961.178 383.947C960.464 384.083 959.751 384.22 959.038 384.356C906.538 394.393 854.041 404.443 801.547 414.506L789.934 416.721L798.077 425.299C835.267 464.408 872.468 503.507 909.678 542.596L910.549 533.104C882.007 553.87 853.469 574.641 824.934 595.417L834.037 597.469C808.149 550.16 782.25 502.858 756.338 455.562L751.132 445.981L745.886 455.562C720.15 502.954 694.427 550.352 668.715 597.757L676.967 595.925C648.747 575.254 620.523 554.588 592.295 533.926L593.021 541.893C629.695 502.667 666.359 463.431 703.013 424.186L709.081 417.767L700.386 416.068C647.532 406.064 594.675 396.073 541.816 386.096L545.106 391.651C555.549 358.745 565.986 325.838 576.417 292.928L571.012 295.264C619.623 318.153 668.239 341.03 716.862 363.894L722.138 366.43L721.442 360.592C719.073 342.053 716.702 323.514 714.329 304.974C709.795 269.55 705.256 234.125 700.71 198.702C699.097 198.901 697.484 199.099 695.871 199.298C700.059 234.766 704.252 270.232 708.451 305.699C710.649 324.259 712.848 342.82 715.049 361.38L719.629 358.078C671.217 334.772 622.798 311.479 574.374 288.199L570.315 286.287L568.969 290.534C558.272 323.358 547.58 356.184 536.894 389.011L535.417 393.667L540.184 394.566C592.968 404.935 645.754 415.291 698.543 425.633L695.916 417.514C659.011 456.524 622.116 495.542 585.231 534.57L581.104 538.984L585.957 542.537C614.073 563.35 642.192 584.158 670.314 604.962L675.509 608.768L678.567 603.13C704.503 555.848 730.426 508.559 756.338 461.263H745.886C771.622 508.654 797.37 556.039 823.131 603.418L826.527 609.625L832.233 605.47C860.824 584.771 889.411 564.068 917.995 543.359L923.848 539.101L918.866 533.867C881.735 494.702 844.594 455.547 807.443 416.401L803.973 427.195C856.477 417.185 908.979 407.161 961.479 397.125C962.192 396.988 962.906 396.852 963.619 396.716L970.913 395.321L968.565 388.276C957.607 355.41 946.601 322.56 935.547 289.726L933.276 282.98L926.863 285.979C878.022 308.82 829.234 331.773 780.497 354.837L788.243 360.527C794.818 307.364 801.272 254.186 807.605 200.993C807.664 200.497 807.723 200.001 807.782 199.506L808.311 195.065L803.934 195.118C768.719 195.547 733.505 196.028 698.291 196.562ZM698.291 201.438V196.562L695.526 196.604L695.871 199.298L700.71 198.702L698.291 201.438Z" fill="black" mask="url(#path-41-outside-21_906_1628)"/>
<path d="M713.972 396.823C723.937 399.014 734.918 387.588 738.498 371.303C742.077 355.017 736.9 340.04 726.935 337.849C716.969 335.659 705.989 347.085 702.409 363.37C698.829 379.655 704.006 394.633 713.972 396.823Z" fill="#F5F6FB"/>
<path d="M739.23 371.464C738.742 371.356 738.253 371.249 737.765 371.142C737.054 373.597 736.177 375.982 735.127 378.275C731.138 387.071 723.268 396.552 714.401 394.87C714.401 394.87 714.401 394.87 714.401 394.87C703.339 391.588 701.714 375.25 704.227 363.769C706.641 352.285 714.528 337.825 726.625 339.26C736.012 341.532 739.035 353.912 738.65 363.575C738.559 366.109 738.258 368.639 737.765 371.142C738.253 371.249 738.742 371.356 739.23 371.464C739.848 368.909 740.269 366.307 740.47 363.678C741.099 353.738 739.262 340.138 727.245 336.438C711.446 334.642 703.561 350.808 700.591 362.97C698.075 375.214 697.924 393.294 713.542 398.777C713.542 398.777 713.542 398.777 713.542 398.777C726.611 400.649 734.048 388.584 737.359 379.158C738.21 376.641 738.828 374.066 739.23 371.464ZM737.765 371.142L739.23 371.464L737.765 371.142Z" fill="#010414"/>
<path d="M784.303 394.604C794.494 395.109 803.424 382.017 804.248 365.364C805.073 348.71 797.479 334.801 787.288 334.296C777.097 333.792 768.168 346.883 767.343 363.537C766.519 380.191 774.112 394.1 784.303 394.604Z" fill="#F5F6FB"/>
<path d="M804.997 365.401C804.498 365.376 803.999 365.351 803.499 365.327C803.206 367.866 802.737 370.364 802.083 372.799C799.611 382.135 793.425 392.792 784.402 392.607C784.402 392.607 784.402 392.607 784.402 392.607C772.948 391.208 768.631 375.367 769.202 363.629C769.675 351.903 775.05 336.333 787.217 335.739C796.851 336.42 801.889 348.125 803.115 357.718C803.446 360.232 803.57 362.776 803.499 365.327C803.999 365.351 804.498 365.376 804.997 365.401C805.183 362.779 805.165 360.143 804.926 357.517C803.895 347.611 799.824 334.505 787.36 332.854C771.481 333.706 766.392 350.958 765.485 363.445C765.038 375.937 767.892 393.79 784.204 396.602C784.204 396.602 784.204 396.602 784.204 396.602C797.402 396.277 802.731 383.144 804.431 373.299C804.852 370.676 805.034 368.033 804.997 365.401ZM803.499 365.327L804.997 365.401L803.499 365.327Z" fill="#010414"/>
<path d="M720.277 383.172C719.236 382.994 717.719 381.841 716.66 378.54C715.65 375.395 715.35 371.026 716.175 366.233C716.999 361.44 718.74 357.423 720.742 354.796C722.844 352.038 724.658 351.459 725.699 351.638C726.739 351.817 728.255 352.969 729.315 356.27C730.324 359.415 730.624 363.783 729.8 368.576C728.976 373.369 727.234 377.387 725.232 380.014C723.131 382.772 721.317 383.351 720.277 383.172Z" fill="black" stroke="black" stroke-width="6"/>
<path d="M784.364 382.478C783.319 382.328 781.771 381.218 780.622 377.947C779.526 374.83 779.107 370.472 779.8 365.658C780.493 360.844 782.123 356.781 784.053 354.1C786.078 351.286 787.876 350.657 788.921 350.807C789.966 350.958 791.513 352.068 792.663 355.339C793.758 358.455 794.177 362.813 793.484 367.627C792.792 372.441 791.161 376.504 789.231 379.186C787.206 381.999 785.409 382.629 784.364 382.478Z" fill="black" stroke="black" stroke-width="6"/>
<path d="M722.891 349.591C721.059 349.298 719.184 351.487 718.705 354.482C718.225 357.477 719.322 360.142 721.155 360.435C722.987 360.729 724.861 358.539 725.341 355.545C725.82 352.55 724.724 349.885 722.891 349.591Z" fill="#F5F6FB" stroke="#F5F6FB" stroke-width="6" stroke-miterlimit="10"/>
<path d="M793.162 348.395C791.323 348.151 789.509 350.392 789.112 353.398C788.714 356.405 789.884 359.039 791.723 359.282C793.563 359.526 795.377 357.285 795.774 354.279C796.172 351.272 795.002 348.638 793.162 348.395Z" fill="#F5F6FB" stroke="#F5F6FB" stroke-width="6" stroke-miterlimit="10"/>
<path d="M641.5 376C671.047 376 695 398.61 695 426.5C695 454.39 671.047 477 641.5 477C611.953 477 588 454.39 588 426.5C588 398.61 611.953 376 641.5 376ZM641.5 403C627.969 403 617 413.521 617 426.5C617 439.479 627.969 450 641.5 450C655.031 450 666 439.479 666 426.5C666 413.521 655.031 403 641.5 403Z" fill="#F0F0F0"/>
<path d="M1264.5 376C1294.05 376 1318 398.61 1318 426.5C1318 454.39 1294.05 477 1264.5 477C1234.95 477 1211 454.39 1211 426.5C1211 398.61 1234.95 376 1264.5 376ZM1264.5 403C1250.97 403 1240 413.521 1240 426.5C1240 439.479 1250.97 450 1264.5 450C1278.03 450 1289 439.479 1289 426.5C1289 413.521 1278.03 403 1264.5 403Z" fill="#F0F0F0"/>
<path d="M535.779 378.857L505.186 379.053L505.991 474.362L535.115 474.47L535.106 442.306L562.484 475.962L599.054 475.042L558.528 424.702L595.598 379.259L560.193 378.407L535.873 408.961L535.779 378.857Z" fill="#F0F0F0"/>
<path d="M149.711 378.857L119.117 379.053L119.923 474.362L149.047 474.47L149.038 442.306L176.415 475.962L212.986 475.042L172.459 424.702L209.53 379.259L174.125 378.407L149.805 408.961L149.711 378.857Z" fill="#F0F0F0"/>
<path d="M1156.71 379.715L1126.12 379.91L1126.92 475.22L1156.05 475.328L1156.04 443.164L1183.42 476.82L1219.99 475.899L1179.46 425.559L1216.53 380.117L1181.12 379.264L1156.81 409.819L1156.71 379.715Z" fill="#F0F0F0"/>
<path d="M975.692 475.162L975.555 379.473L1032.82 378.005L1033.35 403.48L1004.84 403.73L1004 412.816L1030.55 414.118L1030.59 439.465L1005.37 439.029L1005.73 449.463L1032.52 449.798L1034.15 475.044L975.692 475.162Z" fill="#F0F0F0"/>
<path d="M326.692 475.162L326.555 379.473L383.816 378.005L384.346 403.48L355.843 403.73L355.002 412.816L381.545 414.118L381.592 439.465L356.372 439.029L356.727 449.463L383.525 449.798L385.15 475.044L326.692 475.162Z" fill="#F0F0F0"/>
<path d="M284.5 474H313L314 379H234C234.167 401.833 234.1 448.1 232.5 450.5C230.9 452.9 227.5 452.167 226 451.5L227 477C255 478 259.5 464.5 261.5 450.5C263.1 439.3 262.833 415.167 262.5 404.5H284.5V474Z" fill="#F5F6FB"/>
<path d="M870 475L877 431.5L894 475H906.5L926 434.5L934.5 475H962L945.5 379H919L901.5 420.5L885 379H859L841.5 475H870Z" fill="#F5F6FB"/>
<path d="M1093 474V404.5L1113 403V378.5H1044.5V404.5H1064V474H1093Z" fill="#F5F6FB"/>
<path d="M424.5 378H396V474.5H423L463.5 425V474.5H491L492 378H465L424.5 427V378Z" fill="#F5F6FB"/>
<path d="M1313.34 426.906C1313.34 420.147 1312.1 413.871 1309.6 408.077C1307.11 402.203 1303.61 397.093 1299.1 392.748C1294.68 388.403 1289.36 385.024 1283.17 382.61C1276.97 380.116 1270.21 378.869 1262.89 378.869C1255.49 378.869 1248.69 380.116 1242.49 382.61C1236.38 385.024 1231.11 388.403 1226.68 392.748L1226.27 393.158C1222.04 397.414 1218.72 402.387 1216.3 408.077C1213.81 413.871 1212.56 420.147 1212.56 426.906L1212.57 427.538C1212.64 434.059 1213.89 440.164 1216.3 445.854C1218.8 451.648 1222.26 456.717 1226.68 461.062C1231.11 465.407 1236.38 468.827 1242.49 471.321C1248.5 473.659 1255.07 474.866 1262.2 474.939L1262.89 474.943C1270.21 474.943 1276.97 473.735 1283.17 471.321C1289.36 468.827 1294.68 465.407 1299.1 461.062C1303.61 456.717 1307.11 451.648 1309.6 445.854C1312.02 440.164 1313.26 434.059 1313.34 427.538L1313.34 426.906ZM1282.94 426.906C1282.94 424.016 1282.4 421.472 1281.38 419.198C1280.32 416.82 1278.87 414.788 1277.02 413.058L1276.95 412.992C1275.18 411.285 1273.09 409.958 1270.64 409.013L1270.55 408.981L1270.47 408.947C1268.14 407.964 1265.63 407.458 1262.89 407.458C1260.15 407.459 1257.58 407.964 1255.14 408.966L1255.11 408.981L1255.07 408.994C1252.69 409.933 1250.63 411.261 1248.84 412.992C1247.04 414.726 1245.6 416.779 1244.52 419.198C1243.5 421.472 1242.96 424.016 1242.96 426.906C1242.96 429.795 1243.5 432.339 1244.52 434.613C1245.6 437.032 1247.04 439.085 1248.84 440.819C1250.64 442.556 1252.72 443.931 1255.11 444.95C1257.56 445.879 1260.14 446.353 1262.89 446.353V452.01L1262.25 452.003C1259.02 451.932 1255.94 451.331 1252.99 450.2C1250.13 448.993 1247.58 447.361 1245.35 445.306L1244.91 444.889C1242.72 442.777 1240.96 440.311 1239.62 437.491L1239.36 436.923C1238.07 434.057 1237.39 430.943 1237.31 427.581L1237.3 426.906C1237.3 423.511 1237.91 420.364 1239.11 417.464L1239.36 416.888C1240.64 414.021 1242.35 411.508 1244.48 409.349L1244.91 408.922C1247.24 406.669 1249.94 404.939 1252.99 403.732C1256.13 402.444 1259.43 401.801 1262.89 401.801L1263.54 401.808C1266.76 401.884 1269.8 402.525 1272.67 403.732C1275.81 404.939 1278.54 406.669 1280.88 408.922C1283.29 411.175 1285.18 413.83 1286.55 416.888C1287.92 419.945 1288.6 423.285 1288.6 426.906L1288.59 427.581C1288.51 430.943 1287.83 434.057 1286.55 436.923L1286.29 437.491C1284.94 440.311 1283.14 442.777 1280.88 444.889L1280.43 445.306C1278.2 447.361 1275.61 448.993 1272.67 450.2C1269.61 451.407 1266.35 452.01 1262.89 452.01V446.353C1265.67 446.353 1268.21 445.872 1270.57 444.946C1273.05 443.92 1275.16 442.542 1276.95 440.819L1276.98 440.785L1277.02 440.753C1278.87 439.023 1280.32 436.991 1281.38 434.613C1282.4 432.339 1282.94 429.795 1282.94 426.906ZM1319 426.906C1319 434.379 1317.62 441.452 1314.81 448.066L1314.8 448.092C1312.01 454.57 1308.08 460.264 1303.03 465.135L1303.03 465.134C1298.04 470.022 1292.1 473.825 1285.28 476.57L1285.25 476.582L1285.22 476.593C1278.31 479.286 1270.85 480.6 1262.89 480.6C1254.87 480.6 1247.36 479.289 1240.44 476.593L1240.4 476.577L1240.36 476.56C1233.61 473.805 1227.7 469.992 1222.72 465.099C1217.76 460.231 1213.89 454.548 1211.11 448.092L1211.1 448.066C1208.29 441.452 1206.9 434.379 1206.9 426.906C1206.9 419.433 1208.29 412.389 1211.11 405.84C1213.88 399.312 1217.75 393.586 1222.72 388.711C1227.71 383.813 1233.62 380.036 1240.38 377.362L1241.03 377.104C1247.79 374.486 1255.1 373.211 1262.89 373.211C1270.87 373.211 1278.35 374.572 1285.28 377.362H1285.28C1292.1 380.026 1298.04 383.788 1303.03 388.676L1303.5 389.137C1308.33 393.913 1312.1 399.496 1314.8 405.84L1315.06 406.455C1317.7 412.83 1319 419.666 1319 426.906Z" fill="#050131"/>
<path d="M1129.24 381.404V472.408H1152.9V432.94L1183.67 472.408H1214.33L1174.86 424.491L1210.95 381.404H1181.74L1152.9 418.94V381.404H1129.24ZM1158.55 402.292L1178.95 375.746H1223.07L1182.22 424.522L1226.32 478.065H1180.91L1158.55 449.395V478.065H1123.58V375.746H1158.55V402.292Z" fill="#050131"/>
<path d="M1110.88 401.439V381.404H1048.36V401.439H1067.79V472.408H1091.45V401.439H1110.88ZM1116.54 407.097H1097.11V478.065H1062.14V407.097H1042.71V375.746H1116.54V407.097Z" fill="#050131"/>
<path d="M1030 452.372H1001.88V436.682H1028.44V416.647H1001.88V401.439H1030V381.404H978.226V472.408H1030V452.372ZM1035.66 407.097H1007.54V410.989H1034.09V442.34H1007.54V446.715H1035.66V478.065H972.568V375.746H1035.66V407.097Z" fill="#050131"/>
<path d="M888.447 375.746L902.735 413.787L916.93 375.746H949.05L966.42 478.065H931.312L925.784 441.164L910.652 478.065H893.574L879.49 441.896L874.073 478.065H838.965L856.335 375.746H888.447ZM861.113 381.404L845.664 472.408H869.199L877.045 420.026L897.442 472.408H906.857L928.341 420.026L936.185 472.408H959.721L944.272 381.404H920.857L902.753 429.923L884.528 381.404H861.113Z" fill="#050131"/>
<path d="M692.477 426.676C692.477 419.926 691.231 413.657 688.74 407.871C686.249 402.004 682.753 396.9 678.253 392.56C673.832 388.221 668.528 384.845 662.34 382.434C656.152 379.943 649.401 378.698 642.088 378.698C634.694 378.698 627.903 379.943 621.715 382.434C615.607 384.845 610.343 388.221 605.923 392.56L605.511 392.97C601.288 397.22 597.969 402.188 595.555 407.871C593.064 413.657 591.819 419.926 591.819 426.676L591.822 427.308C591.898 433.821 593.142 439.919 595.555 445.602C598.047 451.389 601.503 456.452 605.923 460.791C610.343 465.131 615.607 468.547 621.715 471.038C627.71 473.374 634.271 474.578 641.397 474.651L642.088 474.655C649.401 474.655 656.152 473.449 662.34 471.038C668.528 468.546 673.832 465.131 678.253 460.791C682.753 456.452 686.249 451.388 688.74 445.602C691.153 439.919 692.398 433.821 692.473 427.308L692.477 426.676ZM662.114 426.676C662.114 423.79 661.573 421.249 660.557 418.978C659.495 416.603 658.045 414.574 656.194 412.846L656.124 412.779C654.359 411.075 652.278 409.749 649.824 408.805L649.741 408.773L649.66 408.739C647.329 407.758 644.823 407.253 642.088 407.253C639.352 407.253 636.787 407.758 634.347 408.758L634.312 408.773L634.277 408.787C631.903 409.724 629.841 411.051 628.051 412.779C626.257 414.512 624.82 416.562 623.739 418.978C622.723 421.249 622.182 423.79 622.182 426.676C622.182 429.563 622.723 432.104 623.739 434.374C624.82 436.791 626.257 438.841 628.051 440.573C629.848 442.308 631.923 443.681 634.315 444.699C636.758 445.627 639.336 446.1 642.088 446.1V451.751L641.442 451.743C638.221 451.673 635.141 451.073 632.202 449.942C629.339 448.737 626.794 447.107 624.567 445.054L624.126 444.638C621.941 442.529 620.18 440.065 618.843 437.249L618.581 436.682C617.3 433.819 616.62 430.709 616.54 427.351L616.531 426.676C616.531 423.286 617.131 420.142 618.332 417.247L618.581 416.671C619.861 413.808 621.567 411.298 623.695 409.141L624.126 408.714C626.457 406.464 629.149 404.736 632.202 403.531C635.337 402.245 638.632 401.602 642.088 401.602L642.733 401.61C645.949 401.685 648.989 402.325 651.852 403.531C654.986 404.736 657.719 406.464 660.05 408.714C662.461 410.965 664.349 413.617 665.715 416.671C667.081 419.725 667.765 423.06 667.765 426.676L667.757 427.351C667.677 430.709 666.996 433.819 665.715 436.682L665.453 437.249C664.111 440.065 662.31 442.529 660.05 444.638L659.608 445.054C657.376 447.107 654.791 448.737 651.852 449.942C648.798 451.148 645.543 451.751 642.088 451.751V446.1C644.861 446.1 647.4 445.62 649.751 444.695C652.235 443.67 654.342 442.294 656.124 440.573L656.159 440.539L656.194 440.507C658.045 438.779 659.495 436.75 660.557 434.374C661.573 432.104 662.114 429.563 662.114 426.676ZM698.128 426.676C698.128 434.14 696.746 441.205 693.941 447.811L693.93 447.837C691.144 454.307 687.22 459.995 682.175 464.859L682.174 464.858C677.191 469.741 671.258 473.539 664.45 476.28L664.421 476.292L664.392 476.303C657.486 478.994 650.032 480.306 642.088 480.306C634.072 480.306 626.576 478.996 619.664 476.303L619.622 476.288L619.581 476.27C612.838 473.519 606.942 469.711 601.964 464.823C597.012 459.961 593.142 454.285 590.366 447.837L590.355 447.811C587.549 441.205 586.168 434.14 586.168 426.676C586.168 419.213 587.549 412.178 590.366 405.636C593.138 399.117 597.005 393.397 601.964 388.528C606.947 383.636 612.851 379.864 619.605 377.193L620.256 376.935C627.003 374.32 634.301 373.047 642.088 373.047C650.054 373.047 657.529 374.407 664.45 377.193H664.449C671.257 379.854 677.192 383.611 682.175 388.493L682.646 388.953C687.471 393.724 691.235 399.3 693.93 405.636L694.19 406.25C696.832 412.617 698.128 419.446 698.128 426.676Z" fill="#050131"/>
<path d="M508.133 381.229V472.122H531.761V432.702L562.5 472.122H593.119L553.7 424.264L589.744 381.229H560.572L531.761 418.719V381.229H508.133ZM537.411 402.092L557.788 375.578H601.848L561.045 424.294L605.095 477.773H559.741L537.411 449.138V477.773H502.482V375.578H537.411V402.092Z" fill="#050131"/>
<path d="M466.162 381.231L422.643 436.924V381.231H399.016V472.124H422.643L466.162 416.552V472.124H489.789V381.231H466.162ZM495.44 477.775H460.511V432.932L425.395 477.775H393.365V375.58H428.294V420.514L463.405 375.58H495.44V477.775Z" fill="#050131"/>
<path d="M380.673 452.111H352.585V436.44H379.106V416.429H352.585V401.24H380.673V381.229H328.957V472.122H380.673V452.111ZM386.324 406.891H358.236V410.778H384.756V442.091H358.236V446.461H386.324V477.773H323.307V375.578H386.324V406.891Z" fill="#050131"/>
<path d="M259.742 444.426V401.511H286.987V472.394H310.614V381.5H236.235V444.065C236.235 451.057 233.945 454.552 229.364 454.552C228.962 454.552 228.601 454.512 228.28 454.432V474.926H230.088C234.669 474.926 238.767 474.162 242.383 472.635C245.849 471.279 248.82 469.357 251.297 466.871L251.787 466.366C254.197 463.804 256.079 460.819 257.43 457.41L257.693 456.723C259.059 453.026 259.742 448.927 259.742 444.426ZM316.265 478.045H281.336V407.162H265.393V444.426C265.393 449.501 264.622 454.275 262.993 458.681C261.378 463.052 259.019 466.927 255.901 470.239C252.723 473.616 248.873 476.164 244.443 477.897L244.442 477.897C240.061 479.722 235.245 480.577 230.088 480.577H222.629V472.394H222.855L222.629 472.119V447.195L229.441 448.898C229.603 448.894 229.706 448.88 229.766 448.868C229.773 448.858 229.782 448.847 229.791 448.834C230.051 448.436 230.584 447.123 230.584 444.065V375.85H316.265V478.045Z" fill="#050131"/>
<path d="M122.623 380.665V472.264H146.134V432.538L176.723 472.264H207.191L167.966 424.034L203.832 380.665H174.803L146.134 418.447V380.665H122.623ZM151.757 401.69L172.033 374.971H215.877L175.275 424.065L212.589 469.943L219.108 477.959H173.977L151.757 449.101V477.959H117V374.971H151.757V401.69Z" fill="#050131"/>
<path d="M435.079 338L436.068 342.416C436.452 344.133 437.061 344.854 437.532 345.212C438.043 345.601 439.07 346.077 441.162 346.077V351.728L440.619 351.719C435.077 351.556 431.721 348.867 430.554 343.651H415.244C415.646 350.241 418.097 355.384 422.597 359.081C427.113 362.662 433.062 364.509 440.443 364.621L441.162 364.627C449.118 364.627 455.306 362.778 459.726 359.081C464.387 355.304 466.879 350.16 467.201 343.651H451.891C450.685 349.035 447.109 351.728 441.162 351.728V346.077C443.31 346.077 444.375 345.593 444.906 345.194C445.388 344.831 445.996 344.114 446.376 342.416L447.365 338H473.137L472.844 343.929C472.451 351.888 469.31 358.589 463.284 363.471L463.283 363.471C457.527 368.252 449.907 370.277 441.162 370.277C432.554 370.277 425.009 368.206 419.086 363.508L419.01 363.448C413.128 358.616 410.087 351.922 409.603 343.995L409.238 338H435.079Z" fill="#050131"/>
<path d="M746.529 400H760.318L757.56 422.032L776.71 412.705L781 426.213L760.164 430.395L774.719 446.477L763.535 455L753.423 435.541L743.312 455L732.281 446.477L746.682 430.395L726 426.213L730.136 412.705L749.134 422.193L746.529 400Z" fill="black"/>
</svg>
