<svg width="1200" height="402" viewBox="0 0 1200 402" fill="none" xmlns="http://www.w3.org/2000/svg">
<path d="M592.291 0H697.934L676.805 160.812L823.532 92.7311L856.398 191.331L696.76 221.85L808.272 339.232L722.584 401.443L645.112 259.412L567.641 401.443L483.126 339.232L593.465 221.85L435 191.331L466.693 92.7311L612.246 161.986L592.291 0Z" fill="#C3BEF8"/>
<path d="M618.765 198.218C628.864 196.761 635.121 182.202 632.74 165.698C630.36 149.195 620.243 136.998 610.144 138.454C600.045 139.911 593.788 154.47 596.169 170.974C598.549 187.477 608.666 199.674 618.765 198.218Z" fill="#F5F6FB" stroke="#F5F6FB" stroke-width="6" stroke-miterlimit="10"/>
<path d="M678.304 195.603C688.495 196.108 697.425 183.016 698.249 166.363C699.074 149.709 691.48 135.8 681.289 135.295C671.098 134.791 662.169 147.882 661.344 164.536C660.52 181.19 668.113 195.099 678.304 195.603Z" fill="#F5F6FB" stroke="#F5F6FB" stroke-width="6" stroke-miterlimit="10"/>
<path d="M615.4 154.512C616.446 154.373 618.237 155.022 620.231 157.858C622.131 160.561 623.716 164.642 624.355 169.464C624.994 174.285 624.526 178.638 623.397 181.742C622.21 185 620.65 186.093 619.604 186.231C618.557 186.37 616.767 185.721 614.774 182.885C612.874 180.182 611.289 176.101 610.65 171.28C610.011 166.459 610.478 162.105 611.608 159.001C612.794 155.743 614.354 154.65 615.4 154.512Z" fill="black" stroke="black" stroke-width="6"/>
<path d="M685.335 152.445C686.389 152.509 688.022 153.489 689.436 156.655C690.783 159.671 691.557 163.981 691.261 168.835C690.964 173.689 689.672 177.872 687.968 180.703C686.18 183.673 684.44 184.447 683.386 184.383C682.332 184.318 680.7 183.338 679.286 180.173C677.939 177.156 677.165 172.847 677.461 167.993C677.757 163.139 679.05 158.955 680.754 156.125C682.542 153.155 684.281 152.381 685.335 152.445Z" fill="black" stroke="black" stroke-width="6"/>
<path d="M622.894 187.349C624.731 187.084 625.869 184.436 625.436 181.435C625.003 178.433 623.163 176.214 621.326 176.479C619.489 176.744 618.351 179.392 618.784 182.394C619.217 185.396 621.057 187.614 622.894 187.349Z" fill="#F5F6FB" stroke="#F5F6FB" stroke-width="6" stroke-miterlimit="10"/>
<path d="M679.356 187.135C681.21 187.227 682.834 184.846 682.984 181.817C683.134 178.788 681.753 176.258 679.899 176.166C678.046 176.074 676.421 178.456 676.271 181.485C676.122 184.514 677.503 187.043 679.356 187.135Z" fill="#F5F6FB" stroke="#F5F6FB" stroke-width="6" stroke-miterlimit="10"/>
<path d="M1193.95 246.272C1193.95 239.089 1192.62 232.419 1189.95 226.261C1187.28 220.018 1183.54 214.587 1178.72 209.969C1173.99 205.351 1168.31 201.759 1161.68 199.194C1155.06 196.543 1147.83 195.217 1140 195.217C1132.08 195.217 1124.81 196.543 1118.18 199.194C1111.64 201.759 1106.01 205.351 1101.28 209.969L1100.84 210.404C1096.31 214.927 1092.76 220.213 1090.18 226.261C1087.51 232.418 1086.17 239.089 1086.17 246.272L1086.18 246.945C1086.26 253.875 1087.59 260.364 1090.18 266.412C1092.84 272.569 1096.54 277.957 1101.28 282.575C1106.01 287.193 1111.64 290.828 1118.18 293.479C1124.6 295.964 1131.63 297.246 1139.26 297.324L1140 297.328C1147.83 297.328 1155.06 296.044 1161.68 293.479C1168.31 290.828 1173.99 287.193 1178.72 282.575C1183.54 277.957 1187.28 272.569 1189.95 266.412C1192.53 260.364 1193.87 253.875 1193.95 246.945L1193.95 246.272ZM1161.44 246.272C1161.44 243.201 1160.86 240.497 1159.77 238.081C1158.64 235.553 1157.08 233.394 1155.1 231.555L1155.03 231.484C1153.14 229.67 1150.91 228.26 1148.28 227.256L1148.19 227.221L1148.11 227.185C1145.61 226.141 1142.93 225.604 1140 225.604C1137.07 225.604 1134.32 226.141 1131.71 227.206L1131.67 227.221L1131.64 227.236C1129.09 228.233 1126.89 229.645 1124.97 231.484C1123.05 233.328 1121.51 235.509 1120.35 238.081C1119.26 240.497 1118.68 243.201 1118.68 246.272C1118.68 249.344 1119.26 252.048 1120.35 254.464C1121.51 257.036 1123.05 259.217 1124.97 261.06C1126.89 262.907 1129.11 264.368 1131.68 265.451C1134.29 266.439 1137.05 266.941 1140 266.941V272.955L1139.31 272.947C1135.86 272.872 1132.56 272.233 1129.41 271.03C1126.35 269.748 1123.62 268.013 1121.24 265.829L1120.77 265.386C1118.43 263.141 1116.54 260.52 1115.11 257.524L1114.83 256.92C1113.46 253.873 1112.73 250.563 1112.64 246.991L1112.63 246.272C1112.63 242.665 1113.28 239.32 1114.56 236.238L1114.83 235.625C1116.2 232.579 1118.03 229.908 1120.3 227.613L1120.77 227.159C1123.26 224.764 1126.14 222.926 1129.41 221.643C1132.77 220.274 1136.3 219.59 1140 219.59L1140.69 219.598C1144.13 219.678 1147.39 220.36 1150.45 221.643C1153.81 222.926 1156.73 224.764 1159.23 227.159C1161.81 229.553 1163.83 232.376 1165.3 235.625C1166.76 238.875 1167.49 242.424 1167.49 246.272L1167.48 246.991C1167.4 250.563 1166.67 253.873 1165.3 256.92L1165.02 257.524C1163.58 260.52 1161.65 263.141 1159.23 265.386L1158.76 265.829C1156.37 268.014 1153.6 269.748 1150.45 271.03C1147.18 272.313 1143.7 272.955 1140 272.955V266.941C1142.97 266.941 1145.69 266.431 1148.2 265.447C1150.86 264.356 1153.12 262.891 1155.03 261.06L1155.06 261.024L1155.1 260.99C1157.08 259.151 1158.64 256.992 1159.77 254.464C1160.86 252.048 1161.44 249.344 1161.44 246.272ZM1200 246.272C1200 254.215 1198.52 261.733 1195.52 268.763L1195.51 268.79C1192.52 275.675 1188.32 281.727 1182.92 286.904L1182.92 286.903C1177.58 292.098 1171.23 296.141 1163.94 299.057L1163.91 299.07L1163.88 299.082C1156.49 301.944 1148.5 303.341 1140 303.341C1131.41 303.341 1123.39 301.947 1115.99 299.082L1115.94 299.065L1115.9 299.046C1108.68 296.119 1102.37 292.066 1097.04 286.866C1091.73 281.692 1087.59 275.651 1084.62 268.79L1084.61 268.763C1081.6 261.733 1080.12 254.215 1080.12 246.272C1080.12 238.331 1081.6 230.844 1084.62 223.883C1087.59 216.946 1091.73 210.859 1097.04 205.678C1102.37 200.472 1108.69 196.458 1115.93 193.616L1116.62 193.342C1123.85 190.559 1131.66 189.204 1140 189.204C1148.53 189.204 1156.53 190.651 1163.94 193.616H1163.94C1171.23 196.447 1177.58 200.446 1182.92 205.641L1183.42 206.131C1188.59 211.207 1192.62 217.14 1195.51 223.883L1195.78 224.537C1198.61 231.312 1200 238.579 1200 246.272Z" fill="black"/>
<path d="M994.263 197.912V294.634H1019.56V252.687L1052.47 294.634H1085.26L1043.05 243.707L1081.64 197.912H1050.41L1019.56 237.807V197.912H994.263ZM1025.61 220.113L1047.43 191.899H1094.6L1050.92 243.74L1098.08 300.648H1049.52L1025.61 270.176V300.648H988.213V191.899H1025.61V220.113Z" fill="black"/>
<path d="M977.968 219.207V197.912H911.109V219.207H931.889V294.634H957.187V219.207H977.968ZM984.019 225.22H963.237V300.648H925.839V225.22H905.059V191.899H984.019V225.22Z" fill="black"/>
<path d="M894.975 273.34H864.901V256.664H893.297V235.37H864.901V219.207H894.975V197.912H839.603V294.634H894.975V273.34ZM901.026 225.22H870.951V229.357H899.348V262.677H870.951V267.327H901.026V300.648H833.553V191.899H901.026V225.22Z" fill="black"/>
<path d="M747.356 191.899L762.636 232.33L777.816 191.899H812.166L830.741 300.648H793.197L787.285 261.428L771.102 300.648H752.839L737.777 262.206L731.985 300.648H694.439L713.016 191.899H747.356ZM718.125 197.912L701.603 294.634H726.773L735.163 238.962L756.976 294.634H767.044L790.019 238.962L798.408 294.634H823.577L807.056 197.912H782.016L762.655 249.481L743.165 197.912H718.125Z" fill="black"/>
<path d="M602.283 246.272C602.283 239.089 600.949 232.419 598.282 226.261C595.614 220.018 591.872 214.587 587.053 209.969C582.32 205.351 576.64 201.759 570.015 199.194C563.389 196.543 556.161 195.217 548.331 195.217C540.414 195.217 533.143 196.543 526.517 199.194C519.978 201.759 514.342 205.351 509.609 209.969L509.168 210.404C504.646 214.927 501.092 220.213 498.508 226.261C495.841 232.418 494.507 239.089 494.507 246.272L494.511 246.945C494.592 253.875 495.924 260.364 498.508 266.412C501.176 272.569 504.877 277.957 509.609 282.575C514.342 287.193 519.978 290.828 526.517 293.479C532.936 295.964 539.961 297.246 547.591 297.324L548.331 297.328C556.161 297.328 563.389 296.044 570.015 293.479C576.64 290.828 582.32 287.193 587.053 282.575C591.871 277.957 595.614 272.569 598.282 266.412C600.866 260.364 602.198 253.875 602.279 246.945L602.283 246.272ZM569.773 246.272C569.773 243.201 569.194 240.497 568.106 238.081C566.968 235.553 565.417 233.394 563.435 231.555L563.36 231.484C561.469 229.67 559.241 228.26 556.614 227.256L556.526 227.221L556.438 227.185C553.943 226.141 551.26 225.604 548.331 225.604C545.402 225.604 542.655 226.141 540.043 227.206L540.006 227.221L539.968 227.236C537.426 228.233 535.219 229.645 533.301 231.484C531.381 233.328 529.842 235.509 528.685 238.081C527.597 240.497 527.018 243.201 527.018 246.272C527.018 249.344 527.597 252.048 528.685 254.464C529.842 257.036 531.381 259.217 533.301 261.06C535.225 262.907 537.448 264.368 540.009 265.451C542.625 266.439 545.385 266.941 548.331 266.941V272.955L547.639 272.947C544.191 272.872 540.893 272.233 537.747 271.03C534.681 269.748 531.956 268.013 529.571 265.829L529.099 265.386C526.76 263.141 524.874 260.52 523.442 257.524L523.161 256.92C521.79 253.873 521.062 250.563 520.976 246.991L520.967 246.272C520.967 242.665 521.61 239.32 522.896 236.238L523.161 235.625C524.533 232.579 526.359 229.908 528.638 227.613L529.099 227.159C531.595 224.764 534.477 222.926 537.747 221.643C541.102 220.274 544.631 219.59 548.331 219.59L549.022 219.598C552.466 219.678 555.72 220.36 558.786 221.643C562.142 222.926 565.067 224.764 567.563 227.159C570.144 229.553 572.166 232.376 573.629 235.625C575.092 238.875 575.824 242.424 575.824 246.272L575.815 246.991C575.729 250.563 575 253.873 573.629 256.92L573.348 257.524C571.911 260.52 569.983 263.141 567.563 265.386L567.09 265.829C564.7 268.014 561.932 269.748 558.786 271.03C555.516 272.313 552.031 272.955 548.331 272.955V266.941C551.3 266.941 554.018 266.431 556.537 265.447C559.196 264.356 561.452 262.891 563.36 261.06L563.397 261.024L563.435 260.99C565.417 259.151 566.968 256.992 568.106 254.464C569.194 252.048 569.773 249.344 569.773 246.272ZM608.333 246.272C608.333 254.215 606.854 261.733 603.851 268.763L603.839 268.79C600.856 275.675 596.654 281.727 591.253 286.904L591.252 286.903C585.916 292.098 579.564 296.141 572.275 299.057L572.243 299.07L572.212 299.082C564.818 301.944 556.836 303.341 548.331 303.341C539.748 303.341 531.722 301.947 524.322 299.082L524.276 299.065L524.233 299.046C517.012 296.119 510.7 292.066 505.37 286.866C500.068 281.692 495.924 275.651 492.951 268.79L492.94 268.763C489.936 261.733 488.457 254.215 488.457 246.272C488.457 238.331 489.936 230.844 492.951 223.883C495.92 216.946 500.06 210.859 505.37 205.678C510.706 200.472 517.027 196.458 524.258 193.616L524.956 193.342C532.18 190.559 539.993 189.204 548.331 189.204C556.86 189.204 564.864 190.651 572.275 193.616H572.274C579.563 196.447 585.918 200.446 591.253 205.641L591.757 206.131C596.923 211.207 600.954 217.14 603.839 223.883L604.118 224.537C606.946 231.312 608.333 238.579 608.333 246.272Z" fill="black"/>
<path d="M402.596 197.912V294.634H427.894V252.687L460.808 294.634H493.592L451.385 243.707L489.978 197.912H458.743L427.894 237.807V197.912H402.596ZM433.945 220.113L455.762 191.899H502.938L459.25 243.74L506.414 300.648H457.853L433.945 270.176V300.648H396.546V191.899H433.945V220.113Z" fill="black"/>
<path d="M356.887 197.912L310.292 257.176V197.912H284.994V294.634H310.292L356.887 235.497V294.634H382.185V197.912H356.887ZM327.915 160.342L328.974 165.041C329.386 166.868 330.038 167.635 330.542 168.017C331.088 168.43 332.188 168.937 334.428 168.937V174.95L333.847 174.941C327.913 174.768 324.32 171.906 323.07 166.355H306.678C307.108 173.367 309.732 178.84 314.551 182.774C319.386 186.585 325.755 188.551 333.659 188.67L334.428 188.676C342.947 188.676 349.572 186.708 354.305 182.774C359.296 178.755 361.964 173.282 362.308 166.355H345.916C344.625 172.085 340.796 174.95 334.428 174.95V168.937C336.728 168.937 337.869 168.422 338.437 167.997C338.954 167.61 339.604 166.848 340.011 165.041L341.07 160.342H368.665L368.35 166.651C367.93 175.121 364.567 182.251 358.115 187.447L358.114 187.446C351.95 192.533 343.792 194.689 334.428 194.689C325.211 194.689 317.133 192.485 310.791 187.486L310.71 187.421C304.412 182.28 301.156 175.156 300.638 166.721L300.247 160.342H327.915ZM388.235 300.647H350.837V252.928L313.238 300.647H278.943V191.899H316.342V239.714L353.936 191.899H388.235V300.647Z" fill="black"/>
<path d="M266.755 273.34H236.68V256.664H265.077V235.37H236.68V219.207H266.755V197.912H211.382V294.634H266.755V273.34ZM272.805 225.22H242.731V229.357H271.127V262.677H242.731V267.327H272.805V300.648H205.332V191.899H272.805V225.22Z" fill="black"/>
<path d="M136.54 264.873V219.207H165.711V294.634H191.01V197.912H111.371V264.489C111.371 271.929 108.919 275.649 104.014 275.649C103.584 275.649 103.197 275.606 102.853 275.521V297.329H104.789C109.694 297.329 114.082 296.516 117.954 294.891C121.665 293.448 124.846 291.403 127.498 288.757L128.022 288.22C130.603 285.494 132.618 282.317 134.065 278.69L134.346 277.959C135.809 274.025 136.54 269.663 136.54 264.873ZM197.06 300.648H159.661V225.22H142.591V264.873C142.591 270.274 141.765 275.354 140.021 280.042C138.292 284.694 135.765 288.817 132.428 292.341C129.025 295.935 124.903 298.646 120.159 300.491L120.158 300.49C115.467 302.432 110.31 303.342 104.789 303.342H96.8027V294.634H97.045L96.8027 294.342V267.819L104.097 269.632C104.269 269.628 104.381 269.613 104.444 269.6C104.452 269.589 104.461 269.578 104.471 269.563C104.749 269.141 105.321 267.743 105.321 264.489V191.899H197.06V300.648Z" fill="black"/>
<path d="M6.05028 197.912V294.634H31.3484V252.687L64.2616 294.634H97.0458L54.8396 243.707L93.4318 197.912H62.1966L31.3484 237.807V197.912H6.05028ZM37.3987 220.113L59.2158 191.899H106.392L62.7037 243.74L102.854 292.184V297.329H104.79C105.561 297.329 106.319 297.305 107.065 297.265L109.868 300.648H61.3074L37.3987 270.176V300.648H0V191.899H37.3987V220.113Z" fill="black"/>
<path d="M644.451 200.56H650.571L649.347 209.876L657.847 205.932L659.751 211.644L650.503 213.412L656.963 220.212L651.999 223.816L647.511 215.588L643.023 223.816L638.127 220.212L644.519 213.412L635.339 211.644L637.175 205.932L645.607 209.944L644.451 200.56Z" fill="black"/>
</svg>
