<svg width="1200" height="143" viewBox="0 0 1200 143" fill="none" xmlns="http://www.w3.org/2000/svg">
<path d="M1193.95 85.9307C1193.95 78.7472 1192.62 72.0767 1189.95 65.9194C1187.28 59.6765 1183.54 54.2452 1178.72 49.6272C1173.99 45.0092 1168.31 41.4173 1161.68 38.8518C1155.06 36.2008 1147.83 34.8754 1140 34.8754C1132.08 34.8754 1124.81 36.2007 1118.18 38.8518C1111.64 41.4173 1106.01 45.0093 1101.28 49.6272L1100.84 50.0627C1096.31 54.5856 1092.76 59.8716 1090.18 65.9194C1087.51 72.0767 1086.17 78.7473 1086.17 85.9307L1086.18 86.603C1086.26 93.5334 1087.59 100.023 1090.18 106.07C1092.84 112.228 1096.54 117.615 1101.28 122.233C1106.01 126.851 1111.64 130.486 1118.18 133.137C1124.6 135.622 1131.63 136.904 1139.26 136.982L1140 136.986C1147.83 136.986 1155.06 135.702 1161.68 133.137C1168.31 130.486 1173.99 126.851 1178.72 122.233C1183.54 117.615 1187.28 112.227 1189.95 106.07C1192.53 100.023 1193.87 93.5335 1193.95 86.603L1193.95 85.9307ZM1161.44 85.9307C1161.44 82.8592 1160.86 80.1553 1159.77 77.7391C1158.64 75.2114 1157.08 73.0518 1155.1 71.2132L1155.03 71.1427C1153.14 69.3286 1150.91 67.918 1148.28 66.9138L1148.19 66.8795L1148.11 66.8433C1145.61 65.7993 1142.93 65.2617 1140 65.2617C1137.07 65.2618 1134.32 65.7987 1131.71 66.8639L1131.67 66.8795L1131.64 66.8942C1129.09 67.8916 1126.89 69.3031 1124.97 71.1427C1123.05 72.9859 1121.51 75.1675 1120.35 77.7391C1119.26 80.1553 1118.68 82.8592 1118.68 85.9307C1118.68 89.0021 1119.26 91.7061 1120.35 94.1223C1121.51 96.6938 1123.05 98.8756 1124.97 100.719C1126.89 102.565 1129.11 104.026 1131.68 105.109C1134.29 106.097 1137.05 106.6 1140 106.6V112.613L1139.31 112.605C1135.86 112.53 1132.56 111.891 1129.41 110.689C1126.35 109.406 1123.62 107.672 1121.24 105.487L1120.77 105.045C1118.43 102.8 1116.54 100.178 1115.11 97.1817L1114.83 96.5779C1113.46 93.5314 1112.73 90.2216 1112.64 86.649L1112.63 85.9307C1112.63 82.3229 1113.28 78.9779 1114.56 75.8962L1114.83 75.2835C1116.2 72.2368 1118.03 69.566 1120.3 67.271L1120.77 66.8169C1123.26 64.4226 1126.14 62.5837 1129.41 61.301C1132.77 59.9327 1136.3 59.2487 1140 59.2487L1140.69 59.2565C1144.13 59.3366 1147.39 60.0182 1150.45 61.301C1153.81 62.5838 1156.73 64.4224 1159.23 66.8169C1161.81 69.2114 1163.83 72.0338 1165.3 75.2835C1166.76 78.5333 1167.49 82.0823 1167.49 85.9307L1167.48 86.649C1167.4 90.2216 1166.67 93.5314 1165.3 96.5779L1165.02 97.1817C1163.58 100.178 1161.65 102.8 1159.23 105.045L1158.76 105.487C1156.37 107.672 1153.6 109.406 1150.45 110.689C1147.18 111.971 1143.7 112.613 1140 112.613V106.6C1142.97 106.6 1145.69 106.089 1148.2 105.105C1150.86 104.014 1153.12 102.55 1155.03 100.719L1155.06 100.682L1155.1 100.648C1157.08 98.8096 1158.64 96.65 1159.77 94.1223C1160.86 91.7061 1161.44 89.0021 1161.44 85.9307ZM1200 85.9307C1200 93.8734 1198.52 101.391 1195.52 108.421L1195.51 108.448C1192.52 115.333 1188.32 121.386 1182.92 126.562L1182.92 126.561C1177.58 131.757 1171.23 135.799 1163.94 138.715L1163.91 138.728L1163.88 138.74C1156.49 141.603 1148.5 142.999 1140 142.999C1131.41 142.999 1123.39 141.605 1115.99 138.74L1115.94 138.723L1115.9 138.705C1108.68 135.778 1102.37 131.725 1097.04 126.524C1091.73 121.35 1087.59 115.31 1084.62 108.448L1084.61 108.421C1081.6 101.391 1080.12 93.8734 1080.12 85.9307C1080.12 77.9887 1081.6 70.5022 1084.62 63.5412C1087.59 56.6038 1091.73 50.5176 1097.04 45.3366C1102.37 40.1303 1108.69 36.1165 1115.93 33.2742L1116.62 33.0002C1123.85 30.2173 1131.66 28.8623 1140 28.8623C1148.53 28.8623 1156.53 30.3092 1163.94 33.2742H1163.94C1171.23 36.1055 1177.58 40.104 1182.92 45.2994L1183.42 45.7887C1188.59 50.8653 1192.62 56.7985 1195.51 63.5412L1195.78 64.195C1198.61 70.9703 1200 78.2368 1200 85.9307Z" fill="black"/>
<path d="M994.263 37.5707V134.293H1019.56V92.345L1052.47 134.293H1085.26L1043.05 83.3655L1081.64 37.5707H1050.41L1019.56 77.465V37.5707H994.263ZM1025.61 59.7713L1047.43 31.5576H1094.6L1050.92 83.3978L1098.08 140.306H1049.52L1025.61 109.834V140.306H988.213V31.5576H1025.61V59.7713Z" fill="black"/>
<path d="M977.968 58.865V37.5707H911.109V58.865H931.889V134.293H957.187V58.865H977.968ZM984.019 64.8781H963.237V140.306H925.839V64.8781H905.059V31.5576H984.019V64.8781Z" fill="black"/>
<path d="M894.975 112.998H864.901V96.3224H893.297V75.0281H864.901V58.865H894.975V37.5707H839.603V134.293H894.975V112.998ZM901.026 64.8781H870.951V69.015H899.348V102.335H870.951V106.985H901.026V140.306H833.553V31.5576H901.026V64.8781Z" fill="black"/>
<path d="M747.356 31.5576L762.636 71.9883L777.816 31.5576H812.166L830.741 140.306H793.197L787.285 101.086L771.102 140.306H752.839L737.777 101.864L731.985 140.306H694.439L713.016 31.5576H747.356ZM718.125 37.5707L701.603 134.293H726.773L735.163 78.6199L756.976 134.293H767.044L790.019 78.6199L798.408 134.293H823.577L807.056 37.5707H782.016L762.655 89.1388L743.165 37.5707H718.125Z" fill="black"/>
<path d="M602.283 85.9307C602.283 78.7472 600.949 72.0767 598.282 65.9194C595.614 59.6765 591.872 54.2452 587.053 49.6272C582.32 45.0092 576.64 41.4173 570.015 38.8518C563.389 36.2008 556.161 34.8754 548.331 34.8754C540.414 34.8754 533.143 36.2007 526.517 38.8518C519.978 41.4173 514.342 45.0093 509.609 49.6272L509.168 50.0627C504.646 54.5856 501.092 59.8716 498.508 65.9194C495.841 72.0767 494.507 78.7473 494.507 85.9307L494.511 86.603C494.592 93.5334 495.924 100.023 498.508 106.07C501.176 112.228 504.877 117.615 509.609 122.233C514.342 126.851 519.978 130.486 526.517 133.137C532.936 135.622 539.961 136.904 547.591 136.982L548.331 136.986C556.161 136.986 563.389 135.702 570.015 133.137C576.64 130.486 582.32 126.851 587.053 122.233C591.871 117.615 595.614 112.227 598.282 106.07C600.866 100.023 602.198 93.5335 602.279 86.603L602.283 85.9307ZM569.773 85.9307C569.773 82.8592 569.194 80.1553 568.106 77.7391C566.968 75.2114 565.417 73.0518 563.435 71.2132L563.36 71.1427C561.469 69.3286 559.241 67.918 556.614 66.9138L556.526 66.8795L556.438 66.8433C553.943 65.7993 551.26 65.2617 548.331 65.2617C545.402 65.2618 542.655 65.7987 540.043 66.8639L540.006 66.8795L539.968 66.8942C537.426 67.8916 535.219 69.3031 533.301 71.1427C531.381 72.9859 529.842 75.1675 528.685 77.7391C527.597 80.1553 527.018 82.8592 527.018 85.9307C527.018 89.0021 527.597 91.7061 528.685 94.1223C529.842 96.6938 531.381 98.8756 533.301 100.719C535.225 102.565 537.448 104.026 540.009 105.109C542.625 106.097 545.385 106.6 548.331 106.6V112.613L547.639 112.605C544.191 112.53 540.893 111.891 537.747 110.689C534.681 109.406 531.956 107.672 529.571 105.487L529.099 105.045C526.76 102.8 524.874 100.178 523.442 97.1817L523.161 96.5779C521.79 93.5314 521.062 90.2216 520.976 86.649L520.967 85.9307C520.967 82.3229 521.61 78.9779 522.896 75.8962L523.161 75.2835C524.533 72.2368 526.359 69.566 528.638 67.271L529.099 66.8169C531.595 64.4226 534.477 62.5837 537.747 61.301C541.102 59.9327 544.631 59.2487 548.331 59.2487L549.022 59.2565C552.466 59.3366 555.72 60.0182 558.786 61.301C562.142 62.5838 565.067 64.4224 567.563 66.8169C570.144 69.2114 572.166 72.0338 573.629 75.2835C575.092 78.5333 575.824 82.0823 575.824 85.9307L575.815 86.649C575.729 90.2216 575 93.5314 573.629 96.5779L573.348 97.1817C571.911 100.178 569.983 102.8 567.563 105.045L567.09 105.487C564.7 107.672 561.932 109.406 558.786 110.689C555.516 111.971 552.031 112.613 548.331 112.613V106.6C551.3 106.6 554.018 106.089 556.537 105.105C559.196 104.014 561.452 102.55 563.36 100.719L563.397 100.682L563.435 100.648C565.417 98.8096 566.968 96.65 568.106 94.1223C569.194 91.7061 569.773 89.0021 569.773 85.9307ZM608.333 85.9307C608.333 93.8734 606.854 101.391 603.851 108.421L603.839 108.448C600.856 115.333 596.654 121.386 591.253 126.562L591.252 126.561C585.916 131.757 579.564 135.799 572.275 138.715L572.243 138.728L572.212 138.74C564.818 141.603 556.836 142.999 548.331 142.999C539.748 142.999 531.722 141.605 524.322 138.74L524.276 138.723L524.233 138.705C517.012 135.778 510.7 131.725 505.37 126.524C500.068 121.35 495.924 115.31 492.951 108.448L492.94 108.421C489.936 101.391 488.457 93.8734 488.457 85.9307C488.457 77.9887 489.936 70.5022 492.951 63.5412C495.92 56.6038 500.06 50.5176 505.37 45.3366C510.706 40.1303 517.027 36.1165 524.258 33.2742L524.956 33.0002C532.18 30.2173 539.993 28.8623 548.331 28.8623C556.86 28.8623 564.864 30.3092 572.275 33.2742H572.274C579.563 36.1055 585.918 40.104 591.253 45.2994L591.757 45.7887C596.923 50.8653 600.954 56.7985 603.839 63.5412L604.118 64.195C606.946 70.9703 608.333 78.2368 608.333 85.9307Z" fill="black"/>
<path d="M402.596 37.5707V134.293H427.894V92.345L460.808 134.293H493.592L451.385 83.3655L489.978 37.5707H458.743L427.894 77.465V37.5707H402.596ZM433.945 59.7713L455.762 31.5576H502.938L459.25 83.3978L506.414 140.306H457.853L433.945 109.834V140.306H396.546V31.5576H433.945V59.7713Z" fill="black"/>
<path d="M356.887 37.57L310.292 96.8345V37.57H284.994V134.292H310.292L356.887 75.1556V134.292H382.185V37.57H356.887ZM327.915 0L328.974 4.69967C329.386 6.52593 330.038 7.29308 330.542 7.67489C331.088 8.08832 332.188 8.59482 334.428 8.59486V14.6079L333.847 14.5991C327.913 14.4258 324.32 11.5639 323.07 6.01307H306.678C307.108 13.0255 309.732 18.4987 314.551 22.4326C319.386 26.2436 325.755 28.2091 333.659 28.3282L334.428 28.3341C342.947 28.3341 349.572 26.3664 354.305 22.4326C359.296 18.4131 361.964 12.9401 362.308 6.01307H345.916C344.625 11.7429 340.796 14.6079 334.428 14.6079V8.59486C336.728 8.59486 337.869 8.08034 338.437 7.65531C338.954 7.26862 339.604 6.50654 340.011 4.69967L341.07 0H368.665L368.35 6.30961C367.93 14.7788 364.567 21.9089 358.115 27.1048L358.114 27.1038C351.95 32.1916 343.792 34.3471 334.428 34.3471C325.211 34.3471 317.133 32.1428 310.791 27.144L310.71 27.0794C304.412 21.9377 301.156 14.8145 300.638 6.3791L300.247 0H327.915ZM388.235 140.305H350.837V92.586L313.238 140.305H278.943V31.5569H316.342V79.3718L353.936 31.5569H388.235V140.305Z" fill="black"/>
<path d="M266.755 112.998H236.68V96.3224H265.077V75.0281H236.68V58.865H266.755V37.5707H211.382V134.293H266.755V112.998ZM272.805 64.8781H242.731V69.015H271.127V102.335H242.731V106.985H272.805V140.306H205.332V31.5576H272.805V64.8781Z" fill="black"/>
<path d="M136.54 104.532V58.865H165.711V134.293H191.01V37.5707H111.371V104.147C111.371 111.587 108.919 115.307 104.014 115.307C103.584 115.307 103.197 115.264 102.853 115.179V136.987H104.789C109.694 136.987 114.082 136.174 117.954 134.549C121.665 133.106 124.846 131.061 127.498 128.416L128.022 127.878C130.603 125.152 132.618 121.976 134.065 118.348L134.346 117.617C135.809 113.683 136.54 109.321 136.54 104.532ZM197.06 140.306H159.661V64.8781H142.591V104.532C142.591 109.932 141.765 115.012 140.021 119.7C138.292 124.352 135.765 128.475 132.428 132C129.025 135.593 124.903 138.304 120.159 140.149L120.158 140.148C115.467 142.091 110.31 143 104.789 143H96.8027V134.293H97.045L96.8027 134V107.478L104.097 109.29C104.269 109.286 104.381 109.271 104.444 109.258C104.452 109.248 104.461 109.236 104.471 109.222C104.749 108.799 105.321 107.402 105.321 104.147V31.5576H197.06V140.306Z" fill="black"/>
<path d="M6.05028 37.5707V134.293H31.3484V92.345L64.2616 134.293H97.0458L54.8396 83.3655L93.4318 37.5707H62.1966L31.3484 77.465V37.5707H6.05028ZM37.3987 59.7713L59.2158 31.5576H106.392L62.7037 83.3978L102.854 131.842V136.987H104.79C105.561 136.987 106.319 136.964 107.065 136.923L109.868 140.306H61.3074L37.3987 109.834V140.306H0V31.5576H37.3987V59.7713Z" fill="black"/>
<path d="M644.451 40.2178H650.571L649.347 49.5338L657.847 45.5898L659.751 51.3018L650.503 53.0698L656.963 59.8698L651.999 63.4738L647.511 55.2458L643.023 63.4738L638.127 59.8698L644.519 53.0698L635.339 51.3018L637.175 45.5898L645.607 49.6018L644.451 40.2178Z" fill="black"/>
</svg>
