<svg width="1440" height="811" viewBox="0 0 1440 811" fill="none" xmlns="http://www.w3.org/2000/svg">
<mask id="path-1-inside-1_802_1475" fill="white">
<path d="M933.691 698.787L888.817 693.061L885.95 715.527L924.893 720.496L916.631 785.247L675.821 754.52L680.54 717.541L641.597 712.571L645.595 681.237L480.698 660.196L488.798 596.71L698.569 623.477L700.974 604.63L941.784 635.357L933.691 698.787Z"/>
</mask>
<path d="M933.691 698.787L888.817 693.061L885.95 715.527L924.893 720.496L916.631 785.247L675.821 754.52L680.54 717.541L641.597 712.571L645.595 681.237L480.698 660.196L488.798 596.71L698.569 623.477L700.974 604.63L941.784 635.357L933.691 698.787Z" fill="#C0EFDB"/>
<path d="M933.691 698.787L932.931 704.738C934.51 704.94 936.104 704.506 937.362 703.532C938.621 702.558 939.441 701.124 939.642 699.546L933.691 698.787ZM888.817 693.061L889.577 687.109C886.29 686.689 883.285 689.014 882.865 692.301L888.817 693.061ZM885.95 715.527L879.999 714.767C879.797 716.346 880.231 717.94 881.205 719.198C882.179 720.457 883.613 721.277 885.191 721.479L885.95 715.527ZM924.893 720.496L930.845 721.256C931.047 719.677 930.613 718.083 929.639 716.825C928.665 715.566 927.231 714.746 925.653 714.544L924.893 720.496ZM916.631 785.247L915.872 791.199C919.159 791.619 922.164 789.294 922.583 786.007L916.631 785.247ZM675.821 754.52L669.869 753.761C669.45 757.048 671.775 760.052 675.062 760.472L675.821 754.52ZM680.54 717.541L686.491 718.3C686.911 715.013 684.586 712.008 681.299 711.589L680.54 717.541ZM641.597 712.571L635.645 711.812C635.443 713.39 635.877 714.984 636.851 716.243C637.825 717.502 639.259 718.322 640.837 718.523L641.597 712.571ZM645.595 681.237L651.547 681.996C651.748 680.418 651.314 678.824 650.34 677.565C649.367 676.307 647.933 675.486 646.354 675.285L645.595 681.237ZM480.698 660.196L474.746 659.436C474.544 661.015 474.978 662.609 475.952 663.867C476.926 665.126 478.36 665.946 479.938 666.147L480.698 660.196ZM488.798 596.71L489.558 590.759C486.271 590.339 483.266 592.664 482.846 595.951L488.798 596.71ZM698.569 623.477L697.81 629.429C701.097 629.848 704.101 627.524 704.521 624.237L698.569 623.477ZM700.974 604.63L701.733 598.678C698.446 598.259 695.442 600.584 695.022 603.871L700.974 604.63ZM941.784 635.357L947.736 636.117C948.155 632.83 945.831 629.825 942.544 629.406L941.784 635.357ZM933.691 698.787L934.45 692.835L889.577 687.109L888.817 693.061L888.058 699.012L932.931 704.738L933.691 698.787ZM888.817 693.061L882.865 692.301L879.999 714.767L885.95 715.527L891.902 716.286L894.769 693.82L888.817 693.061ZM885.95 715.527L885.191 721.479L924.134 726.448L924.893 720.496L925.653 714.544L886.71 709.575L885.95 715.527ZM924.893 720.496L918.942 719.737L910.679 784.488L916.631 785.247L922.583 786.007L930.845 721.256L924.893 720.496ZM916.631 785.247L917.391 779.296L676.58 748.568L675.821 754.52L675.062 760.472L915.872 791.199L916.631 785.247ZM675.821 754.52L681.773 755.279L686.491 718.3L680.54 717.541L674.588 716.781L669.869 753.761L675.821 754.52ZM680.54 717.541L681.299 711.589L642.356 706.62L641.597 712.571L640.837 718.523L679.78 723.492L680.54 717.541ZM641.597 712.571L647.548 713.331L651.547 681.996L645.595 681.237L639.643 680.477L635.645 711.812L641.597 712.571ZM645.595 681.237L646.354 675.285L481.457 654.244L480.698 660.196L479.938 666.147L644.835 687.188L645.595 681.237ZM480.698 660.196L486.649 660.955L494.75 597.47L488.798 596.71L482.846 595.951L474.746 659.436L480.698 660.196ZM488.798 596.71L488.039 602.662L697.81 629.429L698.569 623.477L699.329 617.525L489.558 590.759L488.798 596.71ZM698.569 623.477L704.521 624.237L706.926 605.389L700.974 604.63L695.022 603.871L692.617 622.718L698.569 623.477ZM700.974 604.63L700.215 610.582L941.025 641.309L941.784 635.357L942.544 629.406L701.733 598.678L700.974 604.63ZM941.784 635.357L935.832 634.598L927.739 698.027L933.691 698.787L939.642 699.546L947.736 636.117L941.784 635.357Z" fill="#C0EFDB" mask="url(#path-1-inside-1_802_1475)"/>
<mask id="path-3-inside-2_802_1475" fill="white">
<path d="M379.962 716.153L311.559 732.131L314.397 744.282L379.069 729.175L386.909 762.736L245.751 795.708L239.264 767.934L174.592 783.041L166.752 749.48L235.154 733.502L230.964 715.565L372.123 682.593L379.962 716.153Z"/>
</mask>
<path d="M379.962 716.153L311.559 732.131L314.397 744.282L379.069 729.175L386.909 762.736L245.751 795.708L239.264 767.934L174.592 783.041L166.752 749.48L235.154 733.502L230.964 715.565L372.123 682.593L379.962 716.153Z" fill="#C0EFDB"/>
<path d="M379.962 716.153L381.327 721.996C384.553 721.242 386.558 718.016 385.805 714.789L379.962 716.153ZM311.559 732.131L310.194 726.289C306.967 727.042 304.963 730.269 305.716 733.496L311.559 732.131ZM314.397 744.282L308.554 745.647C309.308 748.873 312.535 750.878 315.762 750.125L314.397 744.282ZM379.069 729.175L384.912 727.811C384.158 724.584 380.931 722.579 377.705 723.333L379.069 729.175ZM386.909 762.736L388.273 768.579C391.5 767.825 393.505 764.598 392.751 761.371L386.909 762.736ZM245.751 795.708L239.909 797.073C240.662 800.3 243.889 802.304 247.116 801.551L245.751 795.708ZM239.264 767.934L245.106 766.569C244.353 763.342 241.126 761.338 237.899 762.091L239.264 767.934ZM174.592 783.041L168.749 784.405C169.503 787.632 172.729 789.637 175.956 788.883L174.592 783.041ZM166.752 749.48L165.388 743.637C162.161 744.391 160.156 747.618 160.91 750.845L166.752 749.48ZM235.154 733.502L236.519 739.345C239.746 738.591 241.751 735.365 240.997 732.138L235.154 733.502ZM230.964 715.565L229.6 709.723C226.373 710.476 224.368 713.703 225.122 716.93L230.964 715.565ZM372.123 682.593L377.965 681.228C377.212 678.001 373.985 675.997 370.758 676.75L372.123 682.593ZM379.962 716.153L378.597 710.311L310.194 726.289L311.559 732.131L312.924 737.974L381.327 721.996L379.962 716.153ZM311.559 732.131L305.716 733.496L308.554 745.647L314.397 744.282L320.24 742.917L317.402 730.767L311.559 732.131ZM314.397 744.282L315.762 750.125L380.434 735.018L379.069 729.175L377.705 723.333L313.032 738.439L314.397 744.282ZM379.069 729.175L373.227 730.54L381.066 764.101L386.909 762.736L392.751 761.371L384.912 727.811L379.069 729.175ZM386.909 762.736L385.544 756.893L244.386 789.865L245.751 795.708L247.116 801.551L388.273 768.579L386.909 762.736ZM245.751 795.708L251.594 794.343L245.106 766.569L239.264 767.934L233.421 769.299L239.909 797.073L245.751 795.708ZM239.264 767.934L237.899 762.091L173.227 777.198L174.592 783.041L175.956 788.883L240.628 773.777L239.264 767.934ZM174.592 783.041L180.434 781.676L172.595 748.115L166.752 749.48L160.91 750.845L168.749 784.405L174.592 783.041ZM166.752 749.48L168.117 755.323L236.519 739.345L235.154 733.502L233.789 727.66L165.388 743.637L166.752 749.48ZM235.154 733.502L240.997 732.138L236.807 714.201L230.964 715.565L225.122 716.93L229.311 734.867L235.154 733.502ZM230.964 715.565L232.329 721.408L373.487 688.436L372.123 682.593L370.758 676.75L229.6 709.723L230.964 715.565ZM372.123 682.593L366.28 683.958L374.119 717.518L379.962 716.153L385.805 714.789L377.965 681.228L372.123 682.593Z" fill="#C0EFDB" mask="url(#path-3-inside-2_802_1475)"/>
<mask id="path-5-inside-3_802_1475" fill="white">
<path d="M1121.68 674.153L1190.08 690.131L1187.24 702.282L1122.57 687.175L1114.73 720.736L1255.89 753.708L1262.37 725.934L1327.05 741.041L1334.89 707.48L1266.48 691.502L1270.67 673.565L1129.52 640.593L1121.68 674.153Z"/>
</mask>
<path d="M1121.68 674.153L1190.08 690.131L1187.24 702.282L1122.57 687.175L1114.73 720.736L1255.89 753.708L1262.37 725.934L1327.05 741.041L1334.89 707.48L1266.48 691.502L1270.67 673.565L1129.52 640.593L1121.68 674.153Z" fill="#C0EFDB"/>
<path d="M1121.68 674.153L1120.31 679.996C1117.09 679.242 1115.08 676.016 1115.83 672.789L1121.68 674.153ZM1190.08 690.131L1191.44 684.289C1194.67 685.042 1196.68 688.269 1195.92 691.496L1190.08 690.131ZM1187.24 702.282L1193.08 703.647C1192.33 706.873 1189.1 708.878 1185.88 708.125L1187.24 702.282ZM1122.57 687.175L1116.73 685.811C1117.48 682.584 1120.71 680.579 1123.93 681.333L1122.57 687.175ZM1114.73 720.736L1113.37 726.579C1110.14 725.825 1108.13 722.598 1108.89 719.371L1114.73 720.736ZM1255.89 753.708L1261.73 755.073C1261.37 756.622 1260.41 757.965 1259.05 758.804C1257.7 759.644 1256.07 759.913 1254.52 759.551L1255.89 753.708ZM1262.37 725.934L1256.53 724.569C1256.89 723.02 1257.86 721.677 1259.21 720.838C1260.56 719.998 1262.19 719.729 1263.74 720.091L1262.37 725.934ZM1327.05 741.041L1332.89 742.405C1332.53 743.955 1331.57 745.297 1330.21 746.137C1328.86 746.977 1327.23 747.245 1325.68 746.883L1327.05 741.041ZM1334.89 707.48L1336.25 701.637C1339.48 702.391 1341.48 705.618 1340.73 708.845L1334.89 707.48ZM1266.48 691.502L1265.12 697.345C1261.89 696.591 1259.89 693.365 1260.64 690.138L1266.48 691.502ZM1270.67 673.565L1272.04 667.723C1275.27 668.476 1277.27 671.703 1276.52 674.93L1270.67 673.565ZM1129.52 640.593L1123.67 639.228C1124.43 636.001 1127.65 633.997 1130.88 634.75L1129.52 640.593ZM1121.68 674.153L1123.04 668.311L1191.44 684.289L1190.08 690.131L1188.71 695.974L1120.31 679.996L1121.68 674.153ZM1190.08 690.131L1195.92 691.496L1193.08 703.647L1187.24 702.282L1181.4 700.917L1184.24 688.767L1190.08 690.131ZM1187.24 702.282L1185.88 708.125L1121.2 693.018L1122.57 687.175L1123.93 681.333L1188.61 696.439L1187.24 702.282ZM1122.57 687.175L1128.41 688.54L1120.57 722.101L1114.73 720.736L1108.89 719.371L1116.73 685.811L1122.57 687.175ZM1114.73 720.736L1116.09 714.893L1257.25 747.865L1255.89 753.708L1254.52 759.551L1113.37 726.579L1114.73 720.736ZM1255.89 753.708L1250.04 752.343L1256.53 724.569L1262.37 725.934L1268.22 727.299L1261.73 755.073L1255.89 753.708ZM1262.37 725.934L1263.74 720.091L1328.41 735.198L1327.05 741.041L1325.68 746.883L1261.01 731.777L1262.37 725.934ZM1327.05 741.041L1321.2 739.676L1329.04 706.115L1334.89 707.48L1340.73 708.845L1332.89 742.405L1327.05 741.041ZM1334.89 707.48L1333.52 713.323L1265.12 697.345L1266.48 691.502L1267.85 685.66L1336.25 701.637L1334.89 707.48ZM1266.48 691.502L1260.64 690.138L1264.83 672.201L1270.67 673.565L1276.52 674.93L1272.33 692.867L1266.48 691.502ZM1270.67 673.565L1269.31 679.408L1128.15 646.436L1129.52 640.593L1130.88 634.75L1272.04 667.723L1270.67 673.565ZM1129.52 640.593L1135.36 641.958L1127.52 675.518L1121.68 674.153L1115.83 672.789L1123.67 639.228L1129.52 640.593Z" fill="#C0EFDB" mask="url(#path-5-inside-3_802_1475)"/>
<mask id="path-7-inside-4_802_1475" fill="white">
<path d="M1155.02 680.748L1108.13 700.451L1103.25 688.838L1102.81 689.022L1095.61 671.887L995.124 714.116L1007.6 743.811L962.478 762.775L977.505 798.535L1071.8 758.909L1071.87 759.078L1170.51 717.624L1155.02 680.748Z"/>
</mask>
<path d="M1155.02 680.748L1108.13 700.451L1103.25 688.838L1102.81 689.022L1095.61 671.887L995.124 714.116L1007.6 743.811L962.478 762.775L977.505 798.535L1071.8 758.909L1071.87 759.078L1170.51 717.624L1155.02 680.748Z" fill="#FF8BE4"/>
<path d="M1155.02 680.748L1152.69 675.216C1155.75 673.932 1159.26 675.368 1160.55 678.423L1155.02 680.748ZM1108.13 700.451L1110.45 705.982C1107.4 707.266 1103.88 705.83 1102.6 702.775L1108.13 700.451ZM1103.25 688.838L1100.93 683.306C1103.98 682.023 1107.5 683.458 1108.78 686.513L1103.25 688.838ZM1102.81 689.022L1105.14 694.553C1102.08 695.837 1098.56 694.401 1097.28 691.346L1102.81 689.022ZM1095.61 671.887L1093.29 666.356C1096.34 665.072 1099.86 666.508 1101.14 669.563L1095.61 671.887ZM995.124 714.116L989.593 716.441C988.976 714.974 988.968 713.322 989.569 711.848C990.171 710.375 991.333 709.201 992.8 708.585L995.124 714.116ZM1007.6 743.811L1013.13 741.487C1013.75 742.954 1013.76 744.606 1013.16 746.079C1012.56 747.552 1011.39 748.726 1009.93 749.343L1007.6 743.811ZM962.478 762.775L956.946 765.1C955.663 762.045 957.098 758.527 960.153 757.244L962.478 762.775ZM977.505 798.535L979.83 804.066C976.775 805.35 973.258 803.914 971.974 800.859L977.505 798.535ZM1071.8 758.909L1069.47 753.378C1072.53 752.094 1076.05 753.53 1077.33 756.585L1071.8 758.909ZM1071.87 759.078L1074.19 764.609C1071.14 765.893 1067.62 764.457 1066.34 761.402L1071.87 759.078ZM1170.51 717.624L1176.04 715.299C1177.33 718.354 1175.89 721.871 1172.84 723.155L1170.51 717.624ZM1155.02 680.748L1157.34 686.279L1110.45 705.982L1108.13 700.451L1105.81 694.919L1152.69 675.216L1155.02 680.748ZM1108.13 700.451L1102.6 702.775L1097.72 691.162L1103.25 688.838L1108.78 686.513L1113.66 698.126L1108.13 700.451ZM1103.25 688.838L1105.57 694.369L1105.14 694.553L1102.81 689.022L1100.49 683.49L1100.93 683.306L1103.25 688.838ZM1102.81 689.022L1097.28 691.346L1090.08 674.212L1095.61 671.887L1101.14 669.563L1108.34 686.697L1102.81 689.022ZM1095.61 671.887L1097.94 677.419L997.449 719.648L995.124 714.116L992.8 708.585L1093.29 666.356L1095.61 671.887ZM995.124 714.116L1000.66 711.792L1013.13 741.487L1007.6 743.811L1002.07 746.136L989.593 716.441L995.124 714.116ZM1007.6 743.811L1009.93 749.343L964.802 768.306L962.478 762.775L960.153 757.244L1005.28 738.28L1007.6 743.811ZM962.478 762.775L968.009 760.45L983.037 796.21L977.505 798.535L971.974 800.859L956.946 765.1L962.478 762.775ZM977.505 798.535L975.181 793.003L1069.47 753.378L1071.8 758.909L1074.12 764.441L979.83 804.066L977.505 798.535ZM1071.8 758.909L1077.33 756.585L1077.4 756.753L1071.87 759.078L1066.34 761.402L1066.27 761.234L1071.8 758.909ZM1071.87 759.078L1069.54 753.546L1168.19 712.092L1170.51 717.624L1172.84 723.155L1074.19 764.609L1071.87 759.078ZM1170.51 717.624L1164.98 719.948L1149.48 683.072L1155.02 680.748L1160.55 678.423L1176.04 715.299L1170.51 717.624Z" fill="#FF8BE4" mask="url(#path-7-inside-4_802_1475)"/>
<mask id="path-9-inside-5_802_1475" fill="white">
<path d="M582.174 592.999L642.156 586.973L645.722 622.473L544.119 632.68L546.64 657.775L407.701 671.733L405.18 646.638L379.472 649.221L375.906 613.721L443.234 606.957L441.328 587.983L580.267 574.025L582.174 592.999Z"/>
</mask>
<path d="M582.174 592.999L642.156 586.973L645.722 622.473L544.119 632.68L546.64 657.775L407.701 671.733L405.18 646.638L379.472 649.221L375.906 613.721L443.234 606.957L441.328 587.983L580.267 574.025L582.174 592.999Z" fill="#FFAD64"/>
<path d="M582.174 592.999L576.204 593.599C576.535 596.896 579.476 599.3 582.773 598.969L582.174 592.999ZM642.156 586.973L648.126 586.374C647.795 583.076 644.853 580.672 641.556 581.003L642.156 586.973ZM645.722 622.473L646.322 628.443C649.619 628.112 652.023 625.171 651.692 621.874L645.722 622.473ZM544.119 632.68L543.519 626.71C540.222 627.041 537.818 629.983 538.149 633.28L544.119 632.68ZM546.64 657.775L547.24 663.745C550.537 663.414 552.941 660.473 552.61 657.176L546.64 657.775ZM407.701 671.733L401.731 672.333C401.89 673.916 402.671 675.371 403.903 676.378C405.136 677.385 406.717 677.862 408.301 677.703L407.701 671.733ZM405.18 646.638L411.15 646.039C410.991 644.455 410.209 643 408.977 641.993C407.745 640.986 406.164 640.509 404.58 640.668L405.18 646.638ZM379.472 649.221L373.502 649.821C373.834 653.118 376.775 655.522 380.072 655.191L379.472 649.221ZM375.906 613.721L375.306 607.751C373.723 607.91 372.268 608.692 371.261 609.924C370.254 611.156 369.777 612.737 369.936 614.321L375.906 613.721ZM443.234 606.957L443.834 612.927C447.131 612.596 449.535 609.655 449.204 606.358L443.234 606.957ZM441.328 587.983L440.728 582.013C437.431 582.344 435.027 585.285 435.358 588.582L441.328 587.983ZM580.267 574.025L586.237 573.425C585.906 570.128 582.965 567.724 579.668 568.055L580.267 574.025ZM582.174 592.999L582.773 598.969L642.756 592.943L642.156 586.973L641.556 581.003L581.574 587.029L582.174 592.999ZM642.156 586.973L636.186 587.573L639.752 623.073L645.722 622.473L651.692 621.874L648.126 586.374L642.156 586.973ZM645.722 622.473L645.122 616.503L543.519 626.71L544.119 632.68L544.719 638.65L646.322 628.443L645.722 622.473ZM544.119 632.68L538.149 633.28L540.67 658.375L546.64 657.775L552.61 657.176L550.089 632.08L544.119 632.68ZM546.64 657.775L546.04 651.805L407.101 665.763L407.701 671.733L408.301 677.703L547.24 663.745L546.64 657.775ZM407.701 671.733L413.671 671.133L411.15 646.039L405.18 646.638L399.21 647.238L401.731 672.333L407.701 671.733ZM405.18 646.638L404.58 640.668L378.873 643.251L379.472 649.221L380.072 655.191L405.78 652.608L405.18 646.638ZM379.472 649.221L385.442 648.621L381.876 613.121L375.906 613.721L369.936 614.321L373.502 649.821L379.472 649.221ZM375.906 613.721L376.506 619.691L443.834 612.927L443.234 606.957L442.635 600.987L375.306 607.751L375.906 613.721ZM443.234 606.957L449.204 606.358L447.298 587.383L441.328 587.983L435.358 588.582L437.264 607.557L443.234 606.957ZM441.328 587.983L441.928 593.952L580.867 579.995L580.267 574.025L579.668 568.055L440.728 582.013L441.328 587.983ZM580.267 574.025L574.298 574.625L576.204 593.599L582.174 592.999L588.144 592.399L586.237 573.425L580.267 574.025Z" fill="#FFAD64" mask="url(#path-9-inside-5_802_1475)"/>
<mask id="path-11-inside-6_802_1475" fill="white">
<path d="M638.868 678.841L574.729 700.402L577.473 708.565L601.961 700.333L609.233 721.966L681.675 697.614L691.434 726.644L559.265 771.075L553.603 754.231L480.97 778.647L472.934 754.741L448.445 762.973L437.077 729.154L501.216 707.593L495.139 689.517L627.499 645.022L638.868 678.841Z"/>
</mask>
<path d="M638.868 678.841L574.729 700.402L577.473 708.565L601.961 700.333L609.233 721.966L681.675 697.614L691.434 726.644L559.265 771.075L553.603 754.231L480.97 778.647L472.934 754.741L448.445 762.973L437.077 729.154L501.216 707.593L495.139 689.517L627.499 645.022L638.868 678.841Z" fill="#C3BEF8"/>
<path d="M638.868 678.841L640.779 684.528C643.92 683.472 645.611 680.07 644.555 676.929L638.868 678.841ZM574.729 700.402L572.817 694.715C571.309 695.222 570.063 696.307 569.355 697.732C568.647 699.158 568.534 700.806 569.041 702.314L574.729 700.402ZM577.473 708.565L571.786 710.477C572.842 713.618 576.244 715.309 579.385 714.253L577.473 708.565ZM601.961 700.333L607.649 698.421C606.593 695.28 603.19 693.59 600.049 694.646L601.961 700.333ZM609.233 721.966L603.546 723.878C604.602 727.019 608.004 728.709 611.145 727.653L609.233 721.966ZM681.675 697.614L687.362 695.702C686.855 694.193 685.769 692.948 684.344 692.24C682.919 691.532 681.271 691.419 679.763 691.926L681.675 697.614ZM691.434 726.644L693.346 732.331C696.487 731.276 698.177 727.873 697.121 724.732L691.434 726.644ZM559.265 771.075L553.578 772.987C554.634 776.128 558.036 777.818 561.177 776.762L559.265 771.075ZM553.603 754.231L559.29 752.319C558.234 749.178 554.832 747.487 551.691 748.543L553.603 754.231ZM480.97 778.647L475.283 780.559C476.339 783.7 479.741 785.39 482.882 784.334L480.97 778.647ZM472.934 754.741L478.621 752.829C477.565 749.688 474.163 747.998 471.022 749.054L472.934 754.741ZM448.445 762.973L442.758 764.885C443.265 766.394 444.351 767.639 445.776 768.347C447.201 769.055 448.849 769.168 450.357 768.661L448.445 762.973ZM437.077 729.154L435.165 723.467C432.024 724.523 430.333 727.925 431.389 731.066L437.077 729.154ZM501.216 707.593L503.127 713.28C506.268 712.224 507.959 708.822 506.903 705.681L501.216 707.593ZM495.139 689.517L493.227 683.83C490.086 684.885 488.396 688.288 489.452 691.429L495.139 689.517ZM627.499 645.022L633.186 643.11C632.13 639.969 628.728 638.279 625.587 639.335L627.499 645.022ZM638.868 678.841L636.956 673.153L572.817 694.715L574.729 700.402L576.641 706.089L640.779 684.528L638.868 678.841ZM574.729 700.402L569.041 702.314L571.786 710.477L577.473 708.565L583.16 706.654L580.416 698.49L574.729 700.402ZM577.473 708.565L579.385 714.253L603.873 706.021L601.961 700.333L600.049 694.646L575.561 702.878L577.473 708.565ZM601.961 700.333L596.274 702.245L603.546 723.878L609.233 721.966L614.921 720.054L607.649 698.421L601.961 700.333ZM609.233 721.966L611.145 727.653L683.586 703.301L681.675 697.614L679.763 691.926L607.322 716.279L609.233 721.966ZM681.675 697.614L675.987 699.526L685.746 728.556L691.434 726.644L697.121 724.732L687.362 695.702L681.675 697.614ZM691.434 726.644L689.522 720.957L557.353 765.387L559.265 771.075L561.177 776.762L693.346 732.331L691.434 726.644ZM559.265 771.075L564.953 769.163L559.29 752.319L553.603 754.231L547.916 756.142L553.578 772.987L559.265 771.075ZM553.603 754.231L551.691 748.543L479.058 772.96L480.97 778.647L482.882 784.334L555.515 759.918L553.603 754.231ZM480.97 778.647L486.657 776.735L478.621 752.829L472.934 754.741L467.246 756.653L475.283 780.559L480.97 778.647ZM472.934 754.741L471.022 749.054L446.534 757.286L448.445 762.973L450.357 768.661L474.846 760.428L472.934 754.741ZM448.445 762.973L454.133 761.061L442.764 727.243L437.077 729.154L431.389 731.066L442.758 764.885L448.445 762.973ZM437.077 729.154L438.988 734.842L503.127 713.28L501.216 707.593L499.304 701.906L435.165 723.467L437.077 729.154ZM501.216 707.593L506.903 705.681L500.826 687.605L495.139 689.517L489.452 691.429L495.528 709.505L501.216 707.593ZM495.139 689.517L497.051 695.204L629.411 650.709L627.499 645.022L625.587 639.335L493.227 683.83L495.139 689.517ZM627.499 645.022L621.812 646.934L633.18 680.753L638.868 678.841L644.555 676.929L633.186 643.11L627.499 645.022Z" fill="#C3BEF8" mask="url(#path-11-inside-6_802_1475)"/>
<mask id="path-13-inside-7_802_1475" fill="white">
<path d="M1319.36 691.212L1387.36 665.477L1390.4 673.531L1364.44 683.357L1372.52 704.701L1295.73 733.767L1306.57 762.412L1446.68 709.381L1440.39 692.761L1517.39 663.618L1508.46 640.029L1534.42 630.203L1521.79 596.835L1453.8 622.57L1447.05 604.735L1306.73 657.843L1319.36 691.212Z"/>
</mask>
<path d="M1319.36 691.212L1387.36 665.477L1390.4 673.531L1364.44 683.357L1372.52 704.701L1295.73 733.767L1306.57 762.412L1446.68 709.381L1440.39 692.761L1517.39 663.618L1508.46 640.029L1534.42 630.203L1521.79 596.835L1453.8 622.57L1447.05 604.735L1306.73 657.843L1319.36 691.212Z" fill="#C3BEF8"/>
<path d="M1319.36 691.212L1321.49 696.823C1318.39 697.996 1314.92 696.435 1313.75 693.335L1319.36 691.212ZM1387.36 665.477L1385.23 659.865C1388.33 658.692 1391.79 660.253 1392.97 663.353L1387.36 665.477ZM1390.4 673.531L1396.02 671.407C1396.58 672.896 1396.53 674.547 1395.87 675.997C1395.22 677.448 1394.02 678.579 1392.53 679.143L1390.4 673.531ZM1364.44 683.357L1358.83 685.481C1357.66 682.382 1359.22 678.919 1362.32 677.746L1364.44 683.357ZM1372.52 704.701L1378.13 702.577C1379.31 705.676 1377.74 709.14 1374.65 710.313L1372.52 704.701ZM1295.73 733.767L1290.11 735.891C1288.94 732.792 1290.5 729.329 1293.6 728.156L1295.73 733.767ZM1306.57 762.412L1308.69 768.024C1307.2 768.587 1305.55 768.536 1304.1 767.882C1302.65 767.228 1301.52 766.024 1300.96 764.536L1306.57 762.412ZM1446.68 709.381L1452.29 707.257C1453.46 710.356 1451.9 713.82 1448.8 714.993L1446.68 709.381ZM1440.39 692.761L1434.78 694.885C1433.6 691.786 1435.17 688.323 1438.27 687.15L1440.39 692.761ZM1517.39 663.618L1523 661.494C1524.17 664.593 1522.61 668.056 1519.51 669.229L1517.39 663.618ZM1508.46 640.029L1502.85 642.153C1501.67 639.054 1503.24 635.591 1506.34 634.418L1508.46 640.029ZM1534.42 630.203L1540.03 628.079C1541.21 631.178 1539.64 634.642 1536.54 635.815L1534.42 630.203ZM1521.79 596.835L1519.67 591.223C1522.77 590.05 1526.23 591.612 1527.4 594.711L1521.79 596.835ZM1453.8 622.57L1455.92 628.181C1452.82 629.354 1449.36 627.793 1448.19 624.694L1453.8 622.57ZM1447.05 604.735L1444.92 599.124C1448.02 597.951 1451.49 599.512 1452.66 602.611L1447.05 604.735ZM1306.73 657.843L1301.12 659.967C1299.95 656.868 1301.51 653.405 1304.61 652.232L1306.73 657.843ZM1319.36 691.212L1317.24 685.6L1385.23 659.865L1387.36 665.477L1389.48 671.088L1321.49 696.823L1319.36 691.212ZM1387.36 665.477L1392.97 663.353L1396.02 671.407L1390.4 673.531L1384.79 675.655L1381.74 667.6L1387.36 665.477ZM1390.4 673.531L1392.53 679.143L1366.57 688.969L1364.44 683.357L1362.32 677.746L1388.28 667.92L1390.4 673.531ZM1364.44 683.357L1370.05 681.233L1378.13 702.577L1372.52 704.701L1366.91 706.825L1358.83 685.481L1364.44 683.357ZM1372.52 704.701L1374.65 710.313L1297.85 739.379L1295.73 733.767L1293.6 728.156L1370.4 699.09L1372.52 704.701ZM1295.73 733.767L1301.34 731.644L1312.18 760.288L1306.57 762.412L1300.96 764.536L1290.11 735.891L1295.73 733.767ZM1306.57 762.412L1304.44 756.801L1444.56 703.77L1446.68 709.381L1448.8 714.993L1308.69 768.024L1306.57 762.412ZM1446.68 709.381L1441.07 711.505L1434.78 694.885L1440.39 692.761L1446 690.637L1452.29 707.257L1446.68 709.381ZM1440.39 692.761L1438.27 687.15L1515.26 658.006L1517.39 663.618L1519.51 669.229L1442.51 698.373L1440.39 692.761ZM1517.39 663.618L1511.78 665.742L1502.85 642.153L1508.46 640.029L1514.07 637.905L1523 661.494L1517.39 663.618ZM1508.46 640.029L1506.34 634.418L1532.3 624.592L1534.42 630.203L1536.54 635.815L1510.58 645.641L1508.46 640.029ZM1534.42 630.203L1528.81 632.327L1516.18 598.959L1521.79 596.835L1527.4 594.711L1540.03 628.079L1534.42 630.203ZM1521.79 596.835L1523.92 602.446L1455.92 628.181L1453.8 622.57L1451.67 616.958L1519.67 591.223L1521.79 596.835ZM1453.8 622.57L1448.19 624.694L1441.44 606.859L1447.05 604.735L1452.66 602.611L1459.41 620.446L1453.8 622.57ZM1447.05 604.735L1449.17 610.347L1308.86 663.455L1306.73 657.843L1304.61 652.232L1444.92 599.124L1447.05 604.735ZM1306.73 657.843L1312.34 655.719L1324.97 689.088L1319.36 691.212L1313.75 693.335L1301.12 659.967L1306.73 657.843Z" fill="#C3BEF8" mask="url(#path-13-inside-7_802_1475)"/>
<mask id="path-15-inside-8_802_1475" fill="white">
<path d="M-11.8208 106.631L53.847 90.3087L55.9245 98.6667L30.8524 104.899L36.3574 127.046L-37.8116 145.481L-30.4235 175.205L104.896 141.57L100.609 124.324L174.974 105.84L168.89 81.3623L193.962 75.1304L185.356 40.5062L119.688 56.8286L115.088 38.3224L-20.4272 72.006L-11.8208 106.631Z"/>
</mask>
<path d="M-11.8208 106.631L53.847 90.3087L55.9245 98.6667L30.8524 104.899L36.3574 127.046L-37.8116 145.481L-30.4235 175.205L104.896 141.57L100.609 124.324L174.974 105.84L168.89 81.3623L193.962 75.1304L185.356 40.5062L119.688 56.8286L115.088 38.3224L-20.4272 72.006L-11.8208 106.631Z" fill="#C3BEF8"/>
<path d="M-11.8208 106.631L-10.3735 112.454C-11.9178 112.838 -13.5514 112.592 -14.9148 111.772C-16.2782 110.951 -17.2598 109.623 -17.6436 108.078L-11.8208 106.631ZM53.847 90.3087L52.3997 84.4859C55.6156 83.6866 58.8705 85.6456 59.6699 88.8614L53.847 90.3087ZM55.9245 98.6667L61.7473 97.2194C62.5467 100.435 60.5877 103.69 57.3718 104.49L55.9245 98.6667ZM30.8524 104.899L25.0296 106.346C24.2303 103.13 26.1893 99.8751 29.4051 99.0758L30.8524 104.899ZM36.3574 127.046L42.1802 125.599C42.9795 128.815 41.0206 132.07 37.8047 132.869L36.3574 127.046ZM-37.8116 145.481L-43.6344 146.929C-44.4337 143.713 -42.4748 140.458 -39.2589 139.659L-37.8116 145.481ZM-30.4235 175.205L-28.9762 181.028C-30.5205 181.412 -32.1541 181.166 -33.5175 180.346C-34.8809 179.525 -35.8625 178.197 -36.2463 176.652L-30.4235 175.205ZM104.896 141.57L110.718 140.123C111.102 141.667 110.857 143.301 110.036 144.664C109.216 146.027 107.887 147.009 106.343 147.393L104.896 141.57ZM100.609 124.324L94.7861 125.772C94.4022 124.227 94.6476 122.594 95.4682 121.23C96.2887 119.867 97.6173 118.885 99.1616 118.502L100.609 124.324ZM174.974 105.84L180.797 104.393C181.596 107.609 179.637 110.864 176.421 111.663L174.974 105.84ZM168.89 81.3623L163.067 82.8096C162.268 79.5938 164.227 76.3388 167.443 75.5395L168.89 81.3623ZM193.962 75.1304L199.785 73.6831C200.584 76.899 198.625 80.1539 195.409 80.9532L193.962 75.1304ZM185.356 40.5062L183.908 34.6834C187.124 33.8841 190.379 35.8431 191.179 39.0589L185.356 40.5062ZM119.688 56.8286L121.135 62.6514C117.919 63.4508 114.664 61.4918 113.865 58.2759L119.688 56.8286ZM115.088 38.3224L113.641 32.4996C116.857 31.7002 120.111 33.6592 120.911 36.8751L115.088 38.3224ZM-20.4272 72.006L-26.2501 73.4533C-27.0494 70.2374 -25.0904 66.9825 -21.8746 66.1832L-20.4272 72.006ZM-11.8208 106.631L-13.2681 100.808L52.3997 84.4859L53.847 90.3087L55.2944 96.1316L-10.3735 112.454L-11.8208 106.631ZM53.847 90.3087L59.6699 88.8614L61.7473 97.2194L55.9245 98.6667L50.1017 100.114L48.0242 91.7561L53.847 90.3087ZM55.9245 98.6667L57.3718 104.49L32.2998 110.721L30.8524 104.899L29.4051 99.0758L54.4772 92.8439L55.9245 98.6667ZM30.8524 104.899L36.6753 103.451L42.1802 125.599L36.3574 127.046L30.5346 128.493L25.0296 106.346L30.8524 104.899ZM36.3574 127.046L37.8047 132.869L-36.3643 151.304L-37.8116 145.481L-39.2589 139.659L34.9101 121.223L36.3574 127.046ZM-37.8116 145.481L-31.9888 144.034L-24.6007 173.758L-30.4235 175.205L-36.2463 176.652L-43.6344 146.929L-37.8116 145.481ZM-30.4235 175.205L-31.8708 169.382L103.448 135.747L104.896 141.57L106.343 147.393L-28.9762 181.028L-30.4235 175.205ZM104.896 141.57L99.0727 143.017L94.7861 125.772L100.609 124.324L106.432 122.877L110.718 140.123L104.896 141.57ZM100.609 124.324L99.1616 118.502L173.527 100.017L174.974 105.84L176.421 111.663L102.056 130.147L100.609 124.324ZM174.974 105.84L169.151 107.287L163.067 82.8096L168.89 81.3623L174.713 79.915L180.797 104.393L174.974 105.84ZM168.89 81.3623L167.443 75.5395L192.515 69.3076L193.962 75.1304L195.409 80.9532L170.337 87.1851L168.89 81.3623ZM193.962 75.1304L188.139 76.5777L179.533 41.9535L185.356 40.5062L191.179 39.0589L199.785 73.6831L193.962 75.1304ZM185.356 40.5062L186.803 46.3291L121.135 62.6514L119.688 56.8286L118.241 51.0058L183.908 34.6834L185.356 40.5062ZM119.688 56.8286L113.865 58.2759L109.265 39.7697L115.088 38.3224L120.911 36.8751L125.511 55.3813L119.688 56.8286ZM115.088 38.3224L116.535 44.1452L-18.9799 77.8288L-20.4272 72.006L-21.8746 66.1832L113.641 32.4996L115.088 38.3224ZM-20.4272 72.006L-14.6044 70.5587L-5.998 105.184L-11.8208 106.631L-17.6436 108.078L-26.2501 73.4533L-20.4272 72.006Z" fill="#C3BEF8" mask="url(#path-15-inside-8_802_1475)"/>
<mask id="path-17-inside-9_802_1475" fill="white">
<path d="M1271.17 138.682L1319.19 121.934L1323.34 133.829L1323.79 133.673L1329.91 151.223L1432.83 115.331L1422.22 84.9164L1468.44 68.7992L1455.67 32.1734L1359.09 65.8525L1359.03 65.6791L1258 100.912L1271.17 138.682Z"/>
</mask>
<path d="M1271.17 138.682L1319.19 121.934L1323.34 133.829L1323.79 133.673L1329.91 151.223L1432.83 115.331L1422.22 84.9164L1468.44 68.7992L1455.67 32.1734L1359.09 65.8525L1359.03 65.6791L1258 100.912L1271.17 138.682Z" fill="#FF8BE4"/>
<path d="M1271.17 138.682L1273.15 144.347C1270.02 145.438 1266.6 143.786 1265.5 140.657L1271.17 138.682ZM1319.19 121.934L1317.22 116.269C1318.72 115.745 1320.37 115.839 1321.8 116.531C1323.24 117.223 1324.34 118.456 1324.86 119.958L1319.19 121.934ZM1323.34 133.829L1325.32 139.495C1323.81 140.019 1322.17 139.924 1320.73 139.232C1319.3 138.54 1318.2 137.308 1317.68 135.805L1323.34 133.829ZM1323.79 133.673L1321.81 128.008C1323.32 127.484 1324.97 127.578 1326.4 128.27C1327.83 128.962 1328.93 130.195 1329.45 131.698L1323.79 133.673ZM1329.91 151.223L1331.88 156.888C1330.38 157.412 1328.73 157.318 1327.3 156.626C1325.87 155.934 1324.77 154.701 1324.24 153.198L1329.91 151.223ZM1432.83 115.331L1438.5 113.355C1439.59 116.484 1437.93 119.905 1434.81 120.996L1432.83 115.331ZM1422.22 84.9164L1416.56 86.8921C1416.03 85.3895 1416.13 83.7403 1416.82 82.3074C1417.51 80.8744 1418.75 79.775 1420.25 79.251L1422.22 84.9164ZM1468.44 68.7992L1474.11 66.8235C1474.63 68.3261 1474.54 69.9752 1473.84 71.4082C1473.15 72.8412 1471.92 73.9406 1470.42 74.4646L1468.44 68.7992ZM1455.67 32.1734L1453.69 26.508C1455.19 25.984 1456.84 26.0783 1458.28 26.7703C1459.71 27.4622 1460.81 28.6951 1461.33 30.1977L1455.67 32.1734ZM1359.09 65.8525L1361.07 71.5179C1359.56 72.0418 1357.92 71.9475 1356.48 71.2555C1355.05 70.5636 1353.95 69.3307 1353.43 67.8282L1359.09 65.8525ZM1359.03 65.6791L1357.06 60.0137C1358.56 59.4897 1360.21 59.5841 1361.64 60.2761C1363.07 60.968 1364.17 62.2009 1364.7 63.7034L1359.03 65.6791ZM1258 100.912L1252.33 102.888C1251.24 99.7591 1252.89 96.3381 1256.02 95.247L1258 100.912ZM1271.17 138.682L1269.19 133.016L1317.22 116.269L1319.19 121.934L1321.17 127.6L1273.15 144.347L1271.17 138.682ZM1319.19 121.934L1324.86 119.958L1329.01 131.854L1323.34 133.829L1317.68 135.805L1313.53 123.91L1319.19 121.934ZM1323.34 133.829L1321.37 128.164L1321.81 128.008L1323.79 133.673L1325.76 139.339L1325.32 139.495L1323.34 133.829ZM1323.79 133.673L1329.45 131.698L1335.57 149.247L1329.91 151.223L1324.24 153.198L1318.12 135.649L1323.79 133.673ZM1329.91 151.223L1327.93 145.557L1430.85 109.666L1432.83 115.331L1434.81 120.996L1331.88 156.888L1329.91 151.223ZM1432.83 115.331L1427.16 117.307L1416.56 86.8921L1422.22 84.9164L1427.89 82.9407L1438.5 113.355L1432.83 115.331ZM1422.22 84.9164L1420.25 79.251L1466.46 63.1338L1468.44 68.7992L1470.42 74.4646L1424.2 90.5818L1422.22 84.9164ZM1468.44 68.7992L1462.78 70.7749L1450 34.1491L1455.67 32.1734L1461.33 30.1977L1474.11 66.8235L1468.44 68.7992ZM1455.67 32.1734L1457.64 37.8387L1361.07 71.5179L1359.09 65.8525L1357.12 60.1871L1453.69 26.508L1455.67 32.1734ZM1359.09 65.8525L1353.43 67.8282L1353.37 67.6548L1359.03 65.6791L1364.7 63.7034L1364.76 63.8768L1359.09 65.8525ZM1359.03 65.6791L1361.01 71.3445L1259.97 106.578L1258 100.912L1256.02 95.247L1357.06 60.0137L1359.03 65.6791ZM1258 100.912L1263.66 98.9367L1276.84 136.706L1271.17 138.682L1265.5 140.657L1252.33 102.888L1258 100.912Z" fill="#FF8BE4" mask="url(#path-17-inside-9_802_1475)"/>
<mask id="path-19-outside-10_802_1475" maskUnits="userSpaceOnUse" x="548" y="149" width="436" height="415" fill="black">
<rect fill="white" x="548" y="149" width="436" height="415"/>
<path d="M711.291 153H816.934L795.805 313.812L942.532 245.731L975.398 344.331L815.76 374.85L927.272 492.232L841.584 554.443L764.112 412.412L686.641 554.443L602.126 492.232L712.465 374.85L554 344.331L585.693 245.731L731.246 314.986L711.291 153Z"/>
</mask>
<path d="M711.291 153H816.934L795.805 313.812L942.532 245.731L975.398 344.331L815.76 374.85L927.272 492.232L841.584 554.443L764.112 412.412L686.641 554.443L602.126 492.232L712.465 374.85L554 344.331L585.693 245.731L731.246 314.986L711.291 153Z" fill="#FFAD64"/>
<path d="M711.291 150.562C711.291 152.188 711.291 153.812 711.291 155.438C746.505 155.972 781.719 156.453 816.934 156.882L813.085 152.494C813.014 152.988 812.943 153.482 812.872 153.976C805.25 207.001 797.748 260.041 790.368 313.098L789.01 322.94L798.113 318.787C847.194 296.464 896.223 274.029 945.2 251.483L936.516 247.736C947.373 280.636 958.278 313.519 969.232 346.387L974.178 337.947C973.464 338.083 972.751 338.22 972.038 338.356C919.538 348.393 867.041 358.443 814.547 368.506L802.934 370.721L811.077 379.299C848.267 418.408 885.468 457.507 922.678 496.596L923.549 487.104C895.007 507.87 866.469 528.641 837.934 549.417L847.037 551.469C821.149 504.16 795.25 456.858 769.338 409.562L764.132 399.981L758.886 409.562C733.15 456.954 707.427 504.352 681.715 551.757L689.967 549.925C661.747 529.254 633.523 508.588 605.295 487.926L606.021 495.893C642.695 456.667 679.359 417.431 716.013 378.186L722.081 371.767L713.386 370.068C660.532 360.064 607.675 350.073 554.816 340.096L558.106 345.651C568.549 312.745 578.986 279.838 589.417 246.928L584.012 249.264C632.623 272.153 681.239 295.03 729.862 317.894L735.138 320.43L734.442 314.592C732.073 296.053 729.702 277.514 727.329 258.974C722.795 223.55 718.256 188.125 713.71 152.702C712.097 152.901 710.484 153.099 708.871 153.298C713.059 188.766 717.252 224.232 721.451 259.699C723.649 278.259 725.848 296.82 728.049 315.38L732.629 312.078C684.217 288.772 635.798 265.479 587.374 242.199L583.315 240.287L581.969 244.534C571.272 277.358 560.58 310.184 549.894 343.011L548.417 347.667L553.184 348.566C605.968 358.935 658.754 369.291 711.543 379.633L708.916 371.514C672.011 410.524 635.116 449.542 598.231 488.57L594.104 492.984L598.957 496.537C627.073 517.35 655.192 538.158 683.314 558.962L688.509 562.768L691.567 557.13C717.503 509.848 743.426 462.559 769.338 415.263H758.886C784.622 462.654 810.37 510.039 836.131 557.418L839.527 563.625L845.233 559.47C873.824 538.771 902.411 518.068 930.995 497.359L936.848 493.101L931.866 487.867C894.735 448.702 857.594 409.547 820.443 370.401L816.973 381.195C869.477 371.185 921.979 361.161 974.479 351.125C975.192 350.988 975.906 350.852 976.619 350.716L983.913 349.321L981.565 342.276C970.607 309.41 959.601 276.56 948.547 243.726L946.276 236.98L939.863 239.979C891.022 262.82 842.234 285.773 793.497 308.837L801.243 314.527C807.818 261.364 814.272 208.186 820.605 154.993C820.664 154.497 820.723 154.001 820.782 153.506L821.311 149.065L816.934 149.118C781.719 149.547 746.505 150.028 711.291 150.562ZM711.291 155.438V150.562L708.526 150.604L708.871 153.298L713.71 152.702L711.291 155.438Z" fill="black" mask="url(#path-19-outside-10_802_1475)"/>
<path d="M726.972 350.823C736.937 353.014 747.918 341.588 751.498 325.303C755.077 309.017 749.9 294.04 739.935 291.849C729.969 289.659 718.989 301.085 715.409 317.37C711.829 333.655 717.006 348.633 726.972 350.823Z" fill="#F5F6FB"/>
<path d="M752.23 325.464C751.742 325.356 751.253 325.249 750.765 325.142C750.054 327.597 749.177 329.982 748.127 332.275C744.138 341.071 736.268 350.552 727.401 348.87C727.401 348.87 727.401 348.87 727.401 348.87C716.339 345.588 714.714 329.25 717.227 317.769C719.641 306.285 727.528 291.825 739.625 293.26C749.012 295.532 752.035 307.912 751.65 317.575C751.559 320.109 751.258 322.639 750.765 325.142C751.253 325.249 751.742 325.356 752.23 325.464C752.848 322.909 753.269 320.307 753.47 317.678C754.099 307.738 752.262 294.138 740.245 290.438C724.446 288.642 716.561 304.808 713.591 316.97C711.075 329.214 710.924 347.294 726.542 352.777C726.542 352.777 726.542 352.777 726.542 352.777C739.611 354.649 747.048 342.584 750.359 333.158C751.21 330.641 751.828 328.066 752.23 325.464ZM750.765 325.142L752.23 325.464L750.765 325.142Z" fill="#010414"/>
<path d="M797.303 348.604C807.494 349.109 816.424 336.017 817.248 319.364C818.073 302.71 810.479 288.801 800.288 288.296C790.097 287.792 781.168 300.883 780.343 317.537C779.519 334.191 787.112 348.1 797.303 348.604Z" fill="#F5F6FB"/>
<path d="M817.997 319.401C817.498 319.376 816.999 319.351 816.499 319.327C816.206 321.866 815.737 324.364 815.083 326.799C812.611 336.135 806.425 346.792 797.402 346.607C797.402 346.607 797.402 346.607 797.402 346.607C785.948 345.208 781.631 329.367 782.202 317.629C782.675 305.903 788.05 290.333 800.217 289.739C809.851 290.42 814.889 302.125 816.115 311.718C816.446 314.232 816.57 316.776 816.499 319.327C816.999 319.351 817.498 319.376 817.997 319.401C818.183 316.779 818.165 314.143 817.926 311.517C816.895 301.611 812.824 288.505 800.36 286.854C784.481 287.706 779.392 304.958 778.485 317.445C778.038 329.937 780.892 347.79 797.204 350.602C797.204 350.602 797.204 350.602 797.204 350.602C810.402 350.277 815.731 337.144 817.431 327.299C817.852 324.676 818.034 322.033 817.997 319.401ZM816.499 319.327L817.997 319.401L816.499 319.327Z" fill="#010414"/>
<path d="M733.277 337.172C732.236 336.994 730.719 335.841 729.66 332.54C728.65 329.395 728.35 325.026 729.175 320.233C729.999 315.44 731.74 311.423 733.742 308.796C735.844 306.038 737.658 305.459 738.699 305.638C739.739 305.817 741.255 306.969 742.315 310.27C743.324 313.415 743.624 317.783 742.8 322.576C741.976 327.369 740.234 331.387 738.232 334.014C736.131 336.772 734.317 337.351 733.277 337.172Z" fill="black" stroke="black" stroke-width="6"/>
<path d="M797.364 336.478C796.319 336.328 794.771 335.218 793.622 331.947C792.526 328.83 792.107 324.472 792.8 319.658C793.493 314.844 795.123 310.781 797.053 308.1C799.078 305.286 800.876 304.657 801.921 304.807C802.966 304.958 804.513 306.068 805.663 309.339C806.758 312.455 807.177 316.813 806.484 321.627C805.792 326.441 804.161 330.504 802.231 333.186C800.206 335.999 798.409 336.629 797.364 336.478Z" fill="black" stroke="black" stroke-width="6"/>
<path d="M735.891 303.591C734.059 303.298 732.184 305.487 731.705 308.482C731.225 311.477 732.322 314.142 734.155 314.435C735.987 314.729 737.861 312.539 738.341 309.545C738.82 306.55 737.724 303.885 735.891 303.591Z" fill="#F5F6FB" stroke="#F5F6FB" stroke-width="6" stroke-miterlimit="10"/>
<path d="M806.162 302.395C804.323 302.151 802.509 304.392 802.112 307.398C801.714 310.405 802.884 313.039 804.723 313.282C806.563 313.526 808.377 311.285 808.774 308.279C809.172 305.272 808.002 302.638 806.162 302.395Z" fill="#F5F6FB" stroke="#F5F6FB" stroke-width="6" stroke-miterlimit="10"/>
<path d="M762.29 358H774.574L772.117 376.827L789.178 368.857L793 380.401L774.437 383.974L787.404 397.716L777.44 405L768.432 388.371L759.423 405L749.596 397.716L762.426 383.974L744 380.401L747.685 368.857L764.61 376.965L762.29 358Z" fill="black"/>
<path d="M659.498 306.828C689.045 306.828 712.998 329.438 712.998 357.328C712.998 385.219 689.045 407.828 659.498 407.828C629.951 407.828 605.998 385.219 605.998 357.328C605.998 329.438 629.951 306.828 659.498 306.828ZM659.498 333.828C645.967 333.828 634.998 344.349 634.998 357.328C634.998 370.307 645.967 380.828 659.498 380.828C673.029 380.828 683.998 370.307 683.998 357.328C683.998 344.349 673.029 333.828 659.498 333.828Z" fill="#F5F6FB"/>
<path d="M562.498 289.828L532.498 283.828L513.998 377.328L542.498 383.328L548.998 351.828L568.998 390.328L604.998 396.828L575.498 339.328L620.998 302.328L586.498 294.328L556.498 319.328L562.498 289.828Z" fill="#F5F6FB"/>
<path d="M535.318 286.453L517.494 376.348L540.862 380.982L548.593 341.995L571.265 387.01L601.548 393.014L571.946 337.951L616.033 302.456L587.181 296.736L551.335 328.165L558.687 291.086L535.318 286.453ZM560.184 312.828L585.536 290.601L629.113 299.241L579.205 339.422L612.284 400.951L567.428 392.057L550.958 359.358L545.343 387.678L510.798 380.829L530.838 279.756L565.383 286.605L560.184 312.828Z" fill="#050131"/>
<path d="M493.811 278.225L439.849 324.773L450.771 269.691L427.402 265.058L409.578 354.954L432.946 359.587L486.885 313.158L475.987 368.121L499.355 372.754L517.179 282.859L493.811 278.225ZM503.836 379.451L469.29 372.602L478.084 328.25L434.56 365.715L402.882 359.434L422.922 258.361L457.467 265.211L448.656 309.651L492.193 272.096L523.876 278.378L503.836 379.451Z" fill="#050131"/>
<path d="M395.359 331.564L367.58 326.055L370.653 310.556L396.882 315.757L400.807 295.966L374.577 290.765L377.555 275.743L405.335 281.251L409.259 261.459L358.111 251.318L340.287 341.214L391.435 351.355L395.359 331.564ZM409.816 287.948L382.036 282.439L381.274 286.284L407.503 291.485L401.363 322.454L375.133 317.253L374.276 321.575L402.056 327.083L395.916 358.052L333.591 345.694L353.631 244.621L415.956 256.979L409.816 287.948Z" fill="#050131"/>
<path d="M277.264 300.25L285.679 257.806L312.625 263.149L298.725 333.253L322.093 337.887L339.917 247.991L266.355 233.405L254.086 295.283C252.715 302.198 249.764 305.206 245.233 304.308C244.836 304.229 244.487 304.119 244.185 303.976L240.166 324.245L241.954 324.6C246.485 325.498 250.688 325.546 254.564 324.745C258.258 324.083 261.573 322.766 264.51 320.792L265.093 320.389C267.98 318.328 270.426 315.745 272.431 312.638L272.826 312.01C274.902 308.622 276.381 304.701 277.264 300.25ZM326.574 344.583L292.028 337.734L305.928 267.63L290.16 264.503L282.853 301.358C281.857 306.378 280.158 310.947 277.684 314.986C275.229 318.992 272.136 322.362 268.403 325.026C264.597 327.743 260.29 329.508 255.569 330.354L255.568 330.353C250.877 331.299 245.946 331.2 240.846 330.188L233.469 328.726L235.074 320.633L235.297 320.677L235.128 320.361L240.015 295.71L246.419 298.731C246.579 298.759 246.684 298.765 246.746 298.764C246.754 298.756 246.765 298.747 246.777 298.736C247.112 298.394 247.897 297.2 248.497 294.175L261.874 226.709L346.614 243.51L326.574 344.583Z" fill="#050131"/>
<path d="M154.153 210.299L136.191 300.892L159.444 305.503L167.234 266.213L189.697 311.501L219.831 317.476L190.494 262.084L234.471 226.224L205.761 220.532L169.998 252.276L177.407 214.91L154.153 210.299ZM178.845 236.806L204.138 214.356L247.501 222.954L197.717 263.547L225.624 316.239L230.5 325.445L185.865 316.595L169.548 283.697L163.889 312.238L129.513 305.422L149.709 203.564L184.085 210.38L178.845 236.806Z" fill="#050131"/>
<path d="M471.549 229.376L471.662 233.938C471.705 235.711 472.166 236.543 472.561 236.99C472.99 237.475 473.912 238.147 475.981 238.557L474.873 244.146L474.338 244.031C468.888 242.783 466.098 239.465 465.965 234.077L450.824 231.075C449.929 237.671 451.344 243.239 455.07 247.778C458.834 252.205 464.356 255.199 471.634 256.757L472.344 256.903C480.212 258.463 486.695 257.848 491.792 255.059C497.143 252.237 500.616 247.639 502.21 241.264L487.069 238.261C484.82 243.35 480.755 245.312 474.873 244.146L475.981 238.557C478.106 238.978 479.254 238.709 479.857 238.418C480.406 238.153 481.148 237.564 481.857 235.959L483.7 231.785L509.19 236.839L507.737 242.646C505.787 250.44 501.367 256.451 494.45 260.099L494.449 260.098C487.818 263.697 479.885 264.207 471.235 262.492C462.722 260.804 455.666 257.275 450.729 251.468L450.667 251.393C445.797 245.461 444.101 238.244 445.178 230.309L445.992 224.309L471.549 229.376Z" fill="#050131"/>
<path d="M708.729 367.552C710.052 360.875 710.05 354.431 708.721 348.22C707.407 341.929 704.951 336.196 701.351 331.021C697.83 325.862 693.245 321.484 687.598 317.886C681.967 314.208 675.534 311.653 668.301 310.219C660.989 308.769 654.028 308.669 647.419 309.919C640.906 311.106 635.038 313.412 629.816 316.837L629.328 317.161C624.317 320.537 620.061 324.799 616.559 329.947C612.96 335.181 610.499 341.136 609.176 347.813L609.055 348.439C607.853 354.895 607.888 361.17 609.16 367.264C610.489 373.475 612.915 379.16 616.436 384.319C619.956 389.478 624.492 393.888 630.044 397.55C635.515 401.036 641.768 403.514 648.802 404.984L649.484 405.123C656.717 406.557 663.63 406.687 670.223 405.516C676.832 404.266 682.748 401.928 687.971 398.503C693.273 395.093 697.723 390.771 701.322 385.537C704.823 380.39 707.249 374.603 708.601 368.176L708.729 367.552ZM678.699 361.598C679.265 358.743 679.228 356.124 678.669 353.679C678.084 351.121 677.048 348.83 675.556 346.758L675.5 346.679C674.088 344.647 672.29 342.927 670.049 341.513L669.973 341.465L669.899 341.415C667.787 339.988 665.407 338.997 662.701 338.46C659.996 337.924 657.36 337.92 654.751 338.432L654.713 338.439L654.676 338.446C652.144 338.907 649.845 339.815 647.735 341.174C645.621 342.535 643.798 344.281 642.255 346.459C640.805 348.506 639.772 350.912 639.206 353.767C638.64 356.622 638.677 359.241 639.236 361.686C639.831 364.288 640.85 366.597 642.285 368.662C643.722 370.731 645.505 372.495 647.671 373.971C649.906 375.368 652.363 376.341 655.084 376.881L653.976 382.469L653.338 382.336C650.167 381.634 647.238 380.437 644.554 378.743C641.958 376.989 639.761 374.878 637.96 372.411L637.606 371.913C635.859 369.398 634.6 366.617 633.829 363.569L633.682 362.957C632.976 359.874 632.914 356.664 633.493 353.328L633.617 352.659C634.282 349.306 635.492 346.315 637.247 343.686L637.606 343.165C639.434 340.585 641.613 338.437 644.141 336.721L644.651 336.384C647.397 334.615 650.398 333.434 653.655 332.841C657.007 332.184 660.392 332.194 663.81 332.872L664.447 333.006C667.613 333.711 670.494 334.94 673.089 336.694C675.952 338.501 678.316 340.746 680.18 343.428C682.123 346.126 683.47 349.12 684.223 352.408C684.975 355.696 684.997 359.129 684.288 362.706L684.148 363.372C683.41 366.677 682.127 369.619 680.299 372.2L679.928 372.709C678.048 375.231 675.784 377.314 673.135 378.958L672.617 379.282C670.007 380.875 667.13 381.98 663.988 382.596C660.731 383.189 657.393 383.147 653.976 382.469L655.084 376.881C657.826 377.425 660.432 377.448 662.939 376.995C665.597 376.468 667.95 375.52 670.05 374.167L670.091 374.141L670.132 374.116C672.302 372.77 674.133 371.047 675.65 368.906C677.1 366.859 678.133 364.452 678.699 361.598ZM714.317 368.66C712.854 376.042 710.102 382.759 706.032 388.742L706.016 388.765C701.992 394.618 696.996 399.474 691.052 403.295L691.052 403.294C685.166 407.146 678.553 409.74 671.283 411.115L671.251 411.121L671.22 411.126C663.863 412.433 656.233 412.269 648.376 410.711C640.448 409.139 633.291 406.374 626.983 402.355L626.945 402.332L626.908 402.306C620.778 398.264 615.694 393.341 611.729 387.531C607.785 381.751 605.07 375.378 603.589 368.456L603.583 368.429C602.104 361.345 602.123 354.087 603.587 346.705C605.05 339.323 607.796 332.636 611.864 326.719C615.885 320.814 620.831 315.916 626.69 312.073C632.578 308.212 639.157 305.639 646.361 304.322L647.055 304.195C654.241 302.931 661.708 303.103 669.409 304.63C677.288 306.192 684.415 309.003 690.714 313.116L690.713 313.116C696.924 317.082 702.057 321.962 706.028 327.768L706.403 328.315C710.24 333.98 712.869 340.232 714.292 347.027L714.429 347.686C715.793 354.501 715.735 361.509 714.317 368.66Z" fill="#050131"/>
<path d="M842.141 408.248L833.641 311.248L859.141 303.748L886.641 339.748L891.141 295.248L918.141 287.248L959.141 377.248L931.641 384.748L912.641 343.748L906.641 390.748L893.141 394.248L865.141 356.248L869.641 400.748L842.141 408.248Z" fill="#F5F6FB"/>
<path d="M1288.38 241.813C1286.65 235.221 1283.83 229.42 1279.91 224.408C1275.98 219.318 1271.26 215.23 1265.75 212.145C1260.32 209.04 1254.28 207.103 1247.62 206.334C1240.94 205.487 1234.03 206.001 1226.89 207.874C1219.67 209.769 1213.35 212.725 1207.95 216.743C1202.6 220.662 1198.33 225.306 1195.13 230.676L1194.83 231.181C1191.79 236.414 1189.83 242.114 1188.92 248.282C1187.97 254.571 1188.36 261.011 1190.09 267.602L1190.26 268.218C1192 274.558 1194.78 280.194 1198.59 285.125C1202.51 290.137 1207.18 294.195 1212.61 297.3C1218.03 300.405 1224.05 302.391 1230.65 303.259C1237.1 304.004 1243.82 303.5 1250.8 301.745L1251.47 301.572C1258.61 299.698 1264.89 296.791 1270.32 292.851C1275.72 288.833 1280.03 284.139 1283.23 278.769C1286.51 273.378 1288.63 267.539 1289.58 261.251C1290.48 255.083 1290.13 248.81 1288.54 242.431L1288.38 241.813ZM1258.73 249.592C1257.99 246.774 1256.81 244.431 1255.24 242.474C1253.59 240.427 1251.66 238.817 1249.41 237.604L1249.32 237.557C1247.16 236.345 1244.79 235.584 1242.15 235.291L1242.07 235.281L1241.98 235.268C1239.45 234.907 1236.87 235.056 1234.2 235.757C1231.53 236.458 1229.16 237.608 1227.03 239.21L1227 239.234L1226.97 239.256C1224.89 240.78 1223.22 242.603 1221.91 244.75C1220.6 246.901 1219.73 249.271 1219.29 251.907C1218.88 254.385 1219 257.004 1219.74 259.823C1220.48 262.641 1221.66 264.984 1223.23 266.941C1224.91 269.023 1226.84 270.657 1229.03 271.889C1231.23 273.123 1233.61 273.931 1236.21 274.313C1238.83 274.593 1241.47 274.394 1244.15 273.689L1245.6 279.207L1244.97 279.365C1241.81 280.121 1238.65 280.324 1235.49 279.974C1232.38 279.53 1229.48 278.591 1226.78 277.157L1226.24 276.864C1223.57 275.364 1221.22 273.41 1219.19 271.003L1218.79 270.516C1216.8 268.048 1215.34 265.185 1214.41 261.928L1214.22 261.271C1213.36 257.96 1213.14 254.737 1213.57 251.602L1213.66 250.976C1214.18 247.852 1215.2 244.964 1216.73 242.313L1217.04 241.786C1218.74 238.992 1220.92 236.615 1223.6 234.655C1226.33 232.597 1229.38 231.125 1232.75 230.239L1233.39 230.081C1236.55 229.331 1239.68 229.177 1242.78 229.621C1246.15 229.995 1249.26 230.982 1252.12 232.582C1255.05 234.162 1257.57 236.268 1259.69 238.9C1261.8 241.532 1263.32 244.613 1264.25 248.144L1264.42 248.806C1265.2 252.104 1265.33 255.316 1264.81 258.44L1264.7 259.061C1264.11 262.154 1262.99 265.021 1261.32 267.66L1260.99 268.179C1259.34 270.756 1257.23 273.009 1254.67 274.939C1252 276.899 1248.98 278.321 1245.6 279.207L1244.15 273.689C1246.86 272.979 1249.22 271.859 1251.28 270.354C1253.44 268.717 1255.15 266.833 1256.45 264.696L1256.47 264.654L1256.5 264.614C1257.86 262.452 1258.76 260.099 1259.19 257.508C1259.6 255.03 1259.47 252.41 1258.73 249.592ZM1293.9 240.365C1295.81 247.654 1296.27 254.906 1295.23 262.075L1295.22 262.103C1294.16 269.134 1291.78 275.694 1288.1 281.736L1288.1 281.735C1284.49 287.78 1279.67 293.009 1273.72 297.429L1273.7 297.448L1273.67 297.467C1267.62 301.863 1260.68 305.054 1252.92 307.089C1245.09 309.143 1237.44 309.785 1230 308.926L1229.95 308.922L1229.91 308.915C1222.62 307.957 1215.89 305.748 1209.77 302.251C1203.69 298.773 1198.46 294.222 1194.1 288.637L1194.08 288.615C1189.65 282.883 1186.49 276.338 1184.58 269.05C1182.66 261.762 1182.21 254.539 1183.28 247.43C1184.32 240.354 1186.63 233.778 1190.23 227.753C1193.84 221.699 1198.64 216.504 1204.55 212.165L1205.12 211.747C1211.04 207.465 1217.83 204.352 1225.44 202.357C1233.22 200.316 1240.87 199.728 1248.34 200.676L1248.34 200.676C1255.67 201.53 1262.42 203.678 1268.54 207.169L1269.12 207.497C1275.05 210.919 1280.15 215.399 1284.41 220.896L1284.82 221.429C1289.03 226.969 1292.05 233.305 1293.9 240.365Z" fill="#050131"/>
<path d="M1097.19 244.548L1120.48 333.301L1143.55 327.248L1133.45 288.756L1173.56 319.372L1203.46 311.527L1152.71 274.896L1176.88 223.639L1148.39 231.113L1129.87 275.102L1120.26 238.495L1097.19 244.548ZM1131.12 257.419L1144.23 226.309L1187.25 215.02L1159.89 273.043L1216.6 313.977L1172.32 325.597L1143.18 303.357L1150.51 331.318L1116.41 340.267L1090.22 240.479L1124.33 231.53L1131.12 257.419Z" fill="#050131"/>
<path d="M1084.41 268.785L1079.29 249.245L1018.31 265.244L1023.44 284.784L1042.39 279.811L1060.55 349.024L1083.62 342.971L1065.46 273.758L1084.41 268.785ZM1091.38 272.855L1072.43 277.828L1090.59 347.04L1056.48 355.989L1038.32 286.777L1019.37 291.749L1011.35 261.174L1083.36 242.28L1091.38 272.855Z" fill="#050131"/>
<path d="M1018.57 339.154L991.146 346.35L987.131 331.049L1013.03 324.254L1007.9 304.714L982.004 311.509L978.113 296.677L1005.54 289.481L1000.41 269.941L949.915 283.191L973.202 371.944L1023.7 358.694L1018.57 339.154ZM1012.5 293.551L985.078 300.747L986.074 304.543L1011.97 297.749L1019.99 328.324L994.096 335.118L995.216 339.385L1022.64 332.189L1030.66 362.764L969.132 378.909L942.949 279.121L1004.48 262.976L1012.5 293.551Z" fill="#050131"/>
<path d="M1018.57 339.154L991.146 346.35L987.131 331.049L1013.03 324.254L1007.9 304.714L982.004 311.509L978.113 296.677L1005.54 289.481L1000.41 269.941L949.915 283.191L973.202 371.944L1023.7 358.694L1018.57 339.154Z" fill="white"/>
<path d="M860.906 300.648L884.576 334.092L888.685 293.36L920.011 285.14L963.133 380.484L928.894 389.467L914.06 354.893L908.745 394.754L892.089 399.124L869.098 367.454L873.071 404.114L838.831 413.099L829.589 308.866L860.906 300.648ZM835.696 313.161L843.917 405.867L866.87 399.844L861.118 346.751L894.414 392.617L903.596 390.208L911.144 333.624L932.199 382.703L955.152 376.68L916.798 291.881L893.963 297.872L888.722 349.825L858.532 307.169L835.696 313.161Z" fill="#050131"/>
<mask id="path-45-inside-11_802_1475" fill="white">
<path d="M916.508 189.447L970.13 144.072L978.19 153.597L927.494 196.496L949.756 222.805L1060.41 129.169L1041.99 107.396L1092.69 64.4971L1070.42 38.1883L1016.8 83.5635L1004.9 69.5022L894.246 163.138L916.508 189.447Z"/>
</mask>
<path d="M916.508 189.447L970.13 144.072L978.19 153.597L927.494 196.496L949.756 222.805L1060.41 129.169L1041.99 107.396L1092.69 64.4971L1070.42 38.1883L1016.8 83.5635L1004.9 69.5022L894.246 163.138L916.508 189.447Z" fill="#C0EFDB"/>
<path d="M916.508 189.447L920.383 194.027C917.854 196.168 914.068 195.852 911.927 193.323L916.508 189.447ZM970.13 144.072L966.255 139.492C967.469 138.464 969.043 137.961 970.628 138.093C972.214 138.225 973.683 138.982 974.71 140.197L970.13 144.072ZM978.19 153.597L982.77 149.722C984.911 152.251 984.596 156.037 982.066 158.178L978.19 153.597ZM927.494 196.496L922.913 200.372C921.885 199.157 921.382 197.584 921.514 195.998C921.646 194.412 922.403 192.944 923.618 191.916L927.494 196.496ZM949.756 222.805L953.631 227.385C951.102 229.526 947.316 229.21 945.175 226.681L949.756 222.805ZM1060.41 129.169L1064.99 125.293C1067.13 127.823 1066.82 131.609 1064.29 133.749L1060.41 129.169ZM1041.99 107.396L1037.41 111.272C1035.27 108.743 1035.58 104.957 1038.11 102.816L1041.99 107.396ZM1092.69 64.4971L1097.27 60.6214C1099.41 63.151 1099.09 66.9368 1096.56 69.0774L1092.69 64.4971ZM1070.42 38.1883L1066.55 33.608C1069.08 31.4675 1072.86 31.7829 1075 34.3125L1070.42 38.1883ZM1016.8 83.5635L1020.68 88.1438C1018.15 90.2843 1014.36 89.9688 1012.22 87.4392L1016.8 83.5635ZM1004.9 69.5022L1001.03 64.922C1003.56 62.7814 1007.34 63.0969 1009.48 65.6265L1004.9 69.5022ZM894.246 163.138L889.665 167.014C888.637 165.799 888.134 164.226 888.266 162.64C888.398 161.054 889.155 159.586 890.37 158.558L894.246 163.138ZM916.508 189.447L912.632 184.867L966.255 139.492L970.13 144.072L974.006 148.653L920.383 194.027L916.508 189.447ZM970.13 144.072L974.71 140.197L982.77 149.722L978.19 153.597L973.61 157.473L965.55 147.948L970.13 144.072ZM978.19 153.597L982.066 158.178L931.369 201.076L927.494 196.496L923.618 191.916L974.314 149.017L978.19 153.597ZM927.494 196.496L932.074 192.62L954.336 218.929L949.756 222.805L945.175 226.681L922.913 200.372L927.494 196.496ZM949.756 222.805L945.88 218.225L1056.54 124.589L1060.41 129.169L1064.29 133.749L953.631 227.385L949.756 222.805ZM1060.41 129.169L1055.83 133.045L1037.41 111.272L1041.99 107.396L1046.57 103.521L1064.99 125.293L1060.41 129.169ZM1041.99 107.396L1038.11 102.816L1088.81 59.9169L1092.69 64.4971L1096.56 69.0774L1045.86 111.977L1041.99 107.396ZM1092.69 64.4971L1088.11 68.3728L1065.84 42.064L1070.42 38.1883L1075 34.3125L1097.27 60.6214L1092.69 64.4971ZM1070.42 38.1883L1074.3 42.7685L1020.68 88.1438L1016.8 83.5635L1012.92 78.9833L1066.55 33.608L1070.42 38.1883ZM1016.8 83.5635L1012.22 87.4392L1000.32 73.3779L1004.9 69.5022L1009.48 65.6265L1021.38 79.6878L1016.8 83.5635ZM1004.9 69.5022L1008.78 74.0825L898.121 167.718L894.246 163.138L890.37 158.558L1001.03 64.922L1004.9 69.5022ZM894.246 163.138L898.826 159.262L921.088 185.571L916.508 189.447L911.927 193.323L889.665 167.014L894.246 163.138Z" fill="#C0EFDB" mask="url(#path-45-inside-11_802_1475)"/>
<mask id="path-47-inside-12_802_1475" fill="white">
<path d="M432.746 43.3515L378.436 17.1805L362.948 49.322L454.94 93.652L443.991 116.372L569.786 176.991L580.736 154.269L604.011 165.485L619.499 133.345L558.541 103.97L566.819 86.7909L441.024 26.1719L432.746 43.3515Z"/>
</mask>
<path d="M432.746 43.3515L378.436 17.1805L362.948 49.322L454.94 93.652L443.991 116.372L569.786 176.991L580.736 154.269L604.011 165.485L619.499 133.345L558.541 103.97L566.819 86.7909L441.024 26.1719L432.746 43.3515Z" fill="#FFAD64"/>
<path d="M432.746 43.3515L438.151 45.9562C437.46 47.3898 436.228 48.4902 434.726 49.0154C433.224 49.5405 431.574 49.4475 430.141 48.7567L432.746 43.3515ZM378.436 17.1805L373.031 14.5759C374.47 11.5907 378.056 10.3369 381.041 11.7754L378.436 17.1805ZM362.948 49.322L360.343 54.7272C357.358 53.2886 356.104 49.7025 357.543 46.7173L362.948 49.322ZM454.94 93.652L457.545 88.2468C460.53 89.6854 461.784 93.2715 460.345 96.2567L454.94 93.652ZM443.991 116.372L441.387 121.777C438.402 120.339 437.148 116.753 438.586 113.768L443.991 116.372ZM569.786 176.991L575.191 179.596C573.753 182.581 570.167 183.835 567.181 182.396L569.786 176.991ZM580.736 154.269L575.33 151.665C576.769 148.679 580.355 147.426 583.34 148.864L580.736 154.269ZM604.011 165.485L609.416 168.09C607.978 171.075 604.391 172.329 601.406 170.891L604.011 165.485ZM619.499 133.345L622.104 127.94C625.089 129.378 626.343 132.964 624.904 135.949L619.499 133.345ZM558.541 103.97L555.936 109.375C552.951 107.936 551.697 104.35 553.136 101.365L558.541 103.97ZM566.819 86.7909L569.424 81.3857C572.409 82.8243 573.663 86.4104 572.224 89.3956L566.819 86.7909ZM441.024 26.1719L435.619 23.5672C436.31 22.1337 437.542 21.0333 439.044 20.5081C440.546 19.9829 442.195 20.0759 443.629 20.7667L441.024 26.1719ZM432.746 43.3515L430.141 48.7567L375.832 22.5857L378.436 17.1805L381.041 11.7754L435.35 37.9464L432.746 43.3515ZM378.436 17.1805L383.842 19.7852L368.353 51.9267L362.948 49.322L357.543 46.7173L373.031 14.5759L378.436 17.1805ZM362.948 49.322L365.552 43.9169L457.545 88.2468L454.94 93.652L452.335 99.0571L360.343 54.7272L362.948 49.322ZM454.94 93.652L460.345 96.2567L449.397 118.977L443.991 116.372L438.586 113.768L449.535 91.0473L454.94 93.652ZM443.991 116.372L446.596 110.967L572.391 171.586L569.786 176.991L567.181 182.396L441.387 121.777L443.991 116.372ZM569.786 176.991L564.381 174.387L575.33 151.665L580.736 154.269L586.141 156.874L575.191 179.596L569.786 176.991ZM580.736 154.269L583.34 148.864L606.616 160.08L604.011 165.485L601.406 170.891L578.131 159.674L580.736 154.269ZM604.011 165.485L598.606 162.881L614.094 130.74L619.499 133.345L624.904 135.949L609.416 168.09L604.011 165.485ZM619.499 133.345L616.894 138.75L555.936 109.375L558.541 103.97L561.145 98.5645L622.104 127.94L619.499 133.345ZM558.541 103.97L553.136 101.365L561.414 84.1862L566.819 86.7909L572.224 89.3956L563.946 106.574L558.541 103.97ZM566.819 86.7909L564.214 92.196L438.42 31.577L441.024 26.1719L443.629 20.7667L569.424 81.3857L566.819 86.7909ZM441.024 26.1719L446.429 28.7766L438.151 45.9562L432.746 43.3515L427.34 40.7469L435.619 23.5672L441.024 26.1719Z" fill="#FFAD64" mask="url(#path-47-inside-12_802_1475)"/>
<mask id="path-49-inside-13_802_1475" fill="white">
<path d="M1107.84 393.663L1169.66 421.173L1166.16 429.042L1142.55 418.538L1133.28 439.388L1063.45 408.315L1051 436.298L1178.39 492.988L1185.62 476.753L1255.63 507.908L1265.88 484.865L1289.48 495.368L1303.99 462.772L1242.17 435.261L1249.92 417.839L1122.35 361.066L1107.84 393.663Z"/>
</mask>
<path d="M1107.84 393.663L1169.66 421.173L1166.16 429.042L1142.55 418.538L1133.28 439.388L1063.45 408.315L1051 436.298L1178.39 492.988L1185.62 476.753L1255.63 507.908L1265.88 484.865L1289.48 495.368L1303.99 462.772L1242.17 435.261L1249.92 417.839L1122.35 361.066L1107.84 393.663Z" fill="#C3BEF8"/>
<path d="M1107.84 393.663L1105.4 399.145C1102.37 397.797 1101.01 394.251 1102.36 391.224L1107.84 393.663ZM1169.66 421.173L1172.1 415.692C1175.13 417.039 1176.49 420.585 1175.14 423.613L1169.66 421.173ZM1166.16 429.042L1171.64 431.481C1170.29 434.509 1166.75 435.871 1163.72 434.523L1166.16 429.042ZM1142.55 418.538L1137.07 416.098C1137.72 414.645 1138.92 413.507 1140.4 412.937C1141.89 412.366 1143.54 412.409 1144.99 413.056L1142.55 418.538ZM1133.28 439.388L1138.76 441.827C1138.11 443.281 1136.91 444.418 1135.43 444.989C1133.94 445.56 1132.29 445.517 1130.84 444.87L1133.28 439.388ZM1063.45 408.315L1057.97 405.876C1058.62 404.422 1059.82 403.285 1061.3 402.714C1062.79 402.144 1064.44 402.187 1065.89 402.834L1063.45 408.315ZM1051 436.298L1048.56 441.779C1045.53 440.432 1044.17 436.886 1045.52 433.858L1051 436.298ZM1178.39 492.988L1183.87 495.428C1182.53 498.455 1178.98 499.817 1175.95 498.47L1178.39 492.988ZM1185.62 476.753L1180.14 474.314C1181.48 471.286 1185.03 469.924 1188.06 471.271L1185.62 476.753ZM1255.63 507.908L1261.11 510.347C1259.76 513.375 1256.21 514.737 1253.19 513.389L1255.63 507.908ZM1265.88 484.865L1260.4 482.425C1261.05 480.971 1262.24 479.834 1263.73 479.264C1265.21 478.693 1266.87 478.736 1268.32 479.383L1265.88 484.865ZM1289.48 495.368L1294.96 497.808C1293.62 500.835 1290.07 502.197 1287.04 500.85L1289.48 495.368ZM1303.99 462.772L1306.43 457.29C1307.88 457.937 1309.02 459.135 1309.59 460.62C1310.16 462.106 1310.12 463.757 1309.47 465.211L1303.99 462.772ZM1242.17 435.261L1239.73 440.743C1236.7 439.396 1235.34 435.849 1236.69 432.822L1242.17 435.261ZM1249.92 417.839L1252.36 412.358C1255.39 413.705 1256.75 417.251 1255.4 420.279L1249.92 417.839ZM1122.35 361.066L1116.86 358.627C1117.51 357.173 1118.71 356.036 1120.2 355.465C1121.68 354.895 1123.33 354.938 1124.79 355.585L1122.35 361.066ZM1107.84 393.663L1110.28 388.181L1172.1 415.692L1169.66 421.173L1167.22 426.655L1105.4 399.145L1107.84 393.663ZM1169.66 421.173L1175.14 423.613L1171.64 431.481L1166.16 429.042L1160.68 426.602L1164.18 418.734L1169.66 421.173ZM1166.16 429.042L1163.72 434.523L1140.12 424.02L1142.55 418.538L1144.99 413.056L1168.6 423.56L1166.16 429.042ZM1142.55 418.538L1148.04 420.977L1138.76 441.827L1133.28 439.388L1127.79 436.948L1137.07 416.098L1142.55 418.538ZM1133.28 439.388L1130.84 444.87L1061.01 413.797L1063.45 408.315L1065.89 402.834L1135.72 433.906L1133.28 439.388ZM1063.45 408.315L1068.93 410.755L1056.48 438.737L1051 436.298L1045.52 433.858L1057.97 405.876L1063.45 408.315ZM1051 436.298L1053.44 430.816L1180.83 487.507L1178.39 492.988L1175.95 498.47L1048.56 441.779L1051 436.298ZM1178.39 492.988L1172.91 490.549L1180.14 474.314L1185.62 476.753L1191.1 479.192L1183.87 495.428L1178.39 492.988ZM1185.62 476.753L1188.06 471.271L1258.06 502.426L1255.63 507.908L1253.19 513.389L1183.18 482.235L1185.62 476.753ZM1255.63 507.908L1250.14 505.468L1260.4 482.425L1265.88 484.865L1271.36 487.304L1261.11 510.347L1255.63 507.908ZM1265.88 484.865L1268.32 479.383L1291.92 489.887L1289.48 495.368L1287.04 500.85L1263.44 490.346L1265.88 484.865ZM1289.48 495.368L1284 492.929L1298.51 460.332L1303.99 462.772L1309.47 465.211L1294.96 497.808L1289.48 495.368ZM1303.99 462.772L1301.55 468.253L1239.73 440.743L1242.17 435.261L1244.61 429.78L1306.43 457.29L1303.99 462.772ZM1242.17 435.261L1236.69 432.822L1244.44 415.4L1249.92 417.839L1255.4 420.279L1247.65 437.701L1242.17 435.261ZM1249.92 417.839L1247.48 423.321L1119.91 366.548L1122.35 361.066L1124.79 355.585L1252.36 412.358L1249.92 417.839ZM1122.35 361.066L1127.83 363.506L1113.32 396.102L1107.84 393.663L1102.36 391.224L1116.86 358.627L1122.35 361.066Z" fill="#C3BEF8" mask="url(#path-49-inside-13_802_1475)"/>
<mask id="path-51-inside-14_802_1475" fill="white">
<path d="M1139.99 574.577L1081.14 587.652L1088.88 622.482L1188.56 600.334L1194.03 624.955L1330.34 594.669L1324.87 570.049L1350.1 564.445L1342.36 529.615L1276.3 544.291L1272.17 525.676L1135.85 555.962L1139.99 574.577Z"/>
</mask>
<path d="M1139.99 574.577L1081.14 587.652L1088.88 622.482L1188.56 600.334L1194.03 624.955L1330.34 594.669L1324.87 570.049L1350.1 564.445L1342.36 529.615L1276.3 544.291L1272.17 525.676L1135.85 555.962L1139.99 574.577Z" fill="#FFAD64"/>
<path d="M1139.99 574.577L1145.85 573.276C1146.19 574.829 1145.9 576.456 1145.05 577.799C1144.2 579.141 1142.84 580.089 1141.29 580.434L1139.99 574.577ZM1081.14 587.652L1075.28 588.954C1074.56 585.719 1076.6 582.514 1079.84 581.795L1081.14 587.652ZM1088.88 622.482L1090.18 628.339C1086.94 629.058 1083.74 627.018 1083.02 623.783L1088.88 622.482ZM1188.56 600.334L1187.26 594.477C1190.49 593.758 1193.7 595.798 1194.42 599.033L1188.56 600.334ZM1194.03 624.955L1195.33 630.812C1192.1 631.531 1188.89 629.491 1188.17 626.256L1194.03 624.955ZM1330.34 594.669L1336.2 593.368C1336.92 596.602 1334.88 599.807 1331.65 600.526L1330.34 594.669ZM1324.87 570.049L1319.02 571.35C1318.3 568.115 1320.34 564.91 1323.57 564.191L1324.87 570.049ZM1350.1 564.445L1355.95 563.144C1356.67 566.378 1354.63 569.583 1351.4 570.302L1350.1 564.445ZM1342.36 529.615L1341.06 523.758C1342.61 523.413 1344.24 523.699 1345.58 524.554C1346.92 525.408 1347.87 526.761 1348.22 528.314L1342.36 529.615ZM1276.3 544.291L1277.6 550.148C1276.05 550.494 1274.42 550.207 1273.08 549.353C1271.74 548.499 1270.79 547.146 1270.45 545.593L1276.3 544.291ZM1272.17 525.676L1270.87 519.819C1272.42 519.474 1274.05 519.76 1275.39 520.614C1276.73 521.468 1277.68 522.821 1278.02 524.375L1272.17 525.676ZM1135.85 555.962L1130 557.263C1129.65 555.709 1129.94 554.083 1130.79 552.74C1131.65 551.398 1133 550.45 1134.55 550.104L1135.85 555.962ZM1139.99 574.577L1141.29 580.434L1082.44 593.509L1081.14 587.652L1079.84 581.795L1138.69 568.72L1139.99 574.577ZM1081.14 587.652L1086.99 586.351L1094.73 621.18L1088.88 622.482L1083.02 623.783L1075.28 588.954L1081.14 587.652ZM1088.88 622.482L1087.57 616.625L1187.26 594.477L1188.56 600.334L1189.86 606.191L1090.18 628.339L1088.88 622.482ZM1188.56 600.334L1194.42 599.033L1199.89 623.653L1194.03 624.955L1188.17 626.256L1182.7 601.636L1188.56 600.334ZM1194.03 624.955L1192.73 619.097L1329.04 588.812L1330.34 594.669L1331.65 600.526L1195.33 630.812L1194.03 624.955ZM1330.34 594.669L1324.49 595.97L1319.02 571.35L1324.87 570.049L1330.73 568.747L1336.2 593.368L1330.34 594.669ZM1324.87 570.049L1323.57 564.191L1348.8 558.588L1350.1 564.445L1351.4 570.302L1326.18 575.906L1324.87 570.049ZM1350.1 564.445L1344.24 565.746L1336.5 530.917L1342.36 529.615L1348.22 528.314L1355.95 563.144L1350.1 564.445ZM1342.36 529.615L1343.66 535.473L1277.6 550.148L1276.3 544.291L1275 538.434L1341.06 523.758L1342.36 529.615ZM1276.3 544.291L1270.45 545.593L1266.31 526.977L1272.17 525.676L1278.02 524.375L1282.16 542.99L1276.3 544.291ZM1272.17 525.676L1273.47 531.533L1137.15 561.819L1135.85 555.962L1134.55 550.104L1270.87 519.819L1272.17 525.676ZM1135.85 555.962L1141.71 554.66L1145.85 573.276L1139.99 574.577L1134.13 575.878L1130 557.263L1135.85 555.962Z" fill="#FFAD64" mask="url(#path-51-inside-14_802_1475)"/>
<mask id="path-53-inside-15_802_1475" fill="white">
<path d="M-44.6854 331.996L25.2333 325.242L26.433 337.661L-39.6724 344.047L-36.3587 378.351L107.927 364.414L105.184 336.024L171.29 329.639L167.976 295.335L98.0584 302.088L96.2874 283.754L-47.9991 297.691L-44.6854 331.996Z"/>
</mask>
<path d="M-44.6854 331.996L25.2333 325.242L26.433 337.661L-39.6724 344.047L-36.3587 378.351L107.927 364.414L105.184 336.024L171.29 329.639L167.976 295.335L98.0584 302.088L96.2874 283.754L-47.9991 297.691L-44.6854 331.996Z" fill="#C0EFDB"/>
<path d="M-44.6854 331.996L-44.1085 337.968C-47.4069 338.286 -50.339 335.871 -50.6576 332.572L-44.6854 331.996ZM25.2333 325.242L24.6564 319.269C27.9548 318.951 30.8869 321.366 31.2055 324.665L25.2333 325.242ZM26.433 337.661L32.4052 337.085C32.5582 338.668 32.0757 340.248 31.0639 341.476C30.0521 342.705 28.5938 343.481 27.0099 343.634L26.433 337.661ZM-39.6724 344.047L-45.6446 344.624C-45.9632 341.325 -43.5476 338.393 -40.2493 338.075L-39.6724 344.047ZM-36.3587 378.351L-35.7818 384.323C-37.3658 384.476 -38.9456 383.994 -40.1738 382.982C-41.402 381.97 -42.1779 380.512 -42.3309 378.928L-36.3587 378.351ZM107.927 364.414L113.899 363.837C114.052 365.421 113.569 367.001 112.558 368.229C111.546 369.457 110.088 370.233 108.504 370.386L107.927 364.414ZM105.184 336.024L99.2122 336.601C99.0592 335.017 99.5417 333.437 100.554 332.209C101.565 330.981 103.024 330.205 104.608 330.052L105.184 336.024ZM171.29 329.639L177.262 329.062C177.581 332.36 175.165 335.292 171.867 335.611L171.29 329.639ZM167.976 295.335L167.399 289.362C170.698 289.044 173.63 291.459 173.948 294.758L167.976 295.335ZM98.0584 302.088L98.6353 308.061C95.3369 308.379 92.4048 305.964 92.0862 302.665L98.0584 302.088ZM96.2874 283.754L95.7105 277.782C97.2944 277.629 98.8742 278.111 100.102 279.123C101.331 280.135 102.107 281.593 102.26 283.177L96.2874 283.754ZM-47.9991 297.691L-53.9713 298.268C-54.1243 296.684 -53.6418 295.105 -52.63 293.876C-51.6182 292.648 -50.1599 291.872 -48.576 291.719L-47.9991 297.691ZM-44.6854 331.996L-45.2623 326.023L24.6564 319.269L25.2333 325.242L25.8102 331.214L-44.1085 337.968L-44.6854 331.996ZM25.2333 325.242L31.2055 324.665L32.4052 337.085L26.433 337.661L20.4608 338.238L19.2611 325.819L25.2333 325.242ZM26.433 337.661L27.0099 343.634L-39.0955 350.019L-39.6724 344.047L-40.2493 338.075L25.8561 331.689L26.433 337.661ZM-39.6724 344.047L-33.7002 343.47L-30.3865 377.774L-36.3587 378.351L-42.3309 378.928L-45.6446 344.624L-39.6724 344.047ZM-36.3587 378.351L-36.9356 372.379L107.35 358.441L107.927 364.414L108.504 370.386L-35.7818 384.323L-36.3587 378.351ZM107.927 364.414L101.955 364.991L99.2122 336.601L105.184 336.024L111.157 335.447L113.899 363.837L107.927 364.414ZM105.184 336.024L104.608 330.052L170.713 323.667L171.29 329.639L171.867 335.611L105.761 341.997L105.184 336.024ZM171.29 329.639L165.318 330.216L162.004 295.911L167.976 295.335L173.948 294.758L177.262 329.062L171.29 329.639ZM167.976 295.335L168.553 301.307L98.6353 308.061L98.0584 302.088L97.4815 296.116L167.399 289.362L167.976 295.335ZM98.0584 302.088L92.0862 302.665L90.3151 284.331L96.2874 283.754L102.26 283.177L104.031 301.511L98.0584 302.088ZM96.2874 283.754L96.8642 289.726L-47.4222 303.664L-47.9991 297.691L-48.576 291.719L95.7105 277.782L96.2874 283.754ZM-47.9991 297.691L-42.0269 297.114L-38.7132 331.419L-44.6854 331.996L-50.6576 332.572L-53.9713 298.268L-47.9991 297.691Z" fill="#C0EFDB" mask="url(#path-53-inside-15_802_1475)"/>
<mask id="path-55-inside-16_802_1475" fill="white">
<path d="M1494.08 265.708L1434.66 303.169L1428 292.613L1484.18 257.197L1465.8 228.043L1343.18 305.347L1358.39 329.475L1302.21 364.892L1320.59 394.045L1380.01 356.585L1389.83 372.167L1512.46 294.862L1494.08 265.708Z"/>
</mask>
<path d="M1494.08 265.708L1434.66 303.169L1428 292.613L1484.18 257.197L1465.8 228.043L1343.18 305.347L1358.39 329.475L1302.21 364.892L1320.59 394.045L1380.01 356.585L1389.83 372.167L1512.46 294.862L1494.08 265.708Z" fill="#C0EFDB"/>
<path d="M1494.08 265.708L1490.88 260.632C1493.68 258.865 1497.39 259.705 1499.15 262.508L1494.08 265.708ZM1434.66 303.169L1437.86 308.244C1436.51 309.093 1434.88 309.372 1433.33 309.02C1431.78 308.668 1430.43 307.714 1429.58 306.368L1434.66 303.169ZM1428 292.613L1422.93 295.813C1421.16 293.01 1422 289.305 1424.8 287.538L1428 292.613ZM1484.18 257.197L1489.26 253.997C1490.11 255.343 1490.39 256.971 1490.03 258.523C1489.68 260.075 1488.73 261.424 1487.38 262.273L1484.18 257.197ZM1465.8 228.043L1462.6 222.967C1465.41 221.2 1469.11 222.04 1470.88 224.843L1465.8 228.043ZM1343.18 305.347L1338.1 308.547C1336.34 305.744 1337.18 302.039 1339.98 300.272L1343.18 305.347ZM1358.39 329.475L1363.47 326.275C1365.23 329.079 1364.39 332.784 1361.59 334.551L1358.39 329.475ZM1302.21 364.892L1297.13 368.091C1295.37 365.288 1296.21 361.583 1299.01 359.816L1302.21 364.892ZM1320.59 394.045L1323.79 399.121C1322.44 399.969 1320.81 400.248 1319.26 399.897C1317.71 399.545 1316.36 398.591 1315.51 397.245L1320.59 394.045ZM1380.01 356.585L1376.81 351.509C1379.61 349.742 1383.32 350.582 1385.09 353.385L1380.01 356.585ZM1389.83 372.167L1393.03 377.242C1390.23 379.01 1386.52 378.17 1384.76 375.367L1389.83 372.167ZM1512.46 294.862L1517.53 291.662C1518.38 293.008 1518.66 294.637 1518.31 296.189C1517.96 297.74 1517 299.089 1515.66 299.938L1512.46 294.862ZM1494.08 265.708L1497.28 270.784L1437.86 308.244L1434.66 303.169L1431.46 298.093L1490.88 260.632L1494.08 265.708ZM1434.66 303.169L1429.58 306.368L1422.93 295.813L1428 292.613L1433.08 289.414L1439.73 299.969L1434.66 303.169ZM1428 292.613L1424.8 287.538L1480.98 252.121L1484.18 257.197L1487.38 262.273L1431.2 297.689L1428 292.613ZM1484.18 257.197L1479.11 260.397L1460.73 231.243L1465.8 228.043L1470.88 224.843L1489.26 253.997L1484.18 257.197ZM1465.8 228.043L1469 233.118L1346.38 310.423L1343.18 305.347L1339.98 300.272L1462.6 222.967L1465.8 228.043ZM1343.18 305.347L1348.25 302.147L1363.47 326.275L1358.39 329.475L1353.31 332.675L1338.1 308.547L1343.18 305.347ZM1358.39 329.475L1361.59 334.551L1305.41 369.967L1302.21 364.892L1299.01 359.816L1355.19 324.4L1358.39 329.475ZM1302.21 364.892L1307.29 361.692L1325.66 390.845L1320.59 394.045L1315.51 397.245L1297.13 368.091L1302.21 364.892ZM1320.59 394.045L1317.39 388.969L1376.81 351.509L1380.01 356.585L1383.21 361.66L1323.79 399.121L1320.59 394.045ZM1380.01 356.585L1385.09 353.385L1394.91 368.967L1389.83 372.167L1384.76 375.367L1374.93 359.785L1380.01 356.585ZM1389.83 372.167L1386.63 367.091L1509.26 289.787L1512.46 294.862L1515.66 299.938L1393.03 377.242L1389.83 372.167ZM1512.46 294.862L1507.38 298.062L1489 268.908L1494.08 265.708L1499.15 262.508L1517.53 291.662L1512.46 294.862Z" fill="#C0EFDB" mask="url(#path-55-inside-16_802_1475)"/>
<mask id="path-57-inside-17_802_1475" fill="white">
<path d="M154.17 418.682L202.194 401.934L206.342 413.829L206.789 413.673L212.909 431.223L315.83 395.331L305.224 364.916L351.44 348.799L338.668 312.173L242.092 345.852L242.031 345.679L140.998 380.912L154.17 418.682Z"/>
</mask>
<path d="M154.17 418.682L202.194 401.934L206.342 413.829L206.789 413.673L212.909 431.223L315.83 395.331L305.224 364.916L351.44 348.799L338.668 312.173L242.092 345.852L242.031 345.679L140.998 380.912L154.17 418.682Z" fill="#FF8BE4"/>
<path d="M154.17 418.682L156.145 424.347C153.017 425.438 149.595 423.786 148.504 420.657L154.17 418.682ZM202.194 401.934L200.218 396.269C203.347 395.178 206.768 396.83 207.859 399.958L202.194 401.934ZM206.342 413.829L208.318 419.495C205.189 420.586 201.768 418.934 200.676 415.805L206.342 413.829ZM206.789 413.673L204.813 408.008C207.942 406.917 211.363 408.569 212.454 411.698L206.789 413.673ZM212.909 431.223L214.885 436.888C211.756 437.979 208.335 436.327 207.244 433.198L212.909 431.223ZM315.83 395.331L321.496 393.355C322.587 396.484 320.935 399.905 317.806 400.996L315.83 395.331ZM305.224 364.916L299.558 366.892C298.467 363.763 300.119 360.342 303.248 359.251L305.224 364.916ZM351.44 348.799L357.106 346.824C358.197 349.952 356.545 353.373 353.416 354.465L351.44 348.799ZM338.668 312.173L336.692 306.508C339.821 305.417 343.242 307.069 344.333 310.198L338.668 312.173ZM242.092 345.852L244.067 351.518C242.565 352.042 240.916 351.947 239.483 351.256C238.05 350.564 236.95 349.331 236.426 347.828L242.092 345.852ZM242.031 345.679L240.055 340.014C241.558 339.49 243.207 339.584 244.64 340.276C246.073 340.968 247.173 342.201 247.697 343.703L242.031 345.679ZM140.998 380.912L135.333 382.888C134.242 379.759 135.894 376.338 139.023 375.247L140.998 380.912ZM154.17 418.682L152.194 413.016L200.218 396.269L202.194 401.934L204.169 407.6L156.145 424.347L154.17 418.682ZM202.194 401.934L207.859 399.958L212.007 411.854L206.342 413.829L200.676 415.805L196.528 403.91L202.194 401.934ZM206.342 413.829L204.366 408.164L204.813 408.008L206.789 413.673L208.765 419.339L208.318 419.495L206.342 413.829ZM206.789 413.673L212.454 411.698L218.574 429.247L212.909 431.223L207.244 433.198L201.124 415.649L206.789 413.673ZM212.909 431.223L210.933 425.557L313.855 389.666L315.83 395.331L317.806 400.996L214.885 436.888L212.909 431.223ZM315.83 395.331L310.165 397.307L299.558 366.892L305.224 364.916L310.889 362.941L321.496 393.355L315.83 395.331ZM305.224 364.916L303.248 359.251L349.465 343.134L351.44 348.799L353.416 354.465L307.2 370.582L305.224 364.916ZM351.44 348.799L345.775 350.775L333.002 314.149L338.668 312.173L344.333 310.198L357.106 346.824L351.44 348.799ZM338.668 312.173L340.644 317.839L244.067 351.518L242.092 345.852L240.116 340.187L336.692 306.508L338.668 312.173ZM242.092 345.852L236.426 347.828L236.366 347.655L242.031 345.679L247.697 343.703L247.757 343.877L242.092 345.852ZM242.031 345.679L244.007 351.345L142.974 386.578L140.998 380.912L139.023 375.247L240.055 340.014L242.031 345.679ZM140.998 380.912L146.664 378.937L159.835 416.706L154.17 418.682L148.504 420.657L135.333 382.888L140.998 380.912Z" fill="#FF8BE4" mask="url(#path-57-inside-17_802_1475)"/>
</svg>
