<svg width="607" height="578" viewBox="0 0 607 578" fill="none" xmlns="http://www.w3.org/2000/svg">
<mask id="path-1-outside-1_755_6274" maskUnits="userSpaceOnUse" x="-0.412109" y="-0.0800781" width="608" height="578" fill="black">
<rect fill="white" x="-0.412109" y="-0.0800781" width="608" height="578"/>
<path d="M226.744 3.91992H375.282L345.574 230.027L551.877 134.303L598.089 272.938L373.631 315.849L530.421 480.891L409.941 568.363L301.013 368.663L192.085 568.363L73.2551 480.891L228.395 315.849L5.58789 272.938L50.1492 134.303L254.801 231.678L226.744 3.91992Z"/>
</mask>
<path d="M226.744 3.91992H375.282L345.574 230.027L551.877 134.303L598.089 272.938L373.631 315.849L530.421 480.891L409.941 568.363L301.013 368.663L192.085 568.363L73.2551 480.891L228.395 315.849L5.58789 272.938L50.1492 134.303L254.801 231.678L226.744 3.91992Z" fill="#C3BEF8"/>
<path d="M226.744 1.48242C226.744 3.10742 226.744 4.73242 226.744 6.35742C276.257 6.89152 325.769 7.37295 375.282 7.80172L371.433 3.41425C371.336 4.10922 371.238 4.80419 371.141 5.49917C360.685 80.0879 350.351 154.693 340.137 229.313L338.796 239.168L347.883 235.002C416.822 203.465 485.71 171.816 554.545 140.055L545.862 136.308C561.167 182.553 576.52 228.781 591.922 274.994L596.868 266.554C595.865 266.746 594.862 266.937 593.859 267.129C520.043 281.241 446.23 295.366 372.418 309.505L360.805 311.721L368.948 320.298C421.231 375.293 473.524 430.279 525.827 485.256L526.698 475.763C486.559 504.95 446.424 534.141 406.291 563.337L415.394 565.389C379.021 498.857 342.636 432.331 306.239 365.812L301.027 356.232L295.787 365.812C259.566 432.427 223.357 499.048 187.159 565.676L195.412 563.844C155.753 534.754 116.09 505.668 76.4241 476.586L77.1501 484.553C128.758 429.439 180.356 374.317 231.943 319.185L238.008 312.758L229.316 311.066C155.014 296.932 80.7102 282.811 6.40357 268.703L9.69406 274.258C24.4259 228.007 39.1524 181.755 53.8736 135.5L48.4684 137.836C116.779 170.098 185.095 202.348 253.417 234.586L258.7 237.117L257.998 231.284C254.701 205.213 251.402 179.142 248.101 153.071C241.795 103.254 235.482 53.4375 229.163 3.6219C227.55 3.82058 225.938 4.01926 224.325 4.21794C230.285 54.0776 236.251 103.937 242.223 153.795C245.349 179.887 248.476 205.98 251.605 232.072L256.185 228.77C188.073 196.091 119.954 163.425 51.83 130.77L47.7774 128.856L46.4249 133.106C31.4385 179.275 16.4574 225.446 1.48172 271.618L0.000836849 276.268L4.77221 277.174C79.0033 291.673 153.237 306.159 227.473 320.632L224.846 312.513C173.007 367.409 121.179 422.315 69.3601 477.23L65.2325 481.638L70.0861 485.196C109.64 514.43 149.198 543.658 188.759 572.882L193.948 576.689L197.011 571.05C233.433 504.544 269.842 438.032 306.239 371.513H295.787C332.009 438.128 368.242 504.736 404.487 571.338L407.88 577.544L413.59 573.39C453.778 544.271 493.963 515.147 534.144 486.019L539.997 481.763L535.015 476.527C482.792 421.475 430.558 366.433 378.315 311.4L374.844 322.194C448.666 308.108 522.484 294.01 596.3 279.898C597.303 279.706 598.306 279.514 599.309 279.323L606.604 277.928L604.255 270.883C588.849 224.672 573.395 178.477 557.892 132.298L555.629 125.556L549.208 128.551C480.509 160.606 411.861 192.774 343.266 225.053L351.012 230.742C360.42 156.016 369.708 81.2733 378.874 6.51525C378.96 5.8187 379.045 5.12215 379.131 4.42559L379.673 0.000177145L375.282 0.038121C325.769 0.466891 276.257 0.948325 226.744 1.48242ZM226.744 6.35742V1.48242L223.982 1.51222L224.325 4.21794L229.163 3.6219L226.744 6.35742Z" fill="black" mask="url(#path-1-outside-1_755_6274)"/>
<path d="M267.02 199.146C253.008 196.066 237.569 212.132 232.536 235.029C227.502 257.927 234.781 278.986 248.793 282.066C262.805 285.146 278.244 269.08 283.277 246.183C288.311 223.285 281.032 202.226 267.02 199.146Z" fill="#F5F6FB"/>
<path d="M231.803 234.868C232.291 234.975 232.78 235.083 233.268 235.19C234.205 231.708 235.386 228.315 236.822 225.046C242.293 212.552 253.27 198.696 266.591 201.1C266.591 201.1 266.591 201.1 266.591 201.1C283.069 206.161 284.994 229.486 281.46 245.783C277.952 262.068 266.864 282.747 249.103 280.655C235.371 277.17 231.361 259.516 231.952 245.873C232.102 242.292 232.549 238.72 233.268 235.19C232.78 235.083 232.291 234.975 231.803 234.868C230.959 238.449 230.392 242.093 230.132 245.771C229.297 259.69 232.121 278.564 248.483 283.476C269.946 285.93 281.033 263.546 285.095 246.582C288.632 229.522 288.484 204.455 267.449 197.193C267.449 197.193 267.449 197.193 267.449 197.193C249.928 194.599 239.383 211.039 234.59 224.164C233.353 227.656 232.431 231.239 231.803 234.868ZM233.268 235.19L231.803 234.868L233.268 235.19Z" fill="#010414"/>
<path d="M258.362 217.143C260.498 217.51 262.86 219.684 264.401 224.484C265.892 229.128 266.308 235.473 265.123 242.366C263.938 249.258 261.427 255.1 258.47 258.98C255.414 262.99 252.462 264.249 250.326 263.882C248.19 263.515 245.828 261.342 244.287 256.541C242.797 251.897 242.38 245.552 243.565 238.659C244.75 231.767 247.262 225.925 250.219 222.045C253.274 218.035 256.227 216.775 258.362 217.143Z" fill="black" stroke="black" stroke-width="6"/>
<path d="M254.48 265.557C257.056 265.97 259.691 262.891 260.366 258.68C261.04 254.47 259.498 250.722 256.921 250.31C254.345 249.897 251.709 252.976 251.035 257.186C250.361 261.397 251.903 265.144 254.48 265.557Z" fill="#F5F6FB" stroke="#F5F6FB" stroke-width="6" stroke-miterlimit="10"/>
<path d="M351.877 194.151C337.548 193.442 324.993 211.849 323.834 235.264C322.675 258.68 333.351 278.237 347.68 278.946C362.009 279.655 374.565 261.248 375.724 237.833C376.883 214.417 366.206 194.86 351.877 194.151Z" fill="#F5F6FB"/>
<path d="M323.085 235.227C323.584 235.252 324.084 235.277 324.583 235.301C324.928 231.712 325.529 228.17 326.402 224.708C329.721 211.478 338.244 195.992 351.779 196.148C351.779 196.148 351.779 196.148 351.779 196.148C368.869 198.402 374.642 221.083 373.865 237.741C373.112 254.382 365.613 276.615 347.752 277.504C333.631 276.349 326.744 259.606 325.06 246.055C324.613 242.498 324.461 238.902 324.583 235.301C324.084 235.277 323.584 235.252 323.085 235.227C322.848 238.899 322.893 242.586 323.249 246.256C324.738 260.12 330.658 278.263 347.609 280.389C369.181 279.242 376.395 255.327 377.582 237.925C378.236 220.514 373.925 195.82 351.976 192.153C351.976 192.153 351.976 192.153 351.976 192.153C334.267 192.506 326.6 210.47 324.054 224.209C323.415 227.858 323.101 231.545 323.085 235.227ZM324.583 235.301L323.085 235.227L324.583 235.301Z" fill="#010414"/>
<path d="M351.966 209.993C354.111 210.302 356.531 212.411 358.203 217.167C359.821 221.769 360.41 228.1 359.414 235.022C358.418 241.944 356.068 247.853 353.218 251.812C350.274 255.904 347.357 257.244 345.212 256.936C343.067 256.627 340.646 254.519 338.974 249.762C337.357 245.16 336.767 238.829 337.763 231.907C338.759 224.985 341.11 219.077 343.959 215.117C346.904 211.025 349.821 209.685 351.966 209.993Z" fill="black" stroke="black" stroke-width="6"/>
<path d="M339.422 259.123C342.009 259.465 344.559 256.315 345.118 252.088C345.677 247.86 344.033 244.156 341.446 243.814C338.859 243.472 336.309 246.622 335.75 250.85C335.191 255.077 336.835 258.781 339.422 259.123Z" fill="#F5F6FB" stroke="#F5F6FB" stroke-width="6" stroke-miterlimit="10"/>
</svg>
