<svg width="1323" height="763" viewBox="0 0 1323 763" fill="none" xmlns="http://www.w3.org/2000/svg">
<mask id="path-1-inside-1_837_1533" fill="white">
<path d="M472.277 658.212L404.283 632.477L401.234 640.531L427.196 650.357L419.118 671.701L495.913 700.767L485.071 729.412L344.959 676.381L351.25 659.761L274.251 630.618L283.179 607.029L257.218 597.203L269.847 563.835L337.841 589.57L344.592 571.735L484.907 624.843L472.277 658.212Z"/>
</mask>
<path d="M472.277 658.212L404.283 632.477L401.234 640.531L427.196 650.357L419.118 671.701L495.913 700.767L485.071 729.412L344.959 676.381L351.25 659.761L274.251 630.618L283.179 607.029L257.218 597.203L269.847 563.835L337.841 589.57L344.592 571.735L484.907 624.843L472.277 658.212Z" fill="#C3BEF8"/>
<path d="M472.277 658.212L470.153 663.823C473.252 664.996 476.715 663.435 477.888 660.335L472.277 658.212ZM404.283 632.477L406.407 626.865C403.308 625.692 399.845 627.253 398.672 630.353L404.283 632.477ZM401.234 640.531L395.623 638.407C394.45 641.506 396.011 644.97 399.111 646.143L401.234 640.531ZM427.196 650.357L432.807 652.481C433.98 649.382 432.419 645.919 429.32 644.746L427.196 650.357ZM419.118 671.701L413.506 669.577C412.333 672.676 413.894 676.14 416.994 677.313L419.118 671.701ZM495.913 700.767L501.525 702.891C502.088 701.403 502.037 699.752 501.383 698.301C500.729 696.851 499.525 695.719 498.037 695.156L495.913 700.767ZM485.071 729.412L482.947 735.024C486.047 736.197 489.51 734.635 490.683 731.536L485.071 729.412ZM344.959 676.381L339.348 674.257C338.175 677.356 339.736 680.82 342.835 681.993L344.959 676.381ZM351.25 659.761L356.861 661.885C358.034 658.786 356.473 655.323 353.373 654.15L351.25 659.761ZM274.251 630.618L268.64 628.494C267.467 631.593 269.028 635.056 272.127 636.229L274.251 630.618ZM283.179 607.029L288.791 609.153C289.964 606.054 288.402 602.591 285.303 601.418L283.179 607.029ZM257.218 597.203L251.606 595.079C250.433 598.178 251.995 601.642 255.094 602.815L257.218 597.203ZM269.847 563.835L271.971 558.223C270.483 557.66 268.832 557.711 267.381 558.365C265.931 559.019 264.799 560.222 264.236 561.711L269.847 563.835ZM337.841 589.57L335.717 595.181C337.206 595.744 338.857 595.693 340.307 595.039C341.758 594.385 342.89 593.182 343.453 591.694L337.841 589.57ZM344.592 571.735L346.715 566.124C343.616 564.951 340.153 566.512 338.98 569.611L344.592 571.735ZM484.907 624.843L490.518 626.967C491.081 625.479 491.03 623.828 490.376 622.377C489.722 620.926 488.519 619.795 487.031 619.232L484.907 624.843ZM472.277 658.212L474.401 652.6L406.407 626.865L404.283 632.477L402.159 638.088L470.153 663.823L472.277 658.212ZM404.283 632.477L398.672 630.353L395.623 638.407L401.234 640.531L406.846 642.655L409.895 634.6L404.283 632.477ZM401.234 640.531L399.111 646.143L425.072 655.969L427.196 650.357L429.32 644.746L403.358 634.92L401.234 640.531ZM427.196 650.357L421.584 648.233L413.506 669.577L419.118 671.701L424.729 673.825L432.807 652.481L427.196 650.357ZM419.118 671.701L416.994 677.313L493.789 706.379L495.913 700.767L498.037 695.156L421.241 666.09L419.118 671.701ZM495.913 700.767L490.302 698.644L479.46 727.288L485.071 729.412L490.683 731.536L501.525 702.891L495.913 700.767ZM485.071 729.412L487.195 723.801L347.083 670.77L344.959 676.381L342.835 681.993L482.947 735.024L485.071 729.412ZM344.959 676.381L350.571 678.505L356.861 661.885L351.25 659.761L345.638 657.637L339.348 674.257L344.959 676.381ZM351.25 659.761L353.373 654.15L276.375 625.006L274.251 630.618L272.127 636.229L349.126 665.373L351.25 659.761ZM274.251 630.618L279.863 632.742L288.791 609.153L283.179 607.029L277.568 604.905L268.64 628.494L274.251 630.618ZM283.179 607.029L285.303 601.418L259.342 591.592L257.218 597.203L255.094 602.815L281.055 612.641L283.179 607.029ZM257.218 597.203L262.829 599.327L275.459 565.959L269.847 563.835L264.236 561.711L251.606 595.079L257.218 597.203ZM269.847 563.835L267.724 569.446L335.717 595.181L337.841 589.57L339.965 583.958L271.971 558.223L269.847 563.835ZM337.841 589.57L343.453 591.694L350.203 573.859L344.592 571.735L338.98 569.611L332.23 587.446L337.841 589.57ZM344.592 571.735L342.468 577.347L482.783 630.455L484.907 624.843L487.031 619.232L346.715 566.124L344.592 571.735ZM484.907 624.843L479.295 622.719L466.665 656.088L472.277 658.212L477.888 660.335L490.518 626.967L484.907 624.843Z" fill="#C3BEF8" mask="url(#path-1-inside-1_837_1533)"/>
<mask id="path-3-inside-2_837_1533" fill="white">
<path d="M555.797 80.0312L605.679 70.1164L608.135 82.4733L608.6 82.3809L612.223 100.609L719.132 79.3599L712.852 47.766L760.859 38.2239L753.297 0.179113L652.981 20.1182L652.946 19.9391L547.999 40.7986L555.797 80.0312Z"/>
</mask>
<path d="M555.797 80.0312L605.679 70.1164L608.135 82.4733L608.6 82.3809L612.223 100.609L719.132 79.3599L712.852 47.766L760.859 38.2239L753.297 0.179113L652.981 20.1182L652.946 19.9391L547.999 40.7986L555.797 80.0312Z" fill="#FF8BE4"/>
<path d="M555.797 80.0312L556.966 85.9161C553.716 86.5621 550.558 84.451 549.912 81.2009L555.797 80.0312ZM605.679 70.1164L604.51 64.2315C607.76 63.5855 610.918 65.6966 611.564 68.9467L605.679 70.1164ZM608.135 82.4733L609.305 88.3582C606.055 89.0042 602.897 86.8931 602.251 83.643L608.135 82.4733ZM608.6 82.3809L607.43 76.4961C610.68 75.8501 613.839 77.9611 614.485 81.2113L608.6 82.3809ZM612.223 100.609L613.393 106.494C610.143 107.14 606.984 105.029 606.338 101.779L612.223 100.609ZM719.132 79.3599L725.017 78.1902C725.663 81.4403 723.552 84.5987 720.301 85.2447L719.132 79.3599ZM712.852 47.766L706.967 48.9357C706.321 45.6855 708.432 42.5271 711.682 41.8811L712.852 47.766ZM760.859 38.2239L766.744 37.0542C767.39 40.3044 765.279 43.4628 762.029 44.1088L760.859 38.2239ZM753.297 0.179113L752.128 -5.70577C755.378 -6.35177 758.536 -4.24071 759.182 -0.990582L753.297 0.179113ZM652.981 20.1182L654.151 26.0031C650.901 26.6491 647.743 24.538 647.097 21.2879L652.981 20.1182ZM652.946 19.9391L651.776 14.0542C655.026 13.4082 658.185 15.5193 658.831 18.7694L652.946 19.9391ZM547.999 40.7986L542.114 41.9683C541.804 40.4076 542.126 38.7875 543.01 37.4645C543.895 36.1415 545.268 35.224 546.829 34.9138L547.999 40.7986ZM555.797 80.0312L554.627 74.1463L604.51 64.2315L605.679 70.1164L606.849 76.0013L556.966 85.9161L555.797 80.0312ZM605.679 70.1164L611.564 68.9467L614.02 81.3036L608.135 82.4733L602.251 83.643L599.794 71.2861L605.679 70.1164ZM608.135 82.4733L606.966 76.5884L607.43 76.4961L608.6 82.3809L609.77 88.2658L609.305 88.3582L608.135 82.4733ZM608.6 82.3809L614.485 81.2113L618.108 99.4396L612.223 100.609L606.338 101.779L602.715 83.5506L608.6 82.3809ZM612.223 100.609L611.053 94.7244L717.962 73.475L719.132 79.3599L720.301 85.2447L613.393 106.494L612.223 100.609ZM719.132 79.3599L713.247 80.5296L706.967 48.9357L712.852 47.766L718.737 46.5963L725.017 78.1902L719.132 79.3599ZM712.852 47.766L711.682 41.8811L759.69 32.3391L760.859 38.2239L762.029 44.1088L714.022 53.6509L712.852 47.766ZM760.859 38.2239L754.974 39.3936L747.412 1.34881L753.297 0.179113L759.182 -0.990582L766.744 37.0542L760.859 38.2239ZM753.297 0.179113L754.467 6.06399L654.151 26.0031L652.981 20.1182L651.812 14.2333L752.128 -5.70577L753.297 0.179113ZM652.981 20.1182L647.097 21.2879L647.061 21.1088L652.946 19.9391L658.831 18.7694L658.866 18.9485L652.981 20.1182ZM652.946 19.9391L654.115 25.824L549.168 46.6835L547.999 40.7986L546.829 34.9138L651.776 14.0542L652.946 19.9391ZM547.999 40.7986L553.884 39.629L561.682 78.8615L555.797 80.0312L549.912 81.2009L542.114 41.9683L547.999 40.7986Z" fill="#FF8BE4" mask="url(#path-3-inside-2_837_1533)"/>
<mask id="path-5-inside-3_837_1533" fill="white">
<path d="M936.989 689.578L878.137 702.653L885.876 737.483L985.56 715.335L991.03 739.955L1127.34 709.669L1121.87 685.049L1147.1 679.445L1139.36 644.615L1073.3 659.291L1069.17 640.676L932.852 670.962L936.989 689.578Z"/>
</mask>
<path d="M936.989 689.578L878.137 702.653L885.876 737.483L985.56 715.335L991.03 739.955L1127.34 709.669L1121.87 685.049L1147.1 679.445L1139.36 644.615L1073.3 659.291L1069.17 640.676L932.852 670.962L936.989 689.578Z" fill="#FFAD64"/>
<path d="M936.989 689.578L942.846 688.277C943.564 691.511 941.525 694.716 938.29 695.435L936.989 689.578ZM878.137 702.653L872.28 703.955C871.562 700.72 873.601 697.515 876.836 696.796L878.137 702.653ZM885.876 737.483L887.177 743.34C883.942 744.059 880.737 742.019 880.018 738.784L885.876 737.483ZM985.56 715.335L984.259 709.478C987.494 708.759 990.699 710.799 991.417 714.034L985.56 715.335ZM991.03 739.955L992.331 745.812C989.097 746.531 985.892 744.491 985.173 741.256L991.03 739.955ZM1127.34 709.669L1133.2 708.368C1133.92 711.602 1131.88 714.807 1128.65 715.526L1127.34 709.669ZM1121.87 685.049L1116.02 686.35C1115.3 683.115 1117.34 679.91 1120.57 679.191L1121.87 685.049ZM1147.1 679.445L1152.95 678.144C1153.67 681.378 1151.63 684.583 1148.4 685.302L1147.1 679.445ZM1139.36 644.615L1138.06 638.758C1141.29 638.04 1144.5 640.079 1145.22 643.314L1139.36 644.615ZM1073.3 659.291L1074.6 665.148C1071.37 665.867 1068.16 663.827 1067.45 660.593L1073.3 659.291ZM1069.17 640.676L1067.87 634.819C1071.1 634.1 1074.31 636.14 1075.02 639.375L1069.17 640.676ZM932.852 670.962L926.995 672.263C926.277 669.028 928.316 665.823 931.551 665.104L932.852 670.962ZM936.989 689.578L938.29 695.435L879.439 708.51L878.137 702.653L876.836 696.796L935.687 683.721L936.989 689.578ZM878.137 702.653L883.995 701.352L891.733 736.181L885.876 737.483L880.018 738.784L872.28 703.955L878.137 702.653ZM885.876 737.483L884.574 731.625L984.259 709.478L985.56 715.335L986.862 721.192L887.177 743.34L885.876 737.483ZM985.56 715.335L991.417 714.034L996.887 738.653L991.03 739.955L985.173 741.256L979.703 716.637L985.56 715.335ZM991.03 739.955L989.729 734.097L1126.04 703.812L1127.34 709.669L1128.65 715.526L992.331 745.812L991.03 739.955ZM1127.34 709.669L1121.49 710.97L1116.02 686.35L1121.87 685.049L1127.73 683.747L1133.2 708.368L1127.34 709.669ZM1121.87 685.049L1120.57 679.191L1145.8 673.588L1147.1 679.445L1148.4 685.302L1123.18 690.906L1121.87 685.049ZM1147.1 679.445L1141.24 680.746L1133.5 645.917L1139.36 644.615L1145.22 643.314L1152.95 678.144L1147.1 679.445ZM1139.36 644.615L1140.66 650.473L1074.6 665.148L1073.3 659.291L1072 653.434L1138.06 638.758L1139.36 644.615ZM1073.3 659.291L1067.45 660.593L1063.31 641.977L1069.17 640.676L1075.02 639.375L1079.16 657.99L1073.3 659.291ZM1069.17 640.676L1070.47 646.533L934.154 676.819L932.852 670.962L931.551 665.104L1067.87 634.819L1069.17 640.676ZM932.852 670.962L938.71 669.66L942.846 688.277L936.989 689.578L931.131 690.879L926.995 672.263L932.852 670.962Z" fill="#FFAD64" mask="url(#path-5-inside-3_837_1533)"/>
<mask id="path-7-inside-4_837_1533" fill="white">
<path d="M1304.08 395.708L1244.66 433.169L1238 422.613L1294.18 387.197L1275.8 358.043L1153.18 435.347L1168.39 459.475L1112.21 494.892L1130.59 524.045L1190.01 486.585L1199.83 502.167L1322.46 424.862L1304.08 395.708Z"/>
</mask>
<path d="M1304.08 395.708L1244.66 433.169L1238 422.613L1294.18 387.197L1275.8 358.043L1153.18 435.347L1168.39 459.475L1112.21 494.892L1130.59 524.045L1190.01 486.585L1199.83 502.167L1322.46 424.862L1304.08 395.708Z" fill="#C0EFDB"/>
<path d="M1304.08 395.708L1300.88 390.632C1302.22 389.784 1303.85 389.505 1305.4 389.856C1306.96 390.208 1308.31 391.162 1309.15 392.508L1304.08 395.708ZM1244.66 433.169L1247.86 438.244C1245.05 440.011 1241.35 439.172 1239.58 436.368L1244.66 433.169ZM1238 422.613L1232.93 425.813C1231.16 423.01 1232 419.305 1234.8 417.538L1238 422.613ZM1294.18 387.197L1299.26 383.997C1301.02 386.8 1300.18 390.505 1297.38 392.273L1294.18 387.197ZM1275.8 358.043L1272.6 352.967C1275.41 351.2 1279.11 352.04 1280.88 354.843L1275.8 358.043ZM1153.18 435.347L1148.1 438.547C1147.25 437.201 1146.98 435.573 1147.33 434.021C1147.68 432.469 1148.63 431.12 1149.98 430.272L1153.18 435.347ZM1168.39 459.475L1173.47 456.275C1174.31 457.622 1174.59 459.25 1174.24 460.802C1173.89 462.354 1172.94 463.702 1171.59 464.551L1168.39 459.475ZM1112.21 494.892L1107.13 498.091C1106.29 496.745 1106.01 495.117 1106.36 493.565C1106.71 492.013 1107.66 490.665 1109.01 489.816L1112.21 494.892ZM1130.59 524.045L1133.79 529.121C1130.99 530.888 1127.28 530.048 1125.51 527.245L1130.59 524.045ZM1190.01 486.585L1186.81 481.509C1188.16 480.661 1189.78 480.382 1191.34 480.733C1192.89 481.085 1194.24 482.039 1195.09 483.385L1190.01 486.585ZM1199.83 502.167L1203.03 507.242C1201.69 508.091 1200.06 508.37 1198.51 508.018C1196.95 507.667 1195.61 506.713 1194.76 505.367L1199.83 502.167ZM1322.46 424.862L1327.53 421.662C1329.3 424.466 1328.46 428.171 1325.66 429.938L1322.46 424.862ZM1304.08 395.708L1307.28 400.784L1247.86 438.244L1244.66 433.169L1241.46 428.093L1300.88 390.632L1304.08 395.708ZM1244.66 433.169L1239.58 436.368L1232.93 425.813L1238 422.613L1243.08 419.414L1249.73 429.969L1244.66 433.169ZM1238 422.613L1234.8 417.538L1290.98 382.121L1294.18 387.197L1297.38 392.273L1241.2 427.689L1238 422.613ZM1294.18 387.197L1289.11 390.397L1270.73 361.243L1275.8 358.043L1280.88 354.843L1299.26 383.997L1294.18 387.197ZM1275.8 358.043L1279 363.118L1156.38 440.423L1153.18 435.347L1149.98 430.272L1272.6 352.967L1275.8 358.043ZM1153.18 435.347L1158.25 432.147L1173.47 456.275L1168.39 459.475L1163.31 462.675L1148.1 438.547L1153.18 435.347ZM1168.39 459.475L1171.59 464.551L1115.41 499.967L1112.21 494.892L1109.01 489.816L1165.19 454.4L1168.39 459.475ZM1112.21 494.892L1117.29 491.692L1135.66 520.845L1130.59 524.045L1125.51 527.245L1107.13 498.091L1112.21 494.892ZM1130.59 524.045L1127.39 518.969L1186.81 481.509L1190.01 486.585L1193.21 491.66L1133.79 529.121L1130.59 524.045ZM1190.01 486.585L1195.09 483.385L1204.91 498.967L1199.83 502.167L1194.76 505.367L1184.93 489.785L1190.01 486.585ZM1199.83 502.167L1196.63 497.091L1319.26 419.787L1322.46 424.862L1325.66 429.938L1203.03 507.242L1199.83 502.167ZM1322.46 424.862L1317.38 428.062L1299 398.908L1304.08 395.708L1309.15 392.508L1327.53 421.662L1322.46 424.862Z" fill="#C0EFDB" mask="url(#path-7-inside-4_837_1533)"/>
<mask id="path-9-inside-5_837_1533" fill="white">
<path d="M204.456 410.809L157.779 390.615L152.777 402.177L152.342 401.989L144.962 419.046L44.923 375.766L57.7132 346.202L12.7898 326.767L28.1915 291.167L122.063 331.778L122.135 331.611L220.338 374.097L204.456 410.809Z"/>
</mask>
<path d="M204.456 410.809L157.779 390.615L152.777 402.177L152.342 401.989L144.962 419.046L44.923 375.766L57.7132 346.202L12.7898 326.767L28.1915 291.167L122.063 331.778L122.135 331.611L220.338 374.097L204.456 410.809Z" fill="#FF8BE4"/>
<path d="M204.456 410.809L202.073 416.316C205.115 417.631 208.647 416.233 209.963 413.191L204.456 410.809ZM157.779 390.615L160.162 385.108C157.12 383.793 153.588 385.192 152.273 388.233L157.779 390.615ZM152.777 402.177L150.395 407.684C153.436 409 156.968 407.601 158.284 404.56L152.777 402.177ZM152.342 401.989L154.724 396.482C151.683 395.166 148.151 396.565 146.835 399.606L152.342 401.989ZM144.962 419.046L142.58 424.553C145.621 425.868 149.153 424.47 150.469 421.428L144.962 419.046ZM44.923 375.766L39.4163 373.384C38.1005 376.425 39.4993 379.957 42.5406 381.273L44.923 375.766ZM57.7132 346.202L63.2199 348.585C64.5357 345.543 63.1369 342.011 60.0956 340.695L57.7132 346.202ZM12.7898 326.767L7.28307 324.385C5.96732 327.426 7.36615 330.958 10.4074 332.274L12.7898 326.767ZM28.1915 291.167L30.5739 285.66C29.1135 285.028 27.4618 285.002 25.9823 285.588C24.5028 286.174 23.3166 287.324 22.6848 288.784L28.1915 291.167ZM122.063 331.778L119.68 337.285C121.141 337.917 122.792 337.942 124.272 337.357C125.751 336.771 126.937 335.621 127.569 334.16L122.063 331.778ZM122.135 331.611L124.517 326.105C121.476 324.789 117.944 326.188 116.628 329.229L122.135 331.611ZM220.338 374.097L225.845 376.48C227.161 373.438 225.762 369.906 222.721 368.59L220.338 374.097ZM204.456 410.809L206.838 405.302L160.162 385.108L157.779 390.615L155.397 396.122L202.073 416.316L204.456 410.809ZM157.779 390.615L152.273 388.233L147.27 399.795L152.777 402.177L158.284 404.56L163.286 392.998L157.779 390.615ZM152.777 402.177L155.16 396.67L154.724 396.482L152.342 401.989L149.959 407.496L150.395 407.684L152.777 402.177ZM152.342 401.989L146.835 399.606L139.455 416.664L144.962 419.046L150.469 421.428L157.848 404.371L152.342 401.989ZM144.962 419.046L147.345 413.539L47.3054 370.259L44.923 375.766L42.5406 381.273L142.58 424.553L144.962 419.046ZM44.923 375.766L50.4297 378.148L63.2199 348.585L57.7132 346.202L52.2064 343.82L39.4163 373.384L44.923 375.766ZM57.7132 346.202L60.0956 340.695L15.1722 321.26L12.7898 326.767L10.4074 332.274L55.3308 351.709L57.7132 346.202ZM12.7898 326.767L18.2966 329.149L33.6983 293.549L28.1915 291.167L22.6848 288.784L7.28307 324.385L12.7898 326.767ZM28.1915 291.167L25.8092 296.673L119.68 337.285L122.063 331.778L124.445 326.271L30.5739 285.66L28.1915 291.167ZM122.063 331.778L127.569 334.16L127.641 333.994L122.135 331.611L116.628 329.229L116.556 329.396L122.063 331.778ZM122.135 331.611L119.752 337.118L217.956 379.604L220.338 374.097L222.721 368.59L124.517 326.105L122.135 331.611ZM220.338 374.097L214.832 371.715L198.949 408.426L204.456 410.809L209.963 413.191L225.845 376.48L220.338 374.097Z" fill="#FF8BE4" mask="url(#path-9-inside-5_837_1533)"/>
</svg>
