<svg width="1202" height="674" viewBox="0 0 1202 674" fill="none" xmlns="http://www.w3.org/2000/svg">
<rect x="3.13477" width="1198" height="672" fill="#C3BEF8"/>
<mask id="path-2-inside-1_855_1649" fill="white">
<path d="M433.201 55.6963H362.958V68.1738H429.37V102.638H284.413V74.1162H218V39.6523H288.243V21.2324H433.201V55.6963Z"/>
</mask>
<path d="M433.201 55.6963H362.958V68.1738H429.37V102.638H284.413V74.1162H218V39.6523H288.243V21.2324H433.201V55.6963Z" fill="#F7F8FF"/>
<path d="M433.201 55.6963V61.6963C436.515 61.6963 439.201 59.01 439.201 55.6963H433.201ZM362.958 55.6963V49.6963C359.644 49.6963 356.958 52.3826 356.958 55.6963H362.958ZM362.958 68.1738H356.958C356.958 71.4875 359.644 74.1738 362.958 74.1738V68.1738ZM429.37 68.1738H435.37C435.37 64.8601 432.684 62.1738 429.37 62.1738V68.1738ZM429.37 102.638V108.638C432.684 108.638 435.37 105.951 435.37 102.638H429.37ZM284.413 102.638H278.413C278.413 105.951 281.099 108.638 284.413 108.638V102.638ZM284.413 74.1162H290.413C290.413 70.8025 287.727 68.1162 284.413 68.1162V74.1162ZM218 74.1162H212C212 77.4299 214.686 80.1162 218 80.1162V74.1162ZM218 39.6523V33.6523C214.686 33.6523 212 36.3386 212 39.6523H218ZM288.243 39.6523V45.6523C291.557 45.6523 294.243 42.9661 294.243 39.6523H288.243ZM288.243 21.2324V15.2324C284.929 15.2324 282.243 17.9187 282.243 21.2324H288.243ZM433.201 21.2324H439.201C439.201 17.9187 436.515 15.2324 433.201 15.2324V21.2324ZM433.201 55.6963V49.6963H362.958V55.6963V61.6963H433.201V55.6963ZM362.958 55.6963H356.958V68.1738H362.958H368.958V55.6963H362.958ZM362.958 68.1738V74.1738H429.37V68.1738V62.1738H362.958V68.1738ZM429.37 68.1738H423.37V102.638H429.37H435.37V68.1738H429.37ZM429.37 102.638V96.6377H284.413V102.638V108.638H429.37V102.638ZM284.413 102.638H290.413V74.1162H284.413H278.413V102.638H284.413ZM284.413 74.1162V68.1162H218V74.1162V80.1162H284.413V74.1162ZM218 74.1162H224V39.6523H218H212V74.1162H218ZM218 39.6523V45.6523H288.243V39.6523V33.6523H218V39.6523ZM288.243 39.6523H294.243V21.2324H288.243H282.243V39.6523H288.243ZM288.243 21.2324V27.2324H433.201V21.2324V15.2324H288.243V21.2324ZM433.201 21.2324H427.201V55.6963H433.201H439.201V21.2324H433.201Z" fill="#F7F8FF" mask="url(#path-2-inside-1_855_1649)"/>
<mask id="path-4-inside-2_855_1649" fill="white">
<path d="M1200.28 246.232H1149.42V258.83H1148.95V277.416H1039.95V245.204H991V206.416H1093.28V206.232H1200.28V246.232Z"/>
</mask>
<path d="M1200.28 246.232H1149.42V258.83H1148.95V277.416H1039.95V245.204H991V206.416H1093.28V206.232H1200.28V246.232Z" fill="#F7F8FF"/>
<path d="M1200.28 246.232V252.232C1203.59 252.232 1206.28 249.546 1206.28 246.232H1200.28ZM1149.42 246.232V240.232C1146.11 240.232 1143.42 242.919 1143.42 246.232H1149.42ZM1149.42 258.83V264.83C1152.73 264.83 1155.42 262.144 1155.42 258.83H1149.42ZM1148.95 258.83V252.83C1145.63 252.83 1142.95 255.516 1142.95 258.83H1148.95ZM1148.95 277.416V283.416C1152.26 283.416 1154.95 280.73 1154.95 277.416H1148.95ZM1039.95 277.416H1033.95C1033.95 280.73 1036.63 283.416 1039.95 283.416V277.416ZM1039.95 245.204H1045.95C1045.95 241.89 1043.26 239.204 1039.95 239.204V245.204ZM991 245.204H985C985 248.518 987.686 251.204 991 251.204V245.204ZM991 206.416V200.416C987.686 200.416 985 203.102 985 206.416H991ZM1093.28 206.416V212.416C1096.59 212.416 1099.28 209.73 1099.28 206.416H1093.28ZM1093.28 206.232V200.232C1089.97 200.232 1087.28 202.919 1087.28 206.232H1093.28ZM1200.28 206.232H1206.28C1206.28 202.919 1203.59 200.232 1200.28 200.232V206.232ZM1200.28 246.232V240.232H1149.42V246.232V252.232H1200.28V246.232ZM1149.42 246.232H1143.42V258.83H1149.42H1155.42V246.232H1149.42ZM1149.42 258.83V252.83H1148.95V258.83V264.83H1149.42V258.83ZM1148.95 258.83H1142.95V277.416H1148.95H1154.95V258.83H1148.95ZM1148.95 277.416V271.416H1039.95V277.416V283.416H1148.95V277.416ZM1039.95 277.416H1045.95V245.204H1039.95H1033.95V277.416H1039.95ZM1039.95 245.204V239.204H991V245.204V251.204H1039.95V245.204ZM991 245.204H997V206.416H991H985V245.204H991ZM991 206.416V212.416H1093.28V206.416V200.416H991V206.416ZM1093.28 206.416H1099.28V206.232H1093.28H1087.28V206.416H1093.28ZM1093.28 206.232V212.232H1200.28V206.232V200.232H1093.28V206.232ZM1200.28 206.232H1194.28V246.232H1200.28H1206.28V206.232H1200.28Z" fill="#F7F8FF" mask="url(#path-4-inside-2_855_1649)"/>
<mask id="path-6-inside-3_855_1649" fill="white">
<path d="M895.305 73.3018H955.59V108.98H853.475V134.202H713.836V108.98H688V73.3018H755.666V54.2324H895.305V73.3018Z"/>
</mask>
<path d="M895.305 73.3018H955.59V108.98H853.475V134.202H713.836V108.98H688V73.3018H755.666V54.2324H895.305V73.3018Z" fill="#F7F8FF"/>
<path d="M895.305 73.3018H889.305C889.305 76.6155 891.991 79.3018 895.305 79.3018V73.3018ZM955.59 73.3018H961.59C961.59 69.988 958.904 67.3018 955.59 67.3018V73.3018ZM955.59 108.98V114.98C958.904 114.98 961.59 112.294 961.59 108.98H955.59ZM853.475 108.98V102.98C850.161 102.98 847.475 105.667 847.475 108.98H853.475ZM853.475 134.202V140.202C856.788 140.202 859.475 137.516 859.475 134.202H853.475ZM713.836 134.202H707.836C707.836 137.516 710.522 140.202 713.836 140.202V134.202ZM713.836 108.98H719.836C719.836 105.667 717.15 102.98 713.836 102.98V108.98ZM688 108.98H682C682 112.294 684.686 114.98 688 114.98V108.98ZM688 73.3018V67.3018C684.686 67.3018 682 69.988 682 73.3018H688ZM755.666 73.3018V79.3018C758.98 79.3018 761.666 76.6155 761.666 73.3018H755.666ZM755.666 54.2324V48.2324C752.352 48.2324 749.666 50.9187 749.666 54.2324H755.666ZM895.305 54.2324H901.305C901.305 50.9187 898.618 48.2324 895.305 48.2324V54.2324ZM895.305 73.3018V79.3018H955.59V73.3018V67.3018H895.305V73.3018ZM955.59 73.3018H949.59V108.98H955.59H961.59V73.3018H955.59ZM955.59 108.98V102.98H853.475V108.98V114.98H955.59V108.98ZM853.475 108.98H847.475V134.202H853.475H859.475V108.98H853.475ZM853.475 134.202V128.202H713.836V134.202V140.202H853.475V134.202ZM713.836 134.202H719.836V108.98H713.836H707.836V134.202H713.836ZM713.836 108.98V102.98H688V108.98V114.98H713.836V108.98ZM688 108.98H694V73.3018H688H682V108.98H688ZM688 73.3018V79.3018H755.666V73.3018V67.3018H688V73.3018ZM755.666 73.3018H761.666V54.2324H755.666H749.666V73.3018H755.666ZM755.666 54.2324V60.2324H895.305V54.2324V48.2324H755.666V54.2324ZM895.305 54.2324H889.305V73.3018H895.305H901.305V54.2324H895.305Z" fill="#F7F8FF" mask="url(#path-6-inside-3_855_1649)"/>
<mask id="path-8-inside-4_855_1649" fill="white">
<path d="M209.305 263.911H141.639V272.523H167.475V295.345H243.898V325.973H104.462V308.202H27.8359V282.98H2V247.302H69.666V228.232H209.305V263.911Z"/>
</mask>
<path d="M209.305 263.911H141.639V272.523H167.475V295.345H243.898V325.973H104.462V308.202H27.8359V282.98H2V247.302H69.666V228.232H209.305V263.911Z" fill="#F7F8FF"/>
<path d="M209.305 263.911V269.911C212.618 269.911 215.305 267.225 215.305 263.911H209.305ZM141.639 263.911V257.911C138.325 257.911 135.639 260.597 135.639 263.911H141.639ZM141.639 272.523H135.639C135.639 275.837 138.325 278.523 141.639 278.523V272.523ZM167.475 272.523H173.475C173.475 269.21 170.788 266.523 167.475 266.523V272.523ZM167.475 295.345H161.475C161.475 298.658 164.161 301.345 167.475 301.345V295.345ZM243.898 295.345H249.898C249.898 292.031 247.212 289.345 243.898 289.345V295.345ZM243.898 325.973V331.973C247.212 331.973 249.898 329.286 249.898 325.973H243.898ZM104.462 325.973H98.4619C98.4619 329.286 101.148 331.973 104.462 331.973V325.973ZM104.462 308.202H110.462C110.462 304.888 107.776 302.202 104.462 302.202V308.202ZM27.8359 308.202H21.8359C21.8359 311.516 24.5222 314.202 27.8359 314.202V308.202ZM27.8359 282.98H33.8359C33.8359 279.667 31.1496 276.98 27.8359 276.98V282.98ZM2 282.98H-4C-4 286.294 -1.31371 288.98 2 288.98L2 282.98ZM2 247.302V241.302C-1.31371 241.302 -4 243.988 -4 247.302H2ZM69.666 247.302V253.302C72.9797 253.302 75.666 250.615 75.666 247.302H69.666ZM69.666 228.232V222.232C66.3523 222.232 63.666 224.919 63.666 228.232H69.666ZM209.305 228.232H215.305C215.305 224.919 212.618 222.232 209.305 222.232V228.232ZM209.305 263.911V257.911H141.639V263.911V269.911H209.305V263.911ZM141.639 263.911H135.639V272.523H141.639H147.639V263.911H141.639ZM141.639 272.523V278.523H167.475V272.523V266.523H141.639V272.523ZM167.475 272.523H161.475V295.345H167.475H173.475V272.523H167.475ZM167.475 295.345V301.345H243.898V295.345V289.345H167.475V295.345ZM243.898 295.345H237.898V325.973H243.898H249.898V295.345H243.898ZM243.898 325.973V319.973H104.462V325.973V331.973H243.898V325.973ZM104.462 325.973H110.462V308.202H104.462H98.4619V325.973H104.462ZM104.462 308.202V302.202H27.8359V308.202V314.202H104.462V308.202ZM27.8359 308.202H33.8359V282.98H27.8359H21.8359V308.202H27.8359ZM27.8359 282.98V276.98H2V282.98V288.98H27.8359V282.98ZM2 282.98H8V247.302H2H-4V282.98H2ZM2 247.302V253.302H69.666V247.302V241.302H2V247.302ZM69.666 247.302H75.666V228.232H69.666H63.666V247.302H69.666ZM69.666 228.232V234.232H209.305V228.232V222.232H69.666V228.232ZM209.305 228.232H203.305V263.911H209.305H215.305V228.232H209.305Z" fill="#F7F8FF" mask="url(#path-8-inside-4_855_1649)"/>
<path d="M1196 673.232V413.232L858 377.232L588 465.232H338L136 377.232L0 439.232V673.232H1196Z" fill="#C0EFDB"/>
<mask id="path-11-inside-5_855_1649" fill="white">
<path d="M841.088 507.157L781.624 500.971L779.052 525.698L830.658 531.066L823.245 602.336L504.126 569.142L508.36 528.442L456.754 523.074L460.341 488.584L241.822 465.855L249.09 395.978L527.075 424.893L529.233 404.147L848.35 437.341L841.088 507.157Z"/>
</mask>
<path d="M841.088 507.157L781.624 500.971L779.052 525.698L830.658 531.066L823.245 602.336L504.126 569.142L508.36 528.442L456.754 523.074L460.341 488.584L241.822 465.855L249.09 395.978L527.075 424.893L529.233 404.147L848.35 437.341L841.088 507.157Z" fill="#FF8BE4"/>
<path d="M840.836 509.581C841.004 507.965 841.172 506.348 841.34 504.732C821.559 502.277 801.776 499.851 781.989 497.453C780.003 497.212 778.346 498.619 778.105 500.605C777.219 507.922 776.336 515.238 775.457 522.555C775.348 523.467 775.238 524.379 775.129 525.29C774.863 527.505 776.429 529.355 778.644 529.621C795.817 531.681 812.994 533.719 830.172 535.736L825.988 530.58C823.203 554.304 820.459 578.032 817.756 601.765L823.816 596.847C757.152 589.255 690.455 581.989 623.724 575.047C584.083 570.924 544.439 566.813 504.795 562.716L510.553 569.811C511.956 556.243 513.357 542.675 514.756 529.107C515.136 525.489 512.643 522.425 509.025 522.046C491.822 520.271 474.618 518.499 457.414 516.73L463.098 523.734C464.281 512.236 465.462 500.738 466.643 489.24C467.018 485.676 464.561 482.658 460.997 482.283C388.147 474.803 315.292 467.367 242.434 459.973L247.704 466.467C250.068 443.168 252.428 419.869 254.783 396.57L248.498 401.671C341.187 411.041 433.884 420.342 526.588 429.573C529.234 429.86 531.468 428.026 531.755 425.38C532.444 418.461 533.132 411.543 533.82 404.625L528.755 408.735C631.297 418.934 733.848 429.047 836.407 439.076C840.288 439.455 844.17 439.835 848.051 440.214L845.477 437.042C843.201 460.329 840.93 483.616 838.663 506.904C840.28 507.072 841.896 507.241 843.512 507.409C846.087 484.153 848.657 460.896 851.223 437.64C851.382 436.013 850.275 434.627 848.649 434.468C844.772 434.04 840.896 433.613 837.02 433.185C734.592 421.891 632.155 410.683 529.71 399.56C527.114 399.302 524.903 401.074 524.645 403.67C523.895 410.582 523.145 417.494 522.395 424.406L527.562 420.213C434.942 410.167 342.316 400.191 249.682 390.285C246.461 389.959 243.723 392.164 243.397 395.386C240.907 418.671 238.421 441.957 235.94 465.243C235.602 468.571 237.882 471.399 241.21 471.737C314.031 479.496 386.856 487.213 459.686 494.886L454.039 487.929C452.828 499.424 451.618 510.919 450.409 522.414C450.04 526.004 452.504 529.049 456.094 529.418C473.294 531.227 490.494 533.034 507.695 534.838L501.964 527.777C500.541 541.342 499.12 554.908 497.7 568.474C497.324 572.11 499.822 575.193 503.458 575.569C543.097 579.718 582.738 583.854 622.379 587.978C689.11 594.919 755.875 601.534 822.674 607.825C825.782 608.117 828.441 606.015 828.733 602.907C830.973 579.126 833.171 555.341 835.328 531.552C835.568 528.907 833.789 526.636 831.144 526.396C813.918 524.834 796.69 523.294 779.459 521.776L782.974 526.106C783.054 525.192 783.135 524.277 783.216 523.362C783.862 516.021 784.504 508.679 785.142 501.337L781.258 504.489C801.114 506.215 820.973 507.912 840.836 509.581ZM841.34 504.732L840.836 509.581C842.21 509.696 843.379 508.781 843.512 507.409L838.663 506.904L841.34 504.732Z" fill="#010414" mask="url(#path-11-inside-5_855_1649)"/>
<mask id="path-13-outside-6_855_1649" maskUnits="userSpaceOnUse" x="358.099" y="68.6713" width="454.045" height="434.001" fill="black">
<rect fill="white" x="358.099" y="68.6713" width="454.045" height="434.001"/>
<path d="M521.406 84.8094L626.944 80.1057L612.997 241.699L756.546 167.153L793.771 264.192L635.649 301.788L752.277 414.088L669.444 480.054L585.725 341.613L514.654 486.952L427.454 428.565L532.456 306.387L372.79 282.954L400.062 183.041L548.553 245.746L521.406 84.8094Z"/>
</mask>
<path d="M521.406 84.8094L626.944 80.1057L612.997 241.699L756.546 167.153L793.771 264.192L635.649 301.788L752.277 414.088L669.444 480.054L585.725 341.613L514.654 486.952L427.454 428.565L532.456 306.387L372.79 282.954L400.062 183.041L548.553 245.746L521.406 84.8094Z" fill="#FFAD64"/>
<path d="M521.298 82.3743C521.37 83.9977 521.442 85.621 521.515 87.2444C556.718 86.2101 591.919 85.1232 627.117 83.9837L623.077 79.7719C623.028 80.2687 622.979 80.7654 622.93 81.2621C617.676 134.573 612.544 187.895 607.533 241.228L606.615 251.121L615.524 246.566C663.563 222.08 711.544 197.485 759.469 172.78L750.626 169.424C762.937 201.807 775.296 234.173 787.702 266.52L792.267 257.868C791.561 258.036 790.854 258.204 790.147 258.372C738.147 270.736 686.149 283.114 634.155 295.504L622.652 298.234L631.169 306.441C670.064 343.855 708.968 381.259 747.882 418.653L748.33 409.131C720.741 431.148 693.156 453.169 665.574 475.195L674.759 476.839C646.791 430.73 618.811 384.628 590.819 338.532L585.191 329.193L580.378 338.998C556.777 387.488 533.189 435.985 509.614 484.487L517.776 482.29C488.663 462.896 459.547 443.507 430.428 424.123L431.508 432.049C466.399 391.229 501.28 350.4 536.15 309.562L541.926 302.879L533.164 301.568C479.917 293.928 426.668 286.3 373.417 278.687L376.951 284.09C385.918 250.751 394.88 217.412 403.836 184.071L398.54 186.644C448.121 207.347 497.708 228.036 547.3 248.713L552.685 251.011L551.729 245.211C548.537 226.795 545.343 208.38 542.147 189.965C536.041 154.777 529.928 119.59 523.81 84.4039C522.207 84.6742 520.605 84.9445 519.003 85.2148C524.765 120.461 530.533 155.706 536.307 190.95C539.329 209.394 542.353 227.838 545.378 246.282L549.806 242.779C500.404 221.652 450.996 200.538 401.584 179.437L397.443 177.708L396.288 182.01C387.063 215.278 377.843 248.548 368.629 281.818L367.361 286.535L372.164 287.221C425.357 295.23 478.552 303.225 531.749 311.207L528.762 303.213C493.631 343.826 458.51 384.449 423.4 425.081L419.473 429.674L424.48 433.007C453.494 452.548 482.512 472.084 511.532 491.615L516.892 495.185L519.695 489.417C543.5 441.027 567.293 392.63 591.073 344.228L580.632 344.693C608.452 390.892 636.284 437.083 664.128 483.268L667.798 489.317L673.313 484.913C700.954 462.961 728.591 441.006 756.225 419.045L761.882 414.53L756.672 409.524C717.834 372.051 678.987 334.588 640.13 297.135L637.144 308.073C689.15 295.735 741.154 283.384 793.155 271.019C793.861 270.852 794.568 270.683 795.274 270.515L802.499 268.797L799.839 261.864C787.429 229.518 774.972 197.191 762.466 164.882L759.897 158.244L753.624 161.526C705.849 186.518 658.131 211.62 610.469 236.832L618.461 242.171C622.662 188.769 626.742 135.356 630.701 81.9329C630.738 81.4351 630.775 80.9373 630.812 80.4396L631.142 75.9798L626.772 76.2278C591.611 78.224 556.453 80.2728 521.298 82.3743ZM521.515 87.2444L521.298 82.3743L518.537 82.5393L519.003 85.2148L523.81 84.4039L521.515 87.2444Z" fill="black" mask="url(#path-13-outside-6_855_1649)"/>
<path d="M545.88 281.738C555.934 283.482 566.395 271.579 569.246 255.15C572.097 238.722 566.258 223.99 556.205 222.245C546.152 220.5 535.691 232.404 532.84 248.832C529.989 265.261 535.827 279.993 545.88 281.738Z" fill="#F5F6FB"/>
<path d="M569.985 255.279C569.492 255.193 568.999 255.108 568.507 255.022C567.906 257.507 567.135 259.929 566.189 262.266C562.595 271.23 555.155 281.052 546.222 279.767C546.222 279.767 546.222 279.767 546.222 279.767C535.025 276.981 532.674 260.732 534.673 249.151C536.574 237.57 543.809 222.773 555.958 223.668C565.437 225.52 569.008 237.753 569.054 247.424C569.076 249.959 568.888 252.5 568.507 255.022C568.999 255.108 569.492 255.193 569.985 255.279C570.488 252.699 570.793 250.081 570.876 247.445C571.062 237.488 568.621 223.983 556.452 220.822C540.588 219.73 533.431 236.231 531.006 248.514C529.038 260.858 529.691 278.927 545.538 283.708C545.538 283.708 545.538 283.708 545.538 283.708C558.677 284.997 565.57 272.612 568.458 263.048C569.196 260.497 569.699 257.896 569.985 255.279ZM568.507 255.022L569.985 255.279L568.507 255.022Z" fill="#010414"/>
<path d="M616.043 276.39C626.246 276.44 634.584 262.964 634.666 246.29C634.748 229.617 626.543 216.059 616.34 216.009C606.137 215.959 597.799 229.435 597.717 246.109C597.635 262.782 605.84 276.34 616.043 276.39Z" fill="#F5F6FB"/>
<path d="M635.416 246.294C634.916 246.292 634.416 246.289 633.916 246.287C633.737 248.836 633.379 251.353 632.834 253.815C630.78 263.252 625.075 274.173 616.053 274.39C616.053 274.39 616.053 274.39 616.053 274.39C604.548 273.503 599.53 257.87 599.578 246.118C599.528 234.383 604.204 218.589 616.333 217.453C625.988 217.705 631.542 229.174 633.194 238.703C633.637 241.199 633.873 243.736 633.916 246.287C634.416 246.289 634.916 246.292 635.416 246.294C635.485 243.667 635.35 241.035 634.994 238.422C633.523 228.571 628.873 215.66 616.347 214.564C600.522 216.124 596.206 233.584 595.856 246.099C595.966 258.599 599.612 276.308 616.033 278.39C616.033 278.39 616.033 278.39 616.033 278.39C629.203 277.478 633.943 264.12 635.202 254.21C635.506 251.571 635.57 248.923 635.416 246.294ZM633.916 246.287L635.416 246.294L633.916 246.287Z" fill="#010414"/>
<path d="M551.57 267.82C550.522 267.687 548.956 266.604 547.75 263.353C546.601 260.256 546.108 255.905 546.717 251.08C547.327 246.255 548.888 242.165 550.771 239.451C552.748 236.602 554.535 235.943 555.582 236.075C556.629 236.208 558.195 237.291 559.401 240.542C560.55 243.639 561.043 247.989 560.434 252.814C559.824 257.639 558.263 261.73 556.38 264.444C554.403 267.292 552.617 267.952 551.57 267.82Z" fill="black" stroke="black" stroke-width="6"/>
<path d="M615.563 264.274C614.513 264.17 612.917 263.13 611.623 259.913C610.39 256.849 609.777 252.513 610.255 247.673C610.732 242.833 612.181 238.702 613.989 235.937C615.887 233.035 617.655 232.327 618.706 232.431C619.756 232.535 621.351 233.575 622.645 236.791C623.878 239.856 624.491 244.191 624.013 249.031C623.536 253.871 622.087 258.003 620.279 260.768C618.381 263.669 616.614 264.377 615.563 264.274Z" fill="black" stroke="black" stroke-width="6"/>
<path d="M552.687 234.155C550.843 233.944 549.068 236.215 548.723 239.228C548.377 242.241 549.591 244.855 551.435 245.066C553.279 245.278 555.054 243.007 555.399 239.994C555.745 236.981 554.531 234.367 552.687 234.155Z" fill="#F5F6FB" stroke="#F5F6FB" stroke-width="6" stroke-miterlimit="10"/>
<path d="M622.836 229.832C620.987 229.671 619.275 231.99 619.012 235.011C618.748 238.032 620.034 240.612 621.883 240.773C623.732 240.934 625.444 238.615 625.707 235.594C625.97 232.573 624.685 229.993 622.836 229.832Z" fill="#F5F6FB" stroke="#F5F6FB" stroke-width="6" stroke-miterlimit="10"/>
<path d="M946.893 244.765L822.001 353.534L972.982 306.288L946.893 244.765Z" fill="#C0EFDB"/>
<path d="M802.942 332.579L803.619 331.063L809.899 333.868L808.274 337.506L804.701 335.91L801.491 343.1L805.064 344.695L803.439 348.333L797.159 345.529L797.768 344.165C797.304 343.499 796.504 342.769 795.369 341.976C794.288 341.217 792.442 340.176 789.829 338.853L794.345 328.74L802.942 332.579ZM801.317 336.217L795.405 333.577L794.061 336.587C796.537 337.849 798.382 339.01 799.596 340.072L801.317 336.217ZM806.495 322.529L808.168 318.783C809.177 319.528 809.813 320.565 810.077 321.895C810.341 323.243 810.15 324.638 809.506 326.082C808.677 327.937 807.473 329.122 805.892 329.637C804.302 330.173 802.605 330.039 800.8 329.233C799.06 328.456 797.87 327.301 797.23 325.769C796.586 324.226 796.665 322.555 797.468 320.758C798.051 319.451 798.876 318.478 799.941 317.837C800.985 317.186 802.172 316.911 803.504 317.012C804.456 317.091 805.567 317.414 806.837 317.981L803.259 325.994C805.151 326.76 806.411 326.44 807.039 325.032C807.275 324.505 807.335 324.021 807.22 323.581C807.119 323.128 806.877 322.778 806.495 322.529ZM801.188 324.991L803.083 320.746C802.303 320.476 801.637 320.456 801.085 320.685C800.542 320.893 800.144 321.278 799.893 321.841C799.351 323.054 799.783 324.104 801.188 324.991ZM815.02 305.531L815.697 304.016L821.977 306.82L820.353 310.458L816.779 308.863L813.569 316.052L817.142 317.648L815.517 321.286L809.237 318.481L809.847 317.117C809.382 316.451 808.582 315.721 807.447 314.929C806.367 314.169 804.52 313.128 801.907 311.805L806.423 301.692L815.02 305.531ZM813.396 309.17L807.484 306.53L806.139 309.54C808.615 310.801 810.46 311.963 811.674 313.024L813.396 309.17ZM812.39 288.331L823.694 293.379L822.05 297.06L813.431 293.212L812.396 295.529C814.327 296.478 815.774 297.271 816.736 297.908C817.822 298.636 818.578 299.328 819.003 299.986C819.446 300.642 819.675 301.273 819.691 301.877C819.695 302.45 819.523 303.127 819.175 303.906C818.962 304.383 818.728 304.771 818.472 305.073L815.851 303.903C815.971 303.713 816.053 303.568 816.098 303.467C816.307 302.998 816.266 302.547 815.975 302.114C815.672 301.649 814.928 301.066 813.743 300.364C812.432 299.579 810.604 298.65 808.26 297.578L812.39 288.331ZM826.209 284.372L826.18 284.437C826.504 284.954 826.689 285.548 826.736 286.218C826.776 286.903 826.611 287.66 826.24 288.49C825.999 289.032 825.687 289.516 825.306 289.943C824.932 290.373 824.532 290.688 824.105 290.887C823.661 291.087 823.173 291.19 822.643 291.195C822.162 291.206 821.629 291.08 821.045 290.819C820.417 290.539 819.945 290.198 819.63 289.798C819.292 289.353 819.088 288.881 819.016 288.381C818.915 287.834 818.904 287.275 818.986 286.705C819.063 286.125 819.203 285.521 819.405 284.893C819.753 283.766 819.936 282.948 819.956 282.437C819.992 281.951 819.818 281.622 819.436 281.452C819.053 281.281 818.706 281.264 818.393 281.402C818.059 281.529 817.766 281.875 817.515 282.438C817.257 283.015 817.19 283.514 817.315 283.933C817.427 284.321 817.711 284.655 818.165 284.936L816.676 288.271C816.123 287.998 815.672 287.65 815.325 287.226C814.949 286.807 814.679 286.306 814.516 285.722C814.335 285.157 814.289 284.504 814.377 283.764C814.465 283.024 814.699 282.228 815.08 281.376C815.476 280.489 815.871 279.799 816.263 279.308C816.693 278.772 817.157 278.373 817.655 278.111C818.196 277.79 818.805 277.629 819.481 277.628C820.111 277.632 820.791 277.797 821.52 278.122L827.237 280.675C827.728 280.895 828.101 281.027 828.358 281.072C828.63 281.142 828.859 281.114 829.045 280.989L829.196 281.057L827.63 284.565C827.511 284.599 827.312 284.597 827.035 284.559C826.853 284.539 826.578 284.477 826.209 284.372ZM823.425 283.103L822.061 282.494C822.085 282.79 822.067 283.12 822.009 283.484C821.974 283.814 821.916 284.195 821.836 284.627C821.671 285.385 821.633 285.974 821.722 286.394C821.789 286.806 822.043 287.109 822.484 287.306C822.938 287.509 823.331 287.503 823.661 287.286C823.971 287.096 824.23 286.77 824.436 286.308C824.739 285.629 824.796 284.997 824.608 284.41C824.433 283.813 824.039 283.377 823.425 283.103ZM829.767 279.779L818.463 274.731L820.058 271.158L824.086 272.957C825.573 273.621 827.017 274.361 828.419 275.178L828.448 275.113C827.288 274.066 826.15 272.891 825.035 271.588L821.683 267.52L824.052 262.215L835.356 267.262L833.77 270.814L829.764 269.025C828.27 268.358 826.805 267.625 825.368 266.828L825.349 266.872C826.505 267.89 827.642 269.065 828.762 270.396L832.146 274.452L829.767 279.779ZM814.95 270.383L816.004 268.023C816.875 268.36 817.539 268.016 817.997 266.991C818.439 266.002 818.248 265.285 817.425 264.84L818.479 262.479C819.54 263.031 820.217 263.783 820.51 264.737C820.817 265.679 820.701 266.753 820.163 267.958C819.627 269.156 818.902 269.967 817.986 270.389C817.081 270.807 816.069 270.805 814.95 270.383ZM829.719 249.524L841.023 254.572L839.379 258.254L834.961 256.281L833.298 260.006L837.716 261.978L836.072 265.66L824.768 260.612L826.412 256.931L830.634 258.816L832.298 255.092L828.075 253.206L829.719 249.524ZM841.739 252.97L830.434 247.922L832.078 244.24L835.543 245.788L836.549 243.536C837.248 241.969 838.112 240.909 839.138 240.354C840.197 239.805 841.362 239.815 842.632 240.382C843.939 240.966 844.731 241.83 845.007 242.975C845.297 244.109 845.091 245.463 844.388 247.036L841.739 252.97ZM840.849 248.157L841.651 246.36C842.141 245.262 841.917 244.504 840.979 244.085C840.04 243.666 839.326 244.005 838.836 245.102L838.034 246.9L840.849 248.157ZM847.183 240.778L835.879 235.73L837.523 232.048L848.827 237.096L847.183 240.778Z" fill="black"/>
<path d="M344.244 581.228L345.691 580.414L349.061 586.41L345.588 588.362L343.67 584.951L336.807 588.809L338.724 592.221L335.251 594.173L331.881 588.178L333.183 587.445C333.207 586.634 333 585.571 332.561 584.258C332.146 583.004 331.284 581.067 329.975 578.448L339.63 573.02L344.244 581.228ZM340.77 583.18L337.598 577.536L334.724 579.152C335.96 581.64 336.748 583.673 337.09 585.249L340.77 583.18ZM353.087 575.277L356.664 573.267C357.03 574.466 356.922 575.679 356.341 576.903C355.75 578.142 354.765 579.149 353.387 579.924C351.616 580.92 349.942 581.153 348.366 580.624C346.77 580.107 345.487 578.987 344.519 577.264C343.585 575.604 343.318 573.967 343.718 572.355C344.12 570.732 345.18 569.438 346.895 568.473C348.143 567.772 349.385 567.482 350.623 567.602C351.849 567.702 352.966 568.19 353.975 569.064C354.692 569.695 355.392 570.617 356.074 571.83L348.424 576.13C349.486 577.873 350.688 578.367 352.032 577.611C352.535 577.329 352.872 576.976 353.043 576.553C353.231 576.13 353.246 575.705 353.087 575.277ZM347.359 574.09L351.411 571.812C350.946 571.13 350.424 570.716 349.843 570.571C349.283 570.414 348.735 570.487 348.197 570.789C347.039 571.44 346.76 572.54 347.359 574.09ZM370.065 566.712L371.512 565.899L374.883 571.894L371.41 573.847L369.492 570.436L362.628 574.294L364.546 577.705L361.073 579.658L357.702 573.662L359.005 572.93C359.029 572.118 358.822 571.056 358.383 569.743C357.968 568.489 357.106 566.552 355.797 563.932L365.451 558.505L370.065 566.712ZM366.592 568.665L363.419 563.021L360.546 564.636C361.781 567.125 362.57 569.157 362.912 570.733L366.592 568.665ZM378.207 551.334L384.274 562.126L380.759 564.102L376.134 555.874L373.922 557.117C374.906 559.03 375.595 560.529 375.988 561.615C376.426 562.847 376.62 563.853 376.569 564.634C376.533 565.425 376.342 566.068 375.994 566.563C375.655 567.025 375.114 567.466 374.37 567.884C373.915 568.14 373.495 568.312 373.11 568.402L371.704 565.9C371.912 565.819 372.065 565.752 372.161 565.698C372.609 565.446 372.845 565.059 372.869 564.538C372.903 563.984 372.653 563.072 372.121 561.802C371.535 560.39 370.622 558.555 369.38 556.297L378.207 551.334ZM391.663 556.395L391.601 556.429C391.552 557.037 391.347 557.624 390.985 558.19C390.609 558.764 390.025 559.274 389.233 559.719C388.716 560.01 388.177 560.213 387.616 560.329C387.06 560.451 386.551 560.465 386.089 560.371C385.614 560.266 385.161 560.058 384.732 559.746C384.34 559.468 383.987 559.05 383.673 558.492C383.336 557.892 383.16 557.338 383.146 556.829C383.14 556.27 383.257 555.769 383.498 555.325C383.743 554.825 384.067 554.37 384.472 553.961C384.88 553.541 385.353 553.14 385.89 552.756C386.84 552.059 387.475 551.511 387.796 551.113C388.114 550.744 388.171 550.377 387.966 550.011C387.76 549.646 387.491 549.426 387.158 549.35C386.814 549.253 386.373 549.356 385.835 549.658C385.284 549.968 384.933 550.328 384.783 550.739C384.642 551.118 384.671 551.555 384.868 552.052L381.684 553.842C381.403 553.292 381.249 552.744 381.222 552.197C381.17 551.637 381.253 551.073 381.47 550.507C381.662 549.946 382.014 549.394 382.526 548.852C383.037 548.311 383.7 547.811 384.513 547.354C385.361 546.878 386.088 546.559 386.697 546.399C387.361 546.225 387.971 546.181 388.527 546.268C389.153 546.333 389.738 546.566 390.281 546.968C390.785 547.347 391.232 547.885 391.623 548.581L394.691 554.039C394.955 554.507 395.176 554.837 395.355 555.026C395.532 555.244 395.732 555.358 395.956 555.369L396.037 555.513L392.688 557.396C392.573 557.352 392.415 557.232 392.214 557.037C392.081 556.912 391.897 556.698 391.663 556.395ZM390.184 553.716L389.452 552.413C389.294 552.665 389.084 552.92 388.82 553.177C388.595 553.421 388.321 553.693 387.999 553.992C387.415 554.502 387.034 554.952 386.854 555.343C386.663 555.713 386.686 556.108 386.922 556.529C387.167 556.963 387.486 557.192 387.88 557.215C388.242 557.247 388.644 557.139 389.085 556.891C389.733 556.527 390.156 556.053 390.354 555.47C390.57 554.887 390.513 554.302 390.184 553.716ZM397.257 554.828L391.19 544.036L394.602 542.118L396.763 545.964C397.561 547.383 398.28 548.839 398.918 550.33L398.98 550.295C398.672 548.763 398.459 547.141 398.341 545.43L398.075 540.166L403.14 537.319L409.207 548.11L405.816 550.016L403.666 546.192C402.864 544.765 402.124 543.304 401.446 541.807L401.405 541.831C401.726 543.337 401.939 544.959 402.044 546.695L402.343 551.969L397.257 554.828ZM390.962 538.451L393.215 537.184C393.714 537.974 394.452 538.094 395.431 537.544C396.375 537.013 396.65 536.324 396.255 535.476L398.508 534.209C399.031 535.284 399.126 536.292 398.793 537.232C398.477 538.171 397.744 538.964 396.593 539.611C395.449 540.254 394.384 540.472 393.397 540.265C392.421 540.061 391.609 539.457 390.962 538.451ZM415.255 530.508L421.321 541.3L417.807 543.276L415.436 539.058L411.88 541.057L414.251 545.275L410.736 547.25L404.67 536.459L408.184 534.483L410.451 538.514L414.007 536.515L411.74 532.484L415.255 530.508ZM422.851 540.44L416.785 529.648L420.299 527.673L422.159 530.98L424.309 529.772C425.804 528.931 427.129 528.594 428.284 528.761C429.462 528.952 430.391 529.654 431.073 530.867C431.774 532.114 431.895 533.28 431.434 534.364C430.991 535.447 430.018 536.411 428.516 537.256L422.851 540.44ZM425.006 536.045L426.722 535.081C427.77 534.492 428.041 533.75 427.538 532.854C427.034 531.958 426.259 531.804 425.211 532.393L423.495 533.358L425.006 536.045ZM434.491 533.897L428.424 523.105L431.939 521.13L438.005 531.921L434.491 533.897Z" fill="black"/>
<path d="M873.934 483.96C875.532 484.103 876.795 484.542 877.721 485.275C878.609 485.998 879.003 486.922 878.902 488.048C878.841 488.725 878.627 489.261 878.258 489.657C877.881 490.06 877.306 490.358 876.535 490.551L876.531 490.598C877.39 490.936 877.979 491.362 878.298 491.875C878.634 492.381 878.766 493.028 878.696 493.815C878.587 495.036 878.007 495.921 876.958 496.47C875.916 497.027 874.517 497.228 872.761 497.071C870.864 496.901 869.441 496.393 868.493 495.546C867.539 494.667 867.129 493.488 867.261 492.007L871.112 492.352C871.008 493.517 871.641 494.161 873.011 494.283C873.554 494.332 873.99 494.252 874.318 494.043C874.653 493.851 874.837 493.566 874.871 493.188C874.947 492.337 874.315 491.852 872.977 491.732L871.796 491.627L872.022 489.099L873.203 489.205C873.77 489.256 874.221 489.185 874.555 488.992C874.89 488.8 875.075 488.507 875.11 488.113C875.145 487.728 875.03 487.416 874.765 487.178C874.508 486.948 874.123 486.811 873.611 486.765C872.997 486.71 872.527 486.819 872.201 487.091C871.845 487.345 871.643 487.74 871.595 488.275L867.887 487.944C868.013 486.526 868.615 485.477 869.692 484.795C870.78 484.083 872.193 483.805 873.934 483.96ZM887.304 496.609L887.233 496.603C886.849 497.076 886.348 497.444 885.729 497.706C885.095 497.967 884.325 498.057 883.419 497.976C882.829 497.923 882.27 497.786 881.742 497.564C881.213 497.35 880.786 497.074 880.459 496.735C880.125 496.38 879.87 495.952 879.692 495.452C879.526 495.001 879.472 494.456 879.529 493.818C879.59 493.133 879.759 492.577 880.035 492.149C880.347 491.685 880.727 491.338 881.176 491.108C881.661 490.834 882.186 490.643 882.751 490.535C883.325 490.419 883.942 490.356 884.602 490.343C885.78 490.306 886.614 490.213 887.103 490.067C887.574 489.942 887.829 489.671 887.866 489.254C887.903 488.837 887.806 488.503 887.575 488.252C887.345 487.977 886.923 487.812 886.309 487.758C885.679 487.701 885.186 487.8 884.83 488.054C884.5 488.286 884.276 488.663 884.158 489.184L880.52 488.859C880.598 488.247 880.782 487.708 881.069 487.241C881.343 486.75 881.73 486.332 882.229 485.988C882.705 485.634 883.308 485.378 884.036 485.221C884.764 485.064 885.593 485.027 886.522 485.11C887.491 485.196 888.271 485.345 888.863 485.557C889.509 485.79 890.037 486.099 890.447 486.485C890.927 486.893 891.277 487.416 891.497 488.055C891.698 488.652 891.763 489.348 891.692 490.144L891.134 496.38C891.086 496.915 891.082 497.312 891.123 497.57C891.145 497.849 891.246 498.057 891.424 498.192L891.41 498.357L887.583 498.015C887.513 497.913 887.45 497.725 887.395 497.451C887.356 497.272 887.325 496.992 887.304 496.609ZM887.6 493.564L887.733 492.076C887.46 492.194 887.143 492.285 886.78 492.348C886.456 492.422 886.077 492.491 885.642 492.555C884.872 492.645 884.303 492.801 883.934 493.022C883.567 493.219 883.362 493.558 883.319 494.038C883.275 494.534 883.408 494.903 883.72 495.146C884.001 495.377 884.393 495.515 884.897 495.56C885.637 495.627 886.254 495.475 886.748 495.107C887.256 494.747 887.54 494.233 887.6 493.564ZM906.414 496.722L908.067 496.87L907.455 503.721L903.486 503.366L903.835 499.468L895.992 498.767L895.644 502.665L891.675 502.31L892.288 495.459L893.776 495.592C894.255 494.937 894.685 493.943 895.066 492.612C895.434 491.343 895.819 489.259 896.221 486.358L907.252 487.344L906.414 496.722ZM902.445 496.367L903.022 489.919L899.738 489.625C899.35 492.376 898.85 494.498 898.241 495.991L902.445 496.367ZM916.359 499.207L916.288 499.2C915.905 499.674 915.403 500.042 914.785 500.304C914.15 500.565 913.38 500.655 912.475 500.574C911.884 500.521 911.325 500.384 910.797 500.162C910.269 499.948 909.841 499.672 909.514 499.333C909.181 498.978 908.925 498.55 908.748 498.05C908.582 497.599 908.527 497.054 908.584 496.416C908.646 495.731 908.814 495.175 909.091 494.747C909.402 494.283 909.782 493.936 910.231 493.706C910.716 493.432 911.241 493.241 911.807 493.133C912.38 493.017 912.997 492.953 913.657 492.941C914.835 492.903 915.669 492.811 916.158 492.665C916.63 492.54 916.884 492.269 916.922 491.852C916.959 491.435 916.862 491.1 916.63 490.85C916.401 490.575 915.979 490.41 915.365 490.355C914.735 490.299 914.242 490.398 913.886 490.652C913.555 490.884 913.331 491.261 913.213 491.782L909.575 491.457C909.654 490.845 909.837 490.306 910.125 489.839C910.399 489.348 910.785 488.93 911.285 488.586C911.761 488.231 912.363 487.976 913.091 487.819C913.82 487.662 914.648 487.625 915.578 487.708C916.546 487.794 917.327 487.943 917.919 488.155C918.565 488.387 919.093 488.697 919.503 489.082C919.982 489.49 920.332 490.014 920.553 490.653C920.753 491.25 920.818 491.946 920.747 492.742L920.189 498.978C920.142 499.513 920.138 499.91 920.178 500.167C920.201 500.447 920.301 500.655 920.48 500.79L920.465 500.955L916.638 500.613C916.568 500.511 916.505 500.323 916.451 500.048C916.411 499.87 916.38 499.59 916.359 499.207ZM916.655 496.162L916.788 494.673C916.516 494.792 916.198 494.883 915.835 494.945C915.511 495.02 915.132 495.089 914.698 495.153C913.928 495.243 913.358 495.399 912.989 495.62C912.622 495.817 912.417 496.156 912.374 496.636C912.33 497.132 912.464 497.501 912.775 497.743C913.056 497.975 913.449 498.113 913.953 498.158C914.693 498.224 915.31 498.073 915.803 497.705C916.311 497.345 916.595 496.831 916.655 496.162ZM934.205 489.754L933.103 502.085L929.087 501.726L929.472 497.427C928.353 497.596 927.231 497.631 926.105 497.53C924.695 497.404 923.631 496.976 922.91 496.245C922.213 495.516 921.92 494.537 922.03 493.309L922.442 488.702L926.457 489.061L926.115 492.888C926.014 494.022 926.585 494.645 927.829 494.756C928.483 494.814 929.113 494.775 929.721 494.639L930.19 489.395L934.205 489.754ZM934.851 502.241L935.954 489.91L939.851 490.259L939.458 494.653C939.313 496.275 939.082 497.881 938.766 499.472L938.836 499.478C939.449 498.041 940.191 496.583 941.061 495.105L943.82 490.614L949.607 491.131L948.505 503.462L944.631 503.116L945.021 498.746C945.167 497.116 945.384 495.492 945.671 493.875L945.624 493.87C945.036 495.294 944.295 496.752 943.399 498.243L940.662 502.761L934.851 502.241Z" fill="black"/>
<path d="M151.932 426.96C153.53 427.103 154.793 427.542 155.719 428.275C156.607 428.998 157.001 429.922 156.9 431.048C156.839 431.725 156.625 432.261 156.256 432.657C155.879 433.06 155.304 433.358 154.533 433.551L154.529 433.598C155.388 433.936 155.977 434.362 156.296 434.875C156.632 435.381 156.764 436.028 156.694 436.815C156.585 438.036 156.006 438.921 154.956 439.47C153.914 440.027 152.515 440.228 150.759 440.071C148.862 439.901 147.439 439.393 146.491 438.546C145.538 437.667 145.127 436.488 145.259 435.007L149.11 435.352C149.006 436.517 149.639 437.161 151.009 437.283C151.552 437.332 151.988 437.252 152.316 437.043C152.651 436.851 152.835 436.566 152.869 436.188C152.945 435.337 152.313 434.852 150.975 434.732L149.794 434.627L150.02 432.099L151.201 432.205C151.768 432.256 152.219 432.185 152.553 431.992C152.888 431.8 153.073 431.507 153.108 431.113C153.143 430.728 153.028 430.416 152.763 430.178C152.506 429.948 152.121 429.811 151.609 429.765C150.995 429.71 150.525 429.819 150.199 430.091C149.843 430.345 149.641 430.74 149.593 431.275L145.885 430.944C146.011 429.526 146.613 428.477 147.69 427.795C148.778 427.083 150.192 426.805 151.932 426.96ZM165.302 439.609L165.231 439.603C164.847 440.076 164.346 440.444 163.727 440.706C163.093 440.967 162.323 441.057 161.417 440.976C160.827 440.923 160.268 440.786 159.74 440.564C159.211 440.35 158.784 440.074 158.457 439.735C158.123 439.38 157.868 438.952 157.69 438.452C157.524 438.001 157.47 437.456 157.527 436.818C157.588 436.133 157.757 435.577 158.033 435.149C158.345 434.685 158.725 434.338 159.174 434.108C159.659 433.834 160.184 433.643 160.749 433.535C161.323 433.419 161.94 433.356 162.6 433.343C163.778 433.306 164.612 433.213 165.101 433.067C165.572 432.942 165.827 432.671 165.864 432.254C165.901 431.837 165.804 431.503 165.573 431.252C165.343 430.977 164.922 430.812 164.307 430.758C163.677 430.701 163.184 430.8 162.828 431.054C162.498 431.286 162.274 431.663 162.156 432.184L158.518 431.859C158.597 431.247 158.78 430.708 159.067 430.241C159.342 429.75 159.728 429.332 160.227 428.988C160.703 428.634 161.306 428.378 162.034 428.221C162.762 428.064 163.591 428.027 164.52 428.11C165.489 428.196 166.269 428.345 166.861 428.557C167.507 428.79 168.035 429.099 168.445 429.485C168.925 429.893 169.275 430.416 169.495 431.055C169.696 431.652 169.761 432.348 169.69 433.144L169.132 439.38C169.084 439.915 169.08 440.312 169.121 440.57C169.144 440.849 169.244 441.057 169.422 441.192L169.408 441.357L165.581 441.015C165.511 440.913 165.448 440.725 165.393 440.451C165.354 440.272 165.323 439.992 165.302 439.609ZM165.598 436.564L165.731 435.076C165.458 435.194 165.141 435.285 164.778 435.348C164.454 435.422 164.075 435.491 163.64 435.555C162.87 435.645 162.301 435.801 161.932 436.022C161.565 436.219 161.36 436.558 161.317 437.038C161.273 437.534 161.406 437.903 161.718 438.146C161.999 438.377 162.391 438.515 162.895 438.56C163.636 438.627 164.252 438.475 164.746 438.107C165.254 437.747 165.538 437.233 165.598 436.564ZM184.412 439.722L186.066 439.87L185.453 446.721L181.484 446.366L181.833 442.468L173.99 441.767L173.642 445.665L169.673 445.31L170.286 438.459L171.774 438.592C172.253 437.937 172.683 436.943 173.064 435.612C173.432 434.343 173.817 432.259 174.219 429.358L185.25 430.344L184.412 439.722ZM180.443 439.367L181.02 432.919L177.737 432.625C177.348 435.376 176.848 437.498 176.239 438.991L180.443 439.367ZM194.357 442.207L194.286 442.2C193.903 442.674 193.401 443.042 192.783 443.304C192.148 443.565 191.378 443.655 190.473 443.574C189.882 443.521 189.323 443.384 188.795 443.162C188.267 442.948 187.839 442.672 187.512 442.333C187.179 441.978 186.923 441.55 186.746 441.05C186.58 440.599 186.525 440.054 186.582 439.416C186.644 438.731 186.812 438.175 187.089 437.747C187.4 437.283 187.78 436.936 188.229 436.706C188.714 436.432 189.239 436.241 189.805 436.133C190.379 436.017 190.995 435.953 191.655 435.941C192.833 435.903 193.667 435.811 194.156 435.665C194.628 435.54 194.882 435.269 194.92 434.852C194.957 434.435 194.86 434.1 194.628 433.85C194.399 433.575 193.977 433.41 193.363 433.355C192.733 433.299 192.24 433.398 191.884 433.652C191.553 433.884 191.329 434.261 191.211 434.782L187.573 434.457C187.652 433.845 187.835 433.306 188.123 432.839C188.397 432.348 188.784 431.93 189.283 431.586C189.759 431.231 190.361 430.976 191.089 430.819C191.818 430.662 192.647 430.625 193.576 430.708C194.544 430.794 195.325 430.943 195.917 431.155C196.563 431.387 197.091 431.697 197.501 432.082C197.98 432.49 198.33 433.014 198.551 433.653C198.751 434.25 198.816 434.946 198.745 435.742L198.187 441.978C198.14 442.513 198.136 442.91 198.176 443.167C198.199 443.447 198.299 443.655 198.478 443.79L198.463 443.955L194.636 443.613C194.566 443.511 194.503 443.323 194.449 443.048C194.409 442.87 194.379 442.59 194.357 442.207ZM194.653 439.162L194.786 437.673C194.514 437.792 194.196 437.883 193.833 437.945C193.509 438.02 193.13 438.089 192.696 438.153C191.926 438.243 191.356 438.399 190.987 438.62C190.62 438.817 190.415 439.156 190.372 439.636C190.328 440.132 190.462 440.501 190.773 440.743C191.054 440.975 191.447 441.113 191.951 441.158C192.691 441.224 193.308 441.073 193.801 440.705C194.309 440.345 194.593 439.831 194.653 439.162ZM212.204 432.754L211.101 445.085L207.085 444.726L207.47 440.427C206.351 440.596 205.229 440.631 204.103 440.53C202.693 440.404 201.629 439.976 200.908 439.245C200.211 438.516 199.918 437.537 200.028 436.309L200.44 431.702L204.455 432.061L204.113 435.888C204.012 437.022 204.583 437.645 205.827 437.756C206.481 437.814 207.111 437.775 207.719 437.639L208.188 432.395L212.204 432.754ZM212.849 445.241L213.952 432.91L217.849 433.259L217.456 437.653C217.311 439.275 217.08 440.881 216.764 442.472L216.834 442.478C217.447 441.041 218.189 439.583 219.059 438.105L221.818 433.614L227.605 434.131L226.503 446.462L222.629 446.116L223.019 441.746C223.165 440.116 223.382 438.492 223.669 436.875L223.622 436.87C223.034 438.294 222.293 439.752 221.398 441.243L218.66 445.761L212.849 445.241Z" fill="black"/>
<path d="M929.934 338.96C931.532 339.103 932.795 339.542 933.721 340.275C934.609 340.998 935.003 341.922 934.902 343.048C934.841 343.725 934.627 344.261 934.258 344.657C933.881 345.06 933.306 345.358 932.535 345.551L932.531 345.598C933.39 345.936 933.979 346.362 934.298 346.875C934.634 347.381 934.766 348.028 934.696 348.815C934.587 350.036 934.007 350.921 932.958 351.47C931.916 352.027 930.517 352.228 928.761 352.071C926.864 351.901 925.441 351.393 924.493 350.546C923.539 349.667 923.129 348.488 923.261 347.007L927.112 347.352C927.008 348.517 927.641 349.161 929.011 349.283C929.554 349.332 929.99 349.252 930.318 349.043C930.653 348.851 930.837 348.566 930.871 348.188C930.947 347.337 930.315 346.852 928.977 346.732L927.796 346.627L928.022 344.099L929.203 344.205C929.77 344.256 930.221 344.185 930.555 343.992C930.89 343.8 931.075 343.507 931.11 343.113C931.145 342.728 931.03 342.416 930.765 342.178C930.508 341.948 930.123 341.811 929.611 341.765C928.997 341.71 928.527 341.819 928.201 342.091C927.845 342.345 927.643 342.74 927.595 343.275L923.887 342.944C924.013 341.526 924.615 340.477 925.692 339.795C926.78 339.083 928.193 338.805 929.934 338.96ZM943.304 351.609L943.233 351.603C942.849 352.076 942.348 352.444 941.729 352.706C941.095 352.967 940.325 353.057 939.419 352.976C938.829 352.923 938.27 352.786 937.742 352.564C937.213 352.35 936.786 352.074 936.459 351.735C936.125 351.38 935.87 350.952 935.692 350.452C935.526 350.001 935.472 349.456 935.529 348.818C935.59 348.133 935.759 347.577 936.035 347.149C936.347 346.685 936.727 346.338 937.176 346.108C937.661 345.834 938.186 345.643 938.751 345.535C939.325 345.419 939.942 345.356 940.602 345.343C941.78 345.306 942.614 345.213 943.103 345.067C943.574 344.942 943.829 344.671 943.866 344.254C943.903 343.837 943.806 343.503 943.575 343.252C943.345 342.977 942.923 342.812 942.309 342.758C941.679 342.701 941.186 342.8 940.83 343.054C940.5 343.286 940.276 343.663 940.158 344.184L936.52 343.859C936.598 343.247 936.782 342.708 937.069 342.241C937.343 341.75 937.73 341.332 938.229 340.988C938.705 340.634 939.308 340.378 940.036 340.221C940.764 340.064 941.593 340.027 942.522 340.11C943.491 340.196 944.271 340.345 944.863 340.557C945.509 340.79 946.037 341.099 946.447 341.485C946.927 341.893 947.277 342.416 947.497 343.055C947.698 343.652 947.763 344.348 947.692 345.144L947.134 351.38C947.086 351.915 947.082 352.312 947.123 352.57C947.145 352.849 947.246 353.057 947.424 353.192L947.41 353.357L943.583 353.015C943.513 352.913 943.45 352.725 943.395 352.451C943.356 352.272 943.325 351.992 943.304 351.609ZM943.6 348.564L943.733 347.076C943.46 347.194 943.143 347.285 942.78 347.348C942.456 347.422 942.077 347.491 941.642 347.555C940.872 347.645 940.303 347.801 939.934 348.022C939.567 348.219 939.362 348.558 939.319 349.038C939.275 349.534 939.408 349.903 939.72 350.146C940.001 350.377 940.393 350.515 940.897 350.56C941.637 350.627 942.254 350.475 942.748 350.107C943.256 349.747 943.54 349.233 943.6 348.564ZM962.414 351.722L964.067 351.87L963.455 358.721L959.486 358.366L959.835 354.468L951.992 353.767L951.644 357.665L947.675 357.31L948.288 350.459L949.776 350.592C950.255 349.937 950.685 348.943 951.066 347.612C951.434 346.343 951.819 344.259 952.221 341.358L963.252 342.344L962.414 351.722ZM958.445 351.367L959.022 344.919L955.738 344.625C955.35 347.376 954.85 349.498 954.241 350.991L958.445 351.367ZM972.359 354.207L972.288 354.2C971.905 354.674 971.403 355.042 970.785 355.304C970.15 355.565 969.38 355.655 968.475 355.574C967.884 355.521 967.325 355.384 966.797 355.162C966.269 354.948 965.841 354.672 965.514 354.333C965.181 353.978 964.925 353.55 964.748 353.05C964.582 352.599 964.527 352.054 964.584 351.416C964.646 350.731 964.814 350.175 965.091 349.747C965.402 349.283 965.782 348.936 966.231 348.706C966.716 348.432 967.241 348.241 967.807 348.133C968.38 348.017 968.997 347.953 969.657 347.941C970.835 347.903 971.669 347.811 972.158 347.665C972.63 347.54 972.884 347.269 972.922 346.852C972.959 346.435 972.862 346.1 972.63 345.85C972.401 345.575 971.979 345.41 971.365 345.355C970.735 345.299 970.242 345.398 969.886 345.652C969.555 345.884 969.331 346.261 969.213 346.782L965.575 346.457C965.654 345.845 965.837 345.306 966.125 344.839C966.399 344.348 966.785 343.93 967.285 343.586C967.761 343.231 968.363 342.976 969.091 342.819C969.82 342.662 970.648 342.625 971.578 342.708C972.546 342.794 973.327 342.943 973.919 343.155C974.565 343.387 975.093 343.697 975.503 344.082C975.982 344.49 976.332 345.014 976.553 345.653C976.753 346.25 976.818 346.946 976.747 347.742L976.189 353.978C976.142 354.513 976.138 354.91 976.178 355.167C976.201 355.447 976.301 355.655 976.48 355.79L976.465 355.955L972.638 355.613C972.568 355.511 972.505 355.323 972.451 355.048C972.411 354.87 972.38 354.59 972.359 354.207ZM972.655 351.162L972.788 349.673C972.516 349.792 972.198 349.883 971.835 349.945C971.511 350.02 971.132 350.089 970.698 350.153C969.928 350.243 969.358 350.399 968.989 350.62C968.622 350.817 968.417 351.156 968.374 351.636C968.33 352.132 968.464 352.501 968.775 352.743C969.056 352.975 969.449 353.113 969.953 353.158C970.693 353.224 971.31 353.073 971.803 352.705C972.311 352.345 972.595 351.831 972.655 351.162ZM990.205 344.754L989.103 357.085L985.087 356.726L985.472 352.427C984.353 352.596 983.231 352.631 982.105 352.53C980.695 352.404 979.631 351.976 978.91 351.245C978.213 350.516 977.92 349.537 978.03 348.309L978.442 343.702L982.457 344.061L982.115 347.888C982.014 349.022 982.585 349.645 983.829 349.756C984.483 349.814 985.113 349.775 985.721 349.639L986.19 344.395L990.205 344.754ZM990.851 357.241L991.954 344.91L995.851 345.259L995.458 349.653C995.313 351.275 995.082 352.881 994.766 354.472L994.836 354.478C995.449 353.041 996.191 351.583 997.061 350.105L999.82 345.614L1005.61 346.131L1004.5 358.462L1000.63 358.116L1001.02 353.746C1001.17 352.116 1001.38 350.492 1001.67 348.875L1001.62 348.87C1001.04 350.294 1000.29 351.752 999.399 353.243L996.662 357.761L990.851 357.241Z" fill="black"/>
<path d="M877.857 545.488L879.26 546.376L875.579 552.186L872.213 550.054L874.307 546.748L867.656 542.534L865.562 545.84L862.196 543.707L865.877 537.897L867.139 538.697C867.865 538.334 868.703 537.647 869.651 536.638C870.558 535.678 871.855 534.001 873.54 531.606L882.896 537.534L877.857 545.488ZM874.492 543.355L877.957 537.886L875.172 536.122C873.567 538.389 872.151 540.047 870.926 541.096L874.492 543.355ZM887.29 550.453L890.756 552.648C889.873 553.54 888.754 554.02 887.401 554.089C886.029 554.156 884.676 553.766 883.34 552.92C881.624 551.832 880.625 550.47 880.343 548.831C880.042 547.18 880.42 545.52 881.478 543.85C882.497 542.241 883.811 541.23 885.42 540.818C887.04 540.403 888.682 540.722 890.345 541.775C891.553 542.541 892.398 543.498 892.879 544.644C893.372 545.771 893.473 546.986 893.181 548.289C892.965 549.22 892.485 550.272 891.741 551.448L884.328 546.752C883.297 548.513 883.432 549.806 884.734 550.631C885.222 550.939 885.692 551.069 886.145 551.019C886.607 550.984 886.988 550.795 887.29 550.453ZM885.62 544.846L889.546 547.334C889.926 546.601 890.042 545.945 889.895 545.365C889.768 544.798 889.444 544.349 888.923 544.019C887.801 543.309 886.7 543.584 885.62 544.846ZM906.737 552.638L900.111 563.096L896.706 560.938L901.757 552.965L899.614 551.607C898.396 553.381 897.403 554.698 896.633 555.558C895.756 556.528 894.962 557.176 894.25 557.502C893.537 557.845 892.88 557.981 892.279 557.91C891.712 557.831 891.067 557.563 890.346 557.106C889.905 556.827 889.554 556.539 889.293 556.242L890.829 553.818C890.999 553.963 891.131 554.065 891.224 554.125C891.658 554.4 892.111 554.424 892.581 554.198C893.085 553.965 893.769 553.313 894.635 552.242C895.601 551.057 896.783 549.383 898.182 547.219L906.737 552.638ZM908.661 566.884L908.601 566.846C908.043 567.092 907.429 567.189 906.759 567.139C906.075 567.081 905.35 566.808 904.582 566.321C904.081 566.004 903.647 565.626 903.279 565.187C902.907 564.755 902.653 564.313 902.518 563.863C902.384 563.394 902.353 562.897 902.424 562.371C902.483 561.894 902.684 561.385 903.026 560.844C903.395 560.263 903.799 559.846 904.241 559.592C904.73 559.322 905.227 559.187 905.732 559.189C906.288 559.167 906.842 559.237 907.395 559.4C907.958 559.56 908.535 559.786 909.128 560.077C910.192 560.583 910.975 560.883 911.478 560.976C911.954 561.081 912.304 560.957 912.528 560.603C912.753 560.249 912.819 559.907 912.728 559.578C912.65 559.229 912.35 558.89 911.829 558.56C911.295 558.221 910.812 558.083 910.379 558.146C909.979 558.202 909.607 558.434 909.263 558.843L906.178 556.889C906.528 556.38 906.938 555.985 907.407 555.702C907.876 555.391 908.411 555.196 909.012 555.118C909.598 555.022 910.25 555.07 910.97 555.264C911.689 555.458 912.443 555.804 913.231 556.303C914.052 556.824 914.678 557.314 915.107 557.773C915.575 558.275 915.903 558.792 916.091 559.323C916.33 559.905 916.402 560.53 916.306 561.199C916.211 561.822 915.949 562.471 915.522 563.145L912.171 568.434C911.883 568.888 911.699 569.239 911.617 569.487C911.509 569.746 911.503 569.976 911.6 570.178L911.511 570.318L908.265 568.262C908.249 568.14 908.28 567.944 908.357 567.674C908.403 567.498 908.505 567.234 908.661 566.884ZM910.318 564.313L911.118 563.05C910.821 563.031 910.498 562.966 910.146 562.856C909.824 562.774 909.455 562.661 909.04 562.52C908.314 562.247 907.737 562.125 907.307 562.152C906.891 562.16 906.553 562.367 906.295 562.775C906.029 563.195 905.979 563.585 906.145 563.943C906.289 564.277 906.574 564.58 907.002 564.85C907.629 565.248 908.247 565.396 908.854 565.294C909.471 565.207 909.959 564.88 910.318 564.313Z" fill="black"/>
<path d="M621.851 611.486L623.23 612.41L619.401 618.123L616.091 615.905L618.27 612.654L611.729 608.27L609.55 611.521L606.241 609.303L610.07 603.589L611.311 604.421C612.046 604.077 612.901 603.412 613.875 602.428C614.807 601.492 616.146 599.849 617.893 597.498L627.093 603.665L621.851 611.486ZM618.541 609.267L622.146 603.889L619.408 602.054C617.745 604.279 616.287 605.9 615.034 606.917L618.541 609.267ZM631.152 616.692L634.56 618.977C633.655 619.845 632.524 620.296 631.169 620.33C629.797 620.361 628.454 619.937 627.14 619.057C625.453 617.926 624.489 616.537 624.25 614.892C623.991 613.234 624.412 611.584 625.512 609.942C626.573 608.36 627.913 607.383 629.532 607.012C631.162 606.639 632.794 607.001 634.429 608.097C635.618 608.893 636.438 609.871 636.889 611.03C637.353 612.169 637.422 613.386 637.097 614.681C636.858 615.606 636.351 616.646 635.576 617.802L628.287 612.916C627.21 614.65 627.312 615.946 628.593 616.804C629.072 617.126 629.539 617.267 629.993 617.229C630.456 617.206 630.842 617.027 631.152 616.692ZM629.627 611.045L633.488 613.633C633.887 612.91 634.02 612.257 633.888 611.674C633.775 611.103 633.463 610.646 632.951 610.303C631.847 609.564 630.739 609.811 629.627 611.045ZM650.537 619.378L643.644 629.662L640.295 627.417L645.55 619.576L643.442 618.163C642.179 619.905 641.152 621.197 640.361 622.037C639.46 622.984 638.649 623.611 637.929 623.918C637.207 624.243 636.547 624.362 635.948 624.275C635.383 624.182 634.745 623.897 634.036 623.422C633.603 623.131 633.259 622.834 633.006 622.531L634.603 620.148C634.77 620.297 634.899 620.403 634.991 620.464C635.418 620.75 635.869 620.787 636.345 620.573C636.855 620.353 637.556 619.719 638.449 618.671C639.445 617.511 640.67 615.867 642.125 613.74L650.537 619.378ZM652.093 633.669L652.034 633.629C651.47 633.86 650.854 633.942 650.185 633.875C649.503 633.798 648.785 633.507 648.03 633.001C647.537 632.671 647.113 632.282 646.756 631.834C646.396 631.392 646.153 630.944 646.03 630.49C645.908 630.018 645.89 629.52 645.974 628.997C646.045 628.521 646.259 628.017 646.616 627.485C646.999 626.914 647.414 626.507 647.862 626.265C648.358 626.007 648.859 625.886 649.363 625.9C649.92 625.893 650.472 625.978 651.02 626.154C651.578 626.329 652.15 626.569 652.735 626.876C653.786 627.409 654.561 627.729 655.061 627.835C655.534 627.953 655.888 627.837 656.121 627.489C656.354 627.141 656.43 626.802 656.347 626.47C656.278 626.119 655.987 625.772 655.475 625.429C654.949 625.077 654.47 624.926 654.035 624.978C653.634 625.023 653.256 625.246 652.902 625.646L649.868 623.613C650.231 623.114 650.651 622.729 651.128 622.458C651.604 622.159 652.144 621.978 652.747 621.916C653.335 621.834 653.986 621.899 654.7 622.112C655.415 622.324 656.159 622.69 656.934 623.209C657.742 623.751 658.354 624.256 658.772 624.727C659.227 625.241 659.541 625.766 659.715 626.301C659.94 626.889 659.995 627.516 659.882 628.183C659.77 628.803 659.493 629.445 659.048 630.108L655.562 635.309C655.263 635.755 655.069 636.101 654.981 636.347C654.866 636.603 654.854 636.833 654.946 637.037L654.854 637.175L651.662 635.036C651.649 634.913 651.685 634.718 651.769 634.451C651.82 634.276 651.928 634.015 652.093 633.669ZM653.816 631.141L654.648 629.9C654.352 629.873 654.03 629.799 653.682 629.68C653.362 629.589 652.996 629.468 652.584 629.316C651.866 629.024 651.291 628.887 650.862 628.904C650.445 628.9 650.103 629.099 649.834 629.5C649.557 629.913 649.497 630.301 649.654 630.663C649.789 631.001 650.066 631.311 650.487 631.593C651.104 632.007 651.717 632.17 652.327 632.084C652.946 632.013 653.442 631.699 653.816 631.141Z" fill="black"/>
<path d="M227.991 536.622C227.294 536.147 226.717 535.557 226.262 534.853C225.787 534.129 225.454 533.31 225.262 532.398C225.075 531.508 225.051 530.624 225.19 529.747C225.323 528.919 225.613 528.147 226.06 527.431C226.519 526.729 227.113 526.136 227.843 525.651C228.587 525.156 229.443 524.806 230.41 524.603C231.4 524.395 232.324 524.371 233.181 524.53C234.062 524.684 234.837 524.99 235.507 525.447C236.218 525.911 236.802 526.499 237.259 527.211C237.739 527.959 238.072 528.777 238.259 529.667C238.451 530.58 238.475 531.463 238.332 532.318C238.2 533.153 237.902 533.926 237.438 534.638C236.99 535.354 236.405 535.953 235.683 536.436C234.962 536.927 234.106 537.277 233.116 537.485C232.149 537.688 231.225 537.712 230.345 537.558C229.506 537.411 228.721 537.099 227.991 536.622ZM230.372 534.111C230.963 534.697 231.677 534.903 232.513 534.727C233.364 534.549 233.942 534.072 234.248 533.297C234.543 532.548 234.573 531.613 234.337 530.491C234.098 529.354 233.693 528.502 233.121 527.935C232.53 527.349 231.808 527.145 230.957 527.324C230.122 527.499 229.551 527.974 229.245 528.749C228.969 529.51 228.949 530.452 229.184 531.573C229.417 532.68 229.813 533.526 230.372 534.111ZM248.831 515.62L249.509 518.846C248.751 519.239 247.49 519.658 245.725 520.101C243.829 520.572 242.593 521.187 242.017 521.946C241.423 522.734 241.182 523.851 241.292 525.298L241.361 525.283C241.742 523.749 242.965 522.765 245.031 522.331C246.756 521.969 248.234 522.199 249.465 523.023C250.701 523.83 251.501 525.1 251.865 526.833C252.276 528.79 252.032 530.473 251.133 531.882C250.205 533.272 248.77 534.172 246.828 534.58C244.755 535.015 243.048 534.736 241.708 533.741C240.336 532.745 239.403 531.075 238.911 528.73C238.511 526.827 238.33 525.233 238.367 523.949C238.402 522.617 238.664 521.52 239.154 520.658C239.63 519.774 240.289 519.062 241.128 518.522C241.98 517.964 243.034 517.516 244.288 517.18C246.52 516.541 248.035 516.021 248.831 515.62ZM244.794 525.241C243.308 525.553 242.785 526.753 243.224 528.842C243.448 529.91 243.814 530.689 244.321 531.18C244.828 531.672 245.453 531.839 246.196 531.683C246.931 531.529 247.437 531.132 247.714 530.492C247.986 529.861 248.012 529.024 247.792 527.979C247.584 526.989 247.217 526.242 246.692 525.739C246.161 525.252 245.529 525.086 244.794 525.241ZM257.226 519.357L263.423 518.055L265.968 530.171L262.138 530.975L261.349 527.215L259.028 527.703L257.868 531.873L253.69 532.75L255.367 527.697C253.953 527.275 253.07 526.224 252.718 524.545C252.149 521.838 253.651 520.108 257.226 519.357ZM260.798 524.593L260.168 521.599L258.451 521.959C256.996 522.265 256.373 522.913 256.581 523.903C256.793 524.909 257.595 525.266 258.987 524.973L260.798 524.593ZM270.349 516.188C271.92 515.858 273.255 515.909 274.356 516.34C275.416 516.772 276.062 517.541 276.294 518.647C276.434 519.312 276.385 519.888 276.148 520.374C275.905 520.87 275.443 521.322 274.761 521.732L274.771 521.778C275.691 521.852 276.379 522.087 276.834 522.484C277.303 522.87 277.618 523.45 277.781 524.224C278.033 525.423 277.737 526.438 276.894 527.27C276.06 528.107 274.781 528.707 273.055 529.07C271.191 529.461 269.682 529.391 268.528 528.858C267.359 528.295 266.622 527.287 266.317 525.832L270.1 525.038C270.341 526.183 271.134 526.614 272.48 526.331C273.014 526.219 273.407 526.015 273.66 525.719C273.924 525.438 274.017 525.111 273.939 524.74C273.764 523.904 273.018 523.625 271.703 523.901L270.543 524.145L270.021 521.661L271.181 521.418C271.738 521.301 272.149 521.101 272.413 520.82C272.677 520.538 272.768 520.204 272.687 519.817C272.607 519.438 272.406 519.173 272.084 519.023C271.771 518.878 271.363 518.859 270.86 518.965C270.256 519.092 269.839 519.333 269.606 519.689C269.34 520.035 269.262 520.472 269.372 520.998L265.729 521.763C265.436 520.371 265.705 519.191 266.536 518.225C267.368 517.226 268.639 516.547 270.349 516.188ZM286.829 524.383L286.76 524.397C286.531 524.962 286.159 525.46 285.644 525.892C285.113 526.326 284.403 526.637 283.513 526.824C282.933 526.946 282.358 526.978 281.789 526.92C281.221 526.87 280.731 526.73 280.319 526.502C279.897 526.259 279.528 525.925 279.212 525.498C278.921 525.115 278.71 524.61 278.579 523.983C278.437 523.31 278.436 522.729 278.576 522.239C278.738 521.704 279 521.261 279.363 520.911C279.747 520.507 280.193 520.171 280.702 519.902C281.217 519.624 281.789 519.383 282.416 519.179C283.532 518.799 284.302 518.467 284.727 518.184C285.142 517.927 285.306 517.594 285.22 517.184C285.134 516.774 284.944 516.483 284.649 516.31C284.349 516.115 283.898 516.08 283.294 516.207C282.675 516.337 282.233 516.576 281.966 516.922C281.718 517.241 281.614 517.667 281.653 518.2L278.079 518.951C277.975 518.342 277.993 517.773 278.132 517.243C278.251 516.693 278.498 516.181 278.875 515.706C279.227 515.228 279.729 514.807 280.379 514.445C281.03 514.082 281.812 513.804 282.725 513.612C283.677 513.413 284.466 513.327 285.095 513.357C285.78 513.391 286.376 513.532 286.88 513.782C287.458 514.032 287.946 514.43 288.343 514.977C288.709 515.49 288.975 516.137 289.139 516.918L290.426 523.045C290.536 523.572 290.649 523.952 290.763 524.186C290.866 524.447 291.023 524.616 291.233 524.694L291.267 524.856L287.507 525.646C287.41 525.569 287.295 525.408 287.163 525.161C287.073 525.002 286.962 524.743 286.829 524.383ZM286.224 521.384L285.916 519.921C285.69 520.114 285.413 520.294 285.084 520.46C284.796 520.625 284.454 520.802 284.057 520.991C283.347 521.301 282.847 521.616 282.559 521.935C282.266 522.231 282.169 522.615 282.268 523.087C282.37 523.575 282.606 523.889 282.975 524.029C283.311 524.169 283.727 524.186 284.222 524.082C284.949 523.929 285.495 523.605 285.859 523.108C286.24 522.616 286.362 522.041 286.224 521.384ZM301.974 509.956L304.52 522.072L300.574 522.901L299.579 518.166L295.587 519.005L296.582 523.739L292.636 524.568L290.091 512.453L294.037 511.624L294.987 516.15L298.979 515.311L298.029 510.785L301.974 509.956ZM315.575 507.099L318.121 519.214L314.175 520.043L313.18 515.309L309.188 516.147L310.183 520.882L306.237 521.711L303.692 509.595L307.638 508.766L308.588 513.292L312.58 512.454L311.63 507.928L315.575 507.099ZM320.831 517.118C320.133 516.643 319.557 516.053 319.102 515.349C318.627 514.625 318.293 513.806 318.101 512.893C317.914 512.004 317.89 511.12 318.029 510.243C318.162 509.415 318.452 508.643 318.9 507.927C319.358 507.225 319.952 506.632 320.683 506.147C321.427 505.651 322.282 505.302 323.249 505.099C324.24 504.891 325.164 504.866 326.021 505.026C326.902 505.18 327.677 505.486 328.346 505.943C329.058 506.407 329.642 506.995 330.098 507.707C330.578 508.454 330.912 509.273 331.099 510.163C331.291 511.076 331.315 511.959 331.171 512.813C331.04 513.649 330.742 514.422 330.277 515.134C329.83 515.85 329.245 516.449 328.522 516.932C327.801 517.423 326.946 517.772 325.956 517.98C324.989 518.184 324.065 518.208 323.184 518.054C322.345 517.907 321.561 517.595 320.831 517.118ZM323.211 514.607C323.803 515.193 324.517 515.399 325.352 515.223C326.203 515.044 326.782 514.568 327.087 513.792C327.382 513.044 327.412 512.109 327.176 510.987C326.937 509.849 326.532 508.998 325.961 508.431C325.369 507.844 324.648 507.641 323.797 507.819C322.961 507.995 322.39 508.47 322.085 509.245C321.808 510.006 321.788 510.947 322.024 512.069C322.256 513.176 322.652 514.021 323.211 514.607ZM340.69 509.675L344.404 508.894C344.523 509.58 344.505 510.262 344.349 510.941C344.207 511.61 343.932 512.225 343.525 512.787C343.13 513.33 342.6 513.805 341.934 514.212C341.246 514.631 340.493 514.926 339.673 515.099C338.706 515.302 337.782 515.326 336.901 515.172C336.061 515.017 335.292 514.702 334.594 514.227C333.896 513.751 333.32 513.162 332.865 512.457C332.39 511.733 332.057 510.915 331.865 510.002C331.668 509.066 331.636 508.184 331.769 507.356C331.898 506.545 332.18 505.775 332.617 505.045C333.04 504.367 333.619 503.777 334.353 503.275C335.074 502.784 335.914 502.438 336.874 502.237C337.678 502.068 338.451 502.018 339.193 502.089C339.915 502.179 340.564 502.382 341.139 502.698C341.714 503.013 342.211 503.418 342.63 503.911C343.066 504.45 343.399 505.034 343.628 505.664L339.891 506.45C339.658 505.917 339.343 505.531 338.945 505.291C338.552 505.034 338.077 504.965 337.52 505.082C336.692 505.256 336.132 505.704 335.84 506.428C335.572 507.155 335.555 508.071 335.787 509.178C336.016 510.269 336.4 511.093 336.937 511.65C337.496 512.195 338.189 512.381 339.017 512.207C340.262 511.945 340.82 511.101 340.69 509.675ZM354.568 498.907L355.172 501.785L351.436 502.57L353.376 511.808L349.431 512.637L347.49 503.399L343.776 504.179L343.172 501.301L354.568 498.907ZM358.018 510.832L355.473 498.717L359.303 497.912L360.21 502.229C360.544 503.823 360.793 505.427 360.954 507.041L361.024 507.026C361.19 505.473 361.474 503.862 361.874 502.195L363.202 497.093L368.888 495.899L371.434 508.014L367.627 508.814L366.725 504.52C366.389 502.918 366.122 501.302 365.925 499.672L365.878 499.681C365.732 501.215 365.448 502.825 365.027 504.513L363.728 509.633L358.018 510.832Z" fill="black"/>
<path d="M861.991 455.622C861.294 455.147 860.717 454.557 860.262 453.853C859.787 453.129 859.454 452.31 859.262 451.398C859.075 450.508 859.051 449.624 859.19 448.747C859.323 447.919 859.613 447.147 860.06 446.431C860.519 445.729 861.113 445.136 861.843 444.651C862.587 444.156 863.443 443.806 864.41 443.603C865.4 443.395 866.324 443.371 867.181 443.53C868.062 443.684 868.837 443.99 869.507 444.447C870.218 444.911 870.802 445.499 871.259 446.211C871.739 446.959 872.072 447.777 872.259 448.667C872.451 449.58 872.475 450.463 872.332 451.318C872.2 452.153 871.902 452.926 871.438 453.638C870.99 454.354 870.405 454.953 869.683 455.436C868.962 455.927 868.106 456.277 867.116 456.485C866.149 456.688 865.225 456.712 864.345 456.558C863.506 456.411 862.721 456.099 861.991 455.622ZM864.372 453.111C864.963 453.697 865.677 453.903 866.513 453.727C867.364 453.549 867.942 453.072 868.248 452.297C868.543 451.548 868.573 450.613 868.337 449.491C868.098 448.354 867.693 447.502 867.121 446.935C866.53 446.349 865.808 446.145 864.957 446.324C864.122 446.499 863.551 446.974 863.245 447.749C862.969 448.51 862.949 449.452 863.184 450.573C863.417 451.68 863.813 452.526 864.372 453.111ZM882.831 434.62L883.509 437.846C882.751 438.239 881.49 438.658 879.725 439.101C877.829 439.572 876.593 440.187 876.017 440.946C875.423 441.734 875.182 442.851 875.292 444.298L875.361 444.283C875.742 442.749 876.965 441.765 879.031 441.331C880.756 440.969 882.234 441.199 883.465 442.023C884.701 442.83 885.501 444.1 885.865 445.833C886.276 447.79 886.032 449.473 885.133 450.882C884.205 452.272 882.77 453.172 880.828 453.58C878.755 454.015 877.048 453.736 875.708 452.741C874.336 451.745 873.403 450.075 872.911 447.73C872.511 445.827 872.33 444.233 872.367 442.949C872.402 441.617 872.664 440.52 873.154 439.658C873.63 438.774 874.289 438.062 875.128 437.522C875.98 436.964 877.034 436.516 878.288 436.18C880.52 435.541 882.035 435.021 882.831 434.62ZM878.794 444.241C877.308 444.553 876.785 445.753 877.224 447.842C877.448 448.91 877.814 449.689 878.321 450.18C878.828 450.672 879.453 450.839 880.196 450.683C880.931 450.529 881.437 450.132 881.714 449.492C881.986 448.861 882.012 448.024 881.792 446.979C881.584 445.989 881.217 445.242 880.692 444.739C880.161 444.252 879.529 444.086 878.794 444.241ZM891.226 438.357L897.423 437.055L899.968 449.171L896.138 449.975L895.349 446.215L893.028 446.703L891.868 450.873L887.69 451.75L889.367 446.697C887.953 446.275 887.07 445.224 886.718 443.545C886.149 440.838 887.651 439.108 891.226 438.357ZM894.798 443.593L894.168 440.599L892.451 440.959C890.996 441.265 890.373 441.913 890.581 442.903C890.793 443.909 891.595 444.266 892.987 443.973L894.798 443.593ZM904.349 435.188C905.92 434.858 907.255 434.909 908.356 435.34C909.416 435.772 910.062 436.541 910.294 437.647C910.434 438.312 910.385 438.888 910.148 439.374C909.905 439.87 909.443 440.322 908.761 440.732L908.771 440.778C909.691 440.852 910.379 441.087 910.834 441.484C911.303 441.87 911.618 442.45 911.781 443.224C912.033 444.423 911.737 445.438 910.894 446.27C910.06 447.107 908.781 447.707 907.055 448.07C905.191 448.461 903.682 448.391 902.528 447.858C901.359 447.295 900.622 446.287 900.317 444.832L904.1 444.038C904.341 445.183 905.134 445.614 906.48 445.331C907.014 445.219 907.407 445.015 907.66 444.719C907.924 444.438 908.017 444.111 907.939 443.74C907.764 442.904 907.018 442.625 905.703 442.901L904.543 443.145L904.021 440.661L905.181 440.418C905.738 440.301 906.149 440.101 906.413 439.82C906.677 439.538 906.768 439.204 906.687 438.817C906.607 438.438 906.406 438.173 906.084 438.023C905.771 437.878 905.363 437.859 904.86 437.965C904.256 438.092 903.839 438.333 903.606 438.689C903.34 439.035 903.262 439.472 903.372 439.998L899.729 440.763C899.436 439.371 899.705 438.191 900.536 437.225C901.368 436.226 902.639 435.547 904.349 435.188ZM920.829 443.383L920.76 443.397C920.531 443.962 920.159 444.46 919.644 444.892C919.113 445.326 918.403 445.637 917.513 445.824C916.933 445.946 916.358 445.978 915.789 445.92C915.221 445.87 914.731 445.73 914.319 445.502C913.897 445.259 913.528 444.925 913.212 444.498C912.921 444.115 912.71 443.61 912.579 442.983C912.437 442.31 912.436 441.729 912.576 441.239C912.738 440.704 913 440.261 913.363 439.911C913.747 439.507 914.193 439.171 914.702 438.902C915.217 438.624 915.789 438.383 916.416 438.179C917.532 437.799 918.302 437.467 918.727 437.184C919.142 436.927 919.306 436.594 919.22 436.184C919.134 435.774 918.944 435.483 918.649 435.31C918.349 435.115 917.898 435.08 917.294 435.207C916.675 435.337 916.233 435.576 915.966 435.922C915.718 436.241 915.614 436.667 915.653 437.2L912.079 437.951C911.975 437.342 911.993 436.773 912.132 436.243C912.251 435.693 912.498 435.181 912.875 434.706C913.227 434.228 913.729 433.807 914.379 433.445C915.03 433.082 915.812 432.804 916.725 432.612C917.677 432.413 918.466 432.327 919.095 432.357C919.78 432.391 920.376 432.532 920.88 432.782C921.458 433.032 921.946 433.43 922.343 433.977C922.709 434.49 922.975 435.137 923.139 435.918L924.426 442.045C924.536 442.572 924.649 442.952 924.763 443.186C924.866 443.447 925.023 443.616 925.233 443.694L925.267 443.856L921.507 444.646C921.41 444.569 921.295 444.408 921.163 444.161C921.073 444.002 920.962 443.743 920.829 443.383ZM920.224 440.384L919.916 438.921C919.69 439.114 919.413 439.294 919.084 439.46C918.796 439.625 918.454 439.802 918.057 439.991C917.347 440.301 916.847 440.616 916.559 440.935C916.266 441.231 916.169 441.615 916.268 442.087C916.37 442.575 916.606 442.889 916.975 443.029C917.311 443.169 917.727 443.186 918.222 443.082C918.949 442.929 919.495 442.605 919.859 442.108C920.24 441.616 920.362 441.041 920.224 440.384ZM935.974 428.956L938.52 441.072L934.574 441.901L933.579 437.166L929.587 438.005L930.582 442.739L926.636 443.568L924.091 431.453L928.037 430.624L928.987 435.15L932.979 434.311L932.029 429.785L935.974 428.956ZM949.575 426.099L952.121 438.214L948.175 439.043L947.18 434.309L943.188 435.147L944.183 439.882L940.237 440.711L937.692 428.595L941.638 427.766L942.588 432.292L946.58 431.454L945.63 426.928L949.575 426.099ZM954.831 436.118C954.133 435.643 953.557 435.053 953.102 434.349C952.627 433.625 952.293 432.806 952.101 431.893C951.914 431.004 951.89 430.12 952.029 429.243C952.162 428.415 952.452 427.643 952.9 426.927C953.358 426.225 953.952 425.632 954.683 425.147C955.427 424.651 956.282 424.302 957.249 424.099C958.24 423.891 959.164 423.866 960.021 424.026C960.902 424.18 961.677 424.486 962.346 424.943C963.058 425.407 963.642 425.995 964.098 426.707C964.578 427.454 964.912 428.273 965.099 429.163C965.291 430.076 965.315 430.959 965.171 431.813C965.04 432.649 964.742 433.422 964.277 434.134C963.83 434.85 963.245 435.449 962.522 435.932C961.801 436.423 960.946 436.772 959.956 436.98C958.989 437.184 958.065 437.208 957.184 437.054C956.345 436.907 955.561 436.595 954.831 436.118ZM957.211 433.607C957.803 434.193 958.517 434.399 959.352 434.223C960.203 434.044 960.782 433.568 961.087 432.792C961.382 432.044 961.412 431.109 961.176 429.987C960.937 428.849 960.532 427.998 959.961 427.431C959.369 426.844 958.648 426.641 957.797 426.819C956.961 426.995 956.39 427.47 956.085 428.245C955.808 429.006 955.788 429.947 956.024 431.069C956.256 432.176 956.652 433.021 957.211 433.607ZM974.69 428.675L978.404 427.894C978.523 428.58 978.505 429.262 978.349 429.941C978.207 430.61 977.932 431.225 977.525 431.787C977.13 432.33 976.6 432.805 975.934 433.212C975.246 433.631 974.493 433.926 973.673 434.099C972.706 434.302 971.782 434.326 970.901 434.172C970.061 434.017 969.292 433.702 968.594 433.227C967.896 432.751 967.32 432.162 966.865 431.457C966.39 430.733 966.057 429.915 965.865 429.002C965.668 428.066 965.636 427.184 965.769 426.356C965.898 425.545 966.18 424.775 966.617 424.045C967.04 423.367 967.619 422.777 968.353 422.275C969.074 421.784 969.914 421.438 970.874 421.237C971.678 421.068 972.451 421.018 973.193 421.089C973.915 421.179 974.564 421.382 975.139 421.698C975.714 422.013 976.211 422.418 976.63 422.911C977.066 423.45 977.399 424.034 977.628 424.664L973.891 425.45C973.658 424.917 973.343 424.531 972.945 424.291C972.552 424.034 972.077 423.965 971.52 424.082C970.692 424.256 970.132 424.704 969.84 425.428C969.572 426.155 969.555 427.071 969.787 428.178C970.016 429.269 970.4 430.093 970.937 430.65C971.496 431.195 972.189 431.381 973.017 431.207C974.262 430.945 974.82 430.101 974.69 428.675ZM988.568 417.907L989.172 420.785L985.436 421.57L987.376 430.808L983.431 431.637L981.49 422.399L977.776 423.179L977.172 420.301L988.568 417.907ZM992.018 429.832L989.473 417.717L993.303 416.912L994.21 421.229C994.544 422.823 994.793 424.427 994.954 426.041L995.024 426.026C995.19 424.473 995.474 422.862 995.874 421.195L997.202 416.093L1002.89 414.899L1005.43 427.014L1001.63 427.814L1000.73 423.52C1000.39 421.918 1000.12 420.302 999.925 418.672L999.878 418.681C999.732 420.215 999.448 421.825 999.027 423.513L997.728 428.633L992.018 429.832Z" fill="black"/>
</svg>
