<svg width="1198" height="356" viewBox="0 0 1198 356" fill="none" xmlns="http://www.w3.org/2000/svg">
<rect x="1" y="2.11328" width="1196" height="352.472" fill="#EAEDFB" stroke="black" stroke-width="2"/>
<mask id="mask0_893_1634" style="mask-type:alpha" maskUnits="userSpaceOnUse" x="2" y="0" width="1193" height="353">
<rect x="3.86328" y="1" width="1190" height="350.697" fill="#F7F8FF"/>
<rect x="3.86328" y="1" width="1190" height="350.697" fill="black"/>
<rect x="3.86328" y="1" width="1190" height="350.697" stroke="black" stroke-width="2"/>
</mask>
<g mask="url(#mask0_893_1634)">
<mask id="path-3-inside-1_893_1634" fill="white">
<path d="M1215.35 332.466H1163.87V358.24H1208.55V432.53H932.263V390.104H887.586V353.691H687.281V280.918H939.068V259.691H1215.35V332.466Z"/>
</mask>
<path d="M1215.35 332.466H1163.87V358.24H1208.55V432.53H932.263V390.104H887.586V353.691H687.281V280.918H939.068V259.691H1215.35V332.466Z" fill="#C0EFDB"/>
<path d="M1215.35 332.466V338.466C1218.67 338.466 1221.35 335.78 1221.35 332.466H1215.35ZM1163.87 332.466V326.466C1160.56 326.466 1157.87 329.152 1157.87 332.466H1163.87ZM1163.87 358.24H1157.87C1157.87 361.554 1160.56 364.24 1163.87 364.24V358.24ZM1208.55 358.24H1214.55C1214.55 354.927 1211.86 352.24 1208.55 352.24V358.24ZM1208.55 432.53V438.53C1211.86 438.53 1214.55 435.844 1214.55 432.53H1208.55ZM932.263 432.53H926.263C926.263 435.844 928.949 438.53 932.263 438.53V432.53ZM932.263 390.104H938.263C938.263 386.79 935.576 384.104 932.263 384.104V390.104ZM887.586 390.104H881.586C881.586 393.417 884.272 396.104 887.586 396.104V390.104ZM887.586 353.691H893.586C893.586 350.378 890.9 347.691 887.586 347.691V353.691ZM687.281 353.691H681.281C681.281 357.005 683.968 359.691 687.281 359.691V353.691ZM687.281 280.918V274.918C683.968 274.918 681.281 277.604 681.281 280.918H687.281ZM939.068 280.918V286.918C942.382 286.918 945.068 284.232 945.068 280.918H939.068ZM939.068 259.691V253.691C935.755 253.691 933.068 256.378 933.068 259.691H939.068ZM1215.35 259.691H1221.35C1221.35 256.378 1218.67 253.691 1215.35 253.691V259.691ZM1215.35 332.466V326.466H1163.87V332.466V338.466H1215.35V332.466ZM1163.87 332.466H1157.87V358.24H1163.87H1169.87V332.466H1163.87ZM1163.87 358.24V364.24H1208.55V358.24V352.24H1163.87V358.24ZM1208.55 358.24H1202.55V432.53H1208.55H1214.55V358.24H1208.55ZM1208.55 432.53V426.53H932.263V432.53V438.53H1208.55V432.53ZM932.263 432.53H938.263V390.104H932.263H926.263V432.53H932.263ZM932.263 390.104V384.104H887.586V390.104V396.104H932.263V390.104ZM887.586 390.104H893.586V353.691H887.586H881.586V390.104H887.586ZM887.586 353.691V347.691H687.281V353.691V359.691H887.586V353.691ZM687.281 353.691H693.281V280.918H687.281H681.281V353.691H687.281ZM687.281 280.918V286.918H939.068V280.918V274.918H687.281V280.918ZM939.068 280.918H945.068V259.691H939.068H933.068V280.918H939.068ZM939.068 259.691V265.691H1215.35V259.691V253.691H939.068V259.691ZM1215.35 259.691H1209.35V332.466H1215.35H1221.35V259.691H1215.35Z" fill="#C0EFDB" mask="url(#path-3-inside-1_893_1634)"/>
<mask id="path-5-inside-2_893_1634" fill="white">
<path d="M239.687 298.914H159.743V313.114H235.327V352.337H70.3525V319.877H-5.23047V280.654H74.7129V259.691H239.687V298.914Z"/>
</mask>
<path d="M239.687 298.914H159.743V313.114H235.327V352.337H70.3525V319.877H-5.23047V280.654H74.7129V259.691H239.687V298.914Z" fill="#C0EFDB"/>
<path d="M239.687 298.914V304.914C243 304.914 245.687 302.228 245.687 298.914H239.687ZM159.743 298.914V292.914C156.429 292.914 153.743 295.6 153.743 298.914H159.743ZM159.743 313.114H153.743C153.743 316.428 156.429 319.114 159.743 319.114V313.114ZM235.327 313.114H241.327C241.327 309.801 238.641 307.114 235.327 307.114V313.114ZM235.327 352.337V358.337C238.641 358.337 241.327 355.651 241.327 352.337H235.327ZM70.3525 352.337H64.3525C64.3525 355.651 67.0388 358.337 70.3525 358.337V352.337ZM70.3525 319.877H76.3525C76.3525 316.563 73.6662 313.877 70.3525 313.877V319.877ZM-5.23047 319.877H-11.2305C-11.2305 323.191 -8.54418 325.877 -5.23047 325.877L-5.23047 319.877ZM-5.23047 280.654V274.654C-8.54418 274.654 -11.2305 277.341 -11.2305 280.654H-5.23047ZM74.7129 280.654V286.654C78.0266 286.654 80.7129 283.968 80.7129 280.654H74.7129ZM74.7129 259.691V253.691C71.3992 253.691 68.7129 256.378 68.7129 259.691H74.7129ZM239.687 259.691H245.687C245.687 256.378 243 253.691 239.687 253.691V259.691ZM239.687 298.914V292.914H159.743V298.914V304.914H239.687V298.914ZM159.743 298.914H153.743V313.114H159.743H165.743V298.914H159.743ZM159.743 313.114V319.114H235.327V313.114V307.114H159.743V313.114ZM235.327 313.114H229.327V352.337H235.327H241.327V313.114H235.327ZM235.327 352.337V346.337H70.3525V352.337V358.337H235.327V352.337ZM70.3525 352.337H76.3525V319.877H70.3525H64.3525V352.337H70.3525ZM70.3525 319.877V313.877H-5.23047V319.877V325.877H70.3525V319.877ZM-5.23047 319.877H0.769531V280.654H-5.23047H-11.2305V319.877H-5.23047ZM-5.23047 280.654V286.654H74.7129V280.654V274.654H-5.23047V280.654ZM74.7129 280.654H80.7129V259.691H74.7129H68.7129V280.654H74.7129ZM74.7129 259.691V265.691H239.687V259.691V253.691H74.7129V259.691ZM239.687 259.691H233.687V298.914H239.687H245.687V259.691H239.687Z" fill="#C0EFDB" mask="url(#path-5-inside-2_893_1634)"/>
<mask id="path-7-inside-3_893_1634" fill="white">
<path d="M290.43 267.074H210.486V281.274H286.069V320.497H121.095V288.037H45.5117V248.814H125.455V227.852H290.43V267.074Z"/>
</mask>
<path d="M290.43 267.074H210.486V281.274H286.069V320.497H121.095V288.037H45.5117V248.814H125.455V227.852H290.43V267.074Z" fill="#FF8BE4"/>
<path d="M290.43 267.074V273.074C293.743 273.074 296.43 270.388 296.43 267.074H290.43ZM210.486 267.074V261.074C207.173 261.074 204.486 263.761 204.486 267.074H210.486ZM210.486 281.274H204.486C204.486 284.588 207.173 287.274 210.486 287.274V281.274ZM286.069 281.274H292.069C292.069 277.961 289.383 275.274 286.069 275.274V281.274ZM286.069 320.497V326.497C289.383 326.497 292.069 323.811 292.069 320.497H286.069ZM121.095 320.497H115.095C115.095 323.811 117.781 326.497 121.095 326.497V320.497ZM121.095 288.037H127.095C127.095 284.723 124.408 282.037 121.095 282.037V288.037ZM45.5117 288.037H39.5117C39.5117 291.351 42.198 294.037 45.5117 294.037V288.037ZM45.5117 248.814V242.814C42.198 242.814 39.5117 245.501 39.5117 248.814H45.5117ZM125.455 248.814V254.814C128.769 254.814 131.455 252.128 131.455 248.814H125.455ZM125.455 227.852V221.852C122.141 221.852 119.455 224.538 119.455 227.852H125.455ZM290.43 227.852H296.43C296.43 224.538 293.743 221.852 290.43 221.852V227.852ZM290.43 267.074V261.074H210.486V267.074V273.074H290.43V267.074ZM210.486 267.074H204.486V281.274H210.486H216.486V267.074H210.486ZM210.486 281.274V287.274H286.069V281.274V275.274H210.486V281.274ZM286.069 281.274H280.069V320.497H286.069H292.069V281.274H286.069ZM286.069 320.497V314.497H121.095V320.497V326.497H286.069V320.497ZM121.095 320.497H127.095V288.037H121.095H115.095V320.497H121.095ZM121.095 288.037V282.037H45.5117V288.037V294.037H121.095V288.037ZM45.5117 288.037H51.5117V248.814H45.5117H39.5117V288.037H45.5117ZM45.5117 248.814V254.814H125.455V248.814V242.814H45.5117V248.814ZM125.455 248.814H131.455V227.852H125.455H119.455V248.814H125.455ZM125.455 227.852V233.852H290.43V227.852V221.852H125.455V227.852ZM290.43 227.852H284.43V267.074H290.43H296.43V227.852H290.43Z" fill="#FF8BE4" mask="url(#path-7-inside-3_893_1634)"/>
<mask id="path-9-inside-4_893_1634" fill="white">
<path d="M250.632 208.374H170.688V222.574H246.27V261.797H81.2959V229.337H5.71484V190.115H85.6582V169.152H250.632V208.374Z"/>
</mask>
<path d="M250.632 208.374H170.688V222.574H246.27V261.797H81.2959V229.337H5.71484V190.115H85.6582V169.152H250.632V208.374Z" fill="#C0EFDB"/>
<path d="M250.632 208.374V214.374C253.946 214.374 256.632 211.688 256.632 208.374H250.632ZM170.688 208.374V202.374C167.375 202.374 164.688 205.06 164.688 208.374H170.688ZM170.688 222.574H164.688C164.688 225.888 167.375 228.574 170.688 228.574V222.574ZM246.27 222.574H252.27C252.27 219.261 249.583 216.574 246.27 216.574V222.574ZM246.27 261.797V267.797C249.583 267.797 252.27 265.111 252.27 261.797H246.27ZM81.2959 261.797H75.2959C75.2959 265.111 77.9822 267.797 81.2959 267.797V261.797ZM81.2959 229.337H87.2959C87.2959 226.023 84.6096 223.337 81.2959 223.337V229.337ZM5.71484 229.337H-0.285156C-0.285156 232.651 2.40114 235.337 5.71484 235.337L5.71484 229.337ZM5.71484 190.115V184.115C2.40114 184.115 -0.285156 186.802 -0.285156 190.115H5.71484ZM85.6582 190.115V196.115C88.9719 196.115 91.6582 193.429 91.6582 190.115H85.6582ZM85.6582 169.152V163.152C82.3445 163.152 79.6582 165.839 79.6582 169.152H85.6582ZM250.632 169.152H256.632C256.632 165.839 253.946 163.152 250.632 163.152V169.152ZM250.632 208.374V202.374H170.688V208.374V214.374H250.632V208.374ZM170.688 208.374H164.688V222.574H170.688H176.688V208.374H170.688ZM170.688 222.574V228.574H246.27V222.574V216.574H170.688V222.574ZM246.27 222.574H240.27V261.797H246.27H252.27V222.574H246.27ZM246.27 261.797V255.797H81.2959V261.797V267.797H246.27V261.797ZM81.2959 261.797H87.2959V229.337H81.2959H75.2959V261.797H81.2959ZM81.2959 229.337V223.337H5.71484V229.337V235.337H81.2959V229.337ZM5.71484 229.337H11.7148V190.115H5.71484H-0.285156V229.337H5.71484ZM5.71484 190.115V196.115H85.6582V190.115V184.115H5.71484V190.115ZM85.6582 190.115H91.6582V169.152H85.6582H79.6582V190.115H85.6582ZM85.6582 169.152V175.152H250.632V169.152V163.152H85.6582V169.152ZM250.632 169.152H244.632V208.374H250.632H256.632V169.152H250.632Z" fill="#C0EFDB" mask="url(#path-9-inside-4_893_1634)"/>
<mask id="path-11-inside-5_893_1634" fill="white">
<path d="M805.066 256.465H747.186V270.803H746.646V291.955H622.594V255.297H566.889V211.151H683.291V210.941H805.066V256.465Z"/>
</mask>
<path d="M805.066 256.465H747.186V270.803H746.646V291.955H622.594V255.297H566.889V211.151H683.291V210.941H805.066V256.465Z" fill="#FF8BE4"/>
<path d="M805.066 256.465V262.465C808.38 262.465 811.066 259.779 811.066 256.465H805.066ZM747.186 256.465V250.465C743.872 250.465 741.186 253.151 741.186 256.465H747.186ZM747.186 270.803V276.803C750.499 276.803 753.186 274.116 753.186 270.803H747.186ZM746.646 270.803V264.803C743.332 264.803 740.646 267.489 740.646 270.803H746.646ZM746.646 291.955V297.955C749.959 297.955 752.646 295.269 752.646 291.955H746.646ZM622.594 291.955H616.594C616.594 295.269 619.28 297.955 622.594 297.955V291.955ZM622.594 255.297H628.594C628.594 251.983 625.907 249.297 622.594 249.297V255.297ZM566.889 255.297H560.889C560.889 258.611 563.575 261.297 566.889 261.297V255.297ZM566.889 211.151V205.151C563.575 205.151 560.889 207.838 560.889 211.151H566.889ZM683.291 211.151V217.151C686.605 217.151 689.291 214.465 689.291 211.151H683.291ZM683.291 210.941V204.941C679.977 204.941 677.291 207.628 677.291 210.941H683.291ZM805.066 210.941H811.066C811.066 207.628 808.38 204.941 805.066 204.941V210.941ZM805.066 256.465V250.465H747.186V256.465V262.465H805.066V256.465ZM747.186 256.465H741.186V270.803H747.186H753.186V256.465H747.186ZM747.186 270.803V264.803H746.646V270.803V276.803H747.186V270.803ZM746.646 270.803H740.646V291.955H746.646H752.646V270.803H746.646ZM746.646 291.955V285.955H622.594V291.955V297.955H746.646V291.955ZM622.594 291.955H628.594V255.297H622.594H616.594V291.955H622.594ZM622.594 255.297V249.297H566.889V255.297V261.297H622.594V255.297ZM566.889 255.297H572.889V211.151H566.889H560.889V255.297H566.889ZM566.889 211.151V217.151H683.291V211.151V205.151H566.889V211.151ZM683.291 211.151H689.291V210.941H683.291H677.291V211.151H683.291ZM683.291 210.941V216.941H805.066V210.941V204.941H683.291V210.941ZM805.066 210.941H799.066V256.465H805.066H811.066V210.941H805.066Z" fill="#FF8BE4" mask="url(#path-11-inside-5_893_1634)"/>
<mask id="path-13-inside-6_893_1634" fill="white">
<path d="M1255.8 240.543H1197.91V254.881H1197.38V276.033H1073.33V239.375H1017.62V195.229H1134.02V195.02H1255.8V240.543Z"/>
</mask>
<path d="M1255.8 240.543H1197.91V254.881H1197.38V276.033H1073.33V239.375H1017.62V195.229H1134.02V195.02H1255.8V240.543Z" fill="#FF8BE4"/>
<path d="M1255.8 240.543V246.543C1259.11 246.543 1261.8 243.857 1261.8 240.543H1255.8ZM1197.91 240.543V234.543C1194.6 234.543 1191.91 237.229 1191.91 240.543H1197.91ZM1197.91 254.881V260.881C1201.23 260.881 1203.91 258.195 1203.91 254.881H1197.91ZM1197.38 254.881V248.881C1194.06 248.881 1191.38 251.567 1191.38 254.881H1197.38ZM1197.38 276.033V282.033C1200.69 282.033 1203.38 279.347 1203.38 276.033H1197.38ZM1073.33 276.033H1067.33C1067.33 279.347 1070.01 282.033 1073.33 282.033V276.033ZM1073.33 239.375H1079.33C1079.33 236.061 1076.64 233.375 1073.33 233.375V239.375ZM1017.62 239.375H1011.62C1011.62 242.689 1014.31 245.375 1017.62 245.375V239.375ZM1017.62 195.229V189.229C1014.31 189.229 1011.62 191.916 1011.62 195.229H1017.62ZM1134.02 195.229V201.229C1137.34 201.229 1140.02 198.543 1140.02 195.229H1134.02ZM1134.02 195.02V189.02C1130.71 189.02 1128.02 191.706 1128.02 195.02H1134.02ZM1255.8 195.02H1261.8C1261.8 191.706 1259.11 189.02 1255.8 189.02V195.02ZM1255.8 240.543V234.543H1197.91V240.543V246.543H1255.8V240.543ZM1197.91 240.543H1191.91V254.881H1197.91H1203.91V240.543H1197.91ZM1197.91 254.881V248.881H1197.38V254.881V260.881H1197.91V254.881ZM1197.38 254.881H1191.38V276.033H1197.38H1203.38V254.881H1197.38ZM1197.38 276.033V270.033H1073.33V276.033V282.033H1197.38V276.033ZM1073.33 276.033H1079.33V239.375H1073.33H1067.33V276.033H1073.33ZM1073.33 239.375V233.375H1017.62V239.375V245.375H1073.33V239.375ZM1017.62 239.375H1023.62V195.229H1017.62H1011.62V239.375H1017.62ZM1017.62 195.229V201.229H1134.02V195.229V189.229H1017.62V195.229ZM1134.02 195.229H1140.02V195.02H1134.02H1128.02V195.229H1134.02ZM1134.02 195.02V201.02H1255.8V195.02V189.02H1134.02V195.02ZM1255.8 195.02H1249.8V240.543H1255.8H1261.8V195.02H1255.8Z" fill="#FF8BE4" mask="url(#path-13-inside-6_893_1634)"/>
<mask id="path-15-inside-7_893_1634" fill="white">
<path d="M812.117 316.738H754.234V331.075H753.697V352.229H629.646V315.567H573.939V271.423H690.342V271.215H812.117V316.738Z"/>
</mask>
<path d="M812.117 316.738H754.234V331.075H753.697V352.229H629.646V315.567H573.939V271.423H690.342V271.215H812.117V316.738Z" fill="#FF8BE4"/>
<path d="M812.117 316.738V322.738C815.431 322.738 818.117 320.052 818.117 316.738H812.117ZM754.234 316.738V310.738C750.921 310.738 748.234 313.425 748.234 316.738H754.234ZM754.234 331.075V337.075C757.548 337.075 760.234 334.389 760.234 331.075H754.234ZM753.697 331.075V325.075C750.384 325.075 747.697 327.761 747.697 331.075H753.697ZM753.697 352.229V358.229C757.011 358.229 759.697 355.542 759.697 352.229H753.697ZM629.646 352.229H623.646C623.646 355.542 626.332 358.229 629.646 358.229V352.229ZM629.646 315.567H635.646C635.646 312.254 632.959 309.567 629.646 309.567V315.567ZM573.939 315.567H567.939C567.939 318.881 570.626 321.567 573.939 321.567V315.567ZM573.939 271.423V265.423C570.626 265.423 567.939 268.109 567.939 271.423H573.939ZM690.342 271.423V277.423C693.656 277.423 696.342 274.737 696.342 271.423H690.342ZM690.342 271.215V265.215C687.028 265.215 684.342 267.901 684.342 271.215H690.342ZM812.117 271.215H818.117C818.117 267.901 815.431 265.215 812.117 265.215V271.215ZM812.117 316.738V310.738H754.234V316.738V322.738H812.117V316.738ZM754.234 316.738H748.234V331.075H754.234H760.234V316.738H754.234ZM754.234 331.075V325.075H753.697V331.075V337.075H754.234V331.075ZM753.697 331.075H747.697V352.229H753.697H759.697V331.075H753.697ZM753.697 352.229V346.229H629.646V352.229V358.229H753.697V352.229ZM629.646 352.229H635.646V315.567H629.646H623.646V352.229H629.646ZM629.646 315.567V309.567H573.939V315.567V321.567H629.646V315.567ZM573.939 315.567H579.939V271.423H573.939H567.939V315.567H573.939ZM573.939 271.423V277.423H690.342V271.423V265.423H573.939V271.423ZM690.342 271.423H696.342V271.215H690.342H684.342V271.423H690.342ZM690.342 271.215V277.215H812.117V271.215V265.215H690.342V271.215ZM812.117 271.215H806.117V316.738H812.117H818.117V271.215H812.117Z" fill="#FF8BE4" mask="url(#path-15-inside-7_893_1634)"/>
<mask id="path-17-inside-8_893_1634" fill="white">
<path d="M1022.69 222.354H1091.3V262.959H975.085V291.664H816.164V262.959H786.762V222.354H863.773V200.65H1022.69V222.354Z"/>
</mask>
<path d="M1022.69 222.354H1091.3V262.959H975.085V291.664H816.164V262.959H786.762V222.354H863.773V200.65H1022.69V222.354Z" fill="#FFAD64"/>
<path d="M1022.69 222.354H1016.69C1016.69 225.668 1019.38 228.354 1022.69 228.354V222.354ZM1091.3 222.354H1097.3C1097.3 219.041 1094.62 216.354 1091.3 216.354V222.354ZM1091.3 262.959V268.959C1094.62 268.959 1097.3 266.273 1097.3 262.959H1091.3ZM975.085 262.959V256.959C971.771 256.959 969.085 259.645 969.085 262.959H975.085ZM975.085 291.664V297.664C978.399 297.664 981.085 294.978 981.085 291.664H975.085ZM816.164 291.664H810.164C810.164 294.978 812.85 297.664 816.164 297.664V291.664ZM816.164 262.959H822.164C822.164 259.645 819.478 256.959 816.164 256.959V262.959ZM786.762 262.959H780.762C780.762 266.273 783.448 268.959 786.762 268.959V262.959ZM786.762 222.354V216.354C783.448 216.354 780.762 219.041 780.762 222.354H786.762ZM863.773 222.354V228.354C867.087 228.354 869.773 225.668 869.773 222.354H863.773ZM863.773 200.65V194.65C860.46 194.65 857.773 197.337 857.773 200.65H863.773ZM1022.69 200.65H1028.69C1028.69 197.337 1026.01 194.65 1022.69 194.65V200.65ZM1022.69 222.354V228.354H1091.3V222.354V216.354H1022.69V222.354ZM1091.3 222.354H1085.3V262.959H1091.3H1097.3V222.354H1091.3ZM1091.3 262.959V256.959H975.085V262.959V268.959H1091.3V262.959ZM975.085 262.959H969.085V291.664H975.085H981.085V262.959H975.085ZM975.085 291.664V285.664H816.164V291.664V297.664H975.085V291.664ZM816.164 291.664H822.164V262.959H816.164H810.164V291.664H816.164ZM816.164 262.959V256.959H786.762V262.959V268.959H816.164V262.959ZM786.762 262.959H792.762V222.354H786.762H780.762V262.959H786.762ZM786.762 222.354V228.354H863.773V222.354V216.354H786.762V222.354ZM863.773 222.354H869.773V200.65H863.773H857.773V222.354H863.773ZM863.773 200.65V206.65H1022.69V200.65V194.65H863.773V200.65ZM1022.69 200.65H1016.69V222.354H1022.69H1028.69V200.65H1022.69Z" fill="#FFAD64" mask="url(#path-17-inside-8_893_1634)"/>
<mask id="path-19-inside-9_893_1634" fill="white">
<path d="M132.007 190.855H185.808V231.461H94.6768V260.166H-29.9365V231.461H-52.9922V190.855H7.39258V169.152H132.007V190.855Z"/>
</mask>
<path d="M132.007 190.855H185.808V231.461H94.6768V260.166H-29.9365V231.461H-52.9922V190.855H7.39258V169.152H132.007V190.855Z" fill="#FFAD64"/>
<path d="M132.007 190.855H126.007C126.007 194.169 128.693 196.855 132.007 196.855V190.855ZM185.808 190.855H191.808C191.808 187.542 189.121 184.855 185.808 184.855V190.855ZM185.808 231.461V237.461C189.121 237.461 191.808 234.775 191.808 231.461H185.808ZM94.6768 231.461V225.461C91.363 225.461 88.6768 228.147 88.6768 231.461H94.6768ZM94.6768 260.166V266.166C97.9905 266.166 100.677 263.48 100.677 260.166H94.6768ZM-29.9365 260.166H-35.9365C-35.9365 263.48 -33.2502 266.166 -29.9365 266.166V260.166ZM-29.9365 231.461H-23.9365C-23.9365 228.147 -26.6228 225.461 -29.9365 225.461V231.461ZM-52.9922 231.461H-58.9922C-58.9922 234.775 -56.3059 237.461 -52.9922 237.461V231.461ZM-52.9922 190.855V184.855C-56.3059 184.855 -58.9922 187.542 -58.9922 190.855H-52.9922ZM7.39258 190.855V196.855C10.7063 196.855 13.3926 194.169 13.3926 190.855H7.39258ZM7.39258 169.152V163.152C4.07887 163.152 1.39258 165.839 1.39258 169.152H7.39258ZM132.007 169.152H138.007C138.007 165.839 135.321 163.152 132.007 163.152V169.152ZM132.007 190.855V196.855H185.808V190.855V184.855H132.007V190.855ZM185.808 190.855H179.808V231.461H185.808H191.808V190.855H185.808ZM185.808 231.461V225.461H94.6768V231.461V237.461H185.808V231.461ZM94.6768 231.461H88.6768V260.166H94.6768H100.677V231.461H94.6768ZM94.6768 260.166V254.166H-29.9365V260.166V266.166H94.6768V260.166ZM-29.9365 260.166H-23.9365V231.461H-29.9365H-35.9365V260.166H-29.9365ZM-29.9365 231.461V225.461H-52.9922V231.461V237.461H-29.9365V231.461ZM-52.9922 231.461H-46.9922V190.855H-52.9922H-58.9922V231.461H-52.9922ZM-52.9922 190.855V196.855H7.39258V190.855V184.855H-52.9922V190.855ZM7.39258 190.855H13.3926V169.152H7.39258H1.39258V190.855H7.39258ZM7.39258 169.152V175.152H132.007V169.152V163.152H7.39258V169.152ZM132.007 169.152H126.007V190.855H132.007H138.007V169.152H132.007Z" fill="#FFAD64" mask="url(#path-19-inside-9_893_1634)"/>
<mask id="path-21-inside-10_893_1634" fill="white">
<path d="M960.026 251.547H1028.63V292.152H912.418V320.857H753.497V292.152H724.094V251.547H801.105V229.844H960.026V251.547Z"/>
</mask>
<path d="M960.026 251.547H1028.63V292.152H912.418V320.857H753.497V292.152H724.094V251.547H801.105V229.844H960.026V251.547Z" fill="#FFAD64"/>
<path d="M960.026 251.547H954.026C954.026 254.861 956.713 257.547 960.026 257.547V251.547ZM1028.63 251.547H1034.63C1034.63 248.233 1031.95 245.547 1028.63 245.547V251.547ZM1028.63 292.152V298.152C1031.95 298.152 1034.63 295.466 1034.63 292.152H1028.63ZM912.418 292.152V286.152C909.104 286.152 906.418 288.839 906.418 292.152H912.418ZM912.418 320.857V326.857C915.732 326.857 918.418 324.171 918.418 320.857H912.418ZM753.497 320.857H747.497C747.497 324.171 750.183 326.857 753.497 326.857V320.857ZM753.497 292.152H759.497C759.497 288.839 756.811 286.152 753.497 286.152V292.152ZM724.094 292.152H718.094C718.094 295.466 720.78 298.152 724.094 298.152V292.152ZM724.094 251.547V245.547C720.78 245.547 718.094 248.233 718.094 251.547H724.094ZM801.105 251.547V257.547C804.419 257.547 807.105 254.861 807.105 251.547H801.105ZM801.105 229.844V223.844C797.792 223.844 795.105 226.53 795.105 229.844H801.105ZM960.026 229.844H966.026C966.026 226.53 963.34 223.844 960.026 223.844V229.844ZM960.026 251.547V257.547H1028.63V251.547V245.547H960.026V251.547ZM1028.63 251.547H1022.63V292.152H1028.63H1034.63V251.547H1028.63ZM1028.63 292.152V286.152H912.418V292.152V298.152H1028.63V292.152ZM912.418 292.152H906.418V320.857H912.418H918.418V292.152H912.418ZM912.418 320.857V314.857H753.497V320.857V326.857H912.418V320.857ZM753.497 320.857H759.497V292.152H753.497H747.497V320.857H753.497ZM753.497 292.152V286.152H724.094V292.152V298.152H753.497V292.152ZM724.094 292.152H730.094V251.547H724.094H718.094V292.152H724.094ZM724.094 251.547V257.547H801.105V251.547V245.547H724.094V251.547ZM801.105 251.547H807.105V229.844H801.105H795.105V251.547H801.105ZM801.105 229.844V235.844H960.026V229.844V223.844H801.105V229.844ZM960.026 229.844H954.026V251.547H960.026H966.026V229.844H960.026Z" fill="#FFAD64" mask="url(#path-21-inside-10_893_1634)"/>
<mask id="path-23-inside-11_893_1634" fill="white">
<path d="M1207.78 167.969H1276.39V208.574H1160.17V237.279H1001.25V208.574H971.85V167.969H1048.86V146.266H1207.78V167.969Z"/>
</mask>
<path d="M1207.78 167.969H1276.39V208.574H1160.17V237.279H1001.25V208.574H971.85V167.969H1048.86V146.266H1207.78V167.969Z" fill="#FFAD64"/>
<path d="M1207.78 167.969H1201.78C1201.78 171.282 1204.47 173.969 1207.78 173.969V167.969ZM1276.39 167.969H1282.39C1282.39 164.655 1279.7 161.969 1276.39 161.969V167.969ZM1276.39 208.574V214.574C1279.7 214.574 1282.39 211.888 1282.39 208.574H1276.39ZM1160.17 208.574V202.574C1156.86 202.574 1154.17 205.261 1154.17 208.574H1160.17ZM1160.17 237.279V243.279C1163.49 243.279 1166.17 240.593 1166.17 237.279H1160.17ZM1001.25 237.279H995.252C995.252 240.593 997.938 243.279 1001.25 243.279V237.279ZM1001.25 208.574H1007.25C1007.25 205.261 1004.57 202.574 1001.25 202.574V208.574ZM971.85 208.574H965.85C965.85 211.888 968.536 214.574 971.85 214.574V208.574ZM971.85 167.969V161.969C968.536 161.969 965.85 164.655 965.85 167.969H971.85ZM1048.86 167.969V173.969C1052.18 173.969 1054.86 171.282 1054.86 167.969H1048.86ZM1048.86 146.266V140.266C1045.55 140.266 1042.86 142.952 1042.86 146.266H1048.86ZM1207.78 146.266H1213.78C1213.78 142.952 1211.1 140.266 1207.78 140.266V146.266ZM1207.78 167.969V173.969H1276.39V167.969V161.969H1207.78V167.969ZM1276.39 167.969H1270.39V208.574H1276.39H1282.39V167.969H1276.39ZM1276.39 208.574V202.574H1160.17V208.574V214.574H1276.39V208.574ZM1160.17 208.574H1154.17V237.279H1160.17H1166.17V208.574H1160.17ZM1160.17 237.279V231.279H1001.25V237.279V243.279H1160.17V237.279ZM1001.25 237.279H1007.25V208.574H1001.25H995.252V237.279H1001.25ZM1001.25 208.574V202.574H971.85V208.574V214.574H1001.25V208.574ZM971.85 208.574H977.85V167.969H971.85H965.85V208.574H971.85ZM971.85 167.969V173.969H1048.86V167.969V161.969H971.85V167.969ZM1048.86 167.969H1054.86V146.266H1048.86H1042.86V167.969H1048.86ZM1048.86 146.266V152.266H1207.78V146.266V140.266H1048.86V146.266ZM1207.78 146.266H1201.78V167.969H1207.78H1213.78V146.266H1207.78Z" fill="#FFAD64" mask="url(#path-23-inside-11_893_1634)"/>
<mask id="path-25-inside-12_893_1634" fill="white">
<path d="M647.6 237.49H570.591V245.099H599.993V265.265H686.974V292.327H528.282V276.624H441.072V254.34H411.67V222.814H488.679V205.965H647.6V237.49Z"/>
</mask>
<path d="M647.6 237.49H570.591V245.099H599.993V265.265H686.974V292.327H528.282V276.624H441.072V254.34H411.67V222.814H488.679V205.965H647.6V237.49Z" fill="#C3BEF8"/>
<path d="M647.6 237.49V243.49C650.913 243.49 653.6 240.804 653.6 237.49H647.6ZM570.591 237.49V231.49C567.277 231.49 564.591 234.177 564.591 237.49H570.591ZM570.591 245.099H564.591C564.591 248.412 567.277 251.099 570.591 251.099V245.099ZM599.993 245.099H605.993C605.993 241.785 603.307 239.099 599.993 239.099V245.099ZM599.993 265.265H593.993C593.993 268.578 596.679 271.265 599.993 271.265V265.265ZM686.974 265.265H692.974C692.974 261.951 690.287 259.265 686.974 259.265V265.265ZM686.974 292.327V298.327C690.287 298.327 692.974 295.641 692.974 292.327H686.974ZM528.282 292.327H522.282C522.282 295.641 524.969 298.327 528.282 298.327V292.327ZM528.282 276.624H534.282C534.282 273.31 531.596 270.624 528.282 270.624V276.624ZM441.072 276.624H435.072C435.072 279.938 437.759 282.624 441.072 282.624V276.624ZM441.072 254.34H447.072C447.072 251.026 444.386 248.34 441.072 248.34V254.34ZM411.67 254.34H405.67C405.67 257.654 408.356 260.34 411.67 260.34V254.34ZM411.67 222.814V216.814C408.356 216.814 405.67 219.501 405.67 222.814H411.67ZM488.679 222.814V228.814C491.992 228.814 494.679 226.128 494.679 222.814H488.679ZM488.679 205.965V199.965C485.365 199.965 482.679 202.651 482.679 205.965H488.679ZM647.6 205.965H653.6C653.6 202.651 650.913 199.965 647.6 199.965V205.965ZM647.6 237.49V231.49H570.591V237.49V243.49H647.6V237.49ZM570.591 237.49H564.591V245.099H570.591H576.591V237.49H570.591ZM570.591 245.099V251.099H599.993V245.099V239.099H570.591V245.099ZM599.993 245.099H593.993V265.265H599.993H605.993V245.099H599.993ZM599.993 265.265V271.265H686.974V265.265V259.265H599.993V265.265ZM686.974 265.265H680.974V292.327H686.974H692.974V265.265H686.974ZM686.974 292.327V286.327H528.282V292.327V298.327H686.974V292.327ZM528.282 292.327H534.282V276.624H528.282H522.282V292.327H528.282ZM528.282 276.624V270.624H441.072V276.624V282.624H528.282V276.624ZM441.072 276.624H447.072V254.34H441.072H435.072V276.624H441.072ZM441.072 254.34V248.34H411.67V254.34V260.34H441.072V254.34ZM411.67 254.34H417.67V222.814H411.67H405.67V254.34H411.67ZM411.67 222.814V228.814H488.679V222.814V216.814H411.67V222.814ZM488.679 222.814H494.679V205.965H488.679H482.679V222.814H488.679ZM488.679 205.965V211.965H647.6V205.965V199.965H488.679V205.965ZM647.6 205.965H641.6V237.49H647.6H653.6V205.965H647.6Z" fill="#C3BEF8" mask="url(#path-25-inside-12_893_1634)"/>
<mask id="path-27-inside-13_893_1634" fill="white">
<path d="M681.429 300.297H604.418V310.098H633.82V336.074H720.801V370.931H562.109V350.703H474.899V322H445.496V281.395H522.508V259.691H681.429V300.297Z"/>
</mask>
<path d="M681.429 300.297H604.418V310.098H633.82V336.074H720.801V370.931H562.109V350.703H474.899V322H445.496V281.395H522.508V259.691H681.429V300.297Z" fill="#C3BEF8"/>
<path d="M681.429 300.297V306.297C684.742 306.297 687.429 303.611 687.429 300.297H681.429ZM604.418 300.297V294.297C601.104 294.297 598.418 296.983 598.418 300.297H604.418ZM604.418 310.098H598.418C598.418 313.411 601.104 316.098 604.418 316.098V310.098ZM633.82 310.098H639.82C639.82 306.784 637.134 304.098 633.82 304.098V310.098ZM633.82 336.074H627.82C627.82 339.388 630.507 342.074 633.82 342.074V336.074ZM720.801 336.074H726.801C726.801 332.761 724.114 330.074 720.801 330.074V336.074ZM720.801 370.931V376.931C724.114 376.931 726.801 374.244 726.801 370.931H720.801ZM562.109 370.931H556.109C556.109 374.244 558.796 376.931 562.109 376.931V370.931ZM562.109 350.703H568.109C568.109 347.389 565.423 344.703 562.109 344.703V350.703ZM474.899 350.703H468.899C468.899 354.017 471.586 356.703 474.899 356.703V350.703ZM474.899 322H480.899C480.899 318.686 478.213 316 474.899 316V322ZM445.496 322H439.496C439.496 325.314 442.182 328 445.496 328V322ZM445.496 281.395V275.395C442.182 275.395 439.496 278.081 439.496 281.395H445.496ZM522.508 281.395V287.395C525.822 287.395 528.508 284.708 528.508 281.395H522.508ZM522.508 259.691V253.691C519.194 253.691 516.508 256.378 516.508 259.691H522.508ZM681.429 259.691H687.429C687.429 256.378 684.742 253.691 681.429 253.691V259.691ZM681.429 300.297V294.297H604.418V300.297V306.297H681.429V300.297ZM604.418 300.297H598.418V310.098H604.418H610.418V300.297H604.418ZM604.418 310.098V316.098H633.82V310.098V304.098H604.418V310.098ZM633.82 310.098H627.82V336.074H633.82H639.82V310.098H633.82ZM633.82 336.074V342.074H720.801V336.074V330.074H633.82V336.074ZM720.801 336.074H714.801V370.931H720.801H726.801V336.074H720.801ZM720.801 370.931V364.931H562.109V370.931V376.931H720.801V370.931ZM562.109 370.931H568.109V350.703H562.109H556.109V370.931H562.109ZM562.109 350.703V344.703H474.899V350.703V356.703H562.109V350.703ZM474.899 350.703H480.899V322H474.899H468.899V350.703H474.899ZM474.899 322V316H445.496V322V328H474.899V322ZM445.496 322H451.496V281.395H445.496H439.496V322H445.496ZM445.496 281.395V287.395H522.508V281.395V275.395H445.496V281.395ZM522.508 281.395H528.508V259.691H522.508H516.508V281.395H522.508ZM522.508 259.691V265.691H681.429V259.691V253.691H522.508V259.691ZM681.429 259.691H675.429V300.297H681.429H687.429V259.691H681.429Z" fill="#C3BEF8" mask="url(#path-27-inside-13_893_1634)"/>
<mask id="path-29-inside-14_893_1634" fill="white">
<path d="M534.175 286.367H457.163V296.168H486.565V322.144H573.546V357.001H414.854V336.773H327.645V308.07H298.242V267.465H375.253V245.762H534.175V286.367Z"/>
</mask>
<path d="M534.175 286.367H457.163V296.168H486.565V322.144H573.546V357.001H414.854V336.773H327.645V308.07H298.242V267.465H375.253V245.762H534.175V286.367Z" fill="#C3BEF8"/>
<path d="M534.175 286.367V292.367C537.489 292.367 540.175 289.681 540.175 286.367H534.175ZM457.163 286.367V280.367C453.849 280.367 451.163 283.053 451.163 286.367H457.163ZM457.163 296.168H451.163C451.163 299.482 453.849 302.168 457.163 302.168V296.168ZM486.565 296.168H492.565C492.565 292.854 489.879 290.168 486.565 290.168V296.168ZM486.565 322.144H480.565C480.565 325.457 483.252 328.144 486.565 328.144V322.144ZM573.546 322.144H579.546C579.546 318.83 576.86 316.144 573.546 316.144V322.144ZM573.546 357.001V363.001C576.86 363.001 579.546 360.315 579.546 357.001H573.546ZM414.854 357.001H408.854C408.854 360.315 411.541 363.001 414.854 363.001V357.001ZM414.854 336.773H420.854C420.854 333.46 418.168 330.773 414.854 330.773V336.773ZM327.645 336.773H321.645C321.645 340.087 324.331 342.773 327.645 342.773V336.773ZM327.645 308.07H333.645C333.645 304.757 330.958 302.07 327.645 302.07V308.07ZM298.242 308.07H292.242C292.242 311.384 294.928 314.07 298.242 314.07V308.07ZM298.242 267.465V261.465C294.928 261.465 292.242 264.151 292.242 267.465H298.242ZM375.253 267.465V273.465C378.567 273.465 381.253 270.779 381.253 267.465H375.253ZM375.253 245.762V239.762C371.939 239.762 369.253 242.448 369.253 245.762H375.253ZM534.175 245.762H540.175C540.175 242.448 537.489 239.762 534.175 239.762V245.762ZM534.175 286.367V280.367H457.163V286.367V292.367H534.175V286.367ZM457.163 286.367H451.163V296.168H457.163H463.163V286.367H457.163ZM457.163 296.168V302.168H486.565V296.168V290.168H457.163V296.168ZM486.565 296.168H480.565V322.144H486.565H492.565V296.168H486.565ZM486.565 322.144V328.144H573.546V322.144V316.144H486.565V322.144ZM573.546 322.144H567.546V357.001H573.546H579.546V322.144H573.546ZM573.546 357.001V351.001H414.854V357.001V363.001H573.546V357.001ZM414.854 357.001H420.854V336.773H414.854H408.854V357.001H414.854ZM414.854 336.773V330.773H327.645V336.773V342.773H414.854V336.773ZM327.645 336.773H333.645V308.07H327.645H321.645V336.773H327.645ZM327.645 308.07V302.07H298.242V308.07V314.07H327.645V308.07ZM298.242 308.07H304.242V267.465H298.242H292.242V308.07H298.242ZM298.242 267.465V273.465H375.253V267.465V261.465H298.242V267.465ZM375.253 267.465H381.253V245.762H375.253H369.253V267.465H375.253ZM375.253 245.762V251.762H534.175V245.762V239.762H375.253V245.762ZM534.175 245.762H528.175V286.367H534.175H540.175V245.762H534.175Z" fill="#C3BEF8" mask="url(#path-29-inside-14_893_1634)"/>
<mask id="path-31-inside-15_893_1634" fill="white">
<path d="M197.862 121.203H120.852V131.004H150.254V156.978H237.234V191.835H78.543V171.609H-8.66699V142.906H-38.0703V102.301H38.9414V80.5977H197.862V121.203Z"/>
</mask>
<path d="M197.862 121.203H120.852V131.004H150.254V156.978H237.234V191.835H78.543V171.609H-8.66699V142.906H-38.0703V102.301H38.9414V80.5977H197.862V121.203Z" fill="#C3BEF8"/>
<path d="M197.862 121.203V127.203C201.176 127.203 203.862 124.517 203.862 121.203H197.862ZM120.852 121.203V115.203C117.538 115.203 114.852 117.889 114.852 121.203H120.852ZM120.852 131.004H114.852C114.852 134.318 117.538 137.004 120.852 137.004V131.004ZM150.254 131.004H156.254C156.254 127.69 153.568 125.004 150.254 125.004V131.004ZM150.254 156.978H144.254C144.254 160.291 146.94 162.978 150.254 162.978V156.978ZM237.234 156.978H243.234C243.234 153.664 240.548 150.978 237.234 150.978V156.978ZM237.234 191.835V197.835C240.548 197.835 243.234 195.149 243.234 191.835H237.234ZM78.543 191.835H72.543C72.543 195.149 75.2293 197.835 78.543 197.835V191.835ZM78.543 171.609H84.543C84.543 168.296 81.8567 165.609 78.543 165.609V171.609ZM-8.66699 171.609H-14.667C-14.667 174.923 -11.9807 177.609 -8.66699 177.609V171.609ZM-8.66699 142.906H-2.66699C-2.66699 139.593 -5.35328 136.906 -8.66699 136.906V142.906ZM-38.0703 142.906H-44.0703C-44.0703 146.22 -41.384 148.906 -38.0703 148.906V142.906ZM-38.0703 102.301V96.3008C-41.384 96.3008 -44.0703 98.9871 -44.0703 102.301H-38.0703ZM38.9414 102.301V108.301C42.2551 108.301 44.9414 105.614 44.9414 102.301H38.9414ZM38.9414 80.5977V74.5977C35.6277 74.5977 32.9414 77.2839 32.9414 80.5977H38.9414ZM197.862 80.5977H203.862C203.862 77.2839 201.176 74.5977 197.862 74.5977V80.5977ZM197.862 121.203V115.203H120.852V121.203V127.203H197.862V121.203ZM120.852 121.203H114.852V131.004H120.852H126.852V121.203H120.852ZM120.852 131.004V137.004H150.254V131.004V125.004H120.852V131.004ZM150.254 131.004H144.254V156.978H150.254H156.254V131.004H150.254ZM150.254 156.978V162.978H237.234V156.978V150.978H150.254V156.978ZM237.234 156.978H231.234V191.835H237.234H243.234V156.978H237.234ZM237.234 191.835V185.835H78.543V191.835V197.835H237.234V191.835ZM78.543 191.835H84.543V171.609H78.543H72.543V191.835H78.543ZM78.543 171.609V165.609H-8.66699V171.609V177.609H78.543V171.609ZM-8.66699 171.609H-2.66699V142.906H-8.66699H-14.667V171.609H-8.66699ZM-8.66699 142.906V136.906H-38.0703V142.906V148.906H-8.66699V142.906ZM-38.0703 142.906H-32.0703V102.301H-38.0703H-44.0703V142.906H-38.0703ZM-38.0703 102.301V108.301H38.9414V102.301V96.3008H-38.0703V102.301ZM38.9414 102.301H44.9414V80.5977H38.9414H32.9414V102.301H38.9414ZM38.9414 80.5977V86.5977H197.862V80.5977V74.5977H38.9414V80.5977ZM197.862 80.5977H191.862V121.203H197.862H203.862V80.5977H197.862Z" fill="#C3BEF8" mask="url(#path-31-inside-15_893_1634)"/>
<mask id="path-33-inside-16_893_1634" fill="white">
<path d="M442.635 272.217H365.624V285.086H395.026V319.193H482.007V364.963H323.315V338.403H236.105V300.713H206.703V247.396H283.714V218.898H442.635V272.217Z"/>
</mask>
<path d="M442.635 272.217H365.624V285.086H395.026V319.193H482.007V364.963H323.315V338.403H236.105V300.713H206.703V247.396H283.714V218.898H442.635V272.217Z" fill="#C3BEF8"/>
<path d="M442.635 272.217V278.217C445.948 278.217 448.635 275.531 448.635 272.217H442.635ZM365.624 272.217V266.217C362.31 266.217 359.624 268.903 359.624 272.217H365.624ZM365.624 285.086H359.624C359.624 288.4 362.31 291.086 365.624 291.086V285.086ZM395.026 285.086H401.026C401.026 281.772 398.34 279.086 395.026 279.086V285.086ZM395.026 319.193H389.026C389.026 322.507 391.713 325.193 395.026 325.193V319.193ZM482.007 319.193H488.007C488.007 315.88 485.321 313.193 482.007 313.193V319.193ZM482.007 364.963V370.963C485.321 370.963 488.007 368.277 488.007 364.963H482.007ZM323.315 364.963H317.315C317.315 368.277 320.002 370.963 323.315 370.963V364.963ZM323.315 338.403H329.315C329.315 335.09 326.629 332.403 323.315 332.403V338.403ZM236.105 338.403H230.105C230.105 341.717 232.792 344.403 236.105 344.403V338.403ZM236.105 300.713H242.105C242.105 297.399 239.419 294.713 236.105 294.713V300.713ZM206.703 300.713H200.703C200.703 304.027 203.389 306.713 206.703 306.713V300.713ZM206.703 247.396V241.396C203.389 241.396 200.703 244.082 200.703 247.396H206.703ZM283.714 247.396V253.396C287.028 253.396 289.714 250.709 289.714 247.396H283.714ZM283.714 218.898V212.898C280.4 212.898 277.714 215.585 277.714 218.898H283.714ZM442.635 218.898H448.635C448.635 215.585 445.948 212.898 442.635 212.898V218.898ZM442.635 272.217V266.217H365.624V272.217V278.217H442.635V272.217ZM365.624 272.217H359.624V285.086H365.624H371.624V272.217H365.624ZM365.624 285.086V291.086H395.026V285.086V279.086H365.624V285.086ZM395.026 285.086H389.026V319.193H395.026H401.026V285.086H395.026ZM395.026 319.193V325.193H482.007V319.193V313.193H395.026V319.193ZM482.007 319.193H476.007V364.963H482.007H488.007V319.193H482.007ZM482.007 364.963V358.963H323.315V364.963V370.963H482.007V364.963ZM323.315 364.963H329.315V338.403H323.315H317.315V364.963H323.315ZM323.315 338.403V332.403H236.105V338.403V344.403H323.315V338.403ZM236.105 338.403H242.105V300.713H236.105H230.105V338.403H236.105ZM236.105 300.713V294.713H206.703V300.713V306.713H236.105V300.713ZM206.703 300.713H212.703V247.396H206.703H200.703V300.713H206.703ZM206.703 247.396V253.396H283.714V247.396V241.396H206.703V247.396ZM283.714 247.396H289.714V218.898H283.714H277.714V247.396H283.714ZM283.714 218.898V224.898H442.635V218.898V212.898H283.714V218.898ZM442.635 218.898H436.635V272.217H442.635H448.635V218.898H442.635Z" fill="#C3BEF8" mask="url(#path-33-inside-16_893_1634)"/>
</g>
<path d="M320.039 85.6055H311.522V81.624L319.907 70.9189H323.651V82.6523H326.446V85.6055H323.651V89.6133H320.039V85.6055ZM314.476 82.6523H320.039V75.4805H319.986L314.476 82.5732V82.6523ZM350.941 75.8496V89.6133H347.566V81.4131C347.566 80.6748 347.575 80.1211 347.593 79.752C347.549 79.875 347.461 80.1211 347.329 80.4902C347.197 80.8594 347.092 81.1494 347.013 81.3604C346.907 81.6768 346.679 82.2744 346.327 83.1533L343.822 89.6133H339.814L337.336 83.1533C337.248 82.916 337.02 82.3096 336.65 81.334C336.624 81.2637 336.422 80.7188 336.044 79.6992L336.097 81.3867V89.6133H332.722V75.8496H338.021L340.368 81.8613C340.79 82.9863 341.036 83.6543 341.106 83.8652C341.344 84.5771 341.581 85.3418 341.818 86.1592C342.249 84.7529 342.75 83.3203 343.321 81.8613L345.642 75.8496H350.941ZM358.43 89.6133H353.473V75.8496H357.085V81.123C357.085 82.1602 357.076 82.916 357.059 83.3906C357.032 84.1025 357.006 84.8408 356.979 85.6055C357.472 84.6562 357.85 83.9531 358.113 83.4961C358.641 82.5469 359.036 81.8262 359.3 81.334L362.569 75.8496H367.5V89.6133H363.888V84.3135C363.888 83.3818 363.896 82.6699 363.914 82.1777C363.94 81.5186 363.967 80.7363 363.993 79.8311C363.536 80.7451 363.176 81.4395 362.912 81.9141C362.385 82.8633 361.972 83.5928 361.673 84.1025L358.43 89.6133ZM382.872 75.8496V89.6133H379.286V84.0762H373.644V89.6133H370.058V75.8496H373.644V81.2549H379.286V75.8496H382.872Z" fill="black"/>
<circle cx="292.363" cy="82.1133" r="10.5" stroke="black" stroke-width="4"/>
<path d="M292.363 75.1133L292.863 82.1133L298.363 80.1133" stroke="black" stroke-width="4"/>
<path d="M238.426 281.613C238.461 280.787 238.619 280.084 238.9 279.504C239.176 278.936 239.539 278.426 239.99 277.975C240.465 277.518 240.951 277.137 241.449 276.832C242.012 276.475 242.545 276.158 243.049 275.883C243.436 275.666 243.799 275.443 244.139 275.215C244.455 275.004 244.73 274.781 244.965 274.547C245.158 274.348 245.328 274.096 245.475 273.791C245.604 273.498 245.668 273.176 245.668 272.824C245.668 272.074 245.428 271.459 244.947 270.979C244.479 270.51 243.822 270.275 242.979 270.275C242.545 270.275 242.17 270.346 241.854 270.486C241.531 270.621 241.25 270.809 241.01 271.049C240.781 271.312 240.605 271.629 240.482 271.998C240.377 272.367 240.324 272.871 240.324 273.51H238.725C238.725 272.742 238.824 272.086 239.023 271.541C239.211 271.025 239.504 270.568 239.902 270.17C240.295 269.795 240.77 269.508 241.326 269.309C241.889 269.109 242.48 269.01 243.102 269.01C243.746 269.01 244.314 269.104 244.807 269.291C245.328 269.49 245.762 269.754 246.107 270.082C246.453 270.393 246.729 270.791 246.934 271.277C247.133 271.746 247.232 272.25 247.232 272.789C247.232 273.393 247.133 273.902 246.934 274.318C246.723 274.752 246.465 275.115 246.16 275.408C245.867 275.701 245.486 275.988 245.018 276.27C244.531 276.562 244.068 276.826 243.629 277.061C243.588 277.084 243.438 277.169 243.181 277.315C242.929 277.462 242.732 277.576 242.592 277.658C242.193 277.904 241.854 278.145 241.572 278.379C241.256 278.643 240.975 278.924 240.729 279.223C240.482 279.545 240.318 279.861 240.236 280.172H246.969V281.613H238.426ZM254.861 281.684C254.299 281.824 253.736 281.895 253.174 281.895C252.611 281.895 252.049 281.824 251.486 281.684C250.941 281.566 250.438 281.35 249.975 281.033C249.506 280.723 249.143 280.33 248.885 279.855C248.604 279.381 248.463 278.795 248.463 278.098C248.463 277.67 248.527 277.271 248.656 276.902C248.785 276.574 248.973 276.27 249.219 275.988C249.406 275.771 249.676 275.549 250.027 275.32C250.297 275.145 250.619 274.998 250.994 274.881V274.828C250.432 274.623 249.969 274.295 249.605 273.844C249.254 273.404 249.078 272.859 249.078 272.209C249.078 271.723 249.184 271.277 249.395 270.873C249.605 270.469 249.893 270.129 250.256 269.854C250.613 269.578 251.041 269.361 251.539 269.203C252.014 269.051 252.541 268.975 253.121 268.975C253.701 268.975 254.229 269.051 254.703 269.203C255.219 269.367 255.652 269.584 256.004 269.854C256.367 270.129 256.654 270.469 256.865 270.873C257.076 271.277 257.182 271.723 257.182 272.209C257.182 272.848 257.006 273.387 256.654 273.826C256.32 274.266 255.863 274.6 255.283 274.828V274.881C255.664 274.992 255.992 275.139 256.268 275.32C256.566 275.514 256.83 275.742 257.059 276.006C257.281 276.264 257.457 276.574 257.586 276.938C257.715 277.307 257.779 277.693 257.779 278.098C257.779 278.795 257.645 279.387 257.375 279.873C257.117 280.342 256.771 280.729 256.338 281.033C255.875 281.35 255.383 281.566 254.861 281.684ZM253.174 280.629C254.146 280.629 254.908 280.406 255.459 279.961C255.998 279.51 256.268 278.889 256.268 278.098C256.268 277.289 255.992 276.645 255.441 276.164C254.902 275.695 254.129 275.461 253.121 275.461C252.137 275.461 251.375 275.695 250.836 276.164C250.285 276.645 250.01 277.289 250.01 278.098C250.01 278.9 250.291 279.521 250.854 279.961C251.404 280.406 252.178 280.629 253.174 280.629ZM253.121 274.266C253.918 274.266 254.545 274.09 255.002 273.738C255.471 273.393 255.705 272.9 255.705 272.262C255.705 271.629 255.471 271.131 255.002 270.768C254.545 270.416 253.918 270.24 253.121 270.24C252.342 270.24 251.715 270.416 251.24 270.768C250.783 271.137 250.555 271.635 250.555 272.262C250.555 272.895 250.783 273.387 251.24 273.738C251.715 274.09 252.342 274.266 253.121 274.266ZM264.336 281.49C263.779 281.221 263.311 280.869 262.93 280.436C262.549 280.002 262.25 279.48 262.033 278.871C261.822 278.273 261.717 277.641 261.717 276.973C261.717 276.305 261.822 275.672 262.033 275.074C262.25 274.465 262.549 273.943 262.93 273.51C263.293 273.094 263.762 272.748 264.336 272.473C264.869 272.215 265.496 272.086 266.217 272.086C266.926 272.086 267.547 272.215 268.08 272.473C268.643 272.748 269.117 273.094 269.504 273.51C269.896 273.955 270.189 274.477 270.383 275.074C270.594 275.672 270.699 276.305 270.699 276.973C270.699 277.641 270.594 278.273 270.383 278.871C270.189 279.469 269.896 279.99 269.504 280.436C269.1 280.875 268.625 281.227 268.08 281.49C267.547 281.748 266.926 281.877 266.217 281.877C265.496 281.877 264.869 281.748 264.336 281.49ZM264.916 280.365C265.273 280.553 265.707 280.646 266.217 280.646C266.727 280.646 267.16 280.553 267.518 280.365C267.869 280.184 268.18 279.92 268.449 279.574C268.707 279.229 268.895 278.842 269.012 278.414C269.141 277.951 269.205 277.471 269.205 276.973C269.205 276.475 269.141 275.994 269.012 275.531C268.895 275.104 268.707 274.717 268.449 274.371C268.18 274.025 267.869 273.762 267.518 273.58C267.137 273.381 266.703 273.281 266.217 273.281C265.73 273.281 265.297 273.381 264.916 273.58C264.529 273.773 264.213 274.037 263.967 274.371C263.721 274.682 263.533 275.068 263.404 275.531C263.275 275.994 263.211 276.475 263.211 276.973C263.211 277.471 263.275 277.951 263.404 278.414C263.533 278.877 263.721 279.264 263.967 279.574C264.213 279.908 264.529 280.172 264.916 280.365ZM273.652 281.613H272.141V272.438H273.652V276.27H273.811L277.678 272.438H279.559L275.322 276.586L280.086 281.613H278.047L273.811 276.99H273.652V281.613ZM288.348 272.455V273.633H285.096V281.613H283.514V273.633H280.244V272.438L288.348 272.455ZM296.662 272.438V281.613H295.15V278.15H292.461L290.369 281.613H288.629L291.002 277.887C289.76 277.465 289.139 276.592 289.139 275.268C289.139 274.371 289.449 273.674 290.07 273.176C290.686 272.684 291.617 272.438 292.865 272.438H296.662ZM295.15 277.008V273.615H292.988C291.453 273.615 290.686 274.172 290.686 275.285V275.338C290.686 275.854 290.867 276.258 291.23 276.551C291.588 276.855 292.139 277.008 292.883 277.008H295.15ZM306.787 269.818C306.166 269.977 305.158 270.117 303.764 270.24C302.984 270.293 302.34 270.416 301.83 270.609C301.338 270.797 300.922 271.061 300.582 271.4C300.254 271.729 300.008 272.156 299.844 272.684C299.697 273.158 299.568 273.773 299.457 274.529H299.527C299.785 273.861 300.201 273.357 300.775 273.018C301.326 272.689 302.018 272.525 302.85 272.525C303.512 272.525 304.115 272.631 304.66 272.842C305.199 273.059 305.656 273.363 306.031 273.756C306.418 274.16 306.705 274.635 306.893 275.18C307.104 275.76 307.209 276.393 307.209 277.078C307.209 277.816 307.104 278.484 306.893 279.082C306.699 279.668 306.406 280.166 306.014 280.576C305.609 280.98 305.135 281.297 304.59 281.525C304.057 281.748 303.436 281.859 302.727 281.859C301.32 281.859 300.219 281.408 299.422 280.506C298.637 279.615 298.244 278.332 298.244 276.656C298.244 275.227 298.344 274.014 298.543 273.018C298.754 272.051 299.07 271.277 299.492 270.697C299.932 270.111 300.482 269.689 301.145 269.432C301.812 269.162 302.592 268.992 303.482 268.922C305.094 268.781 306.195 268.641 306.787 268.5V269.818ZM302.656 273.703C301.719 273.721 301.016 274.008 300.547 274.564C300.066 275.115 299.826 275.941 299.826 277.043C299.826 278.174 300.078 279.053 300.582 279.68C301.092 280.312 301.807 280.629 302.727 280.629C303.635 280.629 304.344 280.33 304.854 279.732C305.357 279.141 305.609 278.297 305.609 277.201C305.609 276.105 305.346 275.25 304.818 274.635C304.303 274.014 303.582 273.703 302.656 273.703ZM308.756 284.602V272.314H310.215V273.633H310.25C310.59 273.152 311 272.777 311.48 272.508C311.967 272.238 312.553 272.104 313.238 272.104C313.836 272.104 314.375 272.215 314.855 272.438C315.359 272.654 315.775 272.971 316.104 273.387C316.467 273.803 316.742 274.312 316.93 274.916C317.129 275.549 317.229 276.24 317.229 276.99C317.229 277.758 317.135 278.432 316.947 279.012C316.754 279.627 316.484 280.143 316.139 280.559C315.816 280.98 315.395 281.309 314.873 281.543C314.352 281.777 313.783 281.895 313.168 281.895C312.541 281.895 311.99 281.789 311.516 281.578C311.041 281.385 310.619 281.033 310.25 280.523H310.215V284.602H308.756ZM310.795 279.592C311.018 279.914 311.322 280.178 311.709 280.383C312.066 280.57 312.518 280.664 313.062 280.664C313.525 280.664 313.918 280.57 314.24 280.383C314.58 280.184 314.861 279.932 315.084 279.627C315.283 279.311 315.447 278.924 315.576 278.467C315.682 278.027 315.734 277.541 315.734 277.008C315.734 276.486 315.682 276.006 315.576 275.566C315.453 275.104 315.289 274.711 315.084 274.389C314.867 274.072 314.586 273.814 314.24 273.615C313.918 273.428 313.531 273.334 313.08 273.334C312.582 273.334 312.143 273.434 311.762 273.633C311.381 273.832 311.07 274.096 310.83 274.424C310.602 274.758 310.426 275.145 310.303 275.584C310.174 276.047 310.109 276.521 310.109 277.008C310.109 277.541 310.168 278.016 310.285 278.432C310.385 278.859 310.555 279.246 310.795 279.592ZM325.912 272.438V281.613H324.4V278.15H321.711L319.619 281.613H317.879L320.252 277.887C319.01 277.465 318.389 276.592 318.389 275.268C318.389 274.371 318.699 273.674 319.32 273.176C319.936 272.684 320.867 272.438 322.115 272.438H325.912ZM324.4 277.008V273.615H322.238C320.703 273.615 319.936 274.172 319.936 275.285V275.338C319.936 275.854 320.117 276.258 320.48 276.551C320.838 276.855 321.389 277.008 322.133 277.008H324.4ZM330.324 281.613C330.359 280.787 330.518 280.084 330.799 279.504C331.074 278.936 331.438 278.426 331.889 277.975C332.363 277.518 332.85 277.137 333.348 276.832C333.91 276.475 334.443 276.158 334.947 275.883C335.334 275.666 335.697 275.443 336.037 275.215C336.354 275.004 336.629 274.781 336.863 274.547C337.057 274.348 337.227 274.096 337.373 273.791C337.502 273.498 337.566 273.176 337.566 272.824C337.566 272.074 337.326 271.459 336.846 270.979C336.377 270.51 335.721 270.275 334.877 270.275C334.443 270.275 334.068 270.346 333.752 270.486C333.43 270.621 333.148 270.809 332.908 271.049C332.68 271.312 332.504 271.629 332.381 271.998C332.275 272.367 332.223 272.871 332.223 273.51H330.623C330.623 272.742 330.723 272.086 330.922 271.541C331.109 271.025 331.402 270.568 331.801 270.17C332.193 269.795 332.668 269.508 333.225 269.309C333.787 269.109 334.379 269.01 335 269.01C335.645 269.01 336.213 269.104 336.705 269.291C337.227 269.49 337.66 269.754 338.006 270.082C338.352 270.393 338.627 270.791 338.832 271.277C339.031 271.746 339.131 272.25 339.131 272.789C339.131 273.393 339.031 273.902 338.832 274.318C338.621 274.752 338.363 275.115 338.059 275.408C337.766 275.701 337.385 275.988 336.916 276.27C336.43 276.562 335.967 276.826 335.527 277.061C335.486 277.084 335.337 277.169 335.079 277.315C334.827 277.462 334.631 277.576 334.49 277.658C334.092 277.904 333.752 278.145 333.471 278.379C333.154 278.643 332.873 278.924 332.627 279.223C332.381 279.545 332.217 279.861 332.135 280.172H338.867V281.613H330.324ZM347.393 281.42C346.795 281.736 346.115 281.895 345.354 281.895C344.592 281.895 343.912 281.736 343.314 281.42C342.729 281.121 342.23 280.693 341.82 280.137C341.404 279.557 341.094 278.883 340.889 278.115C340.666 277.342 340.555 276.451 340.555 275.443C340.555 274.459 340.672 273.562 340.906 272.754C341.141 271.939 341.463 271.26 341.873 270.715C342.289 270.176 342.793 269.754 343.385 269.449C343.977 269.145 344.639 268.992 345.371 268.992C346.092 268.992 346.748 269.145 347.34 269.449C347.949 269.754 348.453 270.176 348.852 270.715C349.25 271.254 349.566 271.928 349.801 272.736C350.023 273.51 350.135 274.412 350.135 275.443C350.135 276.434 350.029 277.324 349.818 278.115C349.613 278.883 349.303 279.557 348.887 280.137C348.465 280.705 347.967 281.133 347.393 281.42ZM345.371 280.576C346.467 280.576 347.27 280.119 347.779 279.205C348.307 278.291 348.57 277.037 348.57 275.443C348.57 274.688 348.506 273.979 348.377 273.316C348.236 272.689 348.031 272.15 347.762 271.699C347.498 271.236 347.17 270.891 346.777 270.662C346.373 270.416 345.904 270.293 345.371 270.293C344.287 270.293 343.473 270.75 342.928 271.664C342.389 272.584 342.119 273.844 342.119 275.443C342.119 276.229 342.189 276.938 342.33 277.57C342.447 278.186 342.646 278.725 342.928 279.188C343.197 279.633 343.537 279.973 343.947 280.207C344.352 280.453 344.826 280.576 345.371 280.576ZM351.488 281.613C351.523 280.787 351.682 280.084 351.963 279.504C352.238 278.936 352.602 278.426 353.053 277.975C353.527 277.518 354.014 277.137 354.512 276.832C355.074 276.475 355.607 276.158 356.111 275.883C356.498 275.666 356.861 275.443 357.201 275.215C357.518 275.004 357.793 274.781 358.027 274.547C358.221 274.348 358.391 274.096 358.537 273.791C358.666 273.498 358.73 273.176 358.73 272.824C358.73 272.074 358.49 271.459 358.01 270.979C357.541 270.51 356.885 270.275 356.041 270.275C355.607 270.275 355.232 270.346 354.916 270.486C354.594 270.621 354.312 270.809 354.072 271.049C353.844 271.312 353.668 271.629 353.545 271.998C353.439 272.367 353.387 272.871 353.387 273.51H351.787C351.787 272.742 351.887 272.086 352.086 271.541C352.273 271.025 352.566 270.568 352.965 270.17C353.357 269.795 353.832 269.508 354.389 269.309C354.951 269.109 355.543 269.01 356.164 269.01C356.809 269.01 357.377 269.104 357.869 269.291C358.391 269.49 358.824 269.754 359.17 270.082C359.516 270.393 359.791 270.791 359.996 271.277C360.195 271.746 360.295 272.25 360.295 272.789C360.295 273.393 360.195 273.902 359.996 274.318C359.785 274.752 359.527 275.115 359.223 275.408C358.93 275.701 358.549 275.988 358.08 276.27C357.594 276.562 357.131 276.826 356.691 277.061C356.65 277.084 356.501 277.169 356.243 277.315C355.991 277.462 355.795 277.576 355.654 277.658C355.256 277.904 354.916 278.145 354.635 278.379C354.318 278.643 354.037 278.924 353.791 279.223C353.545 279.545 353.381 279.861 353.299 280.172H360.031V281.613H351.488ZM365.885 281.895C365.229 281.895 364.637 281.801 364.109 281.613C363.553 281.414 363.084 281.15 362.703 280.822C362.299 280.488 361.977 280.09 361.736 279.627C361.496 279.123 361.367 278.602 361.35 278.062H362.844C362.932 278.824 363.242 279.428 363.775 279.873C364.285 280.33 364.982 280.559 365.867 280.559C366.758 280.559 367.461 280.283 367.977 279.732C368.504 279.188 368.768 278.467 368.768 277.57C368.768 277.096 368.691 276.68 368.539 276.322C368.375 275.947 368.17 275.643 367.924 275.408C367.666 275.15 367.355 274.957 366.992 274.828C366.641 274.699 366.266 274.635 365.867 274.635C365.193 274.635 364.631 274.752 364.18 274.986C363.723 275.232 363.359 275.543 363.09 275.918H361.631L363.002 269.291H369.576V270.645H364.057L363.248 274.354H363.283C363.646 274.008 364.057 273.75 364.514 273.58C364.977 273.393 365.51 273.299 366.113 273.299C366.641 273.299 367.168 273.398 367.695 273.598C368.217 273.797 368.662 274.072 369.031 274.424C369.436 274.811 369.746 275.262 369.963 275.777C370.197 276.334 370.314 276.943 370.314 277.605C370.314 278.273 370.203 278.865 369.98 279.381C369.74 279.938 369.43 280.389 369.049 280.734C368.615 281.127 368.146 281.414 367.643 281.596C367.08 281.795 366.494 281.895 365.885 281.895ZM376.238 281.613H374.727V272.438H380.721V273.633H376.238V281.613ZM383.463 281.613H381.705V279.838H383.463V281.613Z" fill="black"/>
<path d="M417.563 118.113L425.243 72.8733H436.883L445.943 96.9933L454.943 72.8733H466.583L474.263 118.113H462.563L458.663 92.0733L447.983 118.113H443.303L433.163 92.0733L429.263 118.113H417.563ZM507.453 82.8333H493.473V90.3933H506.673V100.353H493.473V108.153H507.453V118.113H481.713V72.8733H507.453V82.8333ZM533.091 82.8333V118.113H521.331V82.8333H511.671V72.8733H542.751V82.8333H533.091ZM557.832 95.4933C557.832 97.2933 558.172 98.9533 558.852 100.473C559.532 101.993 560.452 103.313 561.612 104.433C562.772 105.553 564.112 106.433 565.632 107.073C567.192 107.673 568.832 107.973 570.552 107.973C572.272 107.973 573.892 107.673 575.412 107.073C576.972 106.433 578.332 105.553 579.492 104.433C580.692 103.313 581.632 101.993 582.312 100.473C582.992 98.9533 583.332 97.2933 583.332 95.4933C583.332 93.6933 582.992 92.0333 582.312 90.5133C581.632 88.9933 580.692 87.6733 579.492 86.5533C578.332 85.4333 576.972 84.5733 575.412 83.9733C573.892 83.3333 572.272 83.0133 570.552 83.0133C568.832 83.0133 567.192 83.3333 565.632 83.9733C564.112 84.5733 562.772 85.4333 561.612 86.5533C560.452 87.6733 559.532 88.9933 558.852 90.5133C558.172 92.0333 557.832 93.6933 557.832 95.4933ZM545.532 95.4933C545.532 92.1333 546.152 89.0133 547.392 86.1333C548.632 83.2133 550.352 80.6733 552.552 78.5133C554.752 76.3533 557.372 74.6733 560.412 73.4733C563.492 72.2333 566.872 71.6133 570.552 71.6133C574.192 71.6133 577.552 72.2333 580.632 73.4733C583.712 74.6733 586.352 76.3533 588.552 78.5133C590.792 80.6733 592.532 83.2133 593.772 86.1333C595.012 89.0133 595.632 92.1333 595.632 95.4933C595.632 98.8533 595.012 101.993 593.772 104.913C592.532 107.793 590.792 110.313 588.552 112.473C586.352 114.633 583.712 116.333 580.632 117.573C577.552 118.773 574.192 119.373 570.552 119.373C566.872 119.373 563.492 118.773 560.412 117.573C557.372 116.333 554.752 114.633 552.552 112.473C550.352 110.313 548.632 107.793 547.392 104.913C546.152 101.993 545.532 98.8533 545.532 95.4933ZM633.72 82.8333H620.16V102.993C620.16 104.153 620.12 105.133 620.04 105.933C620 106.733 619.88 107.473 619.68 108.153H633.72V82.8333ZM604.74 108.153C606.26 108.153 607.24 107.713 607.68 106.833C608.16 105.913 608.4 104.593 608.4 102.873V72.8733H645.48V108.153H651.18V126.573H639.48V118.113H612.3V126.573H600.6V108.153H604.74ZM710.947 72.8733V118.113H699.187V72.8733H710.947ZM669.547 108.633H674.887C679.167 108.633 681.307 106.753 681.307 102.993C681.307 101.033 680.787 99.6133 679.747 98.7333C678.747 97.8133 677.107 97.3533 674.827 97.3533H669.547V108.633ZM678.307 87.9333C683.307 87.9333 687.107 89.2133 689.707 91.7733C692.307 94.3333 693.607 98.1133 693.607 103.113C693.607 105.393 693.267 107.453 692.587 109.293C691.907 111.133 690.907 112.713 689.587 114.033C688.267 115.313 686.627 116.313 684.667 117.033C682.707 117.753 680.447 118.113 677.887 118.113H657.787V72.8733H669.547V87.9333H678.307ZM429.863 175.493C429.863 177.293 430.203 178.953 430.883 180.473C431.563 181.993 432.483 183.313 433.643 184.433C434.803 185.553 436.143 186.433 437.663 187.073C439.223 187.673 440.863 187.973 442.583 187.973C444.303 187.973 445.923 187.673 447.443 187.073C449.003 186.433 450.363 185.553 451.523 184.433C452.723 183.313 453.663 181.993 454.343 180.473C455.023 178.953 455.363 177.293 455.363 175.493C455.363 173.693 455.023 172.033 454.343 170.513C453.663 168.993 452.723 167.673 451.523 166.553C450.363 165.433 449.003 164.573 447.443 163.973C445.923 163.333 444.303 163.013 442.583 163.013C440.863 163.013 439.223 163.333 437.663 163.973C436.143 164.573 434.803 165.433 433.643 166.553C432.483 167.673 431.563 168.993 430.883 170.513C430.203 172.033 429.863 173.693 429.863 175.493ZM417.563 175.493C417.563 172.133 418.183 169.013 419.423 166.133C420.663 163.213 422.383 160.673 424.583 158.513C426.783 156.353 429.403 154.673 432.443 153.473C435.523 152.233 438.903 151.613 442.583 151.613C446.223 151.613 449.583 152.233 452.663 153.473C455.743 154.673 458.383 156.353 460.583 158.513C462.823 160.673 464.563 163.213 465.803 166.133C467.043 169.013 467.663 172.133 467.663 175.493C467.663 178.853 467.043 181.993 465.803 184.913C464.563 187.793 462.823 190.313 460.583 192.473C458.383 194.633 455.743 196.333 452.663 197.573C449.583 198.773 446.223 199.373 442.583 199.373C438.903 199.373 435.523 198.773 432.443 197.573C429.403 196.333 426.783 194.633 424.583 192.473C422.383 190.313 420.663 187.793 419.423 184.913C418.183 181.993 417.563 178.853 417.563 175.493ZM486.852 173.633H490.752C495.072 173.633 497.232 171.753 497.232 167.993C497.232 164.233 495.072 162.353 490.752 162.353H486.852V173.633ZM486.852 198.113H475.092V152.873H493.812C498.892 152.873 502.772 154.193 505.452 156.833C508.172 159.473 509.532 163.193 509.532 167.993C509.532 172.793 508.172 176.513 505.452 179.153C502.772 181.793 498.892 183.113 493.812 183.113H486.852V198.113ZM515.756 198.113V152.873H541.616V162.833H527.516V198.113H515.756ZM572.231 181.313L566.951 166.253L561.671 181.313H572.231ZM575.351 190.253H558.551L555.851 198.113H543.311L560.531 152.873H573.371L590.591 198.113H578.051L575.351 190.253ZM607.555 170.333H624.535V152.873H636.295V198.113H624.535V179.453H607.555V198.113H595.795V152.873H607.555V170.333ZM657.535 152.873V180.593L679.195 152.873H690.955V198.113H679.195V170.453L657.535 198.113H645.775V152.873H657.535ZM700.683 152.033C701.763 151.873 702.863 151.753 703.983 151.673C705.143 151.593 706.303 151.553 707.463 151.553C713.343 151.553 717.883 152.653 721.083 154.853C724.323 157.053 725.943 160.093 725.943 163.973C725.943 166.213 725.363 168.173 724.203 169.853C723.043 171.533 721.203 172.953 718.683 174.113C721.723 175.033 723.983 176.433 725.463 178.313C726.983 180.193 727.743 182.513 727.743 185.273C727.743 187.433 727.283 189.393 726.363 191.153C725.443 192.913 724.103 194.433 722.343 195.713C720.623 196.993 718.503 197.973 715.983 198.653C713.503 199.373 710.663 199.733 707.463 199.733C706.063 199.733 704.823 199.693 703.743 199.613C702.703 199.533 701.683 199.413 700.683 199.253V187.793C701.563 187.993 702.403 188.133 703.203 188.213C704.043 188.293 704.963 188.333 705.963 188.333C708.923 188.333 711.183 187.913 712.743 187.073C714.303 186.233 715.083 185.113 715.083 183.713C715.083 182.993 714.923 182.393 714.603 181.913C714.323 181.433 713.823 181.053 713.103 180.773C712.423 180.453 711.483 180.233 710.283 180.113C709.123 179.953 707.683 179.873 705.963 179.873C705.803 179.873 705.523 179.873 705.123 179.873C704.723 179.873 704.363 179.893 704.043 179.933V170.633C704.763 170.633 705.643 170.633 706.683 170.633C707.763 170.593 708.783 170.473 709.743 170.273C710.743 170.033 711.603 169.633 712.323 169.073C713.043 168.513 713.403 167.673 713.403 166.553C713.403 165.393 712.783 164.513 711.543 163.913C710.343 163.273 708.603 162.953 706.323 162.953C705.363 162.953 704.443 162.993 703.563 163.073C702.683 163.153 701.723 163.293 700.683 163.493V152.033ZM760.668 181.313L755.388 166.253L750.108 181.313H760.668ZM763.788 190.253H746.988L744.288 198.113H731.748L748.968 152.873H761.808L779.028 198.113H766.488L763.788 190.253ZM830.432 188.153V206.573H818.732V198.113H784.232V152.873H795.992V188.153H812.972V152.873H824.732V188.153H830.432ZM848.785 152.873V180.593L870.445 152.873H882.205V198.113H870.445V170.453L848.785 198.113H837.025V152.873H848.785ZM903.453 152.873V180.593L925.113 152.873H936.873V198.113H925.113V170.453L903.453 198.113H891.693V152.873H903.453ZM431.363 268.993H433.943C436.903 268.993 439.023 268.613 440.303 267.853C441.583 267.093 442.223 265.873 442.223 264.193C442.223 262.513 441.583 261.293 440.303 260.533C439.023 259.773 436.903 259.393 433.943 259.393H431.363V268.993ZM431.363 250.633H433.523C437.203 250.633 439.043 249.173 439.043 246.253C439.043 243.333 437.203 241.873 433.523 241.873H431.363V250.633ZM419.603 232.873H437.123C441.283 232.873 444.443 233.873 446.603 235.873C448.763 237.873 449.843 240.753 449.843 244.513C449.843 246.793 449.423 248.693 448.583 250.213C447.783 251.693 446.543 252.953 444.863 253.993C446.543 254.313 447.963 254.813 449.123 255.493C450.323 256.133 451.283 256.933 452.003 257.893C452.763 258.853 453.303 259.933 453.623 261.133C453.943 262.333 454.103 263.613 454.103 264.973C454.103 267.093 453.723 268.973 452.963 270.613C452.243 272.253 451.203 273.633 449.843 274.753C448.523 275.873 446.903 276.713 444.983 277.273C443.063 277.833 440.903 278.113 438.503 278.113H419.603V232.873ZM472.906 253.633H476.806C481.126 253.633 483.286 251.753 483.286 247.993C483.286 244.233 481.126 242.353 476.806 242.353H472.906V253.633ZM472.906 278.113H461.146V232.873H479.866C484.946 232.873 488.826 234.193 491.506 236.833C494.226 239.473 495.586 243.193 495.586 247.993C495.586 252.793 494.226 256.513 491.506 259.153C488.826 261.793 484.946 263.113 479.866 263.113H472.906V278.113ZM527.55 242.833H513.57V250.393H526.77V260.353H513.57V268.153H527.55V278.113H501.81V232.873H527.55V242.833ZM533.989 278.113L541.669 232.873H553.309L562.369 256.993L571.369 232.873H583.009L590.689 278.113H578.989L575.089 252.073L564.409 278.113H559.729L549.589 252.073L545.689 278.113H533.989ZM623.878 242.833H609.898V250.393H623.098V260.353H609.898V268.153H623.878V278.113H598.138V232.873H623.878V242.833ZM644.117 250.333H661.097V232.873H672.857V278.113H661.097V259.453H644.117V278.113H632.357V232.873H644.117V250.333ZM694.098 232.873V260.593L715.758 232.873H727.518V278.113H715.758V250.453L694.098 278.113H682.338V232.873H694.098Z" fill="black"/>
</svg>
